<svg width="61" height="61" viewBox="0 0 61 61" fill="none" xmlns="http://www.w3.org/2000/svg">
<path fill-rule="evenodd" clip-rule="evenodd" d="M19.1661 25.4404C19.7184 25.4404 20.1661 25.8881 20.1661 26.4404C20.1661 31.9633 24.6433 36.4404 30.1661 36.4404C35.689 36.4404 40.1661 31.9633 40.1661 26.4404C40.1661 25.8881 40.6139 25.4404 41.1661 25.4404C41.7184 25.4404 42.1661 25.8881 42.1661 26.4404C42.1661 33.0678 36.7936 38.4404 30.1661 38.4404C23.5387 38.4404 18.1661 33.0678 18.1661 26.4404C18.1661 25.8881 18.6139 25.4404 19.1661 25.4404Z" fill="currentColor"/>
<path fill-rule="evenodd" clip-rule="evenodd" d="M30.1661 11.4404C24.6433 11.4404 20.1661 15.9176 20.1661 21.4404H18.1661C18.1661 14.813 23.5387 9.44043 30.1661 9.44043C36.7936 9.44043 42.1661 14.813 42.1661 21.4404H40.1661C40.1661 15.9176 35.689 11.4404 30.1661 11.4404Z" fill="currentColor"/>
<path fill-rule="evenodd" clip-rule="evenodd" d="M16.1661 21.4404C16.1661 20.8881 16.6139 20.4404 17.1661 20.4404H43.1661C43.7184 20.4404 44.1661 20.8881 44.1661 21.4404C44.1661 21.9927 43.7184 22.4404 43.1661 22.4404H17.1661C16.6139 22.4404 16.1661 21.9927 16.1661 21.4404Z" fill="currentColor"/>
<path fill-rule="evenodd" clip-rule="evenodd" d="M28.1661 14.4404C27.6139 14.4404 27.1661 13.9927 27.1661 13.4404L27.1661 7.44043C27.1661 6.88814 27.6139 6.44043 28.1661 6.44043C28.7184 6.44043 29.1661 6.88814 29.1661 7.44043L29.1661 13.4404C29.1661 13.9927 28.7184 14.4404 28.1661 14.4404Z" fill="currentColor"/>
<path fill-rule="evenodd" clip-rule="evenodd" d="M32.1661 14.4404C31.6139 14.4404 31.1661 13.9927 31.1661 13.4404L31.1661 7.44043C31.1661 6.88814 31.6139 6.44043 32.1661 6.44043C32.7184 6.44043 33.1661 6.88814 33.1661 7.44043L33.1661 13.4404C33.1661 13.9927 32.7184 14.4404 32.1661 14.4404Z" fill="currentColor"/>
<path fill-rule="evenodd" clip-rule="evenodd" d="M30.1661 38.4404C20.8752 38.4404 13.0997 44.9391 11.1417 53.6397C11.0205 54.1786 10.4854 54.5171 9.94656 54.3958C9.40775 54.2745 9.06925 53.7395 9.19051 53.2006C11.3494 43.6073 19.9196 36.4404 30.1661 36.4404C40.4201 36.4404 48.9954 43.6178 51.1465 53.2219C51.2672 53.7608 50.9281 54.2955 50.3892 54.4163C49.8503 54.537 49.3155 54.1979 49.1948 53.659C47.2439 44.9487 39.4639 38.4404 30.1661 38.4404Z" fill="currentColor"/>
<path fill-rule="evenodd" clip-rule="evenodd" d="M22.1661 53.4404L22.1661 38.4404L24.1661 38.4404L24.1661 53.4404C24.1661 53.9927 23.7184 54.4404 23.1661 54.4404C22.6139 54.4404 22.1661 53.9927 22.1661 53.4404Z" fill="currentColor"/>
<path fill-rule="evenodd" clip-rule="evenodd" d="M36.1661 53.4404L36.1661 38.4404L38.1661 38.4404L38.1661 53.4404C38.1661 53.9927 37.7184 54.4404 37.1661 54.4404C36.6139 54.4404 36.1661 53.9927 36.1661 53.4404Z" fill="currentColor"/>
</svg>
