<svg width="69" height="83" viewBox="0 0 69 83" fill="none" xmlns="http://www.w3.org/2000/svg">
<path d="M61.8783 81.0971V35.8965C61.8783 35.3442 61.4306 34.8965 60.8783 34.8965H42.4047C41.8524 34.8965 41.4047 35.3442 41.4047 35.8965V47.8591C41.4047 48.4114 40.957 48.8591 40.4047 48.8591H22.9391C22.3868 48.8591 21.9391 49.3068 21.9391 49.8591V64.0625C21.9391 64.6148 21.4914 65.0625 20.9391 65.0625H2C1.44772 65.0625 1 65.5102 1 66.0625V80.0971C1 80.6493 1.44772 81.0971 2 81.0971H51.2907" stroke="white" stroke-width="2" stroke-linecap="round"/>
<path d="M47.834 25.1574L34.3557 17.4459C33.6836 17.0614 33.6848 16.0918 34.3577 15.7088L51.9004 5.72594C52.567 5.34658 53.395 5.82804 53.395 6.59507L53.395 35.0973" stroke="white" stroke-width="2"/>
</svg>
