<svg width="61" height="61" viewBox="0 0 61 61" fill="none" xmlns="http://www.w3.org/2000/svg">
<path fill-rule="evenodd" clip-rule="evenodd" d="M15.9782 26.8483C16.0653 26.3736 16.4791 26.0288 16.9618 26.0288H30.3705C30.8532 26.0288 31.267 26.3736 31.3541 26.8483L36.1497 52.9847C36.2033 53.2766 36.1244 53.5773 35.9344 53.8053C35.7444 54.0333 35.463 54.1652 35.1661 54.1652H12.1661C11.8693 54.1652 11.5879 54.0333 11.3979 53.8053C11.2079 53.5773 11.129 53.2766 11.1826 52.9847L15.9782 26.8483ZM17.795 28.0288L13.3663 52.1652H33.966L29.5373 28.0288H17.795Z" fill="white"/>
<path fill-rule="evenodd" clip-rule="evenodd" d="M43.1663 33.2561H32.0298V31.2561H44.0045C44.4894 31.2561 44.9044 31.604 44.9891 32.0814L48.6962 52.9766C48.7479 53.2678 48.668 53.567 48.478 53.7937C48.288 54.0204 48.0074 54.1513 47.7116 54.1513H41.1661C40.6139 54.1513 40.1661 53.7036 40.1661 53.1513C40.1661 52.599 40.6139 52.1513 41.1661 52.1513H46.5186L43.1663 33.2561Z" fill="white"/>
<path fill-rule="evenodd" clip-rule="evenodd" d="M28.1353 16.5395C28.1353 10.8213 32.7399 6.16516 38.4303 6.16516C44.1332 6.16516 48.7116 11.0008 48.7116 16.5256C48.7116 21.6797 44.9771 25.9293 40.0817 26.7256C40.097 26.914 40.1061 27.1074 40.1061 27.3047C40.1061 29.3209 39.5258 31.1981 38.5508 32.7806L36.848 31.7315C37.6383 30.4488 38.1061 28.9325 38.1061 27.3047C38.1061 26.8915 38.0491 26.4724 37.9694 26.0166C37.9202 25.7355 37.9935 25.4467 38.1708 25.223C38.3481 24.9994 38.6125 24.8621 38.8975 24.8459C43.2506 24.5978 46.7116 20.9881 46.7116 16.5256C46.7116 12.0641 42.9879 8.16516 38.4303 8.16516C33.8604 8.16516 30.1353 11.9098 30.1353 16.5395C30.1353 16.9526 30.1923 17.3717 30.272 17.8275C30.3212 18.1087 30.2479 18.3974 30.0706 18.6211C29.8933 18.8448 29.6288 18.982 29.3439 18.9983C24.9908 19.2463 21.5298 22.8561 21.5298 27.3186H19.5298C19.5298 22.1645 23.2643 17.9148 28.1597 17.1186C28.1444 16.9301 28.1353 16.7367 28.1353 16.5395Z" fill="white"/>
</svg>
