<svg width="61" height="61" viewBox="0 0 61 61" fill="none" xmlns="http://www.w3.org/2000/svg">
<path fill-rule="evenodd" clip-rule="evenodd" d="M9.67397 33.614L19.1828 44.8678H35.0535C35.6058 44.8678 36.0535 45.3155 36.0535 45.8678C36.0535 46.4201 35.6058 46.8678 35.0535 46.8678H19.1828C18.594 46.8678 18.0351 46.6083 17.6551 46.1586L8.06911 34.8135C7.3835 34.0021 7.37916 32.5506 8.56821 31.9298C10.5998 30.8691 13.0286 31.0515 14.7807 32.8256L19.5597 37.2753H22.1662V36.2753C22.1662 34.0661 23.9571 32.2753 26.1662 32.2753H35.9392C37.6154 32.2753 39.236 32.8768 40.5064 33.9705L51.8873 43.769C52.7626 44.5226 52.8195 45.8589 52.0113 46.6841L45.0876 53.7531C44.3091 54.548 43.0314 54.5547 42.2446 53.7679L39.4591 50.9824C39.0686 50.5919 39.0686 49.9587 39.4591 49.5682C39.8496 49.1777 40.4828 49.1777 40.8733 49.5682L43.6588 52.3537L50.5824 45.2846L39.2014 35.4861C38.2941 34.7049 37.1365 34.2753 35.9392 34.2753H26.1662C25.0616 34.2753 24.1662 35.1707 24.1662 36.2753V37.2753H31.8083C32.3605 37.2753 32.8083 37.723 32.8083 38.2753C32.8083 38.8276 32.3605 39.2753 31.8083 39.2753H19.5597C19.0539 39.2753 18.5669 39.0837 18.1968 38.739L13.4017 34.2744C13.3905 34.2639 13.3795 34.2532 13.3688 34.2423C12.348 33.2001 10.9697 33.0148 9.67397 33.614Z" fill="white"/>
<path fill-rule="evenodd" clip-rule="evenodd" d="M33.4721 10.1356C34.4715 10.8021 35.1661 11.8739 35.1661 13.2969C35.1661 13.8492 34.7184 14.2969 34.1661 14.2969C33.6138 14.2969 33.1661 13.8492 33.1661 13.2969C33.1661 12.6073 32.8616 12.1325 32.3624 11.7995C31.8275 11.4427 31.0493 11.2468 30.2075 11.2786C29.3681 11.3104 28.5749 11.565 28.0184 11.9781C27.4867 12.3729 27.1734 12.9017 27.1734 13.5982C27.1734 14.4882 27.504 14.9806 28.0213 15.3677C28.6198 15.8154 29.4486 16.1079 30.4911 16.4759L30.5026 16.4799C31.4707 16.8216 32.64 17.2352 33.5459 17.9676C34.5251 18.7592 35.1661 19.8903 35.1661 21.5188C35.1661 23.923 33.1417 25.4659 31.1873 26.0163C29.2328 26.5668 26.6988 26.3165 25.3511 24.4214C25.0311 23.9713 25.1365 23.347 25.5866 23.0269C26.0367 22.7069 26.661 22.8123 26.9811 23.2624C27.6337 24.1802 29.0997 24.5265 30.6451 24.0912C32.1907 23.6559 33.1661 22.6308 33.1661 21.5188C33.1661 20.5071 32.808 19.9429 32.2885 19.5229C31.6958 19.0437 30.867 18.7295 29.8369 18.3659C29.7856 18.3478 29.7337 18.3296 29.6813 18.3111C28.7617 17.9877 27.6727 17.6046 26.8232 16.9691C25.8419 16.2349 25.1734 15.1677 25.1734 13.5982C25.1734 12.1831 25.8592 11.0902 26.8261 10.3723C27.7683 9.67287 28.9732 9.32386 30.1319 9.28004C31.2884 9.2363 32.5083 9.49279 33.4721 10.1356Z" fill="white"/>
<path fill-rule="evenodd" clip-rule="evenodd" d="M30.1661 6.27527C30.7184 6.27527 31.1661 6.72298 31.1661 7.27527V9.27527C31.1661 9.82755 30.7184 10.2753 30.1661 10.2753C29.6138 10.2753 29.1661 9.82755 29.1661 9.27527V7.27527C29.1661 6.72298 29.6138 6.27527 30.1661 6.27527Z" fill="white"/>
<path fill-rule="evenodd" clip-rule="evenodd" d="M30.1661 25.2753C30.7184 25.2753 31.1661 25.723 31.1661 26.2753V28.2753C31.1661 28.8276 30.7184 29.2753 30.1661 29.2753C29.6138 29.2753 29.1661 28.8276 29.1661 28.2753V26.2753C29.1661 25.723 29.6138 25.2753 30.1661 25.2753Z" fill="white"/>
</svg>
