<svg width="61" height="61" viewBox="0 0 61 61" fill="none" xmlns="http://www.w3.org/2000/svg">
<path fill-rule="evenodd" clip-rule="evenodd" d="M28.8873 10.3881C29.219 10.0702 29.7246 10.0193 30.1131 10.2646L50.7001 23.2646C51.0765 23.5023 51.2505 23.9603 51.1268 24.388C51.003 24.8157 50.6114 25.1101 50.1661 25.1101H11.1661C10.7807 25.1101 10.4295 24.8885 10.2635 24.5406C10.0976 24.1926 10.1464 23.7803 10.3891 23.4807L17.6282 14.5432C17.9338 14.166 18.4661 14.0627 18.8906 14.2983L22.6371 16.3779L28.8873 10.3881ZM29.7065 12.3732L23.4885 18.3321C23.1719 18.6355 22.6946 18.6973 22.3113 18.4845L18.654 16.4544L13.263 23.1101H46.7096L29.7065 12.3732Z" fill="white"/>
<path fill-rule="evenodd" clip-rule="evenodd" d="M17.1661 40.1101C14.957 40.1101 13.1661 41.901 13.1661 44.1101C13.1661 46.3192 14.957 48.1101 17.1661 48.1101C19.3753 48.1101 21.1661 46.3192 21.1661 44.1101C21.1661 41.901 19.3753 40.1101 17.1661 40.1101ZM11.1661 44.1101C11.1661 40.7964 13.8524 38.1101 17.1661 38.1101C20.4798 38.1101 23.1661 40.7964 23.1661 44.1101C23.1661 47.4238 20.4798 50.1101 17.1661 50.1101C13.8524 50.1101 11.1661 47.4238 11.1661 44.1101Z" fill="white"/>
<path fill-rule="evenodd" clip-rule="evenodd" d="M43.1661 40.1101C40.957 40.1101 39.1661 41.901 39.1661 44.1101C39.1661 46.3192 40.957 48.1101 43.1661 48.1101C45.3753 48.1101 47.1661 46.3192 47.1661 44.1101C47.1661 41.901 45.3753 40.1101 43.1661 40.1101ZM37.1661 44.1101C37.1661 40.7964 39.8524 38.1101 43.1661 38.1101C46.4798 38.1101 49.1661 40.7964 49.1661 44.1101C49.1661 47.4238 46.4798 50.1101 43.1661 50.1101C39.8524 50.1101 37.1661 47.4238 37.1661 44.1101Z" fill="white"/>
<path fill-rule="evenodd" clip-rule="evenodd" d="M6.32452 23.57C6.50844 23.2834 6.82559 23.1101 7.16614 23.1101H53.1661C53.5067 23.1101 53.8238 23.2834 54.0078 23.57C54.1917 23.8567 54.2171 24.2172 54.0752 24.5268L48.5752 36.5268C48.3451 37.0288 47.7515 37.2493 47.2495 37.0192C46.7474 36.7891 46.527 36.1955 46.7571 35.6935L51.6078 25.1101H8.7245L13.5752 35.6935C13.8053 36.1955 13.5849 36.7891 13.0828 37.0192C12.5807 37.2493 11.9872 37.0288 11.7571 36.5268L6.25708 24.5268C6.11518 24.2172 6.1406 23.8567 6.32452 23.57Z" fill="white"/>
<path fill-rule="evenodd" clip-rule="evenodd" d="M25.1661 44.1101C25.1661 43.5578 25.6139 43.1101 26.1661 43.1101H34.1661C34.7184 43.1101 35.1661 43.5578 35.1661 44.1101C35.1661 44.6624 34.7184 45.1101 34.1661 45.1101H26.1661C25.6139 45.1101 25.1661 44.6624 25.1661 44.1101Z" fill="white"/>
</svg>
