<svg width="61" height="61" viewBox="0 0 61 61" fill="none" xmlns="http://www.w3.org/2000/svg">
<path fill-rule="evenodd" clip-rule="evenodd" d="M8.16614 47.5505C8.16614 46.9982 8.61385 46.5505 9.16614 46.5505H51.1661C51.7184 46.5505 52.1661 46.9982 52.1661 47.5505V53.5505C52.1661 54.1028 51.7184 54.5505 51.1661 54.5505H9.16614C8.61385 54.5505 8.16614 54.1028 8.16614 53.5505V47.5505ZM10.1661 48.5505V52.5505H50.1661V48.5505H10.1661Z" fill="white"/>
<path fill-rule="evenodd" clip-rule="evenodd" d="M27.1661 25.5505C27.7184 25.5505 28.1661 25.9982 28.1661 26.5505V47.5505C28.1661 48.1028 27.7184 48.5505 27.1661 48.5505C26.6139 48.5505 26.1661 48.1028 26.1661 47.5505V26.5505C26.1661 25.9982 26.6139 25.5505 27.1661 25.5505Z" fill="white"/>
<path fill-rule="evenodd" clip-rule="evenodd" d="M33.1661 25.5505C33.7184 25.5505 34.1661 25.9982 34.1661 26.5505V47.5505C34.1661 48.1028 33.7184 48.5505 33.1661 48.5505C32.6139 48.5505 32.1661 48.1028 32.1661 47.5505V26.5505C32.1661 25.9982 32.6139 25.5505 33.1661 25.5505Z" fill="white"/>
<path fill-rule="evenodd" clip-rule="evenodd" d="M41.1661 25.5505C41.7184 25.5505 42.1661 25.9982 42.1661 26.5505V47.5505C42.1661 48.1028 41.7184 48.5505 41.1661 48.5505C40.6139 48.5505 40.1661 48.1028 40.1661 47.5505V26.5505C40.1661 25.9982 40.6139 25.5505 41.1661 25.5505Z" fill="white"/>
<path fill-rule="evenodd" clip-rule="evenodd" d="M13.1661 25.5505C13.7184 25.5505 14.1661 25.9982 14.1661 26.5505V47.5505C14.1661 48.1028 13.7184 48.5505 13.1661 48.5505C12.6139 48.5505 12.1661 48.1028 12.1661 47.5505V26.5505C12.1661 25.9982 12.6139 25.5505 13.1661 25.5505Z" fill="white"/>
<path fill-rule="evenodd" clip-rule="evenodd" d="M47.1661 25.5505C47.7184 25.5505 48.1661 25.9982 48.1661 26.5505V47.5505C48.1661 48.1028 47.7184 48.5505 47.1661 48.5505C46.6139 48.5505 46.1661 48.1028 46.1661 47.5505V26.5505C46.1661 25.9982 46.6139 25.5505 47.1661 25.5505Z" fill="white"/>
<path fill-rule="evenodd" clip-rule="evenodd" d="M19.1661 25.5505C19.7184 25.5505 20.1661 25.9982 20.1661 26.5505V47.5505C20.1661 48.1028 19.7184 48.5505 19.1661 48.5505C18.6139 48.5505 18.1661 48.1028 18.1661 47.5505V26.5505C18.1661 25.9982 18.6139 25.5505 19.1661 25.5505Z" fill="white"/>
<path fill-rule="evenodd" clip-rule="evenodd" d="M29.6114 6.71843C29.9473 6.49449 30.3849 6.49449 30.7208 6.71843L51.7208 20.7184C52.0874 20.9629 52.2509 21.4185 52.1232 21.8403C51.9955 22.262 51.6068 22.5505 51.1661 22.5505H9.16609C8.72543 22.5505 8.3367 22.262 8.209 21.8403C8.0813 21.4185 8.24474 20.9629 8.61139 20.7184L29.6114 6.71843ZM12.4689 20.5505H47.8633L30.1661 8.75233L12.4689 20.5505Z" fill="white"/>
<path fill-rule="evenodd" clip-rule="evenodd" d="M8.16614 26.5505C8.16614 25.9982 8.61385 25.5505 9.16614 25.5505H51.1661C51.7184 25.5505 52.1661 25.9982 52.1661 26.5505C52.1661 27.1028 51.7184 27.5505 51.1661 27.5505H9.16614C8.61385 27.5505 8.16614 27.1028 8.16614 26.5505Z" fill="white"/>
</svg>
