<svg width="61" height="60" viewBox="0 0 61 60" fill="none" xmlns="http://www.w3.org/2000/svg">
<g clip-path="url(#clip0_18798_120300)">
<path fill-rule="evenodd" clip-rule="evenodd" d="M30.1661 19C27.957 19 26.1661 20.7909 26.1661 23C26.1661 25.2091 27.957 27 30.1661 27C32.3753 27 34.1661 25.2091 34.1661 23C34.1661 20.7909 32.3753 19 30.1661 19ZM24.1661 23C24.1661 19.6863 26.8524 17 30.1661 17C33.4798 17 36.1661 19.6863 36.1661 23C36.1661 26.3137 33.4798 29 30.1661 29C26.8524 29 24.1661 26.3137 24.1661 23Z" fill="white"/>
<path fill-rule="evenodd" clip-rule="evenodd" d="M37.2372 14.5147C37.6277 14.1242 38.2609 14.1242 38.6514 14.5147C43.3377 19.201 43.3377 26.799 38.6514 31.4853C38.2609 31.8758 37.6277 31.8758 37.2372 31.4853C36.8467 31.0947 36.8467 30.4616 37.2372 30.071C41.1424 26.1658 41.1424 19.8342 37.2372 15.9289C36.8467 15.5384 36.8467 14.9052 37.2372 14.5147ZM23.0951 14.5147C23.4856 14.9052 23.4856 15.5384 23.0951 15.9289C19.1898 19.8342 19.1898 26.1658 23.0951 30.071C23.4856 30.4616 23.4856 31.0947 23.0951 31.4853C22.7045 31.8758 22.0714 31.8758 21.6809 31.4853C16.9946 26.799 16.9946 19.201 21.6809 14.5147C22.0714 14.1242 22.7045 14.1242 23.0951 14.5147Z" fill="white"/>
<path fill-rule="evenodd" clip-rule="evenodd" d="M19.3733 12.3934C13.5154 18.2513 13.5154 27.7487 19.3733 33.6066C19.7638 33.9971 19.7638 34.6303 19.3733 35.0208C18.9827 35.4113 18.3496 35.4113 17.959 35.0208C11.3201 28.3819 11.3201 17.6181 17.959 10.9792C18.3496 10.5887 18.9827 10.5887 19.3733 10.9792C19.7638 11.3697 19.7638 12.0029 19.3733 12.3934ZM41.4589 10.9792C41.8495 10.5887 42.4826 10.5887 42.8732 10.9792C49.5121 17.6181 49.5121 28.3819 42.8732 35.0208C42.4826 35.4113 41.8495 35.4113 41.4589 35.0208C41.0684 34.6303 41.0684 33.9971 41.4589 33.6066C47.3168 27.7487 47.3168 18.2513 41.4589 12.3934C41.0684 12.0029 41.0684 11.3697 41.4589 10.9792Z" fill="white"/>
<path fill-rule="evenodd" clip-rule="evenodd" d="M15.3732 8.20709C7.20327 16.377 7.20327 29.623 15.3732 37.7929C15.7637 38.1834 15.7637 38.8166 15.3732 39.2071C14.9826 39.5976 14.3495 39.5976 13.959 39.2071C5.00801 30.2562 5.00801 15.7438 13.959 6.79288C14.3495 6.40236 14.9826 6.40236 15.3732 6.79288C15.7637 7.18341 15.7637 7.81657 15.3732 8.20709ZM44.959 6.79288C45.3495 6.40236 45.9827 6.40236 46.3732 6.79288C55.3241 15.7438 55.3241 30.2562 46.3732 39.2071C45.9827 39.5976 45.3495 39.5976 44.959 39.2071C44.5685 38.8166 44.5685 38.1834 44.959 37.7929C53.1289 29.623 53.1289 16.377 44.959 8.20709C44.5685 7.81657 44.5685 7.1834 44.959 6.79288Z" fill="white"/>
<path fill-rule="evenodd" clip-rule="evenodd" d="M30.1661 27C30.7184 27 31.1661 27.4477 31.1661 28V53C31.1661 53.5523 30.7184 54 30.1661 54C29.6139 54 29.1661 53.5523 29.1661 53V28C29.1661 27.4477 29.6139 27 30.1661 27Z" fill="white"/>
</g>
<defs>
<clipPath id="clip0_18798_120300">
<rect width="60" height="60" fill="white" transform="translate(0.166138)"/>
</clipPath>
</defs>
</svg>
