<svg width="24" height="24" viewBox="-12 -13 48 46" fill="none" xmlns="http://www.w3.org/2000/svg">
<path d="M5.20238 1.42694C7.95375 3.49956 10.9136 7.70144 12 9.95631V15.9121C12 15.7853 11.9513 15.9286 11.8463 16.2372C11.2793 17.9082 9.0645 24.4298 4.00012 19.2162C1.3335 16.4712 2.568 13.7262 7.422 12.8974C4.64512 13.3714 1.52325 12.5881 0.66675 9.51681C0.42 8.63331 0 3.19131 0 2.45631C0 -1.22544 3.21712 -0.0681894 5.20238 1.42694ZM18.7976 1.42694C16.0462 3.49956 13.0864 7.70144 12 9.95631V15.9121C12 15.7853 12.0487 15.9286 12.1537 16.2372C12.7207 17.9082 14.9355 24.4298 19.9999 19.2162C22.6665 16.4712 21.432 13.7262 16.578 12.8974C19.3549 13.3714 22.4768 12.5881 23.3333 9.51681C23.58 8.63331 24 3.19131 24 2.45631C24 -1.22544 20.7832 -0.0681894 18.7976 1.42694Z" fill="white"/>
</svg>
