<svg xmlns="http://www.w3.org/2000/svg" width="52" height="52" viewBox="0 0 52 52">
  <g id="Group_13" data-name="Group 13" transform="translate(-738 -879)">
    <path id="mastodon-svgrepo-com" d="M24.126,9.551c0-4.99-3.27-6.452-3.27-6.452A20.4,20.4,0,0,0,13.437,2h-.072A20.4,20.4,0,0,0,5.947,3.1s-3.27,1.463-3.27,6.452c0,1.142-.022,2.508.014,3.957.118,4.88.895,9.689,5.406,10.883a17.017,17.017,0,0,0,5.3.587,10.528,10.528,0,0,0,4.072-.93l-.086-1.893a13.287,13.287,0,0,1-3.957.516c-2.075-.071-4.263-.223-4.6-2.77a5.2,5.2,0,0,1-.046-.714A26.771,26.771,0,0,0,13.4,19.8a27.23,27.23,0,0,0,4.56-.271c2.882-.344,5.391-2.119,5.706-3.742a38,38,0,0,0,.458-6.238ZM20.27,15.98H17.877V10.116c0-1.236-.52-1.863-1.561-1.863-1.15,0-1.726.744-1.726,2.216v3.21H12.21v-3.21c0-1.472-.576-2.216-1.727-2.216-1.041,0-1.561.628-1.561,1.863V15.98H6.529V9.939A4.321,4.321,0,0,1,7.476,7a3.283,3.283,0,0,1,2.562-1.1A3.085,3.085,0,0,1,12.8,7.311l.6,1,.6-1A3.085,3.085,0,0,1,16.762,5.9,3.284,3.284,0,0,1,19.324,7a4.327,4.327,0,0,1,.945,2.942Z" transform="translate(750.601 891.5)" fill="#fff"/>
    <rect id="Rectangle_6" data-name="Rectangle 6" width="52" height="52" transform="translate(738 879)" fill="none"/>
  </g>
</svg>
