<svg xmlns="http://www.w3.org/2000/svg" width="36.045" height="20" viewBox="0 0 36.045 20">
  <path id="soundcloud-icon" d="M0,225.365a1.163,1.163,0,0,0,.487,1.015,1.329,1.329,0,0,0,1.04.243,1.174,1.174,0,0,0,.73-.369,1.464,1.464,0,0,0,.21-.889V220.5a1.2,1.2,0,0,0-.361-.881,1.2,1.2,0,0,0-.881-.361,1.179,1.179,0,0,0-.864.361A1.2,1.2,0,0,0,0,220.5Zm3.859,2.08a.835.835,0,0,0,.344.73,1.49,1.49,0,0,0,.881.243,1.521,1.521,0,0,0,.9-.243.835.835,0,0,0,.344-.73V216.1a1.179,1.179,0,0,0-.361-.864,1.2,1.2,0,0,0-.881-.361A1.232,1.232,0,0,0,3.857,216.1Zm3.842.537a.828.828,0,0,0,.352.73,1.561,1.561,0,0,0,.906.243,1.49,1.49,0,0,0,.881-.243.835.835,0,0,0,.344-.73V217.63a1.227,1.227,0,0,0-.361-.889,1.166,1.166,0,0,0-.864-.369A1.26,1.26,0,0,0,7.7,217.631v10.352Zm3.859.05q0,.923,1.242.923t1.242-.923V211.254q0-1.409-.856-1.594a1.2,1.2,0,0,0-1.091.319,1.577,1.577,0,0,0-.537,1.275v16.778Zm3.926.487V210.266q0-.872.52-1.04a9.581,9.581,0,0,1,2.231-.267,9.947,9.947,0,0,1,9.95,9.111,5.665,5.665,0,1,1,2.2,10.889l-14.6-.017a.393.393,0,0,1-.227-.184.5.5,0,0,1-.076-.235Z" transform="translate(0.004 -208.959)"/>
</svg>
