<svg width="52" height="52" viewBox="0 0 52 52" xmlns="http://www.w3.org/2000/svg">
    <path d="M33.163 24.662c-3.895-2.31-10.408-2.554-14.12-1.399a1.142 1.142 0 0 1-1.4-.73 1.14 1.14 0 0 1 .73-1.398c4.321-1.277 11.443-1.035 15.946 1.642.549.304.73 1.034.427 1.58-.305.427-1.035.609-1.583.305m-.122 3.406c-.304.426-.851.608-1.278.305-3.286-2.007-8.277-2.615-12.112-1.4-.486.122-1.035-.121-1.157-.607-.12-.487.122-1.035.61-1.156 4.443-1.338 9.92-.67 13.694 1.642.365.183.548.79.243 1.216m-1.46 3.345c-.243.366-.67.487-1.035.244-2.86-1.764-6.452-2.129-10.712-1.156-.426.121-.791-.182-.913-.548-.122-.425.183-.79.548-.911 4.625-1.035 8.643-.608 11.808 1.338.425.182.486.669.304 1.033m-5.6-17.576C19.26 13.837 13.81 19.283 13.81 26c0 6.719 5.45 12.164 12.173 12.164 6.722 0 12.172-5.445 12.172-12.164 0-6.717-5.45-12.163-12.172-12.163" fill="#FFF" fill-rule="evenodd"/>
</svg>
