<svg xmlns="http://www.w3.org/2000/svg" width="23.175" height="20" viewBox="0 0 23.175 20">
  <path id="vimeo" d="M23.163,4.628Q23.007,8,18.437,13.873,13.71,20,10.438,20q-2.026,0-3.428-3.739L5.141,9.406Q4.1,5.667,2.907,5.667A7.143,7.143,0,0,0,1.09,6.758L0,5.355Q1.7,3.862,3.375,2.343,5.66.369,6.8.265q2.7-.26,3.324,3.688.675,4.259.935,5.3.779,3.532,1.714,3.532.727,0,2.181-2.285a8.965,8.965,0,0,0,1.558-3.48q.208-1.974-1.558-1.974a4.488,4.488,0,0,0-1.714.364Q14.957-.15,19.787.006q3.584.1,3.376,4.622Z" transform="translate(0.001 -0.002)"/>
</svg>
