<svg width="60" height="60" viewBox="0 0 60 60" fill="none" xmlns="http://www.w3.org/2000/svg">
<path fill-rule="evenodd" clip-rule="evenodd" d="M30 32C30.5523 32 31 32.4477 31 33L31 53C31 53.5523 30.5523 54 30 54C29.4477 54 29 53.5523 29 53L29 33C29 32.4477 29.4477 32 30 32Z" fill="black"/>
<path fill-rule="evenodd" clip-rule="evenodd" d="M30 6C30.5523 6 31 6.44772 31 7L31 20C31 20.5523 30.5523 21 30 21C29.4477 21 29 20.5523 29 20L29 7C29 6.44772 29.4477 6 30 6Z" fill="black"/>
<path fill-rule="evenodd" clip-rule="evenodd" d="M30 10C22.4809 10 15.98 14.3676 12.8995 20.7087C12.6581 21.2055 12.0598 21.4126 11.563 21.1712C11.0663 20.9299 10.8592 20.3315 11.1005 19.8348C14.5029 12.8312 21.6863 8 30 8C30.5523 8 31 8.44772 31 9C31 9.55228 30.5523 10 30 10ZM35.0459 9.61595C35.2114 9.08905 35.7727 8.79606 36.2997 8.96156C44.8187 11.6372 51 19.5954 51 29C51 29.5523 50.5523 30 50 30C49.4477 30 49 29.5523 49 29C49 20.494 43.4098 13.291 35.7003 10.8697C35.1734 10.7042 34.8805 10.1429 35.0459 9.61595ZM10 28C10.5523 28 11 28.4477 11 29C11 37.506 16.5902 44.709 24.2996 47.1303C24.8266 47.2958 25.1195 47.8571 24.954 48.384C24.7886 48.911 24.2273 49.2039 23.7004 49.0384C15.1813 46.3628 9 38.4046 9 29C9 28.4477 9.44772 28 10 28Z" fill="black"/>
<path fill-rule="evenodd" clip-rule="evenodd" d="M24.9164 14.8478C25.1375 15.3538 24.9065 15.9434 24.4004 16.1645C19.4537 18.3258 16 23.2607 16 29C16 29.5523 15.5523 30 15 30C14.4477 30 14 29.5523 14 29C14 22.4374 17.9508 16.7998 23.5996 14.3318C24.1057 14.1107 24.6952 14.3417 24.9164 14.8478ZM37.4618 15.9463C37.7675 15.4864 38.3883 15.3615 38.8482 15.6673C43.1568 18.532 46 23.4338 46 29C46 29.5523 45.5523 30 45 30C44.4477 30 44 29.5523 44 29C44 24.1314 41.5156 19.8426 37.7408 17.3327C37.2809 17.0269 37.156 16.4062 37.4618 15.9463ZM17.9284 37.9595C18.3489 37.6014 18.98 37.6519 19.3381 38.0724C21.0272 40.0555 23.2581 41.5606 25.7997 42.3591C26.3266 42.5246 26.6196 43.0859 26.454 43.6128C26.2885 44.1397 25.7272 44.4327 25.2003 44.2671C22.2919 43.3534 19.7434 41.6327 17.8155 39.3692C17.4574 38.9488 17.508 38.3176 17.9284 37.9595Z" fill="black"/>
<path fill-rule="evenodd" clip-rule="evenodd" d="M42.2632 37.8363C41.8427 37.4782 41.2116 37.5287 40.8535 37.9491C39.1644 39.9322 36.9334 41.4374 34.3918 42.2358C33.865 42.4014 33.572 42.9627 33.7375 43.4896C33.9031 44.0165 34.4644 44.3094 34.9913 44.1439C37.8996 43.2302 40.4481 41.5094 42.376 39.246C42.7341 38.8255 42.6836 38.1944 42.2632 37.8363Z" fill="black"/>
<path fill-rule="evenodd" clip-rule="evenodd" d="M9.18484 39.5792C8.86494 39.129 8.97056 38.5047 9.42076 38.1848L20.6791 30.1848C21.1293 29.8649 21.7536 29.9706 22.0735 30.4208C22.3934 30.871 22.2878 31.4953 21.8376 31.8152L10.5792 39.8152C10.129 40.1351 9.50475 40.0294 9.18484 39.5792Z" fill="black"/>
<path fill-rule="evenodd" clip-rule="evenodd" d="M51.0735 39.5792C51.3934 39.129 51.2877 38.5047 50.8375 38.1848L39.5792 30.1848C39.129 29.8649 38.5047 29.9706 38.1848 30.4208C37.8649 30.871 37.9705 31.4953 38.4207 31.8152L49.6791 39.8152C50.1293 40.1351 50.7536 40.0294 51.0735 39.5792Z" fill="black"/>
<path fill-rule="evenodd" clip-rule="evenodd" d="M30 26C28.3431 26 27 27.3431 27 29C27 30.6569 28.3431 32 30 32C31.6569 32 33 30.6569 33 29C33 27.3431 31.6569 26 30 26ZM25 29C25 26.2386 27.2386 24 30 24C32.7614 24 35 26.2386 35 29C35 31.7614 32.7614 34 30 34C27.2386 34 25 31.7614 25 29Z" fill="black"/>
<path fill-rule="evenodd" clip-rule="evenodd" d="M48.437 36.8288C47.9402 36.5874 47.3419 36.7945 47.1005 37.2913C44.8339 41.957 40.7136 45.5558 35.7004 47.1304C35.1734 47.2958 34.8805 47.8571 35.046 48.384C35.2114 48.911 35.7727 49.2039 36.2997 49.0384C41.844 47.2971 46.3951 43.3204 48.8995 38.1652C49.1408 37.6685 48.9337 37.0701 48.437 36.8288Z" fill="black"/>
</svg>
