<svg width="21" height="21" viewBox="0 0 21 21" fill="none" xmlns="http://www.w3.org/2000/svg">
<path d="M20.6094 3.27344C20.8438 3.50781 21 3.82031 21 4.17188V13C21 14.4062 19.8672 15.5 18.5 15.5H11C9.59375 15.5 8.5 14.4062 8.46094 13V3C8.46094 1.63281 9.55469 0.5 10.9609 0.5H17.3281C17.6797 0.5 17.9922 0.65625 18.2266 0.890625L20.6094 3.27344ZM19.125 13H19.0859V5.5H17.25C16.5469 5.5 16 4.95312 16 4.25L15.9609 2.41406H10.9609C10.6094 2.41406 10.3359 2.6875 10.3359 3.03906V13C10.3359 13.3516 10.6094 13.625 10.9609 13.625H18.5C18.8125 13.625 19.125 13.3516 19.125 13ZM11.625 18V16.75H13.5V18C13.5 19.4062 12.3672 20.5 11 20.5H3.5C2.09375 20.5 1 19.4062 1 18L0.960938 8C0.960938 6.63281 2.09375 5.5 3.46094 5.5H7.25V7.41406H3.46094C3.14844 7.41406 2.83594 7.6875 2.83594 8.03906V18C2.83594 18.3516 3.10938 18.625 3.46094 18.625H11C11.3125 18.625 11.625 18.3516 11.625 18Z" fill="currentColor"/>
</svg>
