<svg xmlns="http://www.w3.org/2000/svg" width="22" height="22" viewBox="-11 -11 44 44" fill="none">
    <path d="M0.621032 7.72143H5.11718V22.1602H0.621032V7.72143ZM2.86674 0.535156C4.29927 0.535156 5.46704 1.70293 5.46704 3.13545C5.46704 4.56798 4.29927 5.74047 2.86674 5.74047C1.42949 5.73575 0.261719 4.57271 0.261719 3.13545C0.261719 1.6982 1.42476 0.535156 2.86201 0.535156M7.92077 7.72143H12.2231V9.69292H12.2845C12.885 8.55825 14.3459 7.36211 16.5396 7.36211C21.083 7.36211 21.9245 10.3548 21.9245 14.2411V22.1602H17.4379V15.1346C17.4379 13.461 17.4095 11.3051 15.107 11.3051C12.8046 11.3051 12.4122 13.13 12.4122 15.0117V22.1554H7.93023V7.7167H7.9255L7.92077 7.72143Z" fill="currentColor"></path>
</svg>
