<svg width="41" height="46" viewBox="0 0 41 46" fill="none" xmlns="http://www.w3.org/2000/svg">
  <path d="M40.1134 22.2879C41.0639 21.1872 39.0822 19.9356 39.8473 18.8912C40.9135 16.6052 39.1868 14.7213 37.5279 13.4664C37.0353 11.5593 34.8839 10.9547 34.4296 8.99541C34.0313 8.92701 33.8478 8.63095 33.7026 8.28267C34.0411 8.01745 34.3324 7.68534 34.7984 7.53021C35.2879 7.40851 37.9767 6.07718 37.4087 4.95081C37.5225 4.97035 37.6078 4.985 37.6363 4.98989C37.6804 4.73291 38.4838 4.48875 38.4662 4.25056L38.6084 4.27499L38.5898 4.213C37.3949 4.0078 36.926 3.83909 36.353 3.59373C35.8037 3.3818 35.1454 3.12178 34.4616 3.18073C33.2353 2.6468 32.1219 2.30861 31.0741 2.09928L31.0417 1.94675C30.2255 1.92416 29.268 0.848486 28.4332 0.763908C27.9888 0.45243 27.6327 0.479461 27.1627 0.486949C26.9587 0.481303 26.8066 0.51398 26.631 0.513219L25.9728 0.2532L25.9581 0.338858C25.9581 0.338858 25.9532 0.367411 25.9483 0.395964C25.6167 0.280231 25.8835 0.943353 26.1563 1.40172L26.331 2.43114C25.6678 3.05213 26.1368 4.07331 26.7667 5.1809L27.4782 9.56534C27.3301 9.74567 27.125 9.91622 27.2516 10.2025L27.4223 10.2318C27.0996 10.2352 27.544 10.5467 27.6617 10.7139L27.647 10.7995C27.647 10.7995 27.5852 10.8183 27.4478 10.7653L27.3909 10.7555C27.1918 10.7213 27.4616 10.8559 27.6745 10.9806L27.7481 11.4048C27.7481 11.4048 27.7481 11.4048 27.7432 11.4333L27.7236 11.5475C27.7236 11.5475 27.6333 11.5614 27.3822 11.4889C27.392 11.4318 27.0643 11.4637 26.8377 11.2484C26.7523 11.2338 26.8269 11.4817 27.2154 11.6072C27.6274 11.7662 28.0012 11.9773 28.2671 11.9642L27.9688 11.8248C28.2533 11.8737 28.1111 11.8492 28.3387 11.8883C28.3632 11.7456 28.7801 11.876 28.9371 11.8147C28.9371 11.8147 28.9371 11.8147 28.9086 11.8098C28.5349 11.5987 28.7438 11.5758 28.7821 11.5235L28.9528 11.5529C29.2893 11.64 28.2621 11.1403 28.835 11.3857C28.7693 11.2568 28.7556 11.1663 28.7183 11.0423L30.9735 9.16616C30.9156 9.33259 30.8578 9.49903 30.7714 9.66057C30.7714 9.66057 30.7008 9.56026 30.6773 9.52682C30.7194 9.62225 30.8323 9.81799 30.7754 9.80822C30.7234 9.7699 30.6812 9.67447 30.6861 9.64591C30.2466 9.30588 30.6027 10.1313 30.2957 9.87281C30.2859 9.92992 30.4271 10.1306 30.5547 10.2406C30.282 10.6347 29.9759 11.0525 29.873 11.6521C29.821 11.6138 29.7219 11.5086 29.6041 11.3414C29.8269 12.2615 29.3001 12.2592 28.891 12.4241C29.0323 12.6247 29.0705 12.5725 29.1785 12.7968C29.4483 12.9313 29.0156 12.2103 29.356 12.4452L29.4737 12.6124C29.6444 12.6417 29.1392 12.1728 29.3756 12.331C29.5316 12.4459 29.5404 12.565 29.5738 12.5414C29.665 12.3513 29.926 12.3667 29.7199 11.861C30.0407 12.21 29.8867 11.7426 30.2124 12.0631C30.1231 11.9008 30.2134 11.8869 30.0201 11.648C30.6715 11.4365 30.8941 10.6517 31.4327 10.2444C31.0912 9.33335 32.0703 9.94242 32.1537 9.45702L32.2008 9.52389C32.1546 9.28081 32.2174 9.08583 32.3979 9.05804L32.2576 8.68121C32.2576 8.68121 32.4381 8.65341 32.5284 8.63952C32.4646 9.01071 32.6245 9.27333 32.7334 9.32142C32.6952 9.37364 32.6334 9.39242 32.6383 9.36387C32.292 10.1863 33.48 9.06749 32.9621 10.0368C33.5104 9.57243 33.1583 10.5996 33.9058 10.1694C33.8244 10.3024 33.7194 10.402 33.6145 10.5015C33.9824 10.9175 34.1972 11.5423 34.4229 11.9337C35.1685 11.856 34.7643 12.8448 35.6816 12.6202C35.713 12.949 35.61 13.5486 36.1123 13.6936L35.9985 13.6741C36.2526 14.0704 36.5872 14.51 37.1944 14.5555C36.494 15.0525 36.7402 15.1536 36.5774 15.4196C37.061 15.5026 37.2239 16.0891 37.6683 16.4006C37.3397 16.6087 37.9372 16.7113 37.4045 16.9138C38.876 17.725 38.7614 19.5866 38.0424 20.8741C38.3691 21.0183 38.9802 21.2115 39.3589 21.3941C39.302 21.3843 39.2118 21.3982 39.2167 21.3697C39.3197 21.6225 38.7537 21.8487 38.8567 22.1015C38.8567 22.1015 38.7998 22.0917 38.686 22.0722C38.9362 22.3209 38.2279 22.5226 38.6154 22.8243L38.4731 22.7999L38.6429 23.0054C38.4722 22.9761 38.1877 22.9273 38.2593 22.8514C37.8876 24.8452 38.0545 27.2842 36.8097 29.2457L36.692 29.0785L36.746 29.6169C36.746 29.6169 36.642 29.5402 36.6234 29.4782C36.0711 29.7949 36.2281 30.5861 35.8131 30.9558C35.7327 30.9126 35.6483 30.7217 35.5296 30.7307C35.6876 31.3458 34.6271 30.8697 35.3442 31.6395C35.2873 31.6298 35.1078 31.4814 35.0607 31.4145C34.637 32.5175 33.8395 33.4094 32.9105 34.0435C32.8792 35.4197 31.4695 35.4421 31.1399 36.6789L31.0222 36.5117C30.3552 37.8375 28.7689 38.0354 27.6918 38.8499C27.1591 39.0524 26.9198 39.4228 26.4342 39.6921L26.3214 39.4964C25.8633 40.7993 24.1661 39.5966 23.6463 40.9183L23.5864 40.5847C23.6404 41.123 22.9644 40.6248 23.3304 41.3931L23.0704 41.2015C22.7929 42.4766 21.7274 41.1766 21.1575 42.1076L21.1918 41.9077C20.9819 42.1068 20.772 42.3059 20.5591 42.1812C20.564 42.1527 20.5738 42.0955 20.5836 42.0384C19.685 41.4726 19.2043 42.5658 18.4539 42.6721L18.4323 42.2863C18.1969 42.8044 17.4532 42.5297 17.0481 42.8422L17.0775 42.6709L16.8529 42.9557L16.7646 42.6172C16.1613 42.7193 15.6561 43.1029 15.0763 43.2385L15.0449 42.9098C14.5809 43.5649 13.9001 43.0953 13.3527 43.3834L13.3723 43.2692C11.9008 43.3105 10.5921 43.9382 9.10985 44.2127C9.11475 44.1842 9.13437 44.07 9.13927 44.0414C9.06276 44.1458 8.99508 44.3694 8.91463 44.3262C8.89599 44.2642 8.93915 44.1834 8.94896 44.1263C8.62421 43.6296 8.04547 44.4415 7.81981 44.05C7.72466 44.0924 7.68543 44.3208 7.74136 44.5068C6.57789 44.6304 5.31043 44.6773 4.08909 44.9672C4.04199 44.9004 4.03806 44.7527 4.07238 44.5528C2.96683 45.3624 1.91614 44.8292 0.906667 44.5677C0.838991 44.7912 0.981239 44.8156 0.828214 45.0245C1.12548 45.3401 1.52372 44.5561 1.76802 45.0096L1.72879 45.238C1.90342 45.4149 1.82196 44.6955 2.00542 44.9915C2.06135 45.1775 1.95639 45.2771 1.98484 45.2819C2.45474 45.2745 2.93741 45.5337 3.46222 45.0359C3.52602 45.5172 3.97922 45.0953 4.10482 45.5578C4.25294 45.3775 4.36183 45.4256 4.44422 45.1164C6.10313 45.5189 7.81889 45.0786 9.518 45.0765C10.2684 44.1177 11.2779 45.2317 12.201 44.8024C12.1961 44.8309 12.1912 44.8595 12.1863 44.888C12.463 44.6416 12.9005 44.4816 13.2988 44.55L13.5764 44.1273C15.8612 44.6373 18.0164 43.6846 20.2678 43.3658C22.7762 42.9147 25.2317 42.6015 26.9336 40.3658C26.9758 40.4612 27.0042 40.4661 26.9611 40.5469C27.5143 40.054 28.2785 40.0383 28.7513 39.5022L28.7984 39.569C29.8461 38.0734 31.8365 37.7392 32.5437 36.0088C34.0691 34.801 35.5876 33.1217 36.5469 31.2876L36.7029 31.4026C37.3189 29.8622 38.9473 28.9073 39.2984 27.2039C40.3794 25.6846 39.2757 23.5844 39.9534 22.0253L40.1134 22.2879ZM35.1259 5.79337C35.1259 5.79337 35.1779 5.8317 35.2299 5.87002L35.0877 5.84559L35.0975 5.78849L35.1259 5.79337ZM35.0259 5.86437C35.2329 6.19387 35.0239 6.21678 34.8248 6.18258C34.7679 6.17281 34.711 6.16304 34.6825 6.15815L35.0259 5.86437ZM34.449 6.32382C34.449 6.32382 34.4392 6.38093 34.4343 6.40948L34.3872 6.3426L34.4157 6.34749L34.449 6.32382Z" fill="#1C2445"/>
</svg>

