<svg width="44" height="15" viewBox="0 0 44 15" fill="none" xmlns="http://www.w3.org/2000/svg">
  <path d="M9.9693 0.357671C10.4377 0.512197 10.8919 0.604582 11.1457 0.840818L10.7865 0.726732C11.0895 0.886358 10.9099 0.829314 11.1599 0.90296C11.0546 1.02511 11.5055 1.24901 11.6043 1.3899C11.1502 1.29752 11.2877 1.46224 11.2703 1.53162L11.4253 1.62697C11.7671 1.81043 10.524 1.47327 11.2037 1.67761C11.0454 1.71378 10.9646 1.79762 10.8134 1.86486L11.2771 5.06093C11.3683 4.87663 11.4207 4.66851 11.4801 4.49145C11.4485 4.49868 11.3535 4.52038 11.2902 4.53485C11.4168 4.50592 11.6313 4.42421 11.5926 4.40037C11.5293 4.41484 11.4343 4.43654 11.4026 4.44377C10.7901 4.38756 11.729 3.97688 11.2574 3.95387C11.3136 3.90833 11.5669 3.85046 11.7323 3.84536C11.8087 3.30481 11.8463 2.74043 12.2147 2.16585C12.1514 2.18032 11.986 2.18542 11.7573 2.20499C12.6536 1.60788 12.1988 1.22138 11.9657 0.784251C12.219 0.726378 12.2332 0.78852 12.4794 0.699576C12.7998 0.789826 11.8958 1.06175 12.3746 1.11583L12.6279 1.05796C12.6279 1.05796 12.0263 1.19541 12.3326 1.22352C12.5367 1.24226 12.6492 1.15118 12.6563 1.18225C12.5722 1.39761 12.8435 1.56447 12.2775 1.85727C12.8054 1.83474 12.3272 2.07477 12.8551 2.05224C12.6405 2.13395 12.718 2.18162 12.3698 2.2612C12.7547 2.9252 12.341 3.73898 12.5042 4.45362C11.5479 4.93368 12.8013 5.17039 12.5382 5.62282L12.6332 5.60112C12.4083 5.78328 12.3242 5.99864 12.4547 6.13229L12.0327 6.32678C12.0327 6.32678 12.1703 6.49151 12.2233 6.57749C12.2893 6.13739 12.5241 7.45685 12.5186 6.41193C12.6644 7.19595 12.7855 6.12209 12.9914 7.02316C12.9876 6.86057 12.9837 6.69798 12.9482 6.54262C13.2332 6.47752 13.493 6.15661 13.7463 6.09873C14.0291 6.75336 14.189 5.70335 14.504 6.64485C14.6198 6.42225 14.8195 5.98429 15.0701 6.35205L15.0417 6.22776C15.2775 6.23927 15.5521 6.27461 15.782 6.84326C15.7415 5.9371 15.8791 6.10182 15.9419 5.79324C16.1362 6.20654 16.4316 6.04098 16.7138 6.40151C16.7165 5.97588 16.9147 6.55176 16.8748 5.93971C17.6583 7.03574 18.4105 6.53694 19.0245 5.57931C19.1343 5.91386 19.3221 6.59019 19.4532 7.01795C19.439 6.95581 19.4177 6.8626 19.4177 6.8626C19.5411 6.96518 19.6032 6.36249 19.7583 6.45784C19.7583 6.45784 19.7441 6.3957 19.7157 6.27141C19.8746 6.52935 19.9013 5.77131 20.0956 6.1846L20.0601 6.02925L20.2048 6.22504C20.1622 6.03862 20.1545 5.71344 20.1054 5.79005C21.1677 5.48195 22.4119 6.40732 23.5129 6.12306L23.4703 5.93663L23.7138 6.27332C23.6925 6.1801 23.6783 6.11796 23.6712 6.08689C23.9169 5.70384 24.2417 6.25079 24.5125 6.12354C24.4912 6.03032 24.4486 5.8439 24.4518 5.71238C24.7063 6.24272 24.6827 4.97307 24.9066 6.09887C24.8924 6.03673 24.8989 5.77369 24.846 5.68771C25.452 6.00696 25.9973 5.91505 26.5388 5.66056C27.1285 6.6374 27.5312 5.62996 28.1029 6.38207L28.0532 6.16458C28.7935 6.78007 29.3338 5.93735 30.0096 5.9791C30.2487 5.85908 30.4955 6.06425 30.7559 6.03745L30.6991 5.78888C31.3379 6.68911 31.496 4.75677 32.149 5.71915L32.0709 5.37737C32.2233 5.89834 32.2816 5.13307 32.4558 6.04136L32.4869 5.74002C33.0487 6.88669 32.929 5.05053 33.4935 5.77157L33.4438 5.55407C33.5427 5.69496 33.7048 5.82138 33.7501 5.58218C33.743 5.55111 33.7288 5.48896 33.7146 5.42682C33.8395 4.51556 34.4008 5.36812 34.7349 5.2264L34.5793 4.83694C34.8757 5.25961 35.0542 4.72843 35.3255 4.89529L35.2829 4.70887L35.4347 4.93573L35.3495 4.56288C35.5957 4.47393 35.9516 4.71954 36.2437 4.6855L36.1656 4.34372C36.5538 4.8762 36.658 4.16583 36.9997 4.3493L36.9713 4.22501C37.562 3.8939 38.3404 4.23913 39.097 4.19703C39.0899 4.16596 39.037 4.07998 38.9911 4.02507C39.0828 4.13488 39.1888 4.30684 39.2133 4.26854C39.1991 4.2064 39.1462 4.12042 39.1074 4.09658C39.0042 3.49899 39.6462 4.26771 39.5785 3.82548C39.656 3.87315 39.769 4.07618 39.8116 4.26261C40.3815 4.1324 40.9831 3.99495 41.7119 4.12267C41.6906 4.02946 41.6305 3.91241 41.5246 3.74045C42.4549 4.31254 42.707 3.66645 43.0793 3.25446C43.2556 3.44302 43.1677 3.4958 43.3757 3.67712C43.3905 4.03338 42.7627 3.3268 42.8692 3.79287L43.0138 3.98867C42.9931 4.18956 42.6644 3.48002 42.7425 3.82181C42.7851 4.00823 42.9331 4.07251 42.9085 4.11082C42.6552 4.16869 42.5291 4.49173 42.0427 4.11247C42.2513 4.58791 41.8424 4.25633 41.9805 4.71516C41.8113 4.55767 41.7938 4.62705 41.5962 4.34527C40.9744 4.97772 39.9924 4.90787 39.268 5.23684C38.5168 4.42769 38.5546 5.75948 38.0086 5.55728L38.0299 5.65049C37.8219 5.46916 37.579 5.42659 37.4491 5.58705L37.1668 5.22652C36.4371 6.40675 35.194 6.06959 34.2732 6.70501C33.1585 7.22124 32.2065 8.158 30.8493 7.02959C30.8706 7.12281 30.8848 7.18495 30.8919 7.21602C30.5256 7.07086 30.2871 7.48499 29.9524 7.33259L29.9737 7.42581C29.0784 6.71496 28.359 7.79475 27.5057 6.97622C26.6192 7.17878 25.5634 7.22384 24.5988 7.08461L24.6414 7.27104C23.7996 6.94028 23.1965 8.09157 22.376 7.85403C21.6309 8.3839 20.653 6.87458 19.9118 7.56704C19.5161 8.60555 18.6534 6.57951 18.2965 7.64187C17.5078 9.29326 16.5065 8.41046 15.4562 7.60427C14.669 8.24182 13.5826 6.98616 12.8987 8.2213C12.8987 8.2213 12.8987 8.2213 12.8599 8.19746C12.9238 8.4771 12.9877 8.75674 13.1149 9.02192C13.4572 9.49949 14.6563 12.5602 13.3691 13.0505C13.4854 13.122 13.5312 13.1769 13.6017 13.1935C13.4297 13.4617 13.938 14.2282 13.7519 14.4342L13.8824 14.5679L13.8191 14.5824C12.6879 13.86 12.1491 13.6889 11.494 13.4462C10.8776 13.2274 10.145 12.9371 9.62311 12.4025C8.21083 11.9079 6.99562 11.4009 5.99495 10.8122L5.85084 10.9105C5.14931 10.3188 3.53074 10.5252 2.80465 9.97182C2.18505 9.88454 1.92409 9.61723 1.54685 9.27841C1.37761 9.12092 1.27879 8.98003 1.12375 8.88469L0.391133 8.59437L0.486116 8.57267C0.486116 8.57267 0.471918 8.51052 0.496481 8.47222C0.13017 8.32706 0.854548 7.99809 1.41025 7.80573L2.30983 7.0771C2.2164 6.08496 3.36984 5.59256 4.73455 5.14998L8.62817 2.06991C8.6347 1.80687 8.60247 1.51999 8.90489 1.38551L9.09159 1.47362C8.80607 1.24462 9.41857 1.30083 9.6473 1.28127L9.74228 1.25957C9.74228 1.25957 9.68222 1.14252 9.53428 1.07824L9.47096 1.09271C9.30882 0.966286 9.62217 1.02546 9.90386 1.09187L10.2658 0.780333C10.2658 0.780333 10.2658 0.780334 10.2974 0.7731L10.4099 0.682021C10.4099 0.682021 10.3181 0.572204 10.0294 0.474721C9.97314 0.520261 9.74384 0.245719 9.38846 0.294223C9.3355 0.208243 9.54294 0.0954617 9.948 0.264457L9.9693 0.357671ZM12.1417 9.86546L12.0467 9.88716L12.0609 9.94931C12.0925 9.94207 12.0854 9.911 12.1417 9.86546ZM12.2034 10.8648C12.2034 10.8648 12.2668 10.8504 12.3372 10.867L12.1892 10.8027L12.1963 10.8338L12.2034 10.8648ZM12.175 10.7406C12.5866 10.6465 12.442 10.4507 12.2482 10.3315C12.2094 10.3077 12.139 10.2911 12.0931 10.2362L12.1996 10.7022L12.175 10.7406Z" fill="#1C2445"/>
</svg>
