<svg width="33" height="33" viewBox="0 0 33 33" fill="none" xmlns="http://www.w3.org/2000/svg">
  <path d="M27.8098 8.67C27.4857 7.82354 27.0174 7.06712 26.4231 6.40976C25.8287 5.76141 25.1444 5.24812 24.3699 4.88792C23.5775 4.51872 22.731 4.33862 21.8666 4.33862C21.3533 4.33862 20.84 4.40166 20.3537 4.53673C19.8765 4.6628 19.4082 4.85191 18.967 5.09504C18.5347 5.33817 18.1205 5.63534 17.7513 5.97752C17.3821 6.31971 17.0399 6.70693 16.7427 7.13916L16.5086 7.46334L16.2835 7.13916C15.9863 6.71593 15.6441 6.31971 15.2749 5.97752C14.8967 5.63534 14.4915 5.33817 14.0593 5.09504C13.618 4.85191 13.1498 4.6628 12.6725 4.53673C12.1772 4.40166 11.673 4.33862 11.1597 4.33862C10.2952 4.33862 9.44874 4.52773 8.6563 4.88792C7.88187 5.24812 7.1975 5.7524 6.60317 6.40976C6.00884 7.05812 5.54059 7.82354 5.21641 8.67C4.87422 9.54349 4.70312 10.48 4.70312 11.4435C4.70312 12.29 4.87422 13.2085 5.2074 14.172C5.51357 15.0545 5.96382 16 6.54914 16.9726C7.53969 18.6205 8.92645 20.3854 10.6734 22.2135C11.5289 23.114 12.9517 24.5187 14.8157 26.0946C15.4821 26.6529 16.0224 27.0851 16.3465 27.3463C16.3465 27.3463 16.3555 27.3553 16.3645 27.3553C16.3645 27.3553 16.3735 27.3643 16.3825 27.3733C16.4726 27.4363 16.5176 27.4723 16.5176 27.4723C16.5176 27.4723 16.5626 27.4363 16.6527 27.3733C16.6527 27.3733 16.6617 27.3643 16.6707 27.3553C16.6707 27.3553 16.6797 27.3553 16.6887 27.3463C17.0219 27.0851 17.5622 26.6619 18.2196 26.0946C19.2461 25.2211 20.804 23.8434 22.3618 22.2135C24.1088 20.3854 25.4956 18.6205 26.4861 16.9726C27.0714 16 27.5217 15.0635 27.8278 14.172C28.161 13.2085 28.3321 12.29 28.3321 11.4435C28.3321 10.48 28.161 9.54349 27.8188 8.67M25.7387 15.2886C25.0903 16.5403 24.1538 17.8911 22.9652 19.3229C20.5338 22.2405 17.7513 24.6088 16.5086 25.6173C15.2569 24.6088 12.4834 22.2405 10.0521 19.3229C8.86341 17.9001 7.9269 16.5403 7.27854 15.2886C6.53113 13.8659 6.16193 12.5691 6.16193 11.4435C6.16193 8.33682 8.40416 5.81543 11.1507 5.81543C12.6905 5.81543 14.1133 6.60787 15.0768 7.98563L16.5176 10.0568L17.9584 7.98563C18.9129 6.60787 20.3447 5.81543 21.8756 5.81543C24.6221 5.81543 26.8643 8.34583 26.8643 11.4435C26.8643 12.5691 26.4861 13.8569 25.7477 15.2886" fill="#EBEB00"/>
  <path d="M29.5541 3.44698C28.5816 2.40241 27.4379 1.58296 26.1682 1.00664C24.8265 0.394303 23.4037 0.0881348 21.9269 0.0881348C20.225 0.0881348 18.523 0.520372 17.0192 1.33982C16.8481 1.43888 16.668 1.53793 16.4969 1.64599C16.3258 1.53793 16.1547 1.43888 15.9746 1.33982C14.4708 0.520372 12.7689 0.0881348 11.0669 0.0881348C9.59911 0.0881348 8.16733 0.394303 6.82559 1.00664C5.54689 1.58296 4.41226 2.41141 3.43973 3.44698C1.48565 5.53613 0.414062 8.30065 0.414062 11.2273C0.414062 13.6136 1.25152 16.18 2.89943 18.8635C4.06107 20.7545 5.65494 22.7446 7.62703 24.7707C10.8778 28.1115 14.1106 30.4708 14.2457 30.5699L16.4969 32.2088L18.7481 30.5699C18.8832 30.4708 22.116 28.1115 25.3668 24.7707C27.3389 22.7446 28.9327 20.7545 30.0944 18.8635C31.7423 16.189 32.5798 13.6226 32.5798 11.2273C32.5798 8.30065 31.5082 5.53613 29.5541 3.44698ZM8.39245 4.3835C9.25693 3.97828 10.1844 3.78017 11.139 3.78017C11.6973 3.78017 12.2646 3.85221 12.8049 3.99628C13.3272 4.13136 13.8404 4.33847 14.3177 4.60862C14.795 4.86977 15.2362 5.19394 15.6414 5.56315C15.9476 5.8513 16.2358 6.15747 16.4969 6.49966C16.758 6.15747 17.0462 5.8513 17.3614 5.56315C17.7666 5.19394 18.2169 4.86977 18.6851 4.60862C19.1714 4.33847 19.6757 4.13136 20.1979 3.99628C20.7382 3.85221 21.2965 3.78017 21.8549 3.78017C22.8094 3.78017 23.7279 3.98728 24.6014 4.3835C25.4388 4.77071 26.1952 5.32902 26.8346 6.0314C27.4739 6.73379 27.9782 7.55324 28.3384 8.47175C28.6986 9.41727 28.8877 10.4168 28.8877 11.4524C28.8877 12.3619 28.7076 13.3434 28.3564 14.37C28.0323 15.2885 27.564 16.27 26.9607 17.2786C25.9431 18.9625 24.5293 20.7545 22.7644 22.6185C21.1885 24.2664 19.6216 25.6622 18.5771 26.5447C17.5505 27.4092 16.8121 27.9675 16.677 28.0755L16.5059 28.2106L16.3348 28.0755C16.1997 27.9765 15.4613 27.4092 14.4348 26.5447C12.5527 24.9508 11.121 23.528 10.2475 22.6185C8.47349 20.7545 7.05972 18.9625 6.05116 17.2786C5.44783 16.27 4.97957 15.2975 4.6554 14.37C4.3042 13.3434 4.1241 12.3619 4.1241 11.4524C4.1241 10.4168 4.31321 9.41727 4.6734 8.47175C5.0246 7.56225 5.52888 6.7428 6.17723 6.0314C6.81658 5.32902 7.573 4.77071 8.41046 4.3835M6.54643 16.9814C7.53698 18.6293 8.92374 20.3943 10.6707 22.2223C11.5262 23.1228 12.949 24.5276 14.813 26.1034C15.4793 26.6618 16.0196 27.094 16.3528 27.3551C16.3528 27.3551 16.3618 27.3641 16.3708 27.3731C16.3708 27.3731 16.3798 27.3731 16.3888 27.3821C16.4429 27.4182 16.4879 27.4542 16.5239 27.4902C16.5599 27.4632 16.614 27.4272 16.659 27.3821C16.659 27.3821 16.668 27.3731 16.677 27.3731C16.677 27.3731 16.686 27.3641 16.695 27.3551C17.0282 27.094 17.5685 26.6708 18.2259 26.1034C19.2524 25.23 20.8103 23.8522 22.3681 22.2223C24.1151 20.3943 25.5019 18.6293 26.4924 16.9814C27.0777 16.0089 27.528 15.0724 27.8431 14.1809C28.1763 13.2174 28.3474 12.2989 28.3474 11.4524C28.3474 10.4889 28.1763 9.56135 27.8341 8.67886C27.51 7.83239 27.0417 7.07598 26.4474 6.41862C25.8531 5.77026 25.1597 5.25698 24.3942 4.90579C23.6018 4.53658 22.7553 4.34748 21.8909 4.34748C21.3776 4.34748 20.8643 4.41051 20.378 4.54559C19.9008 4.67166 19.4325 4.86076 18.9913 5.10389C18.559 5.34703 18.1448 5.64419 17.7756 5.98638C17.4064 6.32857 17.0642 6.71578 16.7671 7.13901L16.5329 7.46319L16.3078 7.13901C16.0106 6.71578 15.6685 6.31956 15.2992 5.97737C14.921 5.63519 14.5158 5.33802 14.0836 5.09489C13.6423 4.85176 13.1741 4.66265 12.6968 4.53658C12.2015 4.41051 11.6973 4.33847 11.184 4.33847C10.3195 4.33847 9.47304 4.52758 8.68061 4.89678C7.91519 5.25698 7.22181 5.76126 6.62748 6.40961C6.03315 7.05797 5.5649 7.82339 5.24072 8.66986C4.89853 9.54334 4.72744 10.4799 4.72744 11.4434C4.72744 12.2898 4.89853 13.2084 5.23171 14.1719C5.53788 15.0544 5.98813 15.9999 6.58245 16.9724M11.193 5.80628C12.7238 5.80628 14.1556 6.59872 15.1101 7.97647L16.5509 10.0476L17.9917 7.97647C18.9463 6.59872 20.378 5.80628 21.9089 5.80628C24.6644 5.80628 26.8976 8.33667 26.8976 11.4344C26.8976 12.56 26.5194 13.8477 25.781 15.2795C25.1327 16.5312 24.1961 17.8819 23.0075 19.3137C20.5762 22.2313 17.7936 24.5996 16.5509 25.6082C15.2992 24.5996 12.5257 22.2313 10.0944 19.3137C8.90573 17.8909 7.96922 16.5312 7.32086 15.2795C6.57345 13.8567 6.20425 12.56 6.20425 11.4344C6.20425 8.32767 8.44648 5.80628 11.193 5.80628Z" fill="#EBEB00"/>
  <path d="M21.8674 2.30347C19.9043 2.30347 18.0043 3.03287 16.5004 4.3566C14.9966 3.03287 13.1056 2.30347 11.1335 2.30347C6.44191 2.30347 2.63281 6.40972 2.63281 11.4435C2.63281 14.9734 4.83002 19.0707 9.17041 23.6272C12.1871 26.7879 15.1227 29.0032 15.4469 29.2553L16.4914 30.0297L17.536 29.2553C17.8602 29.0122 20.7958 26.7969 23.8125 23.6362C28.1528 19.0887 30.3501 14.9914 30.3501 11.4525C30.3501 6.40972 26.532 2.31247 21.8494 2.31247M23.3982 23.249C20.3636 26.4367 17.3199 28.715 17.1938 28.805L16.4824 29.3363L15.771 28.805C15.4469 28.5619 12.5473 26.3737 9.56663 23.249C5.3343 18.8095 3.18211 14.8384 3.18211 11.4615C3.18211 6.7339 6.73907 2.87978 11.1155 2.87978C13.0245 2.87978 14.8615 3.61819 16.2843 4.95092L16.4734 5.13102L16.6625 4.95092C18.0853 3.61819 19.9223 2.87978 21.8314 2.87978C26.2078 2.87978 29.7647 6.7249 29.7647 11.4615C29.7647 14.8384 27.6216 18.8095 23.3802 23.249" fill="#1C2445"/>
  <path d="M28.3417 8.47185C27.9905 7.56235 27.4862 6.7429 26.8379 6.03151C26.1985 5.32913 25.4421 4.77082 24.6046 4.38361C23.7402 3.97838 22.8127 3.78027 21.8581 3.78027C21.2998 3.78027 20.7325 3.85231 20.2012 3.99639C19.6789 4.14047 19.1657 4.33858 18.6884 4.60873C18.2201 4.86987 17.7699 5.19405 17.3647 5.57226C17.0585 5.85141 16.7703 6.16659 16.5092 6.50877C16.2481 6.16659 15.9599 5.86042 15.6447 5.57226C15.2395 5.20306 14.7893 4.87888 14.321 4.60873C13.8347 4.33858 13.3304 4.13147 12.8082 3.99639C12.2679 3.85231 11.7096 3.78027 11.1422 3.78027C10.1877 3.78027 9.26921 3.98739 8.39573 4.38361C7.55827 4.77082 6.80186 5.32913 6.1625 6.03151C5.52315 6.7339 5.01888 7.55335 4.65868 8.47185C4.29848 9.41737 4.10938 10.4169 4.10938 11.4525C4.10938 12.362 4.28947 13.3435 4.64967 14.3701C4.97385 15.2886 5.44211 16.2701 6.04544 17.2787C7.063 18.9626 8.47678 20.7546 10.2417 22.6186C11.1062 23.5281 12.538 24.9509 14.4291 26.5448C15.4556 27.4093 16.194 27.9676 16.3291 28.0756L16.5002 28.2107L16.6713 28.0756C16.8064 27.9766 17.5448 27.4183 18.5713 26.5448C19.6069 25.6623 21.1828 24.2665 22.7586 22.6186C24.5326 20.7636 25.9464 18.9626 26.9549 17.2787C27.5583 16.2701 28.0265 15.2976 28.3507 14.3701C28.7019 13.3435 28.891 12.362 28.891 11.4525C28.891 10.4169 28.7109 9.41737 28.3417 8.47185ZM16.6533 27.3642C16.6533 27.3642 16.6443 27.3732 16.6353 27.3823C16.5812 27.4183 16.5362 27.4543 16.5002 27.4903C16.4642 27.4633 16.4101 27.4273 16.3651 27.3823C16.3651 27.3823 16.3561 27.3733 16.3471 27.3642C16.3471 27.3642 16.3381 27.3552 16.3291 27.3462C15.9959 27.0851 15.4556 26.6619 14.7983 26.0945C12.9342 24.5187 11.5205 23.1139 10.656 22.2134C8.90902 20.3854 7.52225 18.6204 6.53171 16.9725C5.94639 16 5.49614 15.0635 5.18997 14.172C4.85679 13.2085 4.68569 12.29 4.68569 11.4435C4.68569 10.48 4.85679 9.55245 5.19897 8.66996C5.52315 7.8235 5.99141 7.06708 6.58574 6.40972C7.18006 5.76136 7.87345 5.24808 8.63887 4.89689C9.4313 4.52768 10.2778 4.33858 11.1422 4.33858C11.6555 4.33858 12.1688 4.40161 12.6551 4.53669C13.1323 4.66276 13.6006 4.85186 14.0418 5.095C14.4741 5.33813 14.8883 5.63529 15.2575 5.97748C15.6267 6.31967 15.9689 6.70688 16.2661 7.13912L16.4912 7.4633L16.7253 7.14813C17.0225 6.71589 17.3557 6.32867 17.7339 5.98649C18.1121 5.6443 18.5173 5.34713 18.9495 5.104C19.3908 4.86087 19.859 4.67176 20.3363 4.54569C20.8316 4.41062 21.3359 4.34759 21.8491 4.34759C22.7226 4.34759 23.5601 4.53669 24.3525 4.90589C25.1179 5.26609 25.8113 5.77037 26.4056 6.41872C27 7.06708 27.4682 7.8325 27.7924 8.67897C28.1346 9.55245 28.3057 10.489 28.3057 11.4525C28.3057 12.299 28.1346 13.2175 27.8014 14.181C27.4952 15.0635 27.045 16.009 26.4507 16.9815C25.4601 18.6294 24.0734 20.3944 22.3264 22.2224C20.7685 23.8523 19.2197 25.2301 18.1841 26.1036C17.5177 26.6619 16.9775 27.0941 16.6443 27.3552C16.6443 27.3552 16.6353 27.3642 16.6263 27.3733" fill="#1C2445"/>
  <path d="M21.8681 5.24805C20.1481 5.24805 18.5453 6.13053 17.4827 7.66137L16.5011 9.06615L15.5196 7.66137C14.457 6.13053 12.8541 5.24805 11.1342 5.24805C8.0725 5.24805 5.57812 8.03058 5.57812 11.4435C5.57812 13.7037 6.92887 16.4772 9.60334 19.674C12.1968 22.7807 15.1684 25.2661 16.321 26.1936L16.5011 26.3376L16.6812 26.1936C17.8429 25.2661 20.8055 22.7807 23.3989 19.674C26.0644 16.4682 27.4241 13.7037 27.4241 11.4435C27.4241 8.02157 24.9298 5.24805 21.8681 5.24805ZM22.9667 19.3138C20.5354 22.2314 17.7528 24.5997 16.5101 25.6082C15.2584 24.5997 12.4849 22.2314 10.0536 19.3138C8.86493 17.891 7.92842 16.5313 7.28006 15.2796C6.53265 13.8568 6.16345 12.5601 6.16345 11.4344C6.16345 8.32774 8.40568 5.80635 11.1522 5.80635C12.683 5.80635 14.1148 6.59879 15.0693 7.97655L16.5101 10.0477L17.9509 7.97655C18.9055 6.59879 20.3372 5.80635 21.8681 5.80635C24.6146 5.80635 26.8568 8.32774 26.8568 11.4344C26.8568 12.5601 26.4786 13.8478 25.7402 15.2796C25.0919 16.5313 24.1553 17.882 22.9667 19.3138Z" fill="#1C2445"/>
  <path d="M26.8574 11.4435C26.8574 12.5691 26.4792 13.8569 25.7408 15.2886C25.0925 16.5403 24.156 17.8911 22.9673 19.3229C20.536 22.2405 17.7534 24.6088 16.5108 25.6173C15.2591 24.6088 12.4855 22.2405 10.0542 19.3229C8.86555 17.9001 7.92903 16.5403 7.28068 15.2886C6.53327 13.8659 6.16406 12.5691 6.16406 11.4435C6.16406 8.33682 8.39729 5.81543 11.1528 5.81543C12.6836 5.81543 14.1154 6.60787 15.07 7.98562L16.5108 10.0568L17.9515 7.98562C18.9061 6.60787 20.3379 5.81543 21.8687 5.81543C24.6242 5.81543 26.8574 8.34582 26.8574 11.4435Z" fill="#EBEB00"/>
</svg>
