<svg xmlns="http://www.w3.org/2000/svg" viewBox="0 0 100 100" width="40" height="40">
  <g transform="translate(50,50)">
    <g transform="rotate(0)">
      <rect x="-3" y="-30" width="6" height="20" rx="3" ry="3" fill="#fff" opacity="1">
        <animate attributeName="opacity" from="1" to="0" begin="0s" dur="1.2s" repeatCount="indefinite" />
      </rect>
    </g>
    <g transform="rotate(30)">
      <rect x="-3" y="-30" width="6" height="20" rx="3" ry="3" fill="#fff" opacity="0.9">
        <animate attributeName="opacity" from="1" to="0" begin="0.1s" dur="1.2s" repeatCount="indefinite" />
      </rect>
    </g>
    <g transform="rotate(60)">
      <rect x="-3" y="-30" width="6" height="20" rx="3" ry="3" fill="#fff" opacity="0.8">
        <animate attributeName="opacity" from="1" to="0" begin="0.2s" dur="1.2s" repeatCount="indefinite" />
      </rect>
    </g>
    <g transform="rotate(90)">
      <rect x="-3" y="-30" width="6" height="20" rx="3" ry="3" fill="#fff" opacity="0.7">
        <animate attributeName="opacity" from="1" to="0" begin="0.3s" dur="1.2s" repeatCount="indefinite" />
      </rect>
    </g>
    <g transform="rotate(120)">
      <rect x="-3" y="-30" width="6" height="20" rx="3" ry="3" fill="#fff" opacity="0.6">
        <animate attributeName="opacity" from="1" to="0" begin="0.4s" dur="1.2s" repeatCount="indefinite" />
      </rect>
    </g>
    <g transform="rotate(150)">
      <rect x="-3" y="-30" width="6" height="20" rx="3" ry="3" fill="#fff" opacity="0.5">
        <animate attributeName="opacity" from="1" to="0" begin="0.5s" dur="1.2s" repeatCount="indefinite" />
      </rect>
    </g>
    <g transform="rotate(180)">
      <rect x="-3" y="-30" width="6" height="20" rx="3" ry="3" fill="#fff" opacity="0.4">
        <animate attributeName="opacity" from="1" to="0" begin="0.6s" dur="1.2s" repeatCount="indefinite" />
      </rect>
    </g>
    <g transform="rotate(210)">
      <rect x="-3" y="-30" width="6" height="20" rx="3" ry="3" fill="#fff" opacity="0.3">
        <animate attributeName="opacity" from="1" to="0" begin="0.7s" dur="1.2s" repeatCount="indefinite" />
      </rect>
    </g>
    <g transform="rotate(240)">
      <rect x="-3" y="-30" width="6" height="20" rx="3" ry="3" fill="#fff" opacity="0.2">
        <animate attributeName="opacity" from="1" to="0" begin="0.8s" dur="1.2s" repeatCount="indefinite" />
      </rect>
    </g>
    <g transform="rotate(270)">
      <rect x="-3" y="-30" width="6" height="20" rx="3" ry="3" fill="#fff" opacity="0.1">
        <animate attributeName="opacity" from="1" to="0" begin="0.9s" dur="1.2s" repeatCount="indefinite" />
      </rect>
    </g>
    <g transform="rotate(300)">
      <rect x="-3" y="-30" width="6" height="20" rx="3" ry="3" fill="#fff" opacity="0.05">
        <animate attributeName="opacity" from="1" to="0" begin="1s" dur="1.2s" repeatCount="indefinite" />
      </rect>
    </g>
    <g transform="rotate(330)">
      <rect x="-3" y="-30" width="6" height="20" rx="3" ry="3" fill="#fff" opacity="0">
        <animate attributeName="opacity" from="1" to="0" begin="1.1s" dur="1.2s" repeatCount="indefinite" />
      </rect>
    </g>
  </g>
</svg>