<svg width="60" height="60" viewBox="0 0 60 60" fill="none" xmlns="http://www.w3.org/2000/svg">
<path fill-rule="evenodd" clip-rule="evenodd" d="M18.2466 18.3425C18.4365 18.1249 18.7112 18 19 18H26.1407C26.6929 18 27.1407 18.4477 27.1407 19C27.1407 19.5523 26.6929 20 26.1407 20H20.1458L24.2419 50H39.0328L42.8642 20H32.6592C32.1069 20 31.6592 19.5523 31.6592 19C31.6592 18.4477 32.1069 18 32.6592 18H44C44.2873 18 44.5607 18.1236 44.7506 18.3392C44.9404 18.5548 45.0283 18.8417 44.9919 19.1267L40.9052 51.1267C40.8414 51.6259 40.4165 52 39.9132 52H23.3692C22.8692 52 22.446 51.6307 22.3784 51.1353L18.0092 19.1353C17.9701 18.8491 18.0567 18.5601 18.2466 18.3425Z" fill="black"/>
<path fill-rule="evenodd" clip-rule="evenodd" d="M16 8C16 7.44772 16.4477 7 17 7H24.9681C25.4754 7 25.9023 7.37989 25.9613 7.88377L30.9932 50.8838C31.0574 51.4323 30.6648 51.929 30.1162 51.9932C29.5677 52.0574 29.071 51.6648 29.0068 51.1162L24.0783 9H17C16.4477 9 16 8.55228 16 8Z" fill="black"/>
<path fill-rule="evenodd" clip-rule="evenodd" d="M20 26C20 25.4477 20.4477 25 21 25H43.0719C43.6242 25 44.0719 25.4477 44.0719 26C44.0719 26.5523 43.6242 27 43.0719 27H21C20.4477 27 20 26.5523 20 26Z" fill="black"/>
</svg>
