<svg width="60" height="60" viewBox="0 0 60 60" fill="none" xmlns="http://www.w3.org/2000/svg">
<path fill-rule="evenodd" clip-rule="evenodd" d="M15.8121 26.6832C15.8992 26.2084 16.313 25.8636 16.7956 25.8636H30.2044C30.6871 25.8636 31.1008 26.2084 31.188 26.6832L35.9836 52.8195C36.0371 53.1115 35.9583 53.4121 35.7683 53.6401C35.5783 53.8682 35.2968 54 35 54H12C11.7032 54 11.4217 53.8682 11.2317 53.6401C11.0417 53.4121 10.9629 53.1115 11.0164 52.8195L15.8121 26.6832ZM17.6288 27.8636L13.2002 52H33.7998L29.3712 27.8636H17.6288Z" fill="black"/>
<path fill-rule="evenodd" clip-rule="evenodd" d="M43.0002 33.0909H31.8636V31.0909H43.8384C44.3233 31.0909 44.7383 31.4388 44.823 31.9163L48.5301 52.8115C48.5818 53.1027 48.5019 53.4018 48.3118 53.6285C48.1218 53.8552 47.8412 53.9861 47.5455 53.9861H41C40.4477 53.9861 40 53.5384 40 52.9861C40 52.4339 40.4477 51.9861 41 51.9861H46.3524L43.0002 33.0909Z" fill="black"/>
<path fill-rule="evenodd" clip-rule="evenodd" d="M27.9692 16.3743C27.9692 10.6561 32.5737 6 38.2642 6C43.9671 6 48.5455 10.8356 48.5455 16.3604C48.5455 21.5145 44.811 25.7642 39.9155 26.5604C39.9309 26.7489 39.94 26.9423 39.94 27.1395C39.94 29.1557 39.3596 31.033 38.3847 32.6155L36.6819 31.5664C37.4722 30.2837 37.94 28.7673 37.94 27.1395C37.94 26.7264 37.883 26.3072 37.8032 25.8515C37.754 25.5703 37.8273 25.2815 38.0046 25.0579C38.182 24.8342 38.4464 24.697 38.7314 24.6807C43.0845 24.4327 46.5455 20.8229 46.5455 16.3604C46.5455 11.8989 42.8217 8 38.2642 8C33.6943 8 29.9692 11.7446 29.9692 16.3743C29.9692 16.7875 30.0261 17.2066 30.1059 17.6624C30.1551 17.9435 30.0818 18.2323 29.9045 18.456C29.7272 18.6796 29.4627 18.8169 29.1777 18.8331C24.8246 19.0811 21.3636 22.6909 21.3636 27.1534H19.3636C19.3636 21.9993 23.0982 17.7496 27.9936 16.9534C27.9783 16.765 27.9692 16.5715 27.9692 16.3743Z" fill="black"/>
</svg>
