<svg width="60" height="60" viewBox="0 0 60 60" fill="none" xmlns="http://www.w3.org/2000/svg">
<path fill-rule="evenodd" clip-rule="evenodd" d="M8 47C8 46.4477 8.44772 46 9 46H51C51.5523 46 52 46.4477 52 47V53C52 53.5523 51.5523 54 51 54H9C8.44772 54 8 53.5523 8 53V47ZM10 48V52H50V48H10Z" fill="black"/>
<path fill-rule="evenodd" clip-rule="evenodd" d="M27 25C27.5523 25 28 25.4477 28 26V47C28 47.5523 27.5523 48 27 48C26.4477 48 26 47.5523 26 47V26C26 25.4477 26.4477 25 27 25Z" fill="black"/>
<path fill-rule="evenodd" clip-rule="evenodd" d="M33 25C33.5523 25 34 25.4477 34 26V47C34 47.5523 33.5523 48 33 48C32.4477 48 32 47.5523 32 47V26C32 25.4477 32.4477 25 33 25Z" fill="black"/>
<path fill-rule="evenodd" clip-rule="evenodd" d="M41 25C41.5523 25 42 25.4477 42 26V47C42 47.5523 41.5523 48 41 48C40.4477 48 40 47.5523 40 47V26C40 25.4477 40.4477 25 41 25Z" fill="black"/>
<path fill-rule="evenodd" clip-rule="evenodd" d="M13 25C13.5523 25 14 25.4477 14 26V47C14 47.5523 13.5523 48 13 48C12.4477 48 12 47.5523 12 47V26C12 25.4477 12.4477 25 13 25Z" fill="black"/>
<path fill-rule="evenodd" clip-rule="evenodd" d="M47 25C47.5523 25 48 25.4477 48 26V47C48 47.5523 47.5523 48 47 48C46.4477 48 46 47.5523 46 47V26C46 25.4477 46.4477 25 47 25Z" fill="black"/>
<path fill-rule="evenodd" clip-rule="evenodd" d="M19 25C19.5523 25 20 25.4477 20 26V47C20 47.5523 19.5523 48 19 48C18.4477 48 18 47.5523 18 47V26C18 25.4477 18.4477 25 19 25Z" fill="black"/>
<path fill-rule="evenodd" clip-rule="evenodd" d="M29.4453 6.16795C29.7812 5.94402 30.2188 5.94402 30.5547 6.16795L51.5547 20.1679C51.9214 20.4124 52.0848 20.868 51.9571 21.2898C51.8294 21.7115 51.4407 22 51 22H9C8.55933 22 8.17061 21.7115 8.04291 21.2898C7.91521 20.868 8.07864 20.4124 8.4453 20.1679L29.4453 6.16795ZM12.3028 20H47.6972L30 8.20185L12.3028 20Z" fill="black"/>
<path fill-rule="evenodd" clip-rule="evenodd" d="M8 26C8 25.4477 8.44772 25 9 25H51C51.5523 25 52 25.4477 52 26C52 26.5523 51.5523 27 51 27H9C8.44772 27 8 26.5523 8 26Z" fill="black"/>
</svg>
