<?xml version="1.0" encoding="utf-8"?>
<!DOCTYPE svg PUBLIC "-//W3C//DTD SVG 1.1//EN" "http://www.w3.org/Graphics/SVG/1.1/DTD/svg11.dtd">
<svg version="1.1" xmlns="http://www.w3.org/2000/svg" xmlns:xlink="http://www.w3.org/1999/xlink" x="0px" y="0px" viewBox="0 0 256 256" enable-background="new 0 0 256 256">
<g><g><path fill="#fff" d="M71.6,187.5c-15.8-14.9-25.6-36.1-25.6-59.5c0-43.6,34-79.1,76.9-81.8v30.5c0,2.8,2.3,5.1,5.1,5.1c0.1,0,0.3-0.1,0.4-0.1c1.3,0,2.7-0.4,3.7-1.5l30.3-31c0.9-1,1.4-2.3,1.4-3.6c0-1.4-0.5-2.7-1.4-3.6l-30.3-30.6c-1.1-1.2-2.6-1.6-4.1-1.4c0,0,0,0,0,0c-2.8,0-5.1,2.3-5.1,5.1v20.8C74.3,38.6,35.7,78.7,35.7,128c0,27.6,12.3,52.2,31.5,69.1c0.6,1.1,1.5,1.9,2.7,2.3c0.6,0.5,1.2,1,1.8,1.5v-1.2c2.8,0,5.1-2.3,5.1-5.1C76.7,193.1,74.2,189.9,71.6,187.5L71.6,187.5z M133.1,26.8l18.6,18.8l-18.6,19V26.8z M188.9,58.9c-0.6-1.1-1.5-1.9-2.7-2.3c-0.6-0.5-1.2-1-1.8-1.5v1.2c-2.8,0-5.2,2.3-5.2,5.1c0,1.6,2.5,4.8,5.2,7.2v0c15.8,14.9,25.7,36,25.7,59.5c0,43.6-34.1,79.2-76.9,81.8v-30.5c0-2.8-2.3-5.1-5.1-5.1c-0.1,0-0.3,0.1-0.4,0.1c-1.3,0-2.7,0.4-3.7,1.5l-30.4,31c-0.9,1-1.5,2.3-1.5,3.6c0,1.4,0.5,2.7,1.4,3.6l30.3,30.6c1.1,1.2,2.6,1.6,4.1,1.4h0c2.8,0,5.1-2.3,5.1-5.1v-20.8c48.6-2.7,87.2-42.8,87.2-92.1C220.3,100.4,208.1,75.8,188.9,58.9z M122.9,229.2l-18.6-18.8l18.6-19V229.2z"/></g></g>
</svg>