<svg width="200" height="47" viewBox="0 0 200 47" fill="none" xmlns="http://www.w3.org/2000/svg">
<path d="M18.316 31.304C21.592 31.304 23.284 29.072 23.284 25.22C23.284 21.44 21.7 19.28 18.316 19.28C15.148 19.28 13.132 21.368 13.132 25.112V25.364C13.132 28.964 15.148 31.304 18.316 31.304ZM13.132 11.612V21.8H13.204C13.924 18.452 15.904 16.436 19.468 16.436C24.004 16.436 26.38 19.82 26.38 25.22C26.38 30.728 23.86 34.112 19.504 34.112C15.796 34.112 13.852 32.06 13.168 28.676H13.132V33.68H10V11.612H13.132Z" fill="#262626"/>
<path d="M35.0099 31.232C38.1779 31.232 40.1939 29.18 40.1939 25.436V25.184C40.1939 21.584 38.1779 19.244 35.0099 19.244C31.6979 19.244 30.0419 21.476 30.0419 25.328C30.0419 29.108 31.6259 31.232 35.0099 31.232ZM26.9099 25.328C26.9099 19.784 29.4659 16.4 33.8219 16.436C37.4939 16.4 39.4379 18.488 40.1219 21.872H40.1939V16.868H43.3259V33.68H40.1939V28.748H40.0859C39.3659 32.096 37.3859 34.112 33.8579 34.112C29.2859 34.112 26.9099 30.728 26.9099 25.328Z" fill="#262626"/>
<path d="M58.3646 23.636C57.7526 20.972 56.2766 19.316 53.3246 19.316C50.1566 19.316 47.9606 21.296 47.9606 25.292C47.9606 29.036 50.0846 31.232 53.4326 31.232C56.7086 31.232 57.7886 29.252 58.4366 26.696L61.4246 27.308C60.6686 31.556 58.2206 34.112 53.4686 34.112C48.2126 34.112 44.7566 30.908 44.7566 25.256C44.7566 19.712 48.3566 16.436 53.3606 16.436C58.2566 16.436 60.6326 18.884 61.3886 23.096L58.3646 23.636Z" fill="#262626"/>
<path d="M66.0393 11.612V24.032H66.2913L73.6353 16.868C73.6359 16.8961 77.4513 16.94 77.4513 16.94L68.7753 25.184L78.0273 33.608V33.68H74.1393L66.3273 26.408H66.0393V33.68H62.9073V11.612H66.0393Z" fill="#262626"/>
<path d="M84.8154 19.136C81.9354 19.136 80.0274 20.684 79.5954 23.816H89.6754C89.4594 20.828 87.9114 19.136 84.8154 19.136ZM84.9594 34.076C79.7754 34.076 76.3914 30.908 76.3914 25.4C76.3914 19.784 79.8114 16.436 84.9234 16.436C89.9274 16.436 92.6274 19.64 92.6274 24.248C92.6274 24.788 92.6274 25.472 92.5554 26.264H79.5234C79.8474 29.54 81.7554 31.34 84.9594 31.34C87.9834 31.34 89.1714 29.792 89.7474 27.812L92.5194 28.64C91.6554 31.952 89.2434 34.076 84.9594 34.076Z" fill="#262626"/>
<path d="M97.182 23.708V33.68H94.05V16.868H97.182V21.404H97.218C97.938 17.984 100.134 16.436 103.086 16.436C107.442 16.436 108.954 19.316 108.954 22.916V33.68H105.822V23.708C105.822 21.404 104.85 19.28 101.79 19.28C98.91 19.28 97.182 20.9 97.182 23.708Z" fill="#262626"/>
<path d="M118.322 31.232C121.49 31.232 123.506 29.18 123.506 25.436V25.184C123.506 21.584 121.49 19.244 118.322 19.244C115.01 19.244 113.354 21.476 113.354 25.328C113.354 29.108 114.938 31.232 118.322 31.232ZM123.506 33.68V28.748H123.398C122.678 32.096 120.698 34.112 117.17 34.112C112.598 34.112 110.222 30.728 110.222 25.328C110.222 19.784 112.778 16.4 117.134 16.436C120.806 16.4 122.75 18.488 123.434 21.872H123.506V11.612H126.638V33.68H123.506Z" fill="#262626"/>
<path d="M133.545 16.544V16.868H138.477V19.568H133.545V33.68H130.413V19.568H127.497V16.868H130.413V16.544C130.413 13.232 132.249 11 136.065 11C137.289 11 138.117 11.144 138.765 11.288L138.477 13.664C137.721 13.52 137.109 13.448 136.425 13.448C134.373 13.448 133.545 14.528 133.545 16.544Z" fill="#262626"/>
<path d="M147.1 34.112C141.736 34.112 138.532 30.692 138.532 25.22C138.532 19.712 141.988 16.436 147.1 16.436C152.14 16.436 155.596 19.712 155.596 25.22C155.596 30.692 152.392 34.112 147.1 34.112ZM147.064 19.316C143.716 19.316 141.664 21.584 141.664 25.184C141.664 28.82 143.572 31.232 147.064 31.232C150.52 31.232 152.464 28.82 152.464 25.184C152.464 21.584 150.448 19.316 147.064 19.316Z" fill="#262626"/>
<path d="M160.167 33.68H157.035V16.868H160.167V22.052H160.239C160.923 18.128 162.507 16.868 165.207 16.868H166.251V19.568H164.758C161.59 19.568 160.167 21.548 160.167 24.788V33.68Z" fill="#262626"/>
<path d="M171.431 33.68H168.299V19.568H165.815V16.868H168.299V12.224H171.431V16.868H174.923V19.568H171.431V33.68Z" fill="#262626"/>
<path d="M179.09 23.708V33.68H175.958V11.612H179.09V21.404H179.126C179.846 17.984 182.042 16.436 184.994 16.436C189.35 16.436 190.862 19.316 190.862 22.916V33.68H187.73V23.708C187.73 21.404 186.758 19.28 183.698 19.28C180.818 19.28 179.09 20.9 179.09 23.708Z" fill="#262626"/>
</svg>
