<svg xmlns="http://www.w3.org/2000/svg" width="174" height="50" fill="none" viewBox="0 0 174 50"><path fill="#0071C7" d="M61.906.766h9.627c4.89 0 7.51 2.12 7.51 6.02 0 2.59-1.559 4.116-3.021 4.743 2.117.78 3.675 2.651 3.675 5.331 0 3.963-2.805 6.298-7.6 6.298H61.911V.766h-.005Zm9.097 8.982c2.026 0 3.145-.808 3.145-2.368 0-1.56-1.123-2.34-3.145-2.34h-4.111v4.708h4.11Zm-4.111 9.108h4.737c1.993 0 3.083-1.03 3.083-2.527 0-1.498-1.09-2.527-3.083-2.527h-4.737v5.054Zm25.516-7.361a7.364 7.364 0 0 0-1.463-.124c-2.15 0-3.862 1.34-3.862 3.713v8.079h-4.985V6.723h4.985v2.154c.746-1.311 2.338-2.244 4.235-2.244.469 0 .78.033 1.09.062V11.5v-.005Zm1.057 3.431c0-4.867 3.49-8.547 8.226-8.547 4.986 0 7.696 3.68 7.696 8.327v1.311H98.264c.344 2.245 1.683 3.523 3.58 3.523 1.559 0 2.773-.747 3.241-2.183l4.173 1.34c-1.214 3.15-4.206 4.805-7.476 4.805-4.952 0-8.317-3.46-8.317-8.576Zm4.952-1.967h6.042c-.029-1.464-.999-2.713-2.835-2.713-1.524 0-2.71.904-3.207 2.713Zm12.182 5.613c0-3.398 2.868-4.771 6.323-5.269l3.676-.622v-.282c0-1.216-.655-1.996-2.275-1.996-1.434 0-2.18.622-2.49 1.967l-4.766-.718c.717-2.9 3.303-5.27 7.476-5.27s6.945 1.968 6.945 5.801v6.332c0 .842.311 1.09 1.277.966v3.68c-2.868.47-4.8-.062-5.641-1.464-1.09 1.125-2.71 1.776-4.861 1.776-3.303 0-5.669-1.996-5.669-4.896l.005-.005Zm9.999-2.68-2.868.531c-1.309.22-2.275.656-2.275 1.81 0 1.028.779 1.588 1.965 1.588 1.649 0 3.178-.87 3.178-2.555v-1.374Zm8.76-5.053h-2.088V6.723h2.088V2.172h4.924v4.551h3.207v4.116h-3.207v6.643c0 1.373.717 1.622 1.964 1.622.593 0 .875-.034 1.434-.096v4.087c-.87.125-1.806.22-2.992.22-3.551 0-5.325-1.187-5.325-4.556v-7.92h-.005ZM140.039.766h4.986v7.609c.903-1.062 2.428-1.996 4.517-1.996 3.365 0 5.482 2.34 5.482 5.925v10.854h-4.985V13.74c0-1.651-.684-2.872-2.304-2.872-1.372 0-2.71.967-2.71 2.9v9.39h-4.986V.766Zm17.074 14.16c0-4.867 3.49-8.547 8.227-8.547 4.985 0 7.696 3.68 7.696 8.327v1.311h-11.124c.345 2.245 1.683 3.523 3.581 3.523 1.558 0 2.772-.747 3.241-2.183l4.172 1.34c-1.214 3.15-4.206 4.805-7.475 4.805-4.953 0-8.318-3.46-8.318-8.576Zm4.952-1.967h6.042c-.033-1.464-.994-2.713-2.834-2.713-1.525 0-2.711.904-3.208 2.713ZM71.41 44.34c2.303 0 3.957-1.465 4.483-3.839l4.89 1.623c-1.372 4.087-4.55 6.738-9.345 6.738-6.138 0-10.56-4.771-10.56-11.538s4.422-11.539 10.56-11.539c4.8 0 7.973 2.651 9.345 6.738l-4.89 1.623c-.53-2.37-2.18-3.838-4.484-3.838-3.116 0-5.325 2.747-5.325 7.016s2.213 7.016 5.325 7.016Zm11.184-18.215h5.076v4.274h-5.076v-4.274Zm5.014 22.393h-4.986V32.083h4.986v16.435Zm3.832-12.32h-2.088v-4.115h2.088V27.53h4.924v4.552h3.207v4.115h-3.207v6.643c0 1.373.717 1.622 1.964 1.622.593 0 .875-.033 1.434-.095v4.087c-.87.124-1.806.22-2.992.22-3.551 0-5.325-1.187-5.325-4.556v-7.92h-.005Zm10.658-10.073h5.076v4.274h-5.076v-4.274Zm5.014 22.393h-4.986V32.083h4.986v16.435Zm2.122-8.232c0-4.867 3.49-8.548 8.227-8.548 4.985 0 7.696 3.68 7.696 8.328v1.31h-11.123c.344 2.245 1.682 3.523 3.58 3.523 1.558 0 2.772-.746 3.241-2.182l4.173 1.34c-1.215 3.149-4.207 4.805-7.476 4.805-4.952 0-8.318-3.46-8.318-8.576Zm4.952-1.967h6.042c-.033-1.465-.999-2.714-2.834-2.714-1.525 0-2.71.905-3.208 2.714Zm14.173 4.431c1.338 1.465 3.456 2.34 5.234 2.34 1.309 0 2.399-.435 2.399-1.31 0-1.092-1.09-1.216-3.704-1.685-2.711-.532-5.607-1.25-5.607-4.805 0-3.336 2.959-5.552 7.007-5.552 2.959 0 5.579 1.125 6.946 2.618l-2.491 3.211c-1.247-1.311-2.868-2.029-4.483-2.029-1.215 0-1.994.47-1.994 1.216 0 .904.966 1.029 2.959 1.402 2.959.593 6.262 1.311 6.262 5.02 0 3.71-3.303 5.676-7.476 5.676-2.868 0-6.104-.967-7.634-2.747l2.586-3.369-.004.014ZM39.409 1.188c-5.765 0-10.459 4.556-10.459 10.16v.805h5.64v-.804c0-2.489 2.161-4.509 4.814-4.509s4.813 2.025 4.813 4.509c0 2.483-2.055 4.402-4.617 4.498v.01H13.73v5.647h25.683c5.765 0 10.454-4.556 10.454-10.16s-4.689-10.16-10.453-10.16l-.005.004Zm-23.593 29.69h25.162c3.452 0 6.258 2.852 6.258 6.355 0 3.503-2.806 6.356-6.258 6.356-3.45 0-6.257-2.853-6.257-6.356v-2.651h-5.64v2.651c0 6.619 5.34 12.003 11.897 12.003 6.559 0 11.898-5.384 11.898-12.003 0-6.618-5.34-12.002-11.898-12.002H.965v5.647h14.851Z"/></svg>