<svg width="963" height="1019" viewBox="0 0 963 1019" fill="none" xmlns="http://www.w3.org/2000/svg">
    <path d="M382.265 220.334C384.778 251.013 396.055 286.904 425.955 295.307C440.807 299.48 456.744 295.497 471.125 289.911C535.076 265.101 581.985 211.335 630.607 163.292C659.34 134.915 688.268 106.595 719.449 80.8222C745.674 59.1435 779.579 28.6839 813.962 21.2155C869.397 9.16624 922.689 90.0101 940.922 131.622C954.949 163.619 974.944 226.139 949.506 257.373C941.37 267.35 928.528 272.048 916.435 276.635C843.534 304.317 756.529 343.355 724.863 419.691C707.927 460.569 709.731 506.91 719.292 550.053C728.853 593.196 745.717 634.359 758.495 676.666C775.806 734.032 785.543 793.625 787.383 853.477C788.368 885.366 786.574 918.314 776.603 948.91C769.852 969.625 748.969 1021.76 719.94 1017.63C710.875 1016.33 704.484 1008.17 700.35 1000.05C669.53 939.522 680.508 855.962 676.311 790.43C672.53 731.673 663.387 674.468 624.295 627.613C585.247 580.779 532.726 561.884 474.663 549.552C437.346 541.629 397.404 535.532 359.213 540.87C319.44 546.432 285.78 569.988 250.904 587.913C212.246 607.788 181.007 607.011 145.912 581.722C110.068 555.899 74.9189 528.312 47.5745 493.767C20.2309 459.244 1.02831 416.869 1.28111 372.973C1.38672 355.29 4.92879 336.936 15.6776 322.812C34.9709 297.431 71.3268 292.475 103.35 294.236C140.903 296.308 184.159 303.886 218.656 281.591C250.965 260.722 268.422 221.953 276.928 186.035C287.414 141.738 288.264 95.0735 304.521 52.5203C311.721 33.6802 322.961 14.9006 341.321 6.21934C384.811 -14.3518 396.466 31.7083 394.731 62.5487C391.781 115.233 377.921 167.331 382.265 220.334Z" stroke="#1E26A1" stroke-width="0.761494" stroke-miterlimit="10"/>
</svg>
