<svg width="267" height="124" viewBox="0 0 267 124" fill="none" xmlns="http://www.w3.org/2000/svg">
<g clip-path="url(#clip0_37_505)">
<path fill-rule="evenodd" clip-rule="evenodd" d="M50.2424 91.4278L39.0747 91.8891L38.6465 81.6742L49.8141 81.2129L50.2424 91.4278Z" fill="#E6E6E6"/>
<path fill-rule="evenodd" clip-rule="evenodd" d="M49.847 99.7304L19.2761 97.325L14.1699 91.4926L35.4839 90.2734L50.2093 90.6029L49.847 99.7304Z" fill="#989CAB"/>
<path fill-rule="evenodd" clip-rule="evenodd" d="M121.103 68.7568L128.317 68.4603L123.705 3.57927L120.016 0.152344L121.103 68.7568Z" fill="white"/>
<path fill-rule="evenodd" clip-rule="evenodd" d="M140.638 14.9483L104.236 16.53L104.17 14.8495L140.572 13.3008L140.638 14.9483Z" fill="white"/>
<path fill-rule="evenodd" clip-rule="evenodd" d="M136.783 27.1063L109.111 28.2925L109.045 26.612L136.717 25.4258L136.783 27.1063Z" fill="white"/>
<path fill-rule="evenodd" clip-rule="evenodd" d="M206.425 83.2214L205.634 73.8633L163.797 76.1369L164.587 94.4249L197.234 93.0409L206.425 83.2214Z" fill="#989CAB"/>
<path fill-rule="evenodd" clip-rule="evenodd" d="M122.619 77.3903L123.377 95.0192L139.255 99.5335L164.687 96.7327L164.588 94.3602L163.798 76.0723L122.619 77.3903Z" fill="white"/>
<path fill-rule="evenodd" clip-rule="evenodd" d="M123.738 59.1023C123.738 59.1023 146.798 56.4333 167.881 57.8502L165.575 68.6252L123.408 70.4376L123.738 59.1023Z" fill="#707983"/>
<path fill-rule="evenodd" clip-rule="evenodd" d="M123.738 59.1021L124.858 53.3027C124.858 53.3027 146.041 50.9302 165.049 52.0176L167.882 57.85C167.882 57.817 149.038 56.5649 123.738 59.1021Z" fill="#ABAB03"/>
<path fill-rule="evenodd" clip-rule="evenodd" d="M100.414 60.0904L106.377 56.2022L124.858 53.2695L123.738 59.069L100.414 60.0904Z" fill="#EBEB00"/>
<path fill-rule="evenodd" clip-rule="evenodd" d="M122.256 68.9883L87.666 70.4711L87.1719 76.0399L48.8594 76.7648L50.0124 103.356L87.666 105.07L122.322 105.366L122.256 68.9883Z" fill="white"/>
<path fill-rule="evenodd" clip-rule="evenodd" d="M123.474 97.5902L118.994 97.7879L117.775 69.2192L122.256 69.0215L123.474 97.5902Z" fill="#989CAB"/>
<path fill-rule="evenodd" clip-rule="evenodd" d="M205.668 74.3246L163.798 76.1039L163.469 68.2286L205.339 66.4492L205.668 74.3246Z" fill="#C5C5C5"/>
<path fill-rule="evenodd" clip-rule="evenodd" d="M163.797 76.1058L122.618 77.8852L122.289 70.0098L163.468 68.2305L163.797 76.1058Z" fill="#E6E6E6"/>
<path fill-rule="evenodd" clip-rule="evenodd" d="M88.7212 70.4368L88.293 60.6173L123.739 59.1016L123.41 69.9755L88.7212 70.4368Z" fill="#C5C5C5"/>
<path fill-rule="evenodd" clip-rule="evenodd" d="M79.199 70.9988L72.5775 71.2954L71.2598 40.2223L77.8813 39.9258L79.199 70.9988Z" fill="white"/>
<path fill-rule="evenodd" clip-rule="evenodd" d="M84.3044 70.7664L79.1654 70.997L77.8477 39.924L82.9867 39.6934L84.3044 70.7664Z" fill="#B8BBB9"/>
<path fill-rule="evenodd" clip-rule="evenodd" d="M77.848 39.9247L77.6504 35.1798L74.1914 31.5881L79.3964 31.3574L82.8554 34.5537L83.086 39.6941L77.848 39.9247Z" fill="#1C2445"/>
<path fill-rule="evenodd" clip-rule="evenodd" d="M71.2602 40.1879L71.0625 35.2452L74.225 31.5547L77.684 35.1464L77.8817 39.8913L71.2602 40.1879Z" fill="#989CAB"/>
<path fill-rule="evenodd" clip-rule="evenodd" d="M87.1049 70.57C87.1049 70.57 80.9775 71.3938 74.916 71.0313L76.8267 68.6259L76.6949 65.6602C76.6949 65.6602 81.9328 64.4081 84.9306 65.2978L85.0624 68.4281L87.1049 70.57Z" fill="white"/>
<path fill-rule="evenodd" clip-rule="evenodd" d="M80.8132 70.9312L82.4603 68.9542L80.879 67.8997L80.7473 64.8682L85.2275 63.9785L89.2136 65.033L90.0371 69.4814C90.0371 69.4814 85.7216 71.5903 85.4581 71.6232C85.1945 71.6562 80.6484 72.6447 80.6484 72.6447L80.8132 70.9312Z" fill="#B8BBB9"/>
<path fill-rule="evenodd" clip-rule="evenodd" d="M67.8008 71.4905C67.8008 71.4905 71.0292 71.8201 76.5306 70.9633L75.6741 69.5135L75.5753 67.2069C75.5753 67.2069 73.0057 66.1195 68.7232 67.5034L68.822 69.843L67.8008 71.4905Z" fill="white"/>
<path fill-rule="evenodd" clip-rule="evenodd" d="M72.3477 66.1205L72.4794 69.0202L74.1266 70.1076L72.6112 72.4801L78.0468 71.4256L75.9714 65.5273L72.3477 66.1205Z" fill="#B8BBB9"/>
<path fill-rule="evenodd" clip-rule="evenodd" d="M48.8598 76.7973L48.6621 72.1512L87.6664 70.4707L87.1722 76.0395L48.8598 76.7973Z" fill="#C5C5C5"/>
<path fill-rule="evenodd" clip-rule="evenodd" d="M-0.257812 97.7214L11.5028 96.5352C11.5028 96.5352 47.9046 100.819 87.8971 101.049L88.9184 111.363L27.6118 108.2L-0.257812 97.7214Z" fill="#E6E6E6"/>
<path fill-rule="evenodd" clip-rule="evenodd" d="M8.14175 123.851C8.14175 123.851 -1.6752 103.059 -0.258661 97.6875L21.4177 100.126C21.4177 100.126 21.3848 104.706 25.2061 105.102C28.9946 105.497 55.6453 107.836 65.8246 108.166C76.0369 108.495 85.0632 108.759 85.0632 108.759L84.5032 93.8322C84.5032 93.8322 143.438 96.6331 170.352 93.8652L175.458 86.1216C175.458 86.1216 174.635 86.9124 260.187 77.2248L263.778 76.8294C263.778 76.8294 265.952 76.4669 266.446 77.8179C266.94 79.1689 265.722 81.2448 265.722 81.2448L245.758 123.851" fill="#1C2445"/>
<path fill-rule="evenodd" clip-rule="evenodd" d="M19.2762 97.3578L14.1701 91.4925L9.98633 90.7676L10.2499 96.6659L11.5017 96.534L19.2762 97.3578Z" fill="#FCFFFE"/>
</g>
<defs>
<clipPath id="clip0_37_505">
<rect width="267" height="124" fill="white"/>
</clipPath>
</defs>
</svg>
