<svg xmlns="http://www.w3.org/2000/svg" width="32.5" height="32.5" viewBox="0 0 32.5 32.5">
  <g id="SoMe" transform="translate(-3.25 -3.25)">
    <circle id="Ellipse_8" data-name="Ellipse 8" cx="16.25" cy="16.25" r="16.25" transform="translate(3.25 3.25)" fill="#1d1d1d"/>
    <path id="Path_145" data-name="Path 145" d="M19.5,11.507c2.6,0,2.912.01,3.94.057a5.394,5.394,0,0,1,1.81.336,3.229,3.229,0,0,1,1.85,1.85,5.4,5.4,0,0,1,.336,1.81c.047,1.028.057,1.337.057,3.94s-.01,2.912-.057,3.94a5.4,5.4,0,0,1-.336,1.81,3.228,3.228,0,0,1-1.85,1.85,5.394,5.394,0,0,1-1.81.336c-1.028.047-1.336.057-3.94.057s-2.912-.01-3.94-.057A5.394,5.394,0,0,1,13.75,27.1a3.229,3.229,0,0,1-1.85-1.85,5.4,5.4,0,0,1-.336-1.81c-.047-1.028-.057-1.337-.057-3.94s.01-2.912.057-3.94a5.4,5.4,0,0,1,.336-1.81,3.23,3.23,0,0,1,1.85-1.85,5.394,5.394,0,0,1,1.811-.336C16.588,11.517,16.9,11.507,19.5,11.507Zm0-1.757c-2.648,0-2.98.011-4.02.059a7.157,7.157,0,0,0-2.367.453,4.985,4.985,0,0,0-2.852,2.852,7.153,7.153,0,0,0-.453,2.367c-.047,1.04-.059,1.372-.059,4.02s.011,2.98.059,4.02a7.154,7.154,0,0,0,.453,2.367,4.985,4.985,0,0,0,2.852,2.851,7.158,7.158,0,0,0,2.367.453c1.04.047,1.372.059,4.02.059s2.98-.011,4.02-.059a7.158,7.158,0,0,0,2.367-.453,4.986,4.986,0,0,0,2.852-2.851,7.156,7.156,0,0,0,.453-2.367c.048-1.04.059-1.372.059-4.02s-.011-2.98-.059-4.02a7.155,7.155,0,0,0-.453-2.367,4.985,4.985,0,0,0-2.852-2.852,7.157,7.157,0,0,0-2.367-.453C22.48,9.761,22.148,9.75,19.5,9.75Z" fill="#f6f8fa"/>
    <path id="Path_146" data-name="Path 146" d="M19.5,14.5A5.007,5.007,0,1,0,24.511,19.5,5.007,5.007,0,0,0,19.5,14.5Zm0,8.257a3.25,3.25,0,1,1,3.25-3.25A3.25,3.25,0,0,1,19.5,22.754Z" fill="#f6f8fa"/>
    <path id="Path_147" data-name="Path 147" d="M25.879,14.3a1.17,1.17,0,1,1-1.17-1.17A1.17,1.17,0,0,1,25.879,14.3Z" fill="#f6f8fa"/>
  </g>
</svg>
