<svg xmlns="http://www.w3.org/2000/svg" width="32.5" height="32.5" viewBox="0 0 32.5 32.5">
  <g id="Group_32" data-name="Group 32" transform="translate(-207.985 -130)">
    <circle id="Circle" cx="16.25" cy="16.25" r="16.25" transform="translate(207.985 130)" fill="#1d1d1d"/>
    <path id="linkedin" d="M2.161,4.335A2.167,2.167,0,0,0,2.169,0,2.142,2.142,0,0,0,0,2.165,2.152,2.152,0,0,0,2.161,4.335M.294,11.9v5.813c0,.131.028.171.163.171H3.87c.183,0,.183,0,.183-.187V6.1c0-.139-.032-.183-.175-.183H.477c-.187,0-.187,0-.187.2V11.9M9.913,7.525V6.079c0-.131-.04-.159-.159-.159l-3.262,0c-.147,0-.179.052-.179.183.008.489,0,.973,0,1.458V17.669c0,.2,0,.2.207.2H9.85c.219,0,.223,0,.223-.215V12.126a6.459,6.459,0,0,1,.143-1.637,1.906,1.906,0,0,1,.969-1.335,2.473,2.473,0,0,1,1.267-.215,1.532,1.532,0,0,1,1.438.969,3.7,3.7,0,0,1,.27,1.446c.008,2.118,0,4.236,0,6.353,0,.131.04.171.171.171H17.7c.219,0,.219,0,.219-.219,0-1.887.008-3.775,0-5.662,0-.727-.04-1.458-.079-2.185a6.171,6.171,0,0,0-.334-1.689A3.332,3.332,0,0,0,15.48,5.956a5.55,5.55,0,0,0-2.646-.286,3.945,3.945,0,0,0-2.92,1.852" transform="translate(216.272 136.311)" fill="#fff" fill-rule="evenodd"/>
  </g>
</svg>
