<svg width="214" height="48" viewBox="0 0 214 48" fill="none" xmlns="http://www.w3.org/2000/svg">
<path d="M16.114 27.6472C16.114 29.3473 15.8449 30.4645 15.0946 31.1526C13.8631 32.3184 12.648 32.4803 10.7071 32.4803C7.9751 32.4803 6.69476 31.2093 6.69476 29.2906C6.69476 27.3719 8.08112 26.1575 10.6011 26.1575H16.114V27.6472ZM16.2771 37.8479H23.0703V19.6161C23.0703 13.1395 18.9928 9.83639 11.1801 9.83639C6.5235 9.83639 3.84042 10.6865 1.11659 13.6657L5.56117 17.9646C7.00464 16.3454 8.23607 15.6816 10.911 15.6816C14.6053 15.6816 16.1058 17.0093 16.1058 20.0452V21.4215H9.51644C3.04123 21.4215 -0.00880121 25.0403 -0.00880121 29.4525C-0.081086 31.7423 0.743182 33.9708 2.29094 35.6701C3.92197 37.2893 6.25437 38.0988 9.41858 38.0988C12.5828 38.0988 14.3932 37.2893 16.2689 35.4434L16.2771 37.8479ZM44.0047 23.9798C44.0047 28.4972 43.4746 31.946 39.291 31.946C35.1074 31.946 34.5854 28.4972 34.5854 23.9798C34.5854 19.4623 35.1155 16.054 39.291 16.054C43.4664 16.054 44.0047 19.4542 44.0047 23.9798ZM48.1312 35.6701C50.9121 32.9094 50.9692 28.1248 50.9692 23.9798C50.9692 19.8347 50.9121 15.0744 48.1312 12.3299C46.2719 10.6606 43.8357 9.76742 41.3298 9.83639C40.0204 9.75622 38.7101 9.9784 37.5017 10.4855C36.2933 10.9926 35.2197 11.7708 34.3653 12.759V10.1521H27.6209V48H34.5854V35.4029C36.404 37.4269 38.4918 38.1717 41.3298 38.1717C43.8374 38.2418 46.275 37.3453 48.1312 35.6701ZM72.3847 23.9798C72.3847 28.4972 71.8465 31.946 67.671 31.946C63.4955 31.946 62.9573 28.4972 62.9573 23.9798C62.9573 19.4623 63.4955 16.054 67.671 16.054C71.8465 16.054 72.3847 19.4542 72.3847 23.9798ZM76.5112 35.6701C79.2921 32.9094 79.3492 28.1248 79.3492 23.9798C79.3492 19.8347 79.2921 15.0744 76.5112 12.3299C74.6519 10.6606 72.2157 9.76742 69.7098 9.83639C68.4004 9.75622 67.0901 9.9784 65.8817 10.4855C64.6733 10.9926 63.5997 11.7708 62.7453 12.759V10.1521H56.0009V48H62.9573V35.4029C64.7841 37.4269 66.8718 38.1717 69.7098 38.1717C72.2174 38.2418 74.655 37.3453 76.5112 35.6701ZM92.2507 37.8479H96.2141V32.0027H93.5392C91.7695 32.0027 91.0927 31.1931 91.0927 29.5011V0H84.1281V29.9545C84.1281 33.889 86.5747 37.8722 92.2833 37.8722L92.2507 37.8479ZM103.807 21.4215C103.814 20.3986 104.031 19.388 104.443 18.4503C104.873 17.5887 105.538 16.8636 106.361 16.3567C107.185 15.8498 108.134 15.5812 109.103 15.5812C110.072 15.5812 111.022 15.8498 111.845 16.3567C112.669 16.8636 113.333 17.5887 113.764 18.4503C114.179 19.3874 114.398 20.3981 114.408 21.4215H103.807ZM103.807 26.1575H121.259V23.073C121.259 15.4711 116.871 9.83639 109.107 9.83639C101.874 9.83639 96.9481 14.9367 96.9481 23.9798C96.9481 35.1924 103.268 38.1717 109.858 38.1717C114.889 38.1717 117.621 36.6254 120.459 33.8081L116.227 29.7197C115.445 30.6052 114.468 31.3001 113.372 31.7508C112.276 32.2014 111.09 32.3957 109.907 32.3184C106 32.3184 103.807 29.7197 103.807 26.1575ZM134.274 37.8479H138.058V32.0027H135.538C133.907 32.0027 133.133 31.096 133.133 29.5011V16.2159H138.026V10.9536H133.133V2.76877H126.168V10.9536H123.224V16.2159H126.168V29.9302C126.168 33.8647 128.615 37.8479 134.258 37.8479H134.274ZM156.986 17.7136L162.238 12.4513C161.398 11.5664 160.372 10.8746 159.234 10.4243C158.096 9.97404 156.872 9.77614 155.649 9.8445C154.337 9.83758 153.039 10.1018 151.835 10.6203C150.632 11.1387 149.551 11.9002 148.66 12.8561V10.1926H141.859V37.8884H148.823V21.1543C148.823 17.6488 151.18 16.054 153.317 16.054C154.016 16.0289 154.711 16.1616 155.351 16.442C155.991 16.7225 156.559 17.1434 157.011 17.6731L156.986 17.7136ZM168.624 21.3891C168.634 20.3657 168.854 19.355 169.268 18.4179C169.698 17.556 170.361 16.8304 171.184 16.323C172.007 15.8157 172.956 15.5469 173.925 15.5469C174.893 15.5469 175.843 15.8157 176.666 16.323C177.488 16.8304 178.152 17.556 178.581 18.4179C178.996 19.355 179.215 20.3657 179.226 21.3891H168.624ZM168.624 26.1252H186.076V23.0406C186.076 15.4387 181.689 9.80403 173.925 9.80403C166.699 9.80403 161.774 14.9044 161.774 23.9474C161.774 35.1601 168.086 38.1393 174.675 38.1393C179.707 38.1393 182.439 36.593 185.277 33.7757L181.044 29.6873C180.264 30.5727 179.289 31.2676 178.194 31.7183C177.099 32.169 175.915 32.3633 174.732 32.2861C170.818 32.2861 168.624 29.6873 168.624 26.1252ZM207.165 21.3891H196.564C196.578 20.3661 196.797 19.3562 197.208 18.4179C197.639 17.5563 198.303 16.8312 199.126 16.3243C199.95 15.8174 200.9 15.5488 201.868 15.5488C202.837 15.5488 203.787 15.8174 204.611 16.3243C205.434 16.8312 206.098 17.5563 206.529 18.4179C206.941 19.3556 207.157 20.3663 207.165 21.3891ZM214.024 26.1252V23.0406C214.024 15.4387 209.636 9.80403 201.864 9.80403C194.639 9.80403 189.713 14.9044 189.713 23.9474C189.713 35.1601 196.033 38.1393 202.615 38.1393C207.655 38.1393 210.378 36.593 213.216 33.7757L209.008 29.7197C208.218 30.604 207.233 31.2955 206.13 31.7406C205.027 32.1857 203.835 32.3724 202.647 32.2861C198.741 32.2861 196.539 29.6873 196.539 26.1252H214.024Z" fill="black"/>
</svg>
