<svg xmlns="http://www.w3.org/2000/svg" width="32.5" height="32.5" viewBox="0 0 32.5 32.5">
  <g id="Group_38" data-name="Group 38" transform="translate(-451.399 -130)">
    <g id="Group_37" data-name="Group 37" transform="translate(46.399 0)">
      <circle id="Circle" cx="16.25" cy="16.25" r="16.25" transform="translate(405 130)" fill="#1d1d1d"/>
    </g>
    <path id="soundcloud-icon" d="M0,220.443a.814.814,0,0,0,.341.711.93.93,0,0,0,.728.17.822.822,0,0,0,.511-.259,1.025,1.025,0,0,0,.147-.622v-3.406a.84.84,0,0,0-.253-.617.84.84,0,0,0-.617-.253.825.825,0,0,0-.6.253.84.84,0,0,0-.253.617ZM2.7,221.9a.585.585,0,0,0,.241.511,1.043,1.043,0,0,0,.617.17,1.065,1.065,0,0,0,.628-.17.584.584,0,0,0,.241-.511V213.96a.825.825,0,0,0-.253-.6.84.84,0,0,0-.617-.253.862.862,0,0,0-.857.857Zm2.689.376a.58.58,0,0,0,.247.511,1.093,1.093,0,0,0,.634.17,1.043,1.043,0,0,0,.617-.17.585.585,0,0,0,.241-.511v-7.246a.859.859,0,0,0-.253-.622.816.816,0,0,0-.6-.258.882.882,0,0,0-.881.881v7.247Zm2.7.035q0,.646.869.646t.869-.646V210.566q0-.987-.6-1.116a.842.842,0,0,0-.763.223,1.1,1.1,0,0,0-.376.893v11.745Zm2.748.341V209.874q0-.611.364-.728a6.708,6.708,0,0,1,1.562-.187,6.963,6.963,0,0,1,6.965,6.378,3.966,3.966,0,1,1,1.54,7.622l-10.218-.012a.275.275,0,0,1-.159-.129.347.347,0,0,1-.053-.165Z" transform="translate(455.094 -70.709)" fill="#fff"/>
  </g>
</svg>
