<svg xmlns="http://www.w3.org/2000/svg" width="32.5" height="32.5" viewBox="0 0 32.5 32.5">
  <g id="Group_35" data-name="Group 35" transform="translate(-358.601 -130)">
    <circle id="Circle" cx="16.25" cy="16.25" r="16.25" transform="translate(358.601 130)" fill="#1d1d1d"/>
    <path id="spotify-2" d="M10,0A10,10,0,1,0,20,10,10,10,0,0,0,10,0Zm4.586,14.422a.623.623,0,0,1-.857.207c-2.348-1.435-5.3-1.759-8.785-.964a.623.623,0,0,1-.278-1.215c3.809-.87,7.077-.5,9.713,1.115A.624.624,0,0,1,14.586,14.422ZM15.81,11.7a.78.78,0,0,1-1.073.257,13.126,13.126,0,0,0-9.965-1.165A.779.779,0,1,1,4.319,9.3a14.587,14.587,0,0,1,11.233,1.329A.779.779,0,0,1,15.81,11.7Zm.105-2.836C12.691,6.951,7.374,6.774,4.3,7.708a.935.935,0,1,1-.542-1.79c3.533-1.072,9.4-.865,13.115,1.337a.935.935,0,0,1-.955,1.609Z" transform="translate(364.911 136.31)" fill="#fff"/>
  </g>
</svg>
