<svg xmlns="http://www.w3.org/2000/svg" width="32.5" height="32.5" viewBox="0 0 32.5 32.5">
  <g id="Group_34" data-name="Group 34" transform="translate(-307.734 -130)">
    <circle id="Circle" cx="16.25" cy="16.25" r="16.25" transform="translate(307.734 130)" fill="#1d1d1d"/>
    <path id="twitter" d="M20.919,4.261a8.569,8.569,0,0,1-2.465.676,4.3,4.3,0,0,0,1.887-2.374A8.6,8.6,0,0,1,17.615,3.6,4.295,4.295,0,0,0,10.3,7.517,12.184,12.184,0,0,1,1.456,3.033a4.3,4.3,0,0,0,1.327,5.73A4.274,4.274,0,0,1,.841,8.226a4.3,4.3,0,0,0,3.442,4.262,4.3,4.3,0,0,1-1.938.073,4.3,4.3,0,0,0,4.009,2.98A8.629,8.629,0,0,1,0,17.32a12.15,12.15,0,0,0,6.579,1.928,12.138,12.138,0,0,0,12.2-12.766,8.738,8.738,0,0,0,2.142-2.222Z" transform="translate(314.021 136.062)" fill="#fff"/>
  </g>
</svg>
