<svg xmlns="http://www.w3.org/2000/svg" width="32.5" height="32.5" viewBox="0 0 32.5 32.5">
  <g id="Group_36" data-name="Group 36" transform="translate(-405 -130)">
    <circle id="Circle" cx="16.25" cy="16.25" r="16.25" transform="translate(405 130)" fill="#1d1d1d"/>
    <path id="vimeo" d="M20.708,4.138q-.139,3.018-4.225,8.265-4.225,5.479-7.151,5.479-1.811,0-3.065-3.343L4.6,8.409q-.929-3.343-2-3.343a6.386,6.386,0,0,0-1.625.975L0,4.788Q1.518,3.453,3.017,2.095A6.839,6.839,0,0,1,6.082.237Q8.5.005,9.053,3.534q.6,3.807.836,4.736.7,3.157,1.532,3.157.65,0,1.95-2.043a8.014,8.014,0,0,0,1.393-3.111q.186-1.764-1.393-1.764a4.012,4.012,0,0,0-1.532.325Q13.371-.134,17.689.005q3.2.093,3.018,4.132Z" transform="translate(410.469 138.249)" fill="#fff"/>
  </g>
</svg>
