<svg xmlns="http://www.w3.org/2000/svg" width="32.5" height="32.5" viewBox="0 0 32.5 32.5">
  <g id="SoMe_1_" data-name="SoMe (1)" transform="translate(-3.25 -3.25)">
    <circle id="Ellipse_9" data-name="Ellipse 9" cx="16.25" cy="16.25" r="16.25" transform="translate(3.25 3.25)" fill="#1d1d1d"/>
    <path id="Path_148" data-name="Path 148" d="M28.682,13.307a2.625,2.625,0,0,1,.678,1.17,28.094,28.094,0,0,1,.013,10.045,2.625,2.625,0,0,1-1.848,1.848c-1.621.442-8.143.442-8.143.442s-6.522,0-8.143-.442a2.625,2.625,0,0,1-1.848-1.848,28.547,28.547,0,0,1-.013-10.031,2.625,2.625,0,0,1,1.848-1.848c1.621-.442,8.143-.455,8.143-.455s6.522,0,8.143.442A2.624,2.624,0,0,1,28.682,13.307ZM22.7,19.5l-5.411,3.134V16.366Z" fill="#f6f8fa" fill-rule="evenodd"/>
  </g>
</svg>
