<?xml version="1.0" encoding="UTF-8"?>
<svg id="a" data-name="Ebene 1" xmlns="http://www.w3.org/2000/svg" xmlns:xlink="http://www.w3.org/1999/xlink" viewBox="0 0 124 148">
  <defs>
    <clipPath id="b">
      <rect x="0" width="124" height="148" style="fill: none;"/>
    </clipPath>
  </defs>
  <g style="clip-path: url(#b);">
    <g>
      <path d="M59.56,110.92c-2.17.06-23,.91-35.64.75-12.64-.17-17.42,1.53-14.69-3.25C11.97,103.64,59.59,6.34,59.59,6.34l-.04,104.58h0Z" style="fill: #ebe8e3;"/>
      <path d="M63.67,8.45l-.15,11.13s7.08,32.94,6.37,55.59c-.71,22.65-6.69,35.97-6.69,35.97l.44,2.8s16.46-4.85,33.54-5.35c17.08-.51,23.05,1.88,19.29-7.34-3.75-9.22-18.1-42.68-33.81-66.07-15.71-23.39-19-26.72-19-26.72h0Z" style="fill: #ebe8e3;"/>
      <path d="M76.86,124.98c-2.2-3.55-7.62-5.29-13.87-6.08V1.67c0-.92-.75-1.67-1.67-1.67s-1.67.75-1.67,1.67v116.89c-9.53-.73-19.92.28-23.44.28-6.32,0-6.83,2.22-12.64,11.26,0,0,59.08,4.27,53.27-5.12h0Z" style="fill: #183b6d;"/>
      <path d="M11.46,127.37s11.85.62,52.02-4.1c55.21-6.49,62.89-12.46,59.99-4.78-3.75,9.92-11.79,35.24-40.3,28.34-26.81-6.49-43.71,10.92-74.28-9.39-6.79-4.51-17.24-11.1,2.56-10.07Z" style="fill: #7a7a7a;"/>
      <path d="M69.1,131.31c-.19-.18-.43-.3-.72-.38l-.62-.16c-.1-.03-.2-.05-.29-.08-.09-.02-.17-.05-.23-.08-.07-.03-.12-.07-.16-.11-.04-.04-.07-.1-.08-.17-.02-.13.02-.24.11-.33.09-.09.23-.14.4-.17.18-.03.35-.02.51.03.16.04.32.11.48.21l.43-.74c-.22-.17-.47-.29-.74-.36-.27-.07-.54-.08-.8-.04-.24.03-.45.1-.63.2-.19.1-.34.22-.47.37-.13.15-.22.31-.27.49-.06.18-.07.36-.04.56.02.17.07.32.14.45.07.13.15.24.25.33s.21.17.33.23c.12.06.24.11.36.14l.63.17c.1.03.2.06.28.08s.16.05.22.08c.06.03.11.07.15.12.04.05.06.11.07.18.02.14-.02.26-.11.35-.09.1-.25.16-.46.19-.19.03-.39,0-.6-.05-.21-.06-.4-.15-.59-.27l-.48.8c.26.19.55.32.86.39.31.07.61.08.91.04.27-.04.5-.11.71-.22.2-.11.37-.24.5-.39.13-.15.22-.32.27-.5.05-.18.07-.37.04-.57-.05-.33-.16-.58-.35-.76h0Z" style="fill: #fff;"/>
      <path d="M73.67,129.42c-.14-.28-.31-.51-.52-.69-.21-.18-.45-.3-.71-.37-.27-.07-.55-.08-.86-.04-.31.04-.58.14-.81.28-.24.14-.43.33-.59.56-.15.23-.26.5-.32.81-.06.31-.06.66,0,1.04.05.38.15.71.29,1,.14.28.32.52.52.7.21.18.45.31.72.39.27.07.55.09.86.05.31-.04.58-.14.81-.29.24-.15.43-.34.58-.58.15-.23.26-.51.31-.82.06-.31.06-.66,0-1.04-.05-.38-.15-.7-.29-.99ZM72.79,131.71c-.14.3-.37.47-.68.51-.31.04-.57-.05-.79-.3-.22-.25-.36-.6-.42-1.08-.07-.47-.03-.84.12-1.13.14-.29.37-.45.68-.5.31-.04.57.05.79.29.22.24.36.59.42,1.05.07.47.03.86-.12,1.15h0Z" style="fill: #fff;"/>
      <path d="M77.57,130.09c-.19-.18-.43-.3-.72-.38l-.62-.16c-.1-.03-.2-.06-.29-.08-.09-.02-.17-.05-.23-.08-.07-.03-.12-.07-.16-.11-.04-.04-.07-.1-.08-.17-.02-.13.02-.24.11-.33.09-.09.23-.15.41-.17.18-.03.35-.02.51.03.16.04.32.11.48.21l.43-.74c-.22-.17-.47-.29-.74-.36-.27-.07-.54-.08-.8-.05-.24.03-.45.1-.63.2-.19.1-.34.22-.47.37-.12.15-.22.31-.27.49-.06.18-.07.36-.04.56.02.17.07.32.14.45.07.13.15.24.25.33.1.09.21.17.33.23.12.06.24.11.36.14l.63.17c.1.03.2.05.28.08.08.02.16.05.22.08.06.03.11.07.15.12.04.05.06.11.07.18.02.14-.02.26-.11.35-.09.1-.25.16-.46.19-.19.03-.39,0-.6-.05-.21-.06-.4-.15-.59-.27l-.48.8c.26.19.55.32.86.39.31.07.61.08.91.04.27-.04.5-.11.71-.22.2-.11.37-.24.5-.39.13-.15.22-.32.27-.5.05-.18.07-.37.04-.57-.05-.33-.16-.58-.35-.76h0Z" style="fill: #fff;"/>
      <path d="M82.2,126.88l.25,1.79-1.56.22-.25-1.79-1.02.15.64,4.65,1.02-.15-.27-1.94,1.56-.23.27,1.94,1.03-.15-.64-4.65-1.03.15Z" style="fill: #fff;"/>
      <path d="M86.35,127.41l.32,2.34c-.08.15-.16.27-.24.34-.08.07-.18.12-.31.14-.15.02-.26-.01-.35-.1-.08-.08-.14-.26-.18-.51l-.28-2.06-1.02.15.3,2.19c.06.45.19.79.4,1.01.2.23.49.31.87.26.24-.04.43-.11.59-.24.16-.13.29-.29.42-.49h.02s.14.48.14.48l.83-.12-.49-3.53-1.02.15h0Z" style="fill: #fff;"/>
      <path d="M93.08,126.74c-.21-.23-.5-.32-.87-.26-.23.03-.42.12-.58.26-.15.14-.29.3-.43.49-.11-.18-.25-.31-.42-.39-.17-.08-.37-.1-.61-.07-.23.03-.41.11-.56.24-.15.13-.28.28-.41.45h-.03s-.13-.44-.13-.44l-.83.12.49,3.53,1.02-.15-.33-2.39c.18-.26.36-.4.54-.42.15-.02.26,0,.34.1.08.08.14.26.17.51l.28,2.06,1.02-.15-.33-2.39c.19-.26.37-.4.54-.43.15-.02.26.01.34.1.08.08.14.26.17.51l.28,2.06,1.02-.15-.3-2.19c-.06-.44-.2-.78-.4-1.01h0Z" style="fill: #fff;"/>
      <path d="M96.59,126.25c-.27-.23-.63-.31-1.07-.24-.27.04-.53.12-.76.24-.23.12-.45.27-.65.44l.46.64c.15-.12.3-.23.44-.3.14-.08.28-.13.43-.15.19-.03.33,0,.43.08.09.08.16.2.19.36-.67.17-1.14.38-1.42.63-.28.25-.39.56-.34.93.02.15.07.29.13.41.07.12.15.22.25.31.1.08.22.15.36.18.13.04.28.04.44.02.19-.03.37-.1.52-.2.15-.11.29-.24.42-.39h.03s.12.35.12.35l.83-.12-.28-2.02c-.08-.55-.25-.93-.52-1.16h0ZM95.99,128.8c-.08.06-.17.11-.29.12-.12.02-.22,0-.3-.04-.08-.04-.13-.12-.14-.24-.02-.14.03-.27.16-.39.13-.12.36-.23.72-.34l.09.62c-.08.11-.16.2-.23.26h0Z" style="fill: #fff;"/>
      <path d="M100.6,125.66c-.2-.23-.49-.31-.87-.26-.24.03-.43.12-.59.25-.16.13-.31.28-.43.44h-.03l-.13-.44-.83.12.49,3.53,1.02-.15-.33-2.39c.1-.12.19-.22.27-.3.08-.07.19-.12.32-.14.15-.02.26.01.34.1.08.08.14.26.17.51l.28,2.06,1.02-.15-.3-2.2c-.06-.45-.19-.78-.4-1.01h0Z" style="fill: #fff;"/>
      <path d="M102.06,124.62c.17-.03.31-.1.41-.21.09-.12.13-.26.11-.42-.02-.16-.1-.29-.22-.37-.12-.08-.27-.11-.45-.09-.17.03-.31.09-.4.21-.1.12-.13.26-.11.42.02.16.1.29.22.37s.27.12.44.09Z" style="fill: #fff;"/>
      <path d="M102.65,125.06l-1.02.15.49,3.53,1.02-.15-.49-3.53Z" style="fill: #fff;"/>
      <path d="M105.65,127.47c-.06.02-.11.04-.17.04-.14.02-.25,0-.34-.08-.09-.08-.15-.22-.18-.41l-.2-1.42.83-.12-.11-.82-.83.12-.13-.94-.85.12v.96s-.51.12-.51.12l.11.78.47-.07.2,1.43c.03.2.07.39.14.55.07.16.16.3.27.4.11.11.25.18.41.23.16.04.34.05.56.02.17-.02.31-.06.43-.11.12-.05.23-.09.32-.13l-.27-.74s-.09.05-.15.07Z" style="fill: #fff;"/>
      <path d="M108.32,124.25l-.21,1.58c-.02.17-.04.35-.05.52-.02.17-.03.35-.05.52h-.03c-.07-.17-.14-.33-.2-.49-.06-.16-.13-.32-.21-.47l-.7-1.45-1.03.15,1.8,3.25-.02.19c-.03.14-.08.27-.16.36-.08.1-.21.16-.38.18-.04,0-.08,0-.12,0s-.08,0-.11-.01l-.07.83c.07.01.15.02.22.02.07,0,.17,0,.27-.02.2-.03.38-.08.52-.16.14-.08.26-.18.37-.31.1-.13.19-.28.26-.46.07-.18.13-.39.18-.63l.7-3.74-.98.14h0Z" style="fill: #fff;"/>
    </g>
  </g>
</svg>