<svg width="124" height="148" viewBox="0 0 124 148" fill="none" xmlns="http://www.w3.org/2000/svg">
  <g clip-path="url(#clip0_666_13286)">
    <path d="M59.5594 110.918C57.3931 110.976 36.5562 111.831 23.9207 111.665C11.2853 111.491 6.5035 113.2 9.2349 108.419C11.9663 103.638 59.5884 6.33838 59.5884 6.33838L59.5522 110.918H59.5594Z" fill="#ece8e4"/>
    <path d="M63.6662 8.45361L63.5141 19.5875C63.5141 19.5875 70.5926 52.5255 69.8825 75.1771C69.1725 97.8288 63.1953 111.15 63.1953 111.15L63.6373 113.946C63.6373 113.946 80.0981 109.1 97.1749 108.593C114.252 108.086 120.229 110.469 116.469 101.255C112.716 92.0337 98.3703 58.5741 82.6629 35.1836C66.9555 11.793 63.6662 8.46086 63.6662 8.46086V8.45361Z" fill="#ece8e4"/>
    <path d="M76.8587 124.979C74.6634 121.429 69.2368 119.691 62.9843 118.894V1.6661C62.9843 0.746121 62.238 0 61.3179 0C60.3978 0 59.6515 0.746121 59.6515 1.6661V118.561C50.1242 117.829 39.7275 118.836 36.2136 118.836C29.8959 118.836 29.3815 121.053 23.5781 130.1C23.5781 130.1 82.6547 134.367 76.8514 124.979H76.8587Z" fill="#183B6D"/>
    <path d="M11.4634 127.369C11.4634 127.369 23.3092 127.992 63.4833 123.269C118.691 116.779 126.378 110.81 123.473 118.488C119.727 128.405 111.678 153.723 83.1755 146.826C56.3686 140.336 39.4658 157.75 8.89866 137.438C2.10999 132.925 -8.3447 126.341 11.4634 127.369Z" fill="#9a9696"/>
    <path d="M69.1049 131.311C68.9182 131.136 68.6766 131.01 68.3848 130.935L67.7683 130.777C67.6647 130.749 67.5705 130.722 67.4811 130.698C67.394 130.674 67.3138 130.647 67.2476 130.615C67.179 130.583 67.1243 130.546 67.0834 130.501C67.0426 130.457 67.0154 130.398 67.0067 130.328C66.9894 130.194 67.0265 130.085 67.1203 129.997C67.214 129.908 67.3482 129.852 67.5253 129.826C67.7048 129.8 67.8757 129.808 68.0311 129.852C68.1888 129.894 68.3495 129.964 68.5133 130.064L68.9419 129.326C68.7203 129.154 68.4742 129.036 68.2013 128.968C67.9284 128.9 67.6614 128.885 67.3981 128.923C67.1627 128.957 66.9516 129.025 66.7646 129.123C66.5776 129.223 66.4215 129.345 66.2942 129.492C66.1691 129.639 66.0772 129.802 66.0208 129.98C65.9643 130.159 65.9501 130.344 65.9782 130.536C66.001 130.705 66.0491 130.855 66.1177 130.983C66.1863 131.111 66.2708 131.219 66.3712 131.31C66.4716 131.401 66.581 131.476 66.6994 131.535C66.8178 131.595 66.9405 131.642 67.0605 131.673L67.6867 131.844C67.7903 131.873 67.8845 131.9 67.9693 131.924C68.0541 131.948 68.1295 131.975 68.1935 132.007C68.2574 132.039 68.3074 132.079 68.3437 132.128C68.38 132.175 68.4048 132.235 68.4135 132.306C68.4333 132.445 68.3964 132.561 68.3028 132.657C68.2093 132.753 68.0565 132.817 67.8444 132.846C67.6556 132.872 67.4541 132.855 67.2468 132.793C67.0372 132.731 66.8432 132.64 66.6603 132.522L66.1771 133.325C66.4389 133.516 66.7251 133.645 67.0354 133.715C67.3458 133.784 67.6478 133.798 67.9437 133.755C68.2117 133.717 68.4484 133.642 68.6492 133.534C68.8524 133.426 69.0175 133.294 69.1448 133.143C69.2721 132.991 69.3638 132.823 69.4155 132.639C69.4672 132.456 69.4812 132.266 69.4531 132.07C69.4077 131.743 69.2917 131.491 69.1049 131.313L69.1049 131.311Z" fill="black"/>
    <path d="M73.6695 129.422C73.5294 129.14 73.3554 128.909 73.1453 128.732C72.9375 128.555 72.6983 128.429 72.4323 128.359C72.164 128.288 71.8784 128.274 71.5731 128.32C71.2679 128.363 70.9965 128.456 70.7592 128.601C70.5218 128.743 70.3276 128.93 70.1741 129.157C70.0206 129.384 69.915 129.655 69.8571 129.966C69.7992 130.277 69.7959 130.622 69.8472 131.003C69.8986 131.383 69.9956 131.716 70.1381 132.001C70.2783 132.285 70.4547 132.518 70.6627 132.703C70.8729 132.885 71.1099 133.016 71.3783 133.091C71.6467 133.166 71.9324 133.183 72.2377 133.137C72.5429 133.093 72.8142 132.996 73.0514 132.848C73.2887 132.701 73.4828 132.509 73.6337 132.273C73.7847 132.039 73.8902 131.763 73.9481 131.45C74.0059 131.136 74.0091 130.789 73.9578 130.408C73.9066 130.033 73.8097 129.704 73.6695 129.422ZM72.7923 131.713C72.6499 132.011 72.4226 132.185 72.1127 132.228C71.8027 132.272 71.5384 132.173 71.3195 131.924C71.1007 131.677 70.9587 131.319 70.8958 130.848C70.8306 130.381 70.8706 130.006 71.0156 129.72C71.1606 129.433 71.3881 129.267 71.698 129.221C72.0079 129.177 72.2721 129.272 72.4883 129.506C72.7045 129.741 72.8464 130.092 72.9091 130.556C72.9743 131.027 72.9346 131.412 72.7922 131.711L72.7923 131.713Z" fill="black"/>
    <path d="M77.5658 130.093C77.3791 129.917 77.1375 129.791 76.8458 129.717L76.2292 129.559C76.1257 129.531 76.0315 129.504 75.942 129.48C75.8549 129.456 75.7747 129.429 75.7085 129.397C75.6399 129.365 75.5852 129.328 75.5444 129.283C75.5035 129.239 75.4764 129.179 75.4677 129.11C75.4504 128.976 75.4875 128.867 75.5812 128.779C75.6749 128.69 75.8092 128.634 75.9863 128.608C76.1657 128.582 76.3366 128.59 76.492 128.634C76.6497 128.676 76.8104 128.746 76.9742 128.845L77.4029 128.108C77.1812 127.936 76.9351 127.817 76.6622 127.75C76.3916 127.682 76.1224 127.667 75.859 127.704C75.6237 127.739 75.4125 127.806 75.2255 127.905C75.0385 128.005 74.8825 128.126 74.7551 128.273C74.6301 128.42 74.5382 128.583 74.4817 128.762C74.4253 128.941 74.4111 129.126 74.4391 129.317C74.462 129.487 74.51 129.637 74.5786 129.765C74.6472 129.893 74.7317 130.001 74.8321 130.092C74.9326 130.183 75.0419 130.257 75.1603 130.317C75.2787 130.376 75.4014 130.424 75.5214 130.454L76.1477 130.626C76.2513 130.655 76.3454 130.681 76.4302 130.706C76.515 130.73 76.5905 130.757 76.6544 130.789C76.7183 130.821 76.7684 130.861 76.8047 130.91C76.8409 130.957 76.8657 131.017 76.8745 131.088C76.8942 131.227 76.8573 131.343 76.7638 131.439C76.6702 131.535 76.5174 131.598 76.3053 131.627C76.1166 131.654 75.915 131.637 75.7078 131.575C75.4981 131.513 75.3041 131.422 75.1212 131.304L74.638 132.107C74.8999 132.297 75.186 132.427 75.4963 132.496C75.8067 132.566 76.1087 132.58 76.4046 132.537C76.6727 132.499 76.9093 132.424 77.1102 132.315C77.3133 132.207 77.4785 132.076 77.6057 131.924C77.733 131.773 77.8248 131.605 77.8764 131.421C77.9281 131.238 77.9422 131.048 77.914 130.852C77.8686 130.524 77.7526 130.273 77.5659 130.095L77.5658 130.093Z" fill="black"/>
    <path d="M82.2042 126.876L82.4512 128.662L80.8875 128.887L80.6405 127.099L79.6199 127.246L80.2615 131.891L81.2822 131.744L81.0152 129.807L82.5765 129.582L82.8458 131.519L83.8734 131.371L83.2318 126.726L82.2042 126.876Z" fill="black"/>
    <path d="M86.3525 127.41L86.676 129.746C86.5932 129.899 86.5118 130.012 86.4317 130.086C86.3517 130.159 86.2476 130.208 86.1171 130.225C85.9679 130.246 85.8526 130.215 85.771 130.13C85.6895 130.046 85.6292 129.875 85.5949 129.619L85.3109 127.561L84.2902 127.708L84.5939 129.902C84.6562 130.349 84.7884 130.687 84.9926 130.912C85.197 131.14 85.4867 131.226 85.8619 131.172C86.0972 131.137 86.294 131.058 86.4476 130.932C86.6036 130.806 86.7422 130.642 86.8659 130.44L86.887 130.439L87.0319 130.918L87.8661 130.797L87.3779 127.263L86.3572 127.41L86.3525 127.41Z" fill="black"/>
    <path d="M93.0753 126.743C92.8662 126.513 92.5765 126.427 92.206 126.479C91.9753 126.513 91.7833 126.599 91.6301 126.74C91.4768 126.88 91.3358 127.042 91.2046 127.225C91.0904 127.048 90.9516 126.919 90.786 126.84C90.6203 126.76 90.4163 126.736 90.1717 126.773C89.9456 126.805 89.7582 126.886 89.6094 127.017C89.4629 127.148 89.3262 127.297 89.204 127.463L89.1759 127.464L89.0436 127.021L88.2093 127.142L88.6976 130.676L89.7183 130.528L89.3889 128.142C89.5697 127.884 89.7486 127.743 89.9257 127.717C90.0749 127.696 90.1879 127.727 90.2695 127.814C90.3487 127.898 90.4067 128.07 90.4433 128.325L90.7273 130.384L91.748 130.237L91.4186 127.851C91.6087 127.592 91.79 127.448 91.9624 127.423C92.1115 127.402 92.2245 127.433 92.3062 127.52C92.3854 127.604 92.4433 127.775 92.48 128.031L92.7639 130.09L93.7846 129.942L93.4809 127.748C93.4211 127.305 93.2843 126.971 93.0776 126.741L93.0753 126.743Z" fill="black"/>
    <path d="M96.5873 126.245C96.3175 126.019 95.9601 125.939 95.5174 126.002C95.2448 126.043 94.9918 126.121 94.7609 126.242C94.53 126.362 94.3113 126.507 94.1097 126.677L94.5742 127.316C94.7279 127.192 94.8727 127.09 95.0112 127.013C95.1496 126.935 95.2934 126.886 95.4401 126.863C95.6289 126.837 95.7722 126.862 95.8654 126.944C95.9585 127.026 96.0222 127.144 96.0517 127.299C95.3801 127.469 94.9081 127.68 94.6314 127.933C94.3546 128.187 94.2429 128.497 94.294 128.868C94.3141 129.021 94.3595 129.156 94.4256 129.277C94.4916 129.398 94.576 129.501 94.6763 129.585C94.7765 129.669 94.895 129.731 95.0314 129.766C95.1656 129.803 95.3131 129.809 95.4692 129.786C95.6626 129.758 95.8364 129.691 95.9858 129.584C96.1375 129.477 96.277 129.347 96.4065 129.193L96.4346 129.192L96.553 129.542L97.3872 129.421L97.1088 127.398C97.0324 126.853 96.8616 126.466 96.5918 126.24L96.5873 126.245ZM95.9878 128.805C95.9122 128.869 95.815 128.91 95.7008 128.927C95.5797 128.944 95.4812 128.932 95.4005 128.886C95.3223 128.842 95.2736 128.762 95.2591 128.65C95.2394 128.511 95.2924 128.383 95.4181 128.264C95.5439 128.146 95.782 128.033 96.1372 127.928L96.2224 128.547C96.1432 128.655 96.0658 128.743 95.9902 128.807L95.9878 128.805Z" fill="black"/>
    <path d="M100.601 125.658C100.397 125.43 100.107 125.344 99.7343 125.398C99.499 125.433 99.2998 125.514 99.1394 125.648C98.979 125.781 98.8329 125.929 98.7059 126.093L98.6779 126.093L98.5457 125.657L97.7115 125.779L98.1997 129.312L99.2204 129.165L98.891 126.779C98.9862 126.654 99.0773 126.554 99.1621 126.482C99.2468 126.41 99.3533 126.365 99.4838 126.345C99.6329 126.324 99.7459 126.355 99.8275 126.442C99.9068 126.526 99.9647 126.698 100.001 126.953L100.285 129.012L101.306 128.865L101.002 126.67C100.94 126.223 100.808 125.885 100.604 125.66L100.601 125.658Z" fill="black"/>
    <path d="M102.061 124.617C102.235 124.591 102.372 124.521 102.467 124.404C102.562 124.286 102.599 124.146 102.576 123.983C102.553 123.821 102.48 123.698 102.359 123.615C102.235 123.531 102.087 123.501 101.91 123.527C101.738 123.553 101.604 123.621 101.506 123.738C101.408 123.854 101.372 123.994 101.395 124.154C101.417 124.314 101.49 124.439 101.616 124.525C101.742 124.611 101.89 124.641 102.061 124.617Z" fill="black"/>
    <path d="M102.646 125.063L101.625 125.21L102.113 128.744L103.134 128.597L102.646 125.063Z" fill="black"/>
    <path d="M105.648 127.466C105.592 127.489 105.536 127.505 105.48 127.511C105.345 127.531 105.232 127.502 105.139 127.426C105.046 127.349 104.987 127.211 104.959 127.013L104.763 125.595L105.59 125.476L105.476 124.656L104.649 124.775L104.519 123.835L103.67 123.957L103.682 124.914L103.161 125.032L103.269 125.809L103.742 125.74L103.941 127.172C103.969 127.375 104.015 127.559 104.085 127.722C104.152 127.884 104.242 128.018 104.352 128.124C104.462 128.229 104.599 128.305 104.757 128.349C104.917 128.393 105.102 128.4 105.317 128.371C105.482 128.348 105.626 128.311 105.749 128.265C105.869 128.219 105.976 128.175 106.064 128.132L105.798 127.393C105.754 127.418 105.703 127.443 105.648 127.466Z" fill="black"/>
    <path d="M108.318 124.249L108.111 125.825C108.092 125.998 108.075 126.172 108.059 126.345C108.042 126.518 108.027 126.691 108.013 126.864L107.985 126.865C107.915 126.698 107.846 126.535 107.781 126.373C107.716 126.214 107.647 126.055 107.575 125.901L106.874 124.455L105.846 124.602L107.646 127.852L107.623 128.044C107.596 128.189 107.54 128.31 107.461 128.408C107.379 128.506 107.254 128.569 107.082 128.592C107.045 128.598 107.005 128.599 106.963 128.595C106.921 128.591 106.881 128.587 106.848 128.583L106.777 129.408C106.85 129.423 106.925 129.428 107 129.431C107.074 129.432 107.165 129.427 107.273 129.41C107.475 129.381 107.649 129.327 107.792 129.249C107.936 129.171 108.057 129.067 108.161 128.938C108.263 128.808 108.349 128.655 108.417 128.473C108.485 128.292 108.543 128.084 108.596 127.848L109.297 124.105L108.318 124.247L108.318 124.249Z" fill="black"/>
  </g>
  <defs>
    <clipPath id="clip0_666_13286">
      <rect width="124" height="148" fill="white"/>
    </clipPath>
  </defs>
</svg>
