<svg width="124" height="149" viewBox="0 0 124 149" fill="none" xmlns="http://www.w3.org/2000/svg">
<g clip-path="url(#clip0_666_14800)">
<path d="M59.5594 111.173C57.3931 111.231 36.5562 112.086 23.9207 111.919C11.2853 111.746 6.5035 113.455 9.2349 108.674C11.9663 103.893 59.5884 6.59326 59.5884 6.59326L59.5522 111.173H59.5594Z" fill="#EBE8E3"/>
<path d="M63.6662 8.7085L63.5141 19.8424C63.5141 19.8424 70.5926 52.7803 69.8825 75.432C69.1725 98.0837 63.1953 111.405 63.1953 111.405L63.6373 114.201C63.6373 114.201 80.0981 109.355 97.1749 108.848C114.252 108.341 120.229 110.724 116.469 101.51C112.716 92.2885 98.3703 58.829 82.6629 35.4385C66.9555 12.0479 63.6662 8.71574 63.6662 8.71574V8.7085Z" fill="#EBE8E3"/>
<path d="M76.8587 125.234C74.6634 121.684 69.2368 119.946 62.9843 119.149V1.92098C62.9843 1.001 62.238 0.254883 61.3179 0.254883C60.3978 0.254883 59.6515 1.001 59.6515 1.92098V118.816C50.1242 118.084 39.7275 119.091 36.2136 119.091C29.8959 119.091 29.3815 121.308 23.5781 130.355C23.5781 130.355 82.6547 134.622 76.8514 125.234H76.8587Z" fill="#183B6D"/>
<path d="M11.4634 127.624C11.4634 127.624 23.3092 128.247 63.4833 123.524C118.691 117.034 126.378 111.065 123.473 118.743C119.727 128.66 111.678 153.978 83.1755 147.081C56.3686 140.591 39.4658 158.005 8.89866 137.693C2.10999 133.18 -8.3447 126.596 11.4634 127.624Z" fill="#7A7A7A"/>
</g>
<defs>
<clipPath id="clip0_666_14800">
<rect width="124" height="148" fill="white" transform="translate(0 0.254883)"/>
</clipPath>
</defs>
</svg>