<svg width="772" height="23" viewBox="0 0 772 23" fill="none" xmlns="http://www.w3.org/2000/svg">
  <path opacity="0.8" d="M765.51 0.304883C758.63 3.87488 749.07 6.08488 738.49 6.08488C727.91 6.08488 718.26 3.84488 711.38 0.254883C704.5 3.85488 694.9 6.08488 684.27 6.08488C673.64 6.08488 664.03 3.85488 657.14 0.254883C650.26 3.85488 640.66 6.08488 630.03 6.08488C619.4 6.08488 609.8 3.85488 602.91 0.254883C596.03 3.85488 586.43 6.08488 575.8 6.08488C565.17 6.08488 555.57 3.84488 548.69 0.254883C541.81 3.85488 532.21 6.08488 521.58 6.08488C510.95 6.08488 501.34 3.85488 494.46 0.254883C487.58 3.85488 477.98 6.08488 467.35 6.08488C456.72 6.08488 447.12 3.84488 440.24 0.254883C433.36 3.85488 423.76 6.08488 413.13 6.08488C402.5 6.08488 392.9 3.84488 386.02 0.254883C379.14 3.85488 369.54 6.08488 358.91 6.08488C348.28 6.08488 338.65 3.85488 331.77 0.254883C324.89 3.85488 315.29 6.08488 304.66 6.08488C294.03 6.08488 284.43 3.84488 277.55 0.254883C270.67 3.85488 261.07 6.08488 250.44 6.08488C239.81 6.08488 230.2 3.85488 223.31 0.254883C216.43 3.85488 206.83 6.08488 196.2 6.08488C185.57 6.08488 175.97 3.85488 169.09 0.254883C162.21 3.85488 152.61 6.08488 141.98 6.08488C131.35 6.08488 121.75 3.84488 114.87 0.254883C107.99 3.85488 98.39 6.08488 87.76 6.08488C77.13 6.08488 67.51 3.85488 60.63 0.254883C53.75 3.85488 44.15 6.08488 33.52 6.08488C22.89 6.08488 13.36 3.87488 6.49 0.304883C2.65 2.22488 0 6.18488 0 10.7749C0 17.2349 5.24 22.4849 11.71 22.4849H760.3C766.76 22.4849 772.01 17.2449 772.01 10.7749C772.01 6.18488 769.36 2.22488 765.52 0.304883H765.51Z" fill="#83D6F6"/>
</svg>
