<svg width="343" height="10" viewBox="0 0 343 10" fill="none" xmlns="http://www.w3.org/2000/svg">
  <path opacity="0.8" d="M340.117 0.0213584C337.06 1.54635 332.812 2.49039 328.111 2.49039C323.411 2.49039 319.123 1.53353 316.067 0C313.01 1.5378 308.744 2.49039 304.022 2.49039C299.299 2.49039 295.029 1.5378 291.968 0C288.911 1.5378 284.646 2.49039 279.923 2.49039C275.2 2.49039 270.934 1.5378 267.873 0C264.816 1.5378 260.551 2.49039 255.828 2.49039C251.105 2.49039 246.84 1.53353 243.783 0C240.726 1.5378 236.461 2.49039 231.738 2.49039C227.015 2.49039 222.746 1.5378 219.689 0C216.632 1.5378 212.367 2.49039 207.644 2.49039C202.921 2.49039 198.656 1.53353 195.599 0C192.542 1.5378 188.277 2.49039 183.554 2.49039C178.831 2.49039 174.566 1.53353 171.509 0C168.452 1.5378 164.187 2.49039 159.464 2.49039C154.741 2.49039 150.462 1.5378 147.406 0C144.349 1.5378 140.084 2.49039 135.361 2.49039C130.638 2.49039 126.372 1.53353 123.316 0C120.259 1.5378 115.994 2.49039 111.271 2.49039C106.548 2.49039 102.278 1.5378 99.2168 0C96.16 1.5378 91.8947 2.49039 87.1718 2.49039C82.4488 2.49039 78.1836 1.5378 75.1268 0C72.07 1.5378 67.8047 2.49039 63.0818 2.49039C58.3589 2.49039 54.0936 1.53353 51.0368 0C47.98 1.5378 43.7147 2.49039 38.9918 2.49039C34.2689 2.49039 29.9947 1.5378 26.9379 0C23.8812 1.5378 19.6159 2.49039 14.893 2.49039C10.17 2.49039 5.93585 1.54635 2.88351 0.0213584C1.1774 0.841521 0 2.53311 0 4.49381C0 7.25331 2.32814 9.49594 5.20276 9.49594H337.802C340.672 9.49594 343.004 7.25758 343.004 4.49381C343.004 2.53311 341.827 0.841521 340.121 0.0213584H340.117Z" fill="#83D6F6"/>
</svg>
