<svg width="60" height="60" viewBox="0 0 60 60" fill="none" xmlns="http://www.w3.org/2000/svg">
<path fill-rule="evenodd" clip-rule="evenodd" d="M23.2276 23C19.5231 23 16.4662 26.113 16.4662 30.0297V43.7569C16.4662 45.6902 16.2469 47.6226 15.8182 49.5054C15.8181 49.5056 15.8182 49.5053 15.8182 49.5054L14.9752 53.2212C14.853 53.7598 14.3174 54.0974 13.7788 53.9752C13.2402 53.853 12.9026 53.3174 13.0248 52.7788L13.8678 49.0626C14.2637 47.3241 14.4662 45.5396 14.4662 43.7569V30.0297C14.4662 25.073 18.3551 21 23.2276 21C23.7799 21 24.2276 21.4477 24.2276 22C24.2276 22.5523 23.7799 23 23.2276 23Z" fill="black"/>
<path fill-rule="evenodd" clip-rule="evenodd" d="M24.0323 18C24.0323 17.4477 24.4801 17 25.0323 17H34.9946C35.5469 17 35.9946 17.4477 35.9946 18C35.9946 18.5523 35.5469 19 34.9946 19H25.0323C24.4801 19 24.0323 18.5523 24.0323 18Z" fill="black"/>
<path fill-rule="evenodd" clip-rule="evenodd" d="M20.557 6.47347C20.7393 6.17911 21.0609 6 21.4071 6H37.7341C38.0736 6 38.3898 6.17219 38.5741 6.4573C38.7583 6.74241 38.7853 7.1015 38.6458 7.41095L35.6294 14.1024C35.4025 14.6059 34.8103 14.83 34.3068 14.6031C33.8033 14.3761 33.5792 13.784 33.8061 13.2805L36.1864 8H23.0217L25.6323 13.2459C25.8784 13.7403 25.6771 14.3406 25.1826 14.5867C24.6882 14.8327 24.0879 14.6314 23.8418 14.1369L20.5118 7.44553C20.3576 7.13555 20.3746 6.76783 20.557 6.47347Z" fill="black"/>
<path fill-rule="evenodd" clip-rule="evenodd" d="M33.2796 29.7972C34.2738 30.4161 35 31.4355 35 32.8202C35 33.3725 34.5523 33.8202 34 33.8202C33.4477 33.8202 33 33.3725 33 32.8202C33 32.2331 32.7271 31.8091 32.2227 31.4951C31.683 31.1591 30.8936 30.973 30.0389 31.0032C29.1864 31.0333 28.3844 31.2748 27.8257 31.6619C27.2911 32.0324 27.0073 32.5055 27.0073 33.1014C27.0073 33.8797 27.3101 34.3183 27.8287 34.6803C28.4291 35.0996 29.2624 35.3741 30.3047 35.7175L30.3165 35.7213C31.2835 36.0399 32.4487 36.4244 33.3535 37.1071C34.3349 37.8476 35 38.9258 35 40.494C35 42.824 32.9155 44.258 31.0043 44.7604C29.076 45.2673 26.5597 45.0468 25.2046 43.2682C24.8699 42.8289 24.9546 42.2014 25.394 41.8667C25.8333 41.532 26.4607 41.6168 26.7954 42.0561C27.4406 42.903 28.9243 43.2392 30.4959 42.8261C32.0846 42.4085 33 41.4457 33 40.494C33 39.5979 32.666 39.0939 32.1488 38.7036C31.5549 38.2554 30.722 37.9606 29.6908 37.6209C29.6394 37.604 29.5875 37.587 29.535 37.5697C28.6158 37.268 27.5312 36.9119 26.6836 36.3201C25.7035 35.6358 25.0073 34.6186 25.0073 33.1014C25.0073 31.7265 25.7225 30.6861 26.6866 30.018C27.6265 29.3667 28.8227 29.0448 29.9684 29.0044C31.1118 28.964 32.3206 29.2002 33.2796 29.7972Z" fill="black"/>
<path fill-rule="evenodd" clip-rule="evenodd" d="M30 26C30.5523 26 31 26.4477 31 27V28.9248C31 29.4771 30.5523 29.9248 30 29.9248C29.4477 29.9248 29 29.4771 29 28.9248V27C29 26.4477 29.4477 26 30 26Z" fill="black"/>
<path fill-rule="evenodd" clip-rule="evenodd" d="M30 44C30.5523 44 31 44.4477 31 45L31 47C31 47.5523 30.5523 48 30 48C29.4477 48 29 47.5523 29 47L29 45C29 44.4477 29.4477 44 30 44Z" fill="black"/>
<path fill-rule="evenodd" clip-rule="evenodd" d="M36.2724 23C39.9769 23 43.0338 26.113 43.0338 30.0297V43.7569C43.0338 45.6902 43.2531 47.6226 43.6818 49.5054C43.6819 49.5056 43.6818 49.5053 43.6818 49.5054L44.5248 53.2212C44.647 53.7598 45.1826 54.0974 45.7212 53.9752C46.2598 53.853 46.5974 53.3174 46.4752 52.7788L45.6322 49.0626C45.2363 47.3241 45.0338 45.5396 45.0338 43.7569V30.0297C45.0338 25.073 41.1449 21 36.2724 21C35.7201 21 35.2724 21.4477 35.2724 22C35.2724 22.5523 35.7201 23 36.2724 23Z" fill="black"/>
<path fill-rule="evenodd" clip-rule="evenodd" d="M45.5007 53.9786L14.0006 54L13.9993 52L45.4993 51.9786L45.5007 53.9786Z" fill="black"/>
</svg>
