<svg width="60" height="60" viewBox="0 0 60 60" fill="none" xmlns="http://www.w3.org/2000/svg">
<path fill-rule="evenodd" clip-rule="evenodd" d="M40 14C41.6569 14 43 15.3431 43 17L43 51C43 52.6569 41.6569 54 40 54L24.5455 54C23.9932 54 23.5455 53.5523 23.5455 53C23.5455 52.4477 23.9932 52 24.5455 52L40 52C40.5523 52 41 51.5523 41 51L41 17C41 16.4477 40.5523 16 40 16L20 16C19.4477 16 19 16.4477 19 17L19 53C19 53.5523 18.5523 54 18 54C17.4477 54 17 53.5523 17 53L17 17C17 15.3431 18.3431 14 20 14L40 14Z" fill="black"/>
<path fill-rule="evenodd" clip-rule="evenodd" d="M35 6C36.1046 6 37 6.89543 37 8L37 11C37 11.5523 36.5523 12 36 12C35.4477 12 35 11.5523 35 11L35 8L25 8L25 11C25 11.5523 24.5523 12 24 12C23.4477 12 23 11.5523 23 11L23 8C23 6.89543 23.8954 6 25 6L35 6Z" fill="black"/>
<path fill-rule="evenodd" clip-rule="evenodd" d="M37 44C37 44.5523 36.5523 45 36 45L24 45C23.4477 45 23 44.5523 23 44C23 43.4477 23.4477 43 24 43L36 43C36.5523 43 37 43.4477 37 44Z" fill="black"/>
<path fill-rule="evenodd" clip-rule="evenodd" d="M37 37C37 37.5523 36.5523 38 36 38L24 38C23.4477 38 23 37.5523 23 37C23 36.4477 23.4477 36 24 36L36 36C36.5523 36 37 36.4477 37 37Z" fill="black"/>
<path fill-rule="evenodd" clip-rule="evenodd" d="M37 30C37 30.5523 36.5523 31 36 31L24 31C23.4477 31 23 30.5523 23 30C23 29.4477 23.4477 29 24 29L36 29C36.5523 29 37 29.4477 37 30Z" fill="black"/>
</svg>
