<svg width="60" height="60" viewBox="0 0 60 60" fill="none" xmlns="http://www.w3.org/2000/svg">
<path fill-rule="evenodd" clip-rule="evenodd" d="M30 16C30.5523 16 31 16.4477 31 17L31 44.5C31 45.0523 30.5523 45.5 30 45.5C29.4477 45.5 29 45.0523 29 44.5L29 17C29 16.4477 29.4477 16 30 16Z" fill="black"/>
<path fill-rule="evenodd" clip-rule="evenodd" d="M32 13C32 12.4477 32.4477 12 33 12H45C45.5523 12 46 12.4477 46 13C46 13.5523 45.5523 14 45 14H33C32.4477 14 32 13.5523 32 13Z" fill="black"/>
<path fill-rule="evenodd" clip-rule="evenodd" d="M13 50C13 49.4477 13.4477 49 14 49H46C46.5523 49 47 49.4477 47 50C47 50.5523 46.5523 51 46 51H14C13.4477 51 13 50.5523 13 50Z" fill="black"/>
<path fill-rule="evenodd" clip-rule="evenodd" d="M14 13C14 12.4477 14.4477 12 15 12L27 12C27.5523 12 28 12.4477 28 13C28 13.5523 27.5523 14 27 14L15 14C14.4477 14 14 13.5523 14 13Z" fill="black"/>
<path fill-rule="evenodd" clip-rule="evenodd" d="M30 11C28.8954 11 28 11.8954 28 13C28 14.1046 28.8954 15 30 15C31.1046 15 32 14.1046 32 13C32 11.8954 31.1046 11 30 11ZM26 13C26 10.7909 27.7909 9 30 9C32.2091 9 34 10.7909 34 13C34 15.2091 32.2091 17 30 17C27.7909 17 26 15.2091 26 13Z" fill="black"/>
<path fill-rule="evenodd" clip-rule="evenodd" d="M6 33C6 32.4477 6.44772 32 7 32H23V33H24C24 37.9706 19.9706 42 15 42C10.0294 42 6 37.9706 6 33ZM21.9291 34H8.07089C8.55612 37.3923 11.4735 40 15 40C18.5265 40 21.4439 37.3923 21.9291 34Z" fill="black"/>
<path fill-rule="evenodd" clip-rule="evenodd" d="M36 33C36 32.4477 36.4477 32 37 32H53V33H54C54 37.9706 49.9706 42 45 42C40.0294 42 36 37.9706 36 33ZM51.9291 34H38.0709C38.5561 37.3923 41.4735 40 45 40C48.5265 40 51.4439 37.3923 51.9291 34Z" fill="black"/>
<path fill-rule="evenodd" clip-rule="evenodd" d="M15 12C15.4089 12 15.7766 12.249 15.9285 12.6286L23.9285 32.6286C24.1336 33.1414 23.8842 33.7234 23.3714 33.9285C22.8586 34.1336 22.2766 33.8842 22.0715 33.3714L15 15.6926L7.92848 33.3714C7.72337 33.8842 7.1414 34.1336 6.62862 33.9285C6.11583 33.7234 5.86642 33.1414 6.07153 32.6286L14.0715 12.6286C14.2234 12.249 14.5911 12 15 12Z" fill="black"/>
<path fill-rule="evenodd" clip-rule="evenodd" d="M45 12C45.4089 12 45.7766 12.249 45.9285 12.6286L53.9285 32.6286C54.1336 33.1414 53.8842 33.7234 53.3714 33.9285C52.8586 34.1336 52.2766 33.8842 52.0715 33.3714L45 15.6926L37.9285 33.3714C37.7234 33.8842 37.1414 34.1336 36.6286 33.9285C36.1158 33.7234 35.8664 33.1414 36.0715 32.6286L44.0715 12.6286C44.2234 12.249 44.5911 12 45 12Z" fill="black"/>
</svg>
