<svg width="22" height="42" viewBox="0 0 22 42" fill="none" xmlns="http://www.w3.org/2000/svg">
<line x1="11.1914" y1="40.4531" x2="11.1914" y2="31.9048" stroke="black" stroke-width="2" stroke-linecap="round"/>
<line x1="12.2871" y1="14.1484" x2="12.2871" y2="1.45382" stroke="black" stroke-width="2" stroke-linecap="round"/>
<line x1="7.21484" y1="11.2969" x2="7.21484" y2="5.59814" stroke="black" stroke-width="2" stroke-linecap="round"/>
<line x1="17.5664" y1="11.2969" x2="17.5664" y2="5.59814" stroke="black" stroke-width="2" stroke-linecap="round"/>
<path d="M19.7274 15.1473C17.4462 15.0845 15.2014 15.8826 13.5226 17.5614C11.8438 19.2402 11.0454 21.4852 11.1082 23.7665" stroke="black" stroke-width="2" stroke-miterlimit="10" stroke-linecap="round"/>
<path d="M19.7296 15.1496C19.7924 17.4308 18.9943 19.6756 17.3156 21.3544C15.6368 23.0331 13.3917 23.8315 11.1105 23.7687" stroke="black" stroke-width="2" stroke-miterlimit="10" stroke-linecap="round"/>
<path d="M2.06559 15.1473C4.3468 15.0845 6.59161 15.8826 8.27038 17.5614C9.94915 19.2402 10.7475 21.4852 10.6847 23.7665" stroke="black" stroke-width="2" stroke-miterlimit="10" stroke-linecap="round"/>
<path d="M2.06334 15.1496C2.00052 17.4308 2.79864 19.6756 4.47741 21.3544C6.15618 23.0331 8.40126 23.8315 10.6825 23.7687" stroke="black" stroke-width="2" stroke-miterlimit="10" stroke-linecap="round"/>
<path d="M19.7274 25.6629C17.4462 25.6001 15.2014 26.3983 13.5226 28.077C11.8438 29.7558 11.0454 32.0009 11.1082 34.2821" stroke="black" stroke-width="2" stroke-miterlimit="10" stroke-linecap="round"/>
<path d="M19.7296 25.6652C19.7924 27.9464 18.9943 30.1912 17.3156 31.87C15.6368 33.5488 13.3917 34.3471 11.1105 34.2843" stroke="black" stroke-width="2" stroke-miterlimit="10" stroke-linecap="round"/>
<path d="M2.06559 25.6629C4.3468 25.6001 6.59161 26.3983 8.27038 28.077C9.94915 29.7558 10.7475 32.0009 10.6847 34.2821" stroke="black" stroke-width="2" stroke-miterlimit="10" stroke-linecap="round"/>
<path d="M2.06334 25.6652C2.00052 27.9464 2.79864 30.1912 4.47741 31.87C6.15618 33.5488 8.40126 34.3471 10.6825 34.2843" stroke="black" stroke-width="2" stroke-miterlimit="10" stroke-linecap="round"/>
</svg>
