<svg width="60" height="60" viewBox="0 0 60 60" fill="none" xmlns="http://www.w3.org/2000/svg">
<path fill-rule="evenodd" clip-rule="evenodd" d="M12.5273 19C10.0696 19 8 21.0993 8 23.7865V47.2135C8 49.9007 10.0696 52 12.5273 52H47.4727C49.9304 52 52 49.9007 52 47.2135V23.7865C52 21.0993 49.9304 19 47.4727 19H12.5273ZM6 23.7865C6 20.0821 8.87969 17 12.5273 17H47.4727C51.1203 17 54 20.0821 54 23.7865V47.2135C54 50.9179 51.1203 54 47.4727 54H12.5273C8.87969 54 6 50.9179 6 47.2135V23.7865Z" fill="black"/>
<path fill-rule="evenodd" clip-rule="evenodd" d="M6 28.9579V24H8V28.9579C8 32.3605 10.5767 35 13.6166 35H46.3834C49.4332 35 52 32.35 52 28.9579V24H54V28.9579C54 33.3329 50.6557 37 46.3834 37H13.6166C9.35882 37 6 33.3483 6 28.9579Z" fill="black"/>
<path fill-rule="evenodd" clip-rule="evenodd" d="M27.9232 8C25.2188 8 23 10.2289 23 13C23 13.5523 22.5523 14 22 14C21.4477 14 21 13.5523 21 13C21 9.1487 24.09 6 27.9232 6H32.0768C35.91 6 39 9.1487 39 13C39 13.5523 38.5523 14 38 14C37.4477 14 37 13.5523 37 13C37 10.2289 34.7812 8 32.0768 8H27.9232Z" fill="black"/>
<path fill-rule="evenodd" clip-rule="evenodd" d="M17 40C17.5523 40 18 40.4477 18 41V45C18 45.5523 17.5523 46 17 46C16.4477 46 16 45.5523 16 45V41C16 40.4477 16.4477 40 17 40Z" fill="black"/>
<path fill-rule="evenodd" clip-rule="evenodd" d="M43 40C43.5523 40 44 40.4477 44 41V45C44 45.5523 43.5523 46 43 46C42.4477 46 42 45.5523 42 45V41C42 40.4477 42.4477 40 43 40Z" fill="black"/>
</svg>
