<svg width="28" height="28" viewBox="0 0 28 28" fill="none" xmlns="http://www.w3.org/2000/svg">
<path d="M22.5488 9.46024C23.389 8.83011 24.1451 8.07394 24.7333 7.19175C23.9771 7.52782 23.0949 7.77988 22.2127 7.86389C23.1369 7.31778 23.8091 6.47759 24.1451 5.42736C23.305 5.93147 22.3387 6.30956 21.3725 6.5196C20.5324 5.63741 19.3981 5.1333 18.1378 5.1333C15.7013 5.1333 13.7269 7.10773 13.7269 9.54426C13.7269 9.88033 13.7689 10.2164 13.8529 10.5525C10.1981 10.3424 6.9214 8.57805 4.73692 5.93147C4.35884 6.56161 4.14879 7.31778 4.14879 8.15796C4.14879 9.67029 4.90496 11.0146 6.12322 11.8128C5.40907 11.7707 4.69491 11.6027 4.10678 11.2666V11.3086C4.10678 13.4511 5.61911 15.2155 7.63555 15.6356C7.29948 15.7196 6.87939 15.8036 6.50131 15.8036C6.20724 15.8036 5.95519 15.7616 5.66112 15.7196C6.20724 17.484 7.8456 18.7443 9.77802 18.7863C8.26569 19.9625 6.37528 20.6767 4.31683 20.6767C3.93875 20.6767 3.60267 20.6347 3.2666 20.5927C5.19902 21.8529 7.50952 22.5671 10.0301 22.5671C18.1378 22.5671 22.5488 15.8876 22.5488 10.0484C22.5488 9.83832 22.5488 9.67029 22.5488 9.46024Z" fill="white"/>
</svg>
