<svg width="43" height="27" viewBox="0 0 43 27" fill="none" xmlns="http://www.w3.org/2000/svg">
<path d="M9.99866 4.05133C9.1918 2.71843 10.1515 1.01562 11.7096 1.01562H30.6256C31.3253 1.01562 31.9742 1.38132 32.3365 1.97992L38.7045 12.4994C39.5113 13.8324 38.5516 15.5352 36.9935 15.5352H18.0775C17.3778 15.5352 16.729 15.1695 16.3666 14.5709L12.2422 7.75754L9.99866 4.05133Z" stroke="black" stroke-width="2" stroke-linejoin="round"/>
<path d="M15.9727 7.96094H32.1303" stroke="black" stroke-width="2" stroke-linecap="round"/>
<path d="M7.51953 5.82812L4.62878 10.6035L1.73802 15.3789" stroke="black" stroke-width="2" stroke-linecap="round"/>
<path d="M18.918 3.98438L21.16 7.79023L24.0507 12.5656" stroke="black" stroke-width="2" stroke-linecap="round"/>
<path d="M25.8086 3.98438L28.0506 7.79023L30.9413 12.5656" stroke="black" stroke-width="2" stroke-linecap="round"/>
<path d="M6.38672 16.5312V25.5H34.457V16.5312" stroke="black" stroke-width="2" stroke-linejoin="round"/>
</svg>
