<svg width="40" height="44" viewBox="0 0 40 44" fill="none" xmlns="http://www.w3.org/2000/svg">
<line x1="22.9687" y1="35.6914" x2="22.9688" y2="27.0659" stroke="black" stroke-width="2" stroke-linecap="round"/>
<path d="M23.9668 2.68489L35.8926 31.3438H12.041L23.9668 2.68489Z" stroke="black" stroke-width="2" stroke-linejoin="round"/>
<path d="M18.9281 19.2595C18.9281 23.2407 17.8694 26.0068 16.2897 27.766C14.7181 29.5162 12.5342 30.3789 10.0461 30.3789C7.55799 30.3789 5.37409 29.5162 3.8025 27.766C2.2228 26.0068 1.16406 23.2407 1.16406 19.2595C1.16406 15.2585 2.23544 10.6107 3.96133 6.98573C4.82385 5.17414 5.82668 3.66722 6.8965 2.62756C7.96797 1.58628 9.03139 1.08203 10.0461 1.08203C11.0608 1.08203 12.1242 1.58628 13.1957 2.62756C14.2655 3.66722 15.2684 5.17414 16.1309 6.98573C17.8568 10.6107 18.9281 15.2585 18.9281 19.2595Z" fill="white" stroke="black" stroke-width="2"/>
<line x1="9.98828" y1="35.6914" x2="9.98828" y2="18.0391" stroke="black" stroke-width="2" stroke-linecap="round"/>
<line x1="1" y1="-1" x2="6.18275" y2="-1" transform="matrix(-0.680277 -0.732955 0.680277 -0.732955 10.7305 25.6992)" stroke="black" stroke-width="2" stroke-linecap="round"/>
<line x1="1" y1="-1" x2="6.18275" y2="-1" transform="matrix(0.680277 -0.732955 -0.680277 -0.732955 9.00781 23.4336)" stroke="black" stroke-width="2" stroke-linecap="round"/>
</svg>
