<svg width="32" height="35" viewBox="0 0 32 35" fill="none" xmlns="http://www.w3.org/2000/svg">
<mask id="path-1-inside-1_17212_116049" fill="white">
<path fill-rule="evenodd" clip-rule="evenodd" d="M21.1071 0.691406H11.1775V15.3693L0.868096 30.0217C-0.530413 32.0094 0.891277 34.748 3.32164 34.748H28.958C31.3883 34.748 32.81 32.0094 31.4115 30.0218L21.1071 15.3764V0.691406Z"/>
</mask>
<path d="M11.1775 0.691406V-1.30859H9.17745V0.691406H11.1775ZM21.1071 0.691406H23.1071V-1.30859H21.1071V0.691406ZM11.1775 15.3693L12.8131 16.5202L13.1775 16.0024V15.3693H11.1775ZM0.868096 30.0217L2.5038 31.1726L0.868096 30.0217ZM31.4115 30.0218L33.0472 28.8709V28.8709L31.4115 30.0218ZM21.1071 15.3764H19.1071V16.0095L19.4714 16.5272L21.1071 15.3764ZM11.1775 2.69141H21.1071V-1.30859H11.1775V2.69141ZM13.1775 15.3693V0.691406H9.17745V15.3693H13.1775ZM2.5038 31.1726L12.8131 16.5202L9.54175 14.2184L-0.767602 28.8709L2.5038 31.1726ZM3.32164 32.748C2.51152 32.748 2.03762 31.8352 2.5038 31.1726L-0.767602 28.8709C-3.09845 32.1837 -0.72897 36.748 3.32164 36.748V32.748ZM28.958 32.748H3.32164V36.748H28.958V32.748ZM29.7758 31.1726C30.242 31.8352 29.7681 32.748 28.958 32.748V36.748C33.0086 36.748 35.3781 32.1837 33.0472 28.8709L29.7758 31.1726ZM19.4714 16.5272L29.7758 31.1726L33.0472 28.8709L22.7428 14.2255L19.4714 16.5272ZM19.1071 0.691406V15.3764H23.1071V0.691406H19.1071Z" fill="black" mask="url(#path-1-inside-1_17212_116049)"/>
<line x1="19.4922" y1="6.23828" x2="16.1367" y2="6.23828" stroke="black" stroke-width="2"/>
<line x1="19.4922" y1="9.61328" x2="16.1367" y2="9.61328" stroke="black" stroke-width="2"/>
<line x1="19.4922" y1="12.9883" x2="16.1367" y2="12.9883" stroke="black" stroke-width="2"/>
<line x1="6.99219" y1="24.1758" x2="18.5273" y2="24.1758" stroke="black" stroke-width="2" stroke-linecap="round"/>
</svg>
