<svg width="60" height="60" viewBox="0 0 60 60" fill="none" xmlns="http://www.w3.org/2000/svg">
<path fill-rule="evenodd" clip-rule="evenodd" d="M15.9612 19.096C14.3215 16.4309 16.2389 13 19.368 13H42.6339C44.0231 13 45.3128 13.7208 46.0408 14.904L54.0388 27.904C55.6785 30.5691 53.7611 34 50.632 34H27.3661C25.9769 34 24.6872 33.2792 23.9592 32.096L15.9612 19.096ZM19.368 15C17.8035 15 16.8448 16.7155 17.6646 18.048L25.6627 31.048C26.0266 31.6396 26.6715 32 27.3661 32H50.632C52.1965 32 53.1552 30.2845 52.3354 28.952L44.3373 15.952C43.9734 15.3604 43.3285 15 42.6339 15H19.368Z" fill="black"/>
<path fill-rule="evenodd" clip-rule="evenodd" d="M23 23C23 22.4477 23.4477 22 24 22H44C44.5523 22 45 22.4477 45 23C45 23.5523 44.5523 24 44 24H24C23.4477 24 23 23.5523 23 23Z" fill="black"/>
<path fill-rule="evenodd" clip-rule="evenodd" d="M14.5039 19.1362C14.0268 18.8579 13.4145 19.0191 13.1362 19.4961L6.13622 31.4961C5.85794 31.9732 6.01908 32.5855 6.49613 32.8638C6.97318 33.1421 7.5855 32.9809 7.86378 32.5039L14.8638 20.5039C15.1421 20.0268 14.9809 19.4145 14.5039 19.1362Z" fill="black"/>
<path fill-rule="evenodd" clip-rule="evenodd" d="M27.4913 17.1391C27.9667 16.8581 28.5799 17.0158 28.8609 17.4913L31.4787 21.9212L34.8548 27.481C35.1414 27.953 34.9911 28.5681 34.519 28.8548C34.047 29.1414 33.4319 28.9911 33.1452 28.519L29.7599 22.9439L27.1391 18.5087C26.8581 18.0333 27.0158 17.4201 27.4913 17.1391Z" fill="black"/>
<path fill-rule="evenodd" clip-rule="evenodd" d="M35.4913 17.1391C35.9667 16.8581 36.58 17.0158 36.8609 17.4913L39.4787 21.9212L42.8548 27.481C43.1414 27.953 42.9911 28.5681 42.519 28.8548C42.047 29.1414 41.4319 28.9911 41.1452 28.519L37.7599 22.9439L35.1391 18.5087C34.8581 18.0333 35.0158 17.4201 35.4913 17.1391Z" fill="black"/>
<path fill-rule="evenodd" clip-rule="evenodd" d="M13 32C13.5523 32 14 32.4477 14 33V46H46V33C46 32.4477 46.4477 32 47 32C47.5523 32 48 32.4477 48 33V47C48 47.5523 47.5523 48 47 48H13C12.4477 48 12 47.5523 12 47V33C12 32.4477 12.4477 32 13 32Z" fill="black"/>
</svg>
