<svg width="60" height="60" viewBox="0 0 60 60" fill="none" xmlns="http://www.w3.org/2000/svg">
<path fill-rule="evenodd" clip-rule="evenodd" d="M12 40C12 39.4477 12.4477 39 13 39L20 39C20.5523 39 21 39.4477 21 40C21 40.5523 20.5523 41 20 41L13 41C12.4477 41 12 40.5523 12 40Z" fill="black"/>
<path fill-rule="evenodd" clip-rule="evenodd" d="M25 40C25 39.4477 25.4477 39 26 39L32 39C32.5523 39 33 39.4477 33 40C33 40.5523 32.5523 41 32 41L26 41C25.4477 41 25 40.5523 25 40Z" fill="black"/>
<path fill-rule="evenodd" clip-rule="evenodd" d="M37 40C37 39.4477 37.4477 39 38 39L44 39C44.5523 39 45 39.4477 45 40C45 40.5523 44.5523 41 44 41L38 41C37.4477 41 37 40.5523 37 40Z" fill="black"/>
<path fill-rule="evenodd" clip-rule="evenodd" d="M42 11C42 10.4477 42.4477 10 43 10H53C53.5523 10 54 10.4477 54 11V49C54 49.5523 53.5523 50 53 50H7C6.44772 50 6 49.5523 6 49V24C6 23.6312 6.20298 23.2923 6.52814 23.1183C6.8533 22.9443 7.24784 22.9634 7.5547 23.1679L18 30.1315V24C18 23.6377 18.1959 23.3038 18.5122 23.127C18.8285 22.9503 19.2156 22.9585 19.5241 23.1483L31 30.2104V24C31 23.6239 31.2111 23.2796 31.5462 23.1089C31.8814 22.9382 32.284 22.97 32.5882 23.1913L43.5882 31.1913C44.0348 31.5161 44.1336 32.1415 43.8087 32.5882C43.4839 33.0348 42.8585 33.1336 42.4118 32.8087L33 25.9638V32C33 32.3623 32.8041 32.6962 32.4878 32.873C32.1715 33.0497 31.7844 33.0415 31.4759 32.8517L20 25.7896V32C20 32.3688 19.797 32.7077 19.4719 32.8817C19.1467 33.0557 18.7522 33.0366 18.4453 32.8321L8 25.8685V48H52V12H44V26C44 26.5523 43.5523 27 43 27C42.4477 27 42 26.5523 42 26V11Z" fill="black"/>
</svg>
