<svg width="60" height="60" viewBox="0 0 60 60" fill="none" xmlns="http://www.w3.org/2000/svg">
<path fill-rule="evenodd" clip-rule="evenodd" d="M9 33C9 32.4477 9.44772 32 10 32H50C50.5523 32 51 32.4477 51 33V53C51 53.5523 50.5523 54 50 54H10C9.44772 54 9 53.5523 9 53V33ZM11 34V52H49V34H11Z" fill="black"/>
<path fill-rule="evenodd" clip-rule="evenodd" d="M28.6376 33.5063L19.747 18.3619C19.4674 17.8856 19.6268 17.2729 20.1031 16.9933C20.5793 16.7137 21.1921 16.8731 21.4717 17.3494L30.3624 32.4937L28.6376 33.5063ZM8.12805 19.5314L15.8587 32.4876L14.1413 33.5124L6.41055 20.5562L8.12805 19.5314Z" fill="black"/>
<path fill-rule="evenodd" clip-rule="evenodd" d="M7.02861 12.7278L12.0458 9.9688L13.0095 11.7213L7.99233 14.4803L7.02861 12.7278Z" fill="black"/>
<path fill-rule="evenodd" clip-rule="evenodd" d="M6.65366 6.7653C6.96154 6.58405 7.34272 6.58082 7.65363 6.75682L18.4298 12.8572C18.7407 13.0332 18.9341 13.3617 18.9371 13.7189C18.9401 14.0762 18.7523 14.4079 18.4445 14.5892L7.77333 20.8714C7.46545 21.0527 7.08427 21.0559 6.77336 20.8799C6.46246 20.7039 6.26907 20.3754 6.26604 20.0181L6.16102 7.63554C6.15799 7.27828 6.34579 6.94655 6.65366 6.7653ZM8.25128 18.2692L15.9372 13.7444L8.17564 9.35056L8.25128 18.2692Z" fill="black"/>
<path fill-rule="evenodd" clip-rule="evenodd" d="M46.5022 7.03326C46.648 7.32835 46.6393 7.67629 46.4788 7.96368L43.5142 13.274L46.9577 15.1964L49.9223 9.88614C50.0829 9.59855 50.3748 9.40846 50.7027 9.37791C51.0307 9.34736 51.3527 9.48027 51.5636 9.73325C54.0448 12.7094 54.5462 17.0795 52.5093 20.728C50.7246 23.9248 47.4569 25.7499 44.0943 25.7892L42.3806 28.9739C42.1189 29.4602 41.5125 29.6423 41.0261 29.3806C40.5398 29.1189 40.3577 28.5125 40.6194 28.0261L42.6232 24.3024C42.8072 23.9604 43.1727 23.7559 43.5605 23.7779C46.3906 23.9385 49.2418 22.4779 50.763 19.7531C52.1213 17.32 52.0619 14.5052 50.8771 12.2788L48.2165 17.0445C47.9473 17.5267 47.3381 17.6994 46.8559 17.4302L41.6661 14.5328C41.1839 14.2636 41.0112 13.6544 41.2804 13.1722L43.9426 8.40376C41.4191 8.55884 38.9927 9.98716 37.6329 12.4228C36.1177 15.1368 36.3657 18.3276 37.9822 20.6491C38.2007 20.963 38.2211 21.374 38.0347 21.708L31.6376 33.1664L29.8913 32.1914L35.9953 21.2581C34.2646 18.3766 34.1064 14.6365 35.8866 11.4478C37.9233 7.79983 41.901 5.92923 45.749 6.48654C46.0748 6.53372 46.3564 6.73817 46.5022 7.03326Z" fill="black"/>
<path fill-rule="evenodd" clip-rule="evenodd" d="M20 40C20 39.4477 20.4477 39 21 39H39C39.5523 39 40 39.4477 40 40C40 40.5523 39.5523 41 39 41H21C20.4477 41 20 40.5523 20 40Z" fill="black"/>
</svg>
