<svg width="22" height="42" viewBox="0 0 22 42" fill="none" xmlns="http://www.w3.org/2000/svg">
<line x1="11.2305" y1="40.4492" x2="11.2305" y2="31.8238" stroke="black" stroke-width="2" stroke-linecap="round"/>
<line x1="12.3359" y1="13.9492" x2="12.3359" y2="1.14712" stroke="black" stroke-width="2" stroke-linecap="round"/>
<line x1="7.22656" y1="11.082" x2="7.22656" y2="5.32698" stroke="black" stroke-width="2" stroke-linecap="round"/>
<line x1="17.6562" y1="11.082" x2="17.6562" y2="5.32698" stroke="black" stroke-width="2" stroke-linecap="round"/>
<path d="M19.8219 14.9536C17.524 14.8903 15.2627 15.6943 13.5717 17.3853C11.8806 19.0764 11.0764 21.3379 11.1397 23.6358" stroke="black" stroke-width="2" stroke-miterlimit="10" stroke-linecap="round"/>
<path d="M19.8237 14.9555C19.887 17.2534 19.083 19.5146 17.392 21.2057C15.7009 22.8967 13.4395 23.7009 11.1416 23.6377" stroke="black" stroke-width="2" stroke-miterlimit="10" stroke-linecap="round"/>
<path d="M2.0297 14.9536C4.32759 14.8903 6.58883 15.6943 8.27988 17.3853C9.97093 19.0764 10.7751 21.3379 10.7119 23.6358" stroke="black" stroke-width="2" stroke-miterlimit="10" stroke-linecap="round"/>
<path d="M2.02783 14.9555C1.96455 17.2534 2.76851 19.5146 4.45956 21.2057C6.15061 22.8967 8.41211 23.7009 10.71 23.6377" stroke="black" stroke-width="2" stroke-miterlimit="10" stroke-linecap="round"/>
<path d="M19.8219 25.5435C17.524 25.4802 15.2627 26.2841 13.5717 27.9752C11.8806 29.6662 11.0764 31.9277 11.1397 34.2256" stroke="black" stroke-width="2" stroke-miterlimit="10" stroke-linecap="round"/>
<path d="M19.8237 25.5453C19.887 27.8432 19.083 30.1045 17.392 31.7955C15.7009 33.4866 13.4395 34.2908 11.1416 34.2275" stroke="black" stroke-width="2" stroke-miterlimit="10" stroke-linecap="round"/>
<path d="M2.0297 25.5435C4.32759 25.4802 6.58883 26.2841 8.27988 27.9752C9.97093 29.6662 10.7751 31.9277 10.7119 34.2256" stroke="black" stroke-width="2" stroke-miterlimit="10" stroke-linecap="round"/>
<path d="M2.02783 25.5453C1.96455 27.8432 2.76851 30.1045 4.45956 31.7955C6.15061 33.4866 8.41211 34.2908 10.71 34.2275" stroke="black" stroke-width="2" stroke-miterlimit="10" stroke-linecap="round"/>
</svg>
