<svg width="22" height="18" viewBox="0 0 22 18" fill="none" xmlns="http://www.w3.org/2000/svg">
<path d="M19.119 4.98965C19.9477 4.3681 20.6936 3.62224 21.2737 2.75207C20.5279 3.08357 19.6577 3.33219 18.7875 3.41506C19.6991 2.87638 20.3621 2.04765 20.6936 1.01174C19.8649 1.50898 18.9118 1.8819 17.9588 2.08909C17.1301 1.21892 16.0113 0.72168 14.7682 0.72168C12.3648 0.72168 10.4173 2.6692 10.4173 5.07252C10.4173 5.40402 10.4588 5.73551 10.5416 6.067C6.93665 5.85982 3.70459 4.11948 1.54989 1.50898C1.17696 2.13052 0.969778 2.87638 0.969778 3.70511C0.969778 5.19683 1.71564 6.5228 2.9173 7.3101C2.21288 7.26866 1.50845 7.10292 0.928341 6.77142V6.81286C0.928341 8.92613 2.42006 10.6665 4.40902 11.0808C4.07752 11.1637 3.66316 11.2466 3.29023 11.2466C3.00017 11.2466 2.75155 11.2051 2.4615 11.1637C3.00017 12.904 4.6162 14.1471 6.52228 14.1886C5.03057 15.3488 3.16592 16.0532 1.13552 16.0532C0.762595 16.0532 0.431102 16.0118 0.0996094 15.9703C2.00569 17.2134 4.28471 17.9179 6.7709 17.9179C14.7682 17.9179 19.119 11.3294 19.119 5.56976C19.119 5.36258 19.119 5.19683 19.119 4.98965Z" fill="white"/>
</svg>
