<svg width="20" height="20" viewBox="0 0 20 20" fill="none" xmlns="http://www.w3.org/2000/svg">
<path d="M0.36656 7.06558H4.36683V19.9119H0.36656V7.06558ZM2.36459 0.671875C3.63913 0.671875 4.6781 1.71085 4.6781 2.98539C4.6781 4.25992 3.63913 5.3031 2.36459 5.3031C1.08585 5.2989 0.046875 4.26413 0.046875 2.98539C0.046875 1.70665 1.08165 0.671875 2.36039 0.671875M6.86122 7.06558H10.689V8.81964H10.7437C11.2779 7.81011 12.5777 6.74589 14.5295 6.74589C18.5718 6.74589 19.3205 9.40854 19.3205 12.8662V19.9119H15.3287V13.6612C15.3287 12.1721 15.3034 10.254 13.2549 10.254C11.2064 10.254 10.8573 11.8777 10.8573 13.5518V19.9077H6.86963V7.06137H6.86542L6.86122 7.06558Z" fill="black"/>
</svg>
