<svg width="52" height="52" viewBox="0 0 52 52" xmlns="http://www.w3.org/2000/svg">
    <g fill="#FFF" fill-rule="evenodd">
        <path d="M26.018 14.223c-3.2 0-3.602.014-4.859.07-1.255.058-2.112.257-2.861.548A5.773 5.773 0 0 0 16.21 16.2a5.77 5.77 0 0 0-1.36 2.086c-.29.75-.49 1.605-.547 2.859-.057 1.256-.071 1.657-.071 4.855 0 3.199.014 3.6.071 4.856.057 1.254.257 2.11.548 2.86a5.774 5.774 0 0 0 1.36 2.085 5.773 5.773 0 0 0 2.087 1.359c.75.29 1.606.49 2.861.547 1.257.057 1.658.071 4.86.071 3.2 0 3.601-.014 4.859-.07 1.255-.058 2.11-.257 2.86-.548a5.776 5.776 0 0 0 2.088-1.359 5.774 5.774 0 0 0 1.36-2.085c.29-.75.49-1.606.548-2.86.057-1.256.07-1.657.07-4.856 0-3.198-.013-3.599-.07-4.855-.057-1.254-.257-2.11-.548-2.859a5.77 5.77 0 0 0-1.36-2.086 5.776 5.776 0 0 0-2.088-1.359c-.75-.29-1.605-.49-2.86-.547-1.258-.057-1.659-.071-4.86-.071m0 2.122c3.147 0 3.52.012 4.763.068 1.149.053 1.773.245 2.188.406.551.214.944.47 1.356.881.412.413.668.804.881 1.355.162.414.353 1.038.407 2.186.056 1.243.068 1.615.068 4.76 0 3.144-.012 3.516-.068 4.759-.054 1.148-.245 1.772-.407 2.186-.213.55-.469.943-.881 1.355a3.638 3.638 0 0 1-1.356.88c-.415.162-1.04.354-2.188.407-1.243.056-1.615.067-4.763.067-3.147 0-3.52-.011-4.762-.067-1.149-.053-1.774-.245-2.189-.407a3.644 3.644 0 0 1-1.355-.88 3.635 3.635 0 0 1-.881-1.355c-.162-.414-.354-1.038-.407-2.186-.056-1.243-.068-1.615-.068-4.76 0-3.144.012-3.516.068-4.759.053-1.148.245-1.772.407-2.186.213-.55.468-.942.881-1.355a3.644 3.644 0 0 1 1.355-.88c.415-.162 1.04-.354 2.189-.407 1.242-.056 1.615-.068 4.762-.068"/>
        <path d="M26.018 29.926A3.928 3.928 0 0 1 22.09 26a3.927 3.927 0 0 1 3.93-3.925A3.927 3.927 0 0 1 29.946 26a3.928 3.928 0 0 1-3.929 3.926m0-9.973A6.05 6.05 0 0 0 19.966 26a6.05 6.05 0 0 0 6.052 6.048A6.05 6.05 0 0 0 32.071 26a6.05 6.05 0 0 0-6.053-6.047M33.724 19.713a1.414 1.414 0 1 1-2.828 0 1.414 1.414 0 0 1 2.828 0"/>
    </g>
</svg>
