<svg xmlns="http://www.w3.org/2000/svg" width="20.052" height="20" viewBox="0 0 20.052 20">
  <path id="linkedin" d="M2.418,4.849A2.424,2.424,0,0,0,2.426,0,2.4,2.4,0,0,0,0,2.422,2.407,2.407,0,0,0,2.418,4.849M.329,13.306v6.5c0,.147.031.191.182.191H4.329c.2,0,.2,0,.2-.209V6.826c0-.156-.036-.2-.2-.2H.533c-.209,0-.209,0-.209.222v6.462M11.089,8.417V6.8c0-.147-.044-.178-.178-.178l-3.649,0c-.164,0-.2.058-.2.2.009.547,0,1.089,0,1.631V19.764c0,.227,0,.227.231.227h3.72c.244,0,.249,0,.249-.24V13.564a7.225,7.225,0,0,1,.16-1.831,2.132,2.132,0,0,1,1.084-1.493A2.766,2.766,0,0,1,13.929,10a1.714,1.714,0,0,1,1.609,1.084,4.134,4.134,0,0,1,.3,1.618c.009,2.369,0,4.738,0,7.107,0,.147.044.191.191.191H19.8c.244,0,.244,0,.244-.244,0-2.111.009-4.222,0-6.333,0-.813-.044-1.631-.089-2.444a6.9,6.9,0,0,0-.373-1.889,3.727,3.727,0,0,0-2.267-2.427,6.208,6.208,0,0,0-2.96-.32,4.413,4.413,0,0,0-3.267,2.071" transform="translate(0 0)" fill-rule="evenodd"/>
</svg>
