<svg width="52" height="52" viewBox="0 0 52 52" xmlns="http://www.w3.org/2000/svg">
    <path d="M13.782 33.535a13.943 13.943 0 0 0 7.549 2.212c9.142 0 14.307-7.717 13.996-14.638a10 10 0 0 0 2.458-2.548 9.854 9.854 0 0 1-2.829.774 4.925 4.925 0 0 0 2.165-2.721 9.87 9.87 0 0 1-3.126 1.194 4.922 4.922 0 0 0-3.595-1.553c-3.179 0-5.515 2.963-4.797 6.041a13.98 13.98 0 0 1-10.15-5.141 4.924 4.924 0 0 0 1.524 6.57 4.909 4.909 0 0 1-2.231-.616c-.053 2.28 1.582 4.412 3.95 4.888a4.931 4.931 0 0 1-2.223.083 4.927 4.927 0 0 0 4.6 3.418 9.903 9.903 0 0 1-7.291 2.037" fill="#FFF" fill-rule="evenodd"/>
</svg>
