<svg width="52" height="52" viewBox="0 0 52 52" xmlns="http://www.w3.org/2000/svg">
    <path d="M23.63 29.488v-6.975L29.765 26l-6.135 3.488zm13.646-9.17a2.948 2.948 0 0 0-2.075-2.087c-1.83-.493-9.17-.493-9.17-.493s-7.34 0-9.17.493a2.947 2.947 0 0 0-2.076 2.087c-.49 1.84-.49 5.682-.49 5.682s0 3.842.49 5.683a2.948 2.948 0 0 0 2.075 2.086c1.83.494 9.17.494 9.17.494s7.34 0 9.171-.494a2.948 2.948 0 0 0 2.075-2.086c.49-1.841.49-5.683.49-5.683s0-3.841-.49-5.682z" fill="#FFF" fill-rule="evenodd"/>
</svg>
