<svg width="78" height="33" viewBox="0 0 78 33" fill="none" xmlns="http://www.w3.org/2000/svg">
<g clip-path="url(#clip0_768_922)">
<path d="M14.4915 4.62559C13.586 5.70647 12.1372 6.55899 10.6885 6.4372C10.5074 4.97574 11.2167 3.42293 12.0467 2.46384C12.9522 1.35252 14.5368 0.560894 15.8196 0.5C15.9705 2.02236 15.3819 3.51427 14.4915 4.62559ZM15.8045 6.72645C13.7068 6.60466 11.9109 7.92912 10.9148 7.92912C9.90371 7.92912 8.37947 6.78735 6.71941 6.81779C4.56133 6.84824 2.55417 8.08135 1.45249 10.0452C-0.81123 13.9729 0.863922 19.7883 3.05218 22.9853C4.12368 24.5685 5.40645 26.304 7.0967 26.2431C8.69639 26.1822 9.33023 25.1927 11.2619 25.1927C13.2087 25.1927 13.7671 26.2431 15.4574 26.2127C17.208 26.1822 18.3097 24.6294 19.3811 23.0461C20.6036 21.2498 21.1016 19.499 21.1318 19.4077C21.1016 19.3773 17.7513 18.0833 17.7211 14.186C17.6909 10.9282 20.3621 9.37536 20.4828 9.28402C18.9737 7.03092 16.6194 6.78735 15.8045 6.72645ZM27.9229 2.31161V26.0452H31.575V17.931H36.6307C41.2487 17.931 44.4933 14.7341 44.4933 10.1061C44.4933 5.47812 41.309 2.31161 36.7514 2.31161H27.9229ZM31.575 5.41722H35.7856C38.9548 5.41722 40.7658 7.12226 40.7658 10.1213C40.7658 13.1204 38.9548 14.8406 35.7705 14.8406H31.575V5.41722ZM51.1638 26.2279C53.4577 26.2279 55.5856 25.0557 56.5514 23.1984H56.6269V26.0452H60.0074V14.2317C60.0074 10.8064 57.2909 8.59895 53.1106 8.59895C49.2321 8.59895 46.3647 10.8368 46.259 13.912H49.549C49.8206 12.4505 51.1638 11.4914 53.0049 11.4914C55.2385 11.4914 56.4911 12.5419 56.4911 14.4753V15.7845L51.9334 16.0585C47.6927 16.3173 45.3988 18.068 45.3988 21.1127C45.3988 24.1879 47.7682 26.2279 51.1638 26.2279ZM52.1447 23.4115C50.1979 23.4115 48.9604 22.4677 48.9604 21.0214C48.9604 19.5295 50.1526 18.6618 52.4314 18.5247L56.4911 18.2659V19.6056C56.4911 21.8283 54.6197 23.4115 52.1447 23.4115ZM64.5197 32.5C68.0813 32.5 69.7564 31.1299 71.2203 26.9738L77.6342 8.82731H73.9217L69.6206 22.8482H69.5452L65.2441 8.82731H61.426L67.6135 26.1061L67.2814 27.1565C66.7231 28.9377 65.8176 29.6227 64.2028 29.6227C63.9161 29.6227 63.3577 29.5923 63.1313 29.5618V32.4087C63.3426 32.4696 64.2481 32.5 64.5197 32.5Z" fill="#262626"/>
</g>
<defs>
<clipPath id="clip0_768_922">
<rect width="77.2683" height="32" fill="white" transform="translate(0.36586 0.5)"/>
</clipPath>
</defs>
</svg>
