<svg width="92" height="45" viewBox="0 0 92 45" fill="none" xmlns="http://www.w3.org/2000/svg">
<g clip-path="url(#clip0_840_10769)">
<path d="M43.4975 23.2421V33.8584H40.085V7.60303H48.9575C51.1187 7.60303 53.1662 8.4021 54.7587 9.88611C56.3512 11.256 57.1475 13.3107 57.1475 15.4796C57.1475 17.6486 56.3512 19.5892 54.7587 21.0732C53.1662 22.5572 51.2325 23.3563 48.9575 23.3563L43.4975 23.2421ZM43.4975 10.7993V19.9317H49.185C50.4362 19.9317 51.6875 19.475 52.4837 18.5618C54.3037 16.8495 54.3037 13.9956 52.5975 12.2833L52.4837 12.1692C51.5737 11.256 50.4362 10.6852 49.185 10.7993H43.4975Z" fill="#5F6368"/>
<path d="M64.9962 15.3657C67.4987 15.3657 69.4325 16.0506 70.9112 17.4205C72.39 18.7903 73.0725 20.6168 73.0725 22.8999V33.8587H69.8875V31.3473H69.7737C68.4087 33.4021 66.475 34.4294 64.2 34.4294C62.2662 34.4294 60.56 33.8587 59.195 32.7171C57.9437 31.5756 57.1475 29.9774 57.1475 28.2651C57.1475 26.4387 57.83 24.9547 59.195 23.8131C60.56 22.6716 62.4937 22.215 64.7687 22.215C66.8162 22.215 68.4087 22.5574 69.66 23.3565V22.5574C69.66 21.4159 69.205 20.2743 68.295 19.5894C67.385 18.7903 66.2475 18.3337 64.9962 18.3337C63.0625 18.3337 61.5837 19.1328 60.56 20.731L57.6025 18.9045C59.4225 16.5073 61.8112 15.3657 64.9962 15.3657ZM60.6737 28.3793C60.6737 29.2925 61.1287 30.0916 61.8112 30.5482C62.6075 31.119 63.5175 31.4614 64.4275 31.4614C65.7925 31.4614 67.1575 30.8907 68.1812 29.8633C69.3187 28.8359 69.8875 27.5802 69.8875 26.2104C68.8637 25.4113 67.385 24.9547 65.4512 24.9547C64.0862 24.9547 62.9487 25.2971 62.0387 25.982C61.1287 26.5528 60.6737 27.3519 60.6737 28.3793Z" fill="#5F6368"/>
<path d="M91.5003 15.9365L80.2391 41.8495H76.8266L81.0354 32.8313L73.6416 16.0507H77.2816L82.6278 28.9501H82.7416L87.9741 16.0507H91.5003V15.9365Z" fill="#5F6368"/>
<path d="M29.9609 20.9591C29.9609 19.9317 29.8471 18.9043 29.7334 17.877H15.5146V23.6988H23.5909C23.2496 25.5253 22.2259 27.2376 20.6334 28.265V32.032H25.5246C28.3684 29.4065 29.9609 25.5253 29.9609 20.9591Z" fill="#4285F4"/>
<path d="M15.5153 35.6852C19.6103 35.6852 23.0228 34.3153 25.5253 32.0323L20.634 28.2652C19.269 29.1784 17.5628 29.7492 15.5153 29.7492C11.6478 29.7492 8.23528 27.1236 7.09777 23.4707H2.09277V27.3519C4.70902 32.4889 9.82778 35.6852 15.5153 35.6852Z" fill="#34A853"/>
<path d="M7.09762 23.4707C6.41512 21.6442 6.41512 19.5894 7.09762 17.6488V13.7676H2.09262C-0.068633 17.9913 -0.068633 23.014 2.09262 27.3519L7.09762 23.4707Z" fill="#FBBC04"/>
<path d="M15.5148 11.4841C17.6761 11.4841 19.7236 12.2832 21.3161 13.7672L25.6386 9.42937C22.9086 6.91798 19.2686 5.43398 15.6286 5.54813C9.94106 5.54813 4.70856 8.74444 2.20605 13.8814L7.21106 17.7626C8.23481 14.1097 11.6473 11.4841 15.5148 11.4841Z" fill="#EA4335"/>
</g>
<defs>
<clipPath id="clip0_840_10769">
<rect width="91" height="43.4927" fill="white" transform="translate(0.5 0.753906)"/>
</clipPath>
</defs>
</svg>
