<svg width="132" height="40" viewBox="0 0 132 40" fill="none" xmlns="http://www.w3.org/2000/svg">
  <path fill-rule="evenodd" clip-rule="evenodd" d="M35.1293 26.4246H31.4498L28.6907 15.9284C28.5597 15.4455 28.2817 15.0187 27.8727 14.8175C26.8519 14.3119 25.7271 13.9096 24.5 13.7067V13.3026H30.4273C31.2453 13.3026 31.8589 13.9096 31.9611 14.6146L33.3927 22.1858L37.0703 13.3026H40.6475L35.1293 26.4246ZM42.6925 26.4246H39.2175L42.0789 13.3026H45.5538L42.6925 26.4246ZM50.0496 16.9378C50.1519 16.2311 50.7654 15.827 51.4812 15.827C52.606 15.7255 53.8313 15.9284 54.8539 16.4323L55.4674 13.607C54.4449 13.2029 53.32 13 52.2993 13C48.9266 13 46.4725 14.8176 46.4725 17.3402C46.4725 19.2592 48.2108 20.2669 49.4379 20.8739C50.7654 21.4792 51.2767 21.8833 51.1745 22.4886C51.1745 23.3965 50.1519 23.8006 49.1311 23.8006C47.9041 23.8006 46.677 23.498 45.554 22.9924L44.9404 25.8194C46.1675 26.3232 47.495 26.5261 48.7221 26.5261C52.5038 26.6258 54.8539 24.81 54.8539 22.0845C54.8539 18.6522 50.0496 18.451 50.0496 16.9378ZM67.0145 26.4246L64.2554 13.3026H61.2918C60.6782 13.3026 60.0647 13.7067 59.8602 14.312L54.751 26.4246H58.3281L59.0421 24.5073H63.4374L63.8464 26.4246H67.0145ZM61.8037 16.8364L62.8244 21.7819H59.9631L61.8037 16.8364Z" fill="#172B85"/>
  <g clip-path="url(#clip0_719_13)">
    <path d="M80.9731 30.6703V29.1538C80.9821 29.0262 80.9634 28.8983 80.9182 28.7784C80.8731 28.6586 80.8026 28.5496 80.7113 28.4587C80.6201 28.3678 80.5103 28.2972 80.3892 28.2514C80.2681 28.2056 80.1385 28.1858 80.009 28.1933C79.8395 28.1824 79.6702 28.2165 79.5186 28.2921C79.3671 28.3676 79.2389 28.4819 79.1475 28.623C79.0641 28.4862 78.9449 28.374 78.8023 28.2984C78.6597 28.2228 78.499 28.1865 78.3372 28.1933C78.1962 28.1863 78.0558 28.2157 77.9298 28.2787C77.8039 28.3416 77.6968 28.4359 77.6193 28.5522V28.254H77.0859V30.6703H77.6244V29.3408C77.6129 29.2582 77.6202 29.1741 77.6455 29.0945C77.6709 29.015 77.7137 28.9419 77.771 28.8806C77.8284 28.8192 77.8987 28.7711 77.9771 28.7397C78.0555 28.7083 78.1399 28.6943 78.2244 28.6988C78.5782 28.6988 78.7577 28.9263 78.7577 29.3358V30.6804H79.2962V29.3408C79.2852 29.2583 79.2927 29.1743 79.3183 29.095C79.3438 29.0156 79.3867 28.9428 79.4439 28.8815C79.5011 28.8203 79.5713 28.7722 79.6495 28.7406C79.7276 28.7091 79.8118 28.6948 79.8962 28.6988C80.2603 28.6988 80.4347 28.9263 80.4347 29.3358V30.6804L80.9731 30.6703ZM88.9398 28.254H88.0629V27.521H87.5244V28.254H87.0372V28.7342H87.5347V29.8463C87.5347 30.4074 87.7552 30.741 88.3859 30.741C88.6216 30.7418 88.8527 30.677 89.0526 30.554L88.8988 30.1041C88.7557 30.1882 88.5934 30.2352 88.427 30.2406C88.1706 30.2406 88.0731 30.0788 88.0731 29.8362V28.7342H88.9449L88.9398 28.254ZM93.4885 28.1933C93.3585 28.1896 93.2298 28.2204 93.1161 28.2827C93.0024 28.345 92.9078 28.4364 92.8423 28.5472V28.254H92.3141V30.6703H92.8475V29.3155C92.8475 28.9162 93.0218 28.6938 93.3603 28.6938C93.4744 28.6922 93.5876 28.7128 93.6936 28.7544L93.8577 28.2489C93.7359 28.206 93.6076 28.1838 93.4782 28.1832L93.4885 28.1933ZM86.6116 28.4461C86.3097 28.2692 85.9626 28.1814 85.6116 28.1933C84.9911 28.1933 84.5859 28.4865 84.5859 28.9667C84.5859 29.361 84.8834 29.6037 85.4321 29.6795L85.6885 29.7149C85.9808 29.7553 86.1193 29.8311 86.1193 29.9676C86.1193 30.1547 85.9244 30.2608 85.5603 30.2608C85.2674 30.2692 84.9802 30.1801 84.7449 30.0081L84.4885 30.4175C84.7992 30.6313 85.1713 30.7412 85.55 30.7309C86.2577 30.7309 86.668 30.4023 86.668 29.9423C86.668 29.4823 86.3449 29.2953 85.8116 29.2195L85.5552 29.1841C85.3244 29.1538 85.1398 29.1083 85.1398 28.9465C85.1398 28.7848 85.3141 28.6634 85.6065 28.6634C85.8766 28.6665 86.1415 28.7379 86.3757 28.8707L86.6116 28.4461ZM100.896 28.1933C100.766 28.1896 100.638 28.2204 100.524 28.2827C100.41 28.345 100.315 28.4364 100.25 28.5472V28.254H99.7218V30.6703H100.255V29.3155C100.255 28.9162 100.43 28.6938 100.768 28.6938C100.882 28.6922 100.995 28.7128 101.101 28.7544L101.265 28.2489C101.144 28.206 101.015 28.1838 100.886 28.1832L100.896 28.1933ZM94.0244 29.4571C94.0181 29.6269 94.0477 29.7961 94.1116 29.9539C94.1754 30.1118 94.2719 30.2548 94.395 30.3737C94.5181 30.4927 94.665 30.585 94.8264 30.6447C94.9877 30.7045 95.16 30.7304 95.3321 30.7208C95.6523 30.7369 95.967 30.6341 96.2141 30.4327L95.9577 30.0081C95.7734 30.1466 95.5485 30.2229 95.3167 30.2254C95.1196 30.2097 94.9357 30.1214 94.8016 29.9781C94.6675 29.8348 94.593 29.647 94.593 29.452C94.593 29.2571 94.6675 29.0692 94.8016 28.9259C94.9357 28.7826 95.1196 28.6943 95.3167 28.6786C95.5485 28.6812 95.7734 28.7574 95.9577 28.896L96.2141 28.4714C95.967 28.27 95.6523 28.1672 95.3321 28.1832C95.16 28.1736 94.9877 28.1995 94.8264 28.2593C94.665 28.3191 94.5181 28.4114 94.395 28.5303C94.2719 28.6493 94.1754 28.7922 94.1116 28.9501C94.0477 29.1079 94.0181 29.2772 94.0244 29.447V29.4571ZM99.0193 29.4571V28.254H98.4859V28.5472C98.3954 28.4323 98.2784 28.3403 98.1446 28.2788C98.0109 28.2173 97.8642 28.188 97.7167 28.1933C97.3767 28.1933 97.0506 28.3265 96.8102 28.5635C96.5697 28.8005 96.4347 29.1219 96.4347 29.4571C96.4347 29.7922 96.5697 30.1137 96.8102 30.3507C97.0506 30.5877 97.3767 30.7208 97.7167 30.7208C97.8642 30.7262 98.0109 30.6969 98.1446 30.6354C98.2784 30.5738 98.3954 30.4818 98.4859 30.367V30.6601H99.0193V29.4571ZM97.0347 29.4571C97.0432 29.3148 97.0937 29.1782 97.18 29.0639C97.2663 28.9496 97.3846 28.8627 97.5204 28.8139C97.6562 28.765 97.8035 28.7564 97.9442 28.789C98.0849 28.8217 98.2128 28.8942 98.3123 28.9976C98.4117 29.101 98.4783 29.2308 98.5038 29.3711C98.5293 29.5113 98.5127 29.6558 98.4559 29.7869C98.3992 29.9179 98.3048 30.0297 98.1844 30.1085C98.0639 30.1873 97.9228 30.2297 97.7782 30.2305C97.6767 30.2317 97.576 30.2123 97.4825 30.1733C97.389 30.1344 97.3046 30.0768 97.2348 30.0041C97.165 29.9315 97.1111 29.8454 97.0767 29.7512C97.0422 29.6571 97.0279 29.5569 97.0347 29.4571ZM90.5988 28.1933C90.2587 28.198 89.9345 28.3357 89.6975 28.576C89.4604 28.8163 89.3299 29.1396 89.3347 29.4748C89.3394 29.8099 89.4791 30.1295 89.7229 30.3632C89.9666 30.5969 90.2946 30.7255 90.6347 30.7208C91.0036 30.7395 91.3663 30.6224 91.6526 30.3922L91.3962 30.003C91.1937 30.1631 90.9429 30.252 90.6834 30.2558C90.5071 30.2707 90.3318 30.2173 90.1949 30.1068C90.0579 29.9964 89.9701 29.8376 89.95 29.6643H91.7706C91.7706 29.5986 91.7706 29.5329 91.7706 29.4621C91.7706 28.7039 91.2936 28.1984 90.6065 28.1984L90.5988 28.1933ZM90.5988 28.6634C90.6786 28.6618 90.7579 28.6756 90.8323 28.7042C90.9067 28.7327 90.9746 28.7755 91.0323 28.8299C91.0899 28.8844 91.1361 28.9495 91.1681 29.0215C91.2002 29.0936 91.2176 29.1712 91.2193 29.2498H89.9372C89.9465 29.0876 90.0199 28.9354 90.1416 28.8258C90.2633 28.7162 90.4237 28.6579 90.5885 28.6634H90.5988ZM103.96 29.4621V27.2834H103.447V28.5472C103.357 28.4323 103.24 28.3403 103.106 28.2788C102.972 28.2173 102.826 28.188 102.678 28.1933C102.338 28.1933 102.012 28.3265 101.772 28.5635C101.531 28.8005 101.396 29.1219 101.396 29.4571C101.396 29.7922 101.531 30.1137 101.772 30.3507C102.012 30.5877 102.338 30.7208 102.678 30.7208C102.826 30.7262 102.972 30.6969 103.106 30.6354C103.24 30.5738 103.357 30.4818 103.447 30.367V30.6601H103.96V29.4621ZM104.85 30.3189C104.883 30.3185 104.916 30.3245 104.947 30.3366C104.977 30.3485 105.004 30.3656 105.027 30.3872C105.049 30.409 105.068 30.4347 105.081 30.463C105.094 30.4925 105.1 30.5243 105.1 30.5565C105.1 30.5887 105.094 30.6205 105.081 30.65C105.068 30.6784 105.049 30.7041 105.027 30.7259C105.004 30.7474 104.977 30.7646 104.947 30.7764C104.917 30.7898 104.884 30.7967 104.85 30.7966C104.801 30.7963 104.754 30.7823 104.713 30.7563C104.672 30.7304 104.64 30.6935 104.619 30.65C104.606 30.6205 104.6 30.5887 104.6 30.5565C104.6 30.5244 104.606 30.4926 104.619 30.463C104.632 30.4347 104.651 30.409 104.673 30.3872C104.696 30.3656 104.723 30.3485 104.753 30.3366C104.786 30.3235 104.822 30.3175 104.858 30.3189H104.85ZM104.85 30.7461C104.876 30.7462 104.901 30.7411 104.924 30.7309C104.946 30.7212 104.966 30.7075 104.983 30.6905C105.015 30.656 105.033 30.6109 105.033 30.5641C105.033 30.5173 105.015 30.4722 104.983 30.4377C104.967 30.4207 104.946 30.4069 104.924 30.3973C104.901 30.3872 104.876 30.382 104.85 30.3821C104.824 30.3823 104.799 30.3874 104.776 30.3973C104.753 30.4066 104.732 30.4203 104.714 30.4377C104.682 30.4722 104.664 30.5173 104.664 30.5641C104.664 30.6109 104.682 30.656 104.714 30.6905C104.732 30.7078 104.753 30.7215 104.776 30.7309C104.802 30.7419 104.83 30.7471 104.858 30.7461H104.85ZM104.865 30.4453C104.889 30.4442 104.913 30.4513 104.932 30.4655C104.94 30.4719 104.946 30.4801 104.95 30.4893C104.954 30.4986 104.956 30.5086 104.955 30.5186C104.956 30.527 104.954 30.5354 104.951 30.5432C104.948 30.551 104.943 30.5582 104.937 30.5641C104.922 30.5774 104.903 30.5854 104.883 30.5869L104.958 30.6703H104.899L104.83 30.5869H104.806V30.6703H104.758V30.4478L104.865 30.4453ZM104.809 30.4883V30.5489H104.865C104.875 30.5519 104.886 30.5519 104.896 30.5489C104.898 30.5454 104.899 30.5415 104.899 30.5376C104.899 30.5336 104.898 30.5297 104.896 30.5262C104.898 30.5227 104.899 30.5188 104.899 30.5148C104.899 30.5109 104.898 30.507 104.896 30.5034C104.886 30.5005 104.875 30.5005 104.865 30.5034L104.809 30.4883ZM101.989 29.4621C101.997 29.3199 102.048 29.1832 102.134 29.0689C102.22 28.9547 102.338 28.8677 102.474 28.8189C102.61 28.7701 102.757 28.7615 102.898 28.7941C103.039 28.8267 103.167 28.8992 103.266 29.0027C103.366 29.1061 103.432 29.2359 103.458 29.3761C103.483 29.5164 103.467 29.6609 103.41 29.7919C103.353 29.923 103.259 30.0348 103.138 30.1136C103.018 30.1924 102.877 30.2348 102.732 30.2355C102.631 30.2368 102.53 30.2173 102.436 30.1784C102.343 30.1394 102.258 30.0818 102.189 30.0092C102.119 29.9365 102.065 29.8504 102.031 29.7563C101.996 29.6621 101.982 29.562 101.989 29.4621ZM83.9808 29.4621V28.254H83.4475V28.5472C83.3569 28.4323 83.2399 28.3403 83.1062 28.2788C82.9724 28.2173 82.8257 28.188 82.6782 28.1933C82.3382 28.1933 82.0121 28.3265 81.7717 28.5635C81.5313 28.8005 81.3962 29.1219 81.3962 29.4571C81.3962 29.7922 81.5313 30.1137 81.7717 30.3507C82.0121 30.5877 82.3382 30.7208 82.6782 30.7208C82.8257 30.7262 82.9724 30.6969 83.1062 30.6354C83.2399 30.5738 83.3569 30.4818 83.4475 30.367V30.6601H83.9808V29.4621ZM81.9962 29.4621C82.0047 29.3199 82.0552 29.1832 82.1415 29.0689C82.2278 28.9547 82.3462 28.8677 82.4819 28.8189C82.6177 28.7701 82.765 28.7615 82.9057 28.7941C83.0464 28.8267 83.1744 28.8992 83.2738 29.0027C83.3732 29.1061 83.4398 29.2359 83.4653 29.3761C83.4908 29.5164 83.4742 29.6609 83.4174 29.7919C83.3607 29.923 83.2663 30.0348 83.1459 30.1136C83.0255 30.1924 82.8843 30.2348 82.7398 30.2355C82.6378 30.2375 82.5366 30.2186 82.4424 30.1799C82.3483 30.1413 82.2633 30.0838 82.1929 30.0111C82.1225 29.9383 82.0683 29.852 82.0335 29.7575C81.9987 29.663 81.9843 29.5624 81.9911 29.4621H81.9962Z" fill="#231F20"/>
    <path d="M94.5144 9.98389H86.4375V24.2919H94.5144V9.98389Z" fill="#FF5F00"/>
    <path d="M86.948 17.1395C86.9465 15.7613 87.2631 14.4009 87.874 13.1612C88.4848 11.9215 89.3738 10.8351 90.4736 9.9842C89.1118 8.92929 87.4765 8.2733 85.7544 8.09121C84.0323 7.90912 82.2929 8.20828 80.7352 8.95449C79.1774 9.7007 77.864 10.8639 76.9452 12.311C76.0263 13.7582 75.5391 15.431 75.5391 17.1382C75.5391 18.8454 76.0263 20.5182 76.9452 21.9654C77.864 23.4126 79.1774 24.5757 80.7352 25.3219C82.2929 26.0681 84.0323 26.3673 85.7544 26.1852C87.4765 26.0031 89.1118 25.3471 90.4736 24.2922C89.3741 23.4416 88.4853 22.3556 87.8745 21.1164C87.2637 19.8771 86.9469 18.5172 86.948 17.1395Z" fill="#EB001B"/>
    <path d="M105.409 17.1393C105.409 18.8467 104.921 20.5196 104.002 21.9668C103.083 23.414 101.77 24.5771 100.212 25.3232C98.6536 26.0693 96.9141 26.3683 95.1919 26.186C93.4697 26.0036 91.8343 25.3473 90.4727 24.2921C91.5717 23.4407 92.4602 22.3543 93.0712 21.1151C93.6822 19.8758 93.9997 18.5159 93.9997 17.138C93.9997 15.7602 93.6822 14.4003 93.0712 13.161C92.4602 11.9217 91.5717 10.8354 90.4727 9.98403C91.8343 8.92879 93.4697 8.27249 95.1919 8.09013C96.9141 7.90778 98.6536 8.20675 100.212 8.95285C101.77 9.69895 103.083 10.8621 104.002 12.3093C104.921 13.7565 105.409 15.4294 105.409 17.1368V17.1393Z" fill="#F79E1B"/>
    <path d="M104.528 22.7757V22.4825H104.649V22.4219H104.344V22.4825H104.475V22.7757H104.528ZM105.121 22.7757V22.4219H105.028L104.921 22.6746L104.813 22.4219H104.731V22.7757H104.798V22.5103L104.898 22.7403H104.967L105.067 22.5103V22.7783L105.121 22.7757Z" fill="#F79E1B"/>
  </g>
  <defs>
    <clipPath id="clip0_719_13">
      <rect width="30" height="23" fill="white" transform="translate(75.5 8)"/>
    </clipPath>
  </defs>
</svg>
