<svg width="120" height="41" viewBox="0 0 120 41" fill="none" xmlns="http://www.w3.org/2000/svg">
<path d="M92.4656 20.5001C92.4656 28.6211 85.901 35.2033 77.8034 35.2033C69.7059 35.2033 63.1421 28.6208 63.1421 20.5001C63.1421 12.3799 69.706 5.79688 77.8034 5.79688C85.9008 5.79688 92.4656 12.3802 92.4656 20.5001Z" fill="#D9222A"/>
<path d="M97.4871 5.79639C93.6989 5.79639 90.2469 7.23771 87.6448 9.6026C87.1147 10.085 86.6199 10.605 86.1644 11.1586H89.1266C89.5322 11.6531 89.9055 12.1732 90.2444 12.7159H85.0468C84.7342 13.2174 84.4521 13.7373 84.2021 14.2729H91.0887C91.325 14.7795 91.5322 15.2993 91.7095 15.8296H83.5814C83.4107 16.3402 83.2684 16.86 83.1553 17.3865H92.135C92.3547 18.4096 92.4654 19.4533 92.4652 20.4999C92.4652 22.1328 92.1994 23.7036 91.7093 25.1706H83.5812C83.758 25.7011 83.9651 26.221 84.2017 26.7276H91.0885C90.8383 27.2633 90.556 27.7833 90.2434 28.2849H85.0465C85.3853 28.8272 85.7587 29.347 86.1643 29.8409H89.1259C88.671 30.3957 88.176 30.9162 87.6451 31.3983C90.2471 33.7628 93.6989 35.2035 97.4874 35.2035C105.585 35.2035 112.15 28.6209 112.15 20.5003C112.15 12.3804 105.585 5.79704 97.4874 5.79704" fill="#EE9F2D"/>
<path d="M110.195 28.6963C110.195 28.4343 110.406 28.2211 110.668 28.2211C110.93 28.2211 111.141 28.4343 111.141 28.6963C111.141 28.9583 110.93 29.1715 110.668 29.1715C110.406 29.1715 110.195 28.9583 110.195 28.6963ZM110.668 29.0574C110.867 29.0573 111.028 28.8957 111.028 28.6963C111.028 28.4971 110.867 28.3357 110.668 28.3356H110.668C110.47 28.3353 110.309 28.4964 110.308 28.6952V28.6964C110.308 28.8957 110.469 29.0573 110.668 29.0575C110.668 29.0574 110.668 29.0574 110.668 29.0574ZM110.604 28.905H110.507V28.4876H110.683C110.719 28.4876 110.757 28.4876 110.789 28.5084C110.823 28.5313 110.842 28.5716 110.842 28.6132C110.842 28.6599 110.814 28.7036 110.77 28.7206L110.846 28.9049H110.739L110.675 28.7397H110.604L110.604 28.905ZM110.604 28.6683H110.658C110.678 28.6683 110.699 28.67 110.717 28.6601C110.733 28.6499 110.741 28.6307 110.741 28.6123C110.741 28.5951 110.732 28.5793 110.718 28.5698C110.701 28.5593 110.674 28.5616 110.656 28.5616H110.604V28.6683ZM74.3795 22.1102C74.2124 22.0907 74.139 22.0855 74.0242 22.0855C73.122 22.0855 72.6653 22.3957 72.6653 23.0085C72.6653 23.3862 72.8882 23.6265 73.2359 23.6265C73.8844 23.6265 74.3516 23.0074 74.3795 22.1102ZM75.537 24.8129H74.2182L74.2485 24.1842C73.8462 24.681 73.3095 24.9172 72.5801 24.9172C71.7174 24.9172 71.1259 24.2414 71.1259 23.2602C71.1259 21.7838 72.1548 20.9224 73.9207 20.9224C74.1011 20.9224 74.3326 20.9387 74.5694 20.9691C74.6187 20.7691 74.6317 20.6833 74.6317 20.5758C74.6317 20.1738 74.3543 20.0239 73.6107 20.0239C72.832 20.0151 72.1898 20.21 71.9261 20.297C71.9427 20.1963 72.1466 18.9324 72.1466 18.9324C72.9399 18.6993 73.4629 18.6115 74.0518 18.6115C75.4184 18.6115 76.1424 19.2269 76.141 20.39C76.1437 20.7017 76.0923 21.0863 76.012 21.5917C75.8739 22.471 75.5775 24.3539 75.537 24.8129ZM70.46 24.8129H68.8683L69.78 19.0793L67.7442 24.8129H66.6596L66.5255 19.1121L65.5671 24.8129H64.0771L65.3217 17.3544H67.6104L67.7493 21.5292L69.1453 17.3544H71.691L70.46 24.8129ZM99.4535 22.1102C99.2871 22.0907 99.2133 22.0855 99.0989 22.0855C98.197 22.0855 97.7402 22.3957 97.7402 23.0085C97.7402 23.3862 97.9629 23.6265 98.3106 23.6265C98.9591 23.6265 99.4266 23.0074 99.4535 22.1102ZM100.612 24.8129H99.2933L99.3232 24.1842C98.9208 24.681 98.3838 24.9172 97.6551 24.9172C96.7922 24.9172 96.2012 24.2414 96.2012 23.2602C96.2012 21.7838 97.2294 20.9224 98.9957 20.9224C99.1761 20.9224 99.4071 20.9387 99.6437 20.9691C99.6931 20.7691 99.7061 20.6833 99.7061 20.5758C99.7061 20.1738 99.429 20.0239 98.6854 20.0239C97.9068 20.0151 97.2653 20.21 97.0005 20.297C97.0171 20.1963 97.2217 18.9324 97.2217 18.9324C98.015 18.6993 98.5377 18.6115 99.1259 18.6115C100.493 18.6115 101.217 19.2269 101.216 20.39C101.218 20.7017 101.167 21.0863 101.087 21.5917C100.949 22.471 100.652 24.3539 100.612 24.8129ZM82.6109 24.7208C82.1753 24.8583 81.8357 24.9172 81.4674 24.9172C80.6537 24.9172 80.2096 24.4483 80.2096 23.5848C80.198 23.3168 80.3266 22.6116 80.4278 21.9681C80.5196 21.4015 81.1179 17.8291 81.1179 17.8291H82.7001L82.5152 18.7472H83.4708L83.255 20.2049H82.2959C82.1121 21.3585 81.8504 22.7954 81.8474 22.9858C81.8474 23.2984 82.0138 23.4349 82.3923 23.4349C82.5737 23.4349 82.7141 23.4163 82.8214 23.3776L82.6109 24.7208ZM87.4619 24.6716C86.9184 24.8383 86.394 24.9188 85.8382 24.9174C84.0671 24.9157 83.1439 23.988 83.1439 22.2117C83.1439 20.1382 84.3184 18.6119 85.9127 18.6119C87.2172 18.6119 88.0503 19.4665 88.0503 20.8068C88.0503 21.2515 87.9932 21.6856 87.8553 22.2986H84.7046C84.598 23.1784 85.1596 23.545 86.0798 23.545C86.6463 23.545 87.157 23.428 87.725 23.1631L87.4619 24.6716ZM86.5726 21.0757C86.5814 20.9493 86.7405 19.9931 85.8364 19.9931C85.3324 19.9931 84.972 20.3784 84.8253 21.0757H86.5726ZM76.4918 20.6647C76.4918 21.432 76.8628 21.9611 77.7041 22.3584C78.3487 22.6622 78.4484 22.7524 78.4484 23.0276C78.4484 23.4058 78.1642 23.5765 77.5343 23.5765C77.0595 23.5765 76.6178 23.5021 76.1083 23.3371C76.1083 23.3371 75.899 24.674 75.8894 24.738C76.2513 24.8172 76.5739 24.8904 77.5458 24.9174C79.2254 24.9174 80.001 24.2761 80.001 22.8901C80.001 22.0566 79.6762 21.5675 78.879 21.1999C78.2116 20.8927 78.135 20.8241 78.135 20.5409C78.135 20.2129 78.3994 20.0457 78.914 20.0457C79.2264 20.0457 79.6532 20.0791 80.0575 20.1367L80.2842 18.7299C79.872 18.6644 79.2472 18.6118 78.8834 18.6118C77.1027 18.6119 76.4864 19.5446 76.4918 20.6647ZM95.2036 18.7713C95.6457 18.7713 96.0578 18.8877 96.6258 19.1744L96.8862 17.5555C96.6531 17.4637 95.8322 16.9248 95.1369 16.9248C94.0717 16.9248 93.1713 17.4549 92.5379 18.3296C91.6142 18.0228 91.2344 18.6429 90.7689 19.2607L90.3554 19.3573C90.3867 19.1539 90.4149 18.9518 90.4054 18.7473H88.9437C88.744 20.6245 88.39 22.5258 88.1129 24.4054L88.0407 24.813H89.6331C89.8989 23.0812 90.0445 21.9723 90.1331 21.2218L90.7327 20.8873C90.8223 20.5533 91.1026 20.4402 91.6652 20.4539C91.5896 20.8641 91.5518 21.2805 91.5522 21.6977C91.5522 23.682 92.6198 24.9175 94.3334 24.9175C94.7748 24.9175 95.1535 24.8591 95.74 24.6997L96.0201 22.9993C95.4927 23.2599 95.0597 23.3824 94.6676 23.3824C93.7423 23.3824 93.1824 22.6974 93.1824 21.5652C93.1824 19.9228 94.0152 18.7713 95.2036 18.7713Z" fill="black"/>
<path d="M70.9189 24.3696H69.3269L70.2394 18.6367L68.2034 24.3696H67.1185L66.9844 18.6695L66.026 24.3696H64.5361L65.7807 16.9121H68.0694L68.1338 21.5288L69.6778 16.9121H72.15L70.9189 24.3696Z" fill="white"/>
<path d="M108.68 17.3545L108.327 19.5095C107.891 18.9351 107.424 18.5194 106.806 18.5194C106.003 18.5194 105.272 19.13 104.794 20.0286C104.127 19.89 103.438 19.6548 103.438 19.6548L103.438 19.6603C103.491 19.1579 103.513 18.8514 103.508 18.7473H102.046C101.847 20.6245 101.493 22.5258 101.216 24.4054L101.144 24.813H102.736C102.951 23.4126 103.115 22.2499 103.237 21.3276C103.78 20.8348 104.053 20.4047 104.602 20.4334C104.359 21.0236 104.216 21.7033 104.216 22.4007C104.216 23.9171 104.981 24.9174 106.139 24.9174C106.722 24.9174 107.169 24.7158 107.606 24.2481L107.531 24.812H109.037L110.25 17.3546L108.68 17.3545ZM106.689 23.4112C106.147 23.4112 105.874 23.0091 105.874 22.2156C105.874 21.0233 106.386 20.178 107.108 20.178C107.655 20.178 107.951 20.5961 107.951 21.3665C107.951 22.5689 107.431 23.4112 106.689 23.4112Z" fill="black"/>
<path d="M74.8375 21.668C74.6707 21.6487 74.5969 21.6435 74.4825 21.6435C73.5803 21.6435 73.1239 21.9537 73.1239 22.5663C73.1239 22.9435 73.3468 23.1845 73.6939 23.1845C74.343 23.1844 74.8103 22.5653 74.8375 21.668ZM75.9955 24.3698H74.6767L74.7067 23.7421C74.3048 24.238 73.7674 24.4752 73.0388 24.4752C72.1757 24.4752 71.5845 23.7994 71.5845 22.8182C71.5845 21.3412 72.613 20.4803 74.3793 20.4803C74.5596 20.4803 74.7911 20.4967 75.0276 20.527C75.077 20.3271 75.09 20.2414 75.09 20.1332C75.09 19.7311 74.8129 19.582 74.0693 19.582C73.2903 19.5732 72.6484 19.768 72.3844 19.8541C72.401 19.7537 72.6049 18.4913 72.6049 18.4913C73.3978 18.2572 73.9215 18.1695 74.5096 18.1695C75.8767 18.1695 76.6009 18.7852 76.5996 19.9473C76.602 20.2603 76.5503 20.6446 76.4702 21.1493C76.3325 22.0278 76.0358 23.9117 75.9955 24.3698ZM97.3447 17.113L97.0841 18.7322C96.5164 18.4458 96.1039 18.3292 95.6623 18.3292C94.4738 18.3292 93.6408 19.4807 93.6408 21.1229C93.6408 22.255 94.2008 22.9398 95.126 22.9398C95.5181 22.9398 95.9506 22.8176 96.4781 22.5568L96.1987 24.2565C95.6119 24.4168 95.2336 24.4752 94.7918 24.4752C93.0784 24.4752 92.0105 23.2396 92.0105 21.2553C92.0105 18.5891 93.4856 16.7256 95.5952 16.7256C96.2901 16.7257 97.1113 17.0212 97.3447 17.113ZM99.9129 21.668C99.7462 21.6487 99.6727 21.6435 99.5579 21.6435C98.6561 21.6435 98.1993 21.9537 98.1993 22.5663C98.1993 22.9435 98.4222 23.1845 98.7697 23.1845C99.4181 23.1844 99.8857 22.5653 99.9129 21.668ZM101.071 24.3698H99.7519L99.7822 23.7421C99.3799 24.238 98.8429 24.4752 98.1142 24.4752C97.2514 24.4752 96.66 23.7994 96.66 22.8182C96.66 21.3412 97.6888 20.4803 99.4544 20.4803C99.6352 20.4803 99.8662 20.4967 100.103 20.527C100.152 20.3271 100.165 20.2414 100.165 20.1332C100.165 19.7311 99.8882 19.582 99.1448 19.582C98.3661 19.5732 97.7239 19.768 97.4597 19.8541C97.4764 19.7537 97.6806 18.4913 97.6806 18.4913C98.4736 18.2572 98.9969 18.1695 99.585 18.1695C100.952 18.1695 101.676 18.7852 101.675 19.9473C101.677 20.2603 101.626 20.6446 101.546 21.1493C101.408 22.0278 101.111 23.9117 101.071 24.3698ZM83.0698 24.278C82.6338 24.4155 82.2942 24.4752 81.9263 24.4752C81.1126 24.4752 80.6685 24.0062 80.6685 23.1427C80.6573 22.8741 80.786 22.1695 80.887 21.526C80.9785 20.9587 81.5768 17.3867 81.5768 17.3867H83.1588L82.9742 18.3051H83.7861L83.57 19.7621H82.7553C82.5715 20.9165 82.3091 22.3522 82.3064 22.5431C82.3064 22.8568 82.4731 22.9921 82.8512 22.9921C83.0326 22.9921 83.1729 22.9744 83.2804 22.9355L83.0698 24.278ZM87.9208 24.2295C87.3776 24.396 86.8525 24.4762 86.2971 24.4752C84.5259 24.4735 83.6028 23.5458 83.6028 21.7694C83.6028 19.6953 84.7772 18.1694 86.3716 18.1694C87.6761 18.1694 88.5092 19.0236 88.5092 20.3646C88.5092 20.8097 88.452 21.2438 88.3145 21.8564H85.1638C85.0571 22.7362 85.6187 23.1033 86.539 23.1033C87.1051 23.1033 87.6162 22.9857 88.1839 22.7202L87.9208 24.2295ZM87.0312 20.6325C87.0407 20.5066 87.1995 19.5499 86.2951 19.5499C85.7913 19.5499 85.431 19.9363 85.2843 20.6325H87.0312ZM76.9504 20.2226C76.9504 20.9898 77.3214 21.5183 78.1627 21.9161C78.8073 22.2199 78.907 22.3103 78.907 22.5855C78.907 22.9636 78.6225 23.1342 77.9931 23.1342C77.5181 23.1342 77.0763 23.0599 76.5665 22.895C76.5665 22.895 76.3579 24.2318 76.3483 24.2957C76.7094 24.3749 77.0324 24.4473 78.0043 24.4752C79.6841 24.4752 80.4595 23.8339 80.4595 22.4482C80.4595 21.6143 80.1352 21.1253 79.3375 20.7578C78.6704 20.4499 78.5932 20.3823 78.5932 20.0987C78.5932 19.7711 78.8583 19.6024 79.3725 19.6024C79.6846 19.6024 80.1114 19.6369 80.5164 19.6946L80.7427 18.2874C80.3309 18.2219 79.706 18.1694 79.3422 18.1694C77.5613 18.1694 76.9453 19.1014 76.9504 20.2226ZM109.495 24.3698H107.989L108.064 23.8052C107.627 24.2735 107.18 24.4752 106.597 24.4752C105.44 24.4752 104.675 23.4748 104.675 21.9584C104.675 19.9409 105.861 18.2402 107.265 18.2402C107.882 18.2402 108.349 18.4931 108.784 19.0672L109.138 16.9123H110.708L109.495 24.3698ZM107.147 22.9684C107.889 22.9684 108.409 22.1261 108.409 20.9244C108.409 20.154 108.113 19.7359 107.566 19.7359C106.844 19.7359 106.331 20.5809 106.331 21.7735C106.331 22.5669 106.606 22.9684 107.147 22.9684ZM102.505 18.3052C102.305 20.1824 101.951 22.0838 101.675 23.9623L101.602 24.3699H103.194C103.763 20.6613 103.901 19.937 104.794 20.0278C104.936 19.2687 105.201 18.6039 105.398 18.2684C104.731 18.1292 104.359 18.507 103.872 19.2247C103.91 18.9144 103.98 18.6131 103.966 18.3053L102.505 18.3052ZM89.4017 18.3052C89.2019 20.1824 88.848 22.0838 88.5713 23.9623L88.4988 24.3699H90.0915C90.6602 20.6613 90.7977 19.937 91.6899 20.0278C91.8329 19.2687 92.0976 18.6039 92.2943 18.2684C91.6283 18.1292 91.2556 18.507 90.7686 19.2247C90.8071 18.9144 90.8767 18.6131 90.8635 18.3053L89.4017 18.3052ZM110.195 23.8949C110.194 23.6329 110.406 23.4203 110.667 23.4199H110.668C110.929 23.4196 111.141 23.6318 111.141 23.8936V23.8949C111.141 24.1571 110.93 24.3696 110.668 24.3698C110.407 24.3696 110.195 24.1571 110.195 23.8949ZM110.668 24.2558C110.867 24.2559 111.028 24.0945 111.028 23.8954V23.8951C111.028 23.6958 110.867 23.5342 110.668 23.534H110.668C110.469 23.5341 110.308 23.6957 110.308 23.8951C110.308 24.0943 110.469 24.2558 110.668 24.2558ZM110.604 24.1025H110.507V23.6862H110.683C110.719 23.6862 110.757 23.687 110.789 23.707C110.823 23.7302 110.842 23.7699 110.842 23.8114C110.842 23.8585 110.815 23.9025 110.77 23.9193L110.846 24.1024H110.739L110.675 23.9379H110.604L110.604 24.1025ZM110.604 23.8667H110.657C110.677 23.8667 110.699 23.8682 110.717 23.8585C110.733 23.8483 110.741 23.8289 110.741 23.8103C110.74 23.7931 110.732 23.7772 110.718 23.7675C110.701 23.7579 110.673 23.7606 110.655 23.7606H110.604L110.604 23.8667Z" fill="white"/>
<path d="M24.3625 28.587L27.0774 12.5519H31.4201L28.7031 28.587H24.3625ZM44.3926 12.8976C43.5324 12.5727 42.1842 12.2241 40.5006 12.2241C36.2094 12.2241 33.1869 14.399 33.161 17.516C33.1369 19.8201 35.319 21.1055 36.9662 21.8725C38.6567 22.6587 39.2249 23.1598 39.2167 23.8615C39.2059 24.9365 37.8668 25.4273 36.6185 25.4273C34.8805 25.4273 33.9571 25.1843 32.5309 24.5858L31.9711 24.331L31.3617 27.9205C32.3761 28.3683 34.2516 28.7559 36.1992 28.7761C40.7642 28.7761 43.7277 26.6261 43.7614 23.2974C43.7776 21.4732 42.6207 20.0852 40.1152 18.9407C38.5973 18.1989 37.6677 17.7039 37.6775 16.9527C37.6775 16.2862 38.4644 15.5735 40.1647 15.5735C41.5846 15.5513 42.6135 15.863 43.415 16.1878L43.8041 16.3729L44.3926 12.8976ZM55.5679 12.5517H52.2123C51.1728 12.5517 50.3948 12.8372 49.9383 13.8814L43.4888 28.5765H48.049C48.049 28.5765 48.7944 26.6007 48.9631 26.1668C49.4614 26.1668 53.8915 26.1737 54.5247 26.1737C54.6546 26.7351 55.0531 28.5765 55.0531 28.5765H59.0827L55.5679 12.5512V12.5517ZM50.2438 22.9062C50.603 21.9823 51.9741 18.4236 51.9741 18.4236C51.9485 18.4663 52.3306 17.4952 52.5498 16.8932L52.8433 18.2757C52.8433 18.2757 53.6748 22.1034 53.8487 22.9059H50.2438V22.9062ZM20.6759 12.5517L16.4243 23.487L15.9714 21.2648C15.1798 18.703 12.7139 15.9276 9.95703 14.5381L13.8446 28.5615L18.4394 28.5563L25.2762 12.5515L20.6759 12.5514" fill="#0E4595"/>
<path d="M12.4575 12.5513H5.45492L5.39941 12.8849C10.8474 14.2122 14.4521 17.4198 15.9488 21.2743L14.4261 13.9055C14.1633 12.8901 13.4009 12.5871 12.4577 12.5517" fill="#F2AE14"/>
</svg>
