<svg width="132" height="40" viewBox="0 0 132 40" fill="none" xmlns="http://www.w3.org/2000/svg">
  <g clip-path="url(#clip0_719_5336)">
    <path d="M54.0594 13.4993H49.5369C49.2274 13.4993 48.9642 13.7259 48.9159 14.0339L47.0868 25.7253C47.0504 25.9559 47.2276 26.1639 47.4597 26.1639H49.6189C49.9283 26.1639 50.1915 25.9373 50.2398 25.6286L50.7331 22.4753C50.7807 22.1666 51.0446 21.9399 51.3534 21.9399H52.7851C55.7642 21.9399 57.4836 20.4866 57.9326 17.6066C58.135 16.3466 57.9412 15.3566 57.356 14.6633C56.7132 13.9019 55.5731 13.4993 54.0594 13.4993ZM54.5812 17.7693C54.3339 19.4053 53.0939 19.4053 51.895 19.4053H51.2126L51.6913 16.3499C51.7198 16.1653 51.8785 16.0293 52.0637 16.0293H52.3764C53.1931 16.0293 53.9635 16.0293 54.3616 16.4986C54.599 16.7786 54.6718 17.1946 54.5812 17.7693Z" fill="#253B80"/>
    <path d="M67.5793 17.7166H65.4136C65.2291 17.7166 65.0697 17.8526 65.0413 18.0372L64.9454 18.6479L64.794 18.4266C64.3251 17.7406 63.2796 17.5112 62.2361 17.5112C59.8429 17.5112 57.7988 19.3386 57.4007 21.9019C57.1937 23.1806 57.488 24.4032 58.2075 25.2559C58.8675 26.0399 59.8118 26.3666 60.9353 26.3666C62.8636 26.3666 63.933 25.1166 63.933 25.1166L63.8364 25.7232C63.8 25.9552 63.9773 26.1632 64.208 26.1632H66.1589C66.469 26.1632 66.7309 25.9366 66.7798 25.6279L67.9503 18.1552C67.9873 17.9252 67.8108 17.7166 67.5793 17.7166ZM64.5605 21.9659C64.3515 23.2132 63.3695 24.0506 62.117 24.0506C61.4882 24.0506 60.9856 23.8472 60.6629 23.4619C60.3428 23.0792 60.2211 22.5346 60.323 21.9279C60.518 20.6912 61.5166 19.8266 62.7499 19.8266C63.3649 19.8266 63.8648 20.0326 64.1942 20.4212C64.5241 20.8139 64.6551 21.3619 64.5605 21.9659Z" fill="#253B80"/>
    <path d="M79.1138 17.7166H76.9375C76.7299 17.7166 76.5348 17.8206 76.4171 17.9946L73.4155 22.4519L72.1432 18.1686C72.0631 17.9006 71.8178 17.7166 71.5401 17.7166H69.4014C69.1416 17.7166 68.961 17.9726 69.0437 18.2192L71.4409 25.3112L69.1872 28.5186C69.01 28.7712 69.1885 29.1186 69.4947 29.1186H71.6683C71.8747 29.1186 72.0678 29.0172 72.1848 28.8466L79.4233 18.3132C79.5966 18.0612 79.4187 17.7166 79.1138 17.7166Z" fill="#253B80"/>
    <path d="M86.3172 13.4993H81.794C81.4852 13.4993 81.222 13.7259 81.1737 14.0339L79.3446 25.7253C79.3082 25.9559 79.4854 26.1639 79.7162 26.1639H82.0374C82.2529 26.1639 82.4374 26.0053 82.4712 25.7893L82.9903 22.4753C83.0379 22.1666 83.3018 21.9399 83.6106 21.9399H85.0416C88.0214 21.9399 89.7401 20.4866 90.1898 17.6066C90.3928 16.3466 90.1977 15.3566 89.6124 14.6633C88.9703 13.9019 87.8309 13.4993 86.3172 13.4993ZM86.839 17.7693C86.5923 19.4053 85.3524 19.4053 84.1528 19.4053H83.471L83.9505 16.3499C83.9789 16.1653 84.1363 16.0293 84.3221 16.0293H84.6349C85.4509 16.0293 86.222 16.0293 86.6201 16.4986C86.8575 16.7786 86.9296 17.1946 86.839 17.7693Z" fill="#179BD7"/>
    <path d="M99.8343 17.7166H97.6699C97.4841 17.7166 97.326 17.8526 97.2982 18.0372L97.2024 18.6479L97.0503 18.4266C96.5814 17.7406 95.5366 17.5112 94.493 17.5112C92.0998 17.5112 90.0564 19.3386 89.6584 21.9019C89.452 23.1806 89.745 24.4032 90.4645 25.2559C91.1258 26.0399 92.0688 26.3666 93.1923 26.3666C95.1206 26.3666 96.1899 25.1166 96.1899 25.1166L96.0934 25.7232C96.057 25.9552 96.2342 26.1632 96.4663 26.1632H98.4165C98.7253 26.1632 98.9885 25.9366 99.0368 25.6279L100.208 18.1552C100.244 17.9252 100.066 17.7166 99.8343 17.7166ZM96.8155 21.9659C96.6079 23.2132 95.6245 24.0506 94.372 24.0506C93.7445 24.0506 93.2406 23.8472 92.9179 23.4619C92.5978 23.0792 92.4774 22.5346 92.5779 21.9279C92.7744 20.6912 93.7716 19.8266 95.0049 19.8266C95.6199 19.8266 96.1198 20.0326 96.4491 20.4212C96.7804 20.8139 96.9114 21.3619 96.8155 21.9659Z" fill="#179BD7"/>
    <path d="M102.388 13.8201L100.532 25.7254C100.496 25.9561 100.673 26.1641 100.904 26.1641H102.77C103.08 26.1641 103.343 25.9374 103.391 25.6288L105.221 13.9381C105.258 13.7074 105.08 13.4988 104.85 13.4988H102.76C102.575 13.4994 102.417 13.6354 102.388 13.8201Z" fill="#179BD7"/>
    <path d="M28.3064 28.4359L28.6523 26.2213L27.8819 26.2033H24.2031L26.7597 9.86128C26.7676 9.81195 26.7934 9.76595 26.8311 9.73328C26.8688 9.70062 26.9171 9.68262 26.9673 9.68262H33.1702C35.2295 9.68262 36.6506 10.1146 37.3926 10.9673C37.7404 11.3673 37.9619 11.7853 38.0691 12.2453C38.1815 12.728 38.1835 13.3046 38.0737 14.008L38.0658 14.0593V14.51L38.4136 14.7086C38.7065 14.8653 38.9393 15.0446 39.1179 15.2499C39.4154 15.5919 39.6079 16.0266 39.6892 16.5419C39.7732 17.0719 39.7454 17.7026 39.6079 18.4166C39.4492 19.2379 39.1926 19.9533 38.8461 20.5386C38.5273 21.078 38.1213 21.5253 37.6392 21.872C37.179 22.2013 36.6321 22.4513 36.0138 22.6113C35.4146 22.7686 34.7315 22.8479 33.9823 22.8479H33.4995C33.1544 22.8479 32.8191 22.9733 32.5559 23.198C32.292 23.4273 32.1174 23.7406 32.0639 24.0833L32.0275 24.2826L31.4165 28.1859L31.3887 28.3293C31.3814 28.3746 31.3689 28.3973 31.3504 28.4126C31.3338 28.4266 31.31 28.4359 31.2869 28.4359H28.3064Z" fill="#253B80"/>
    <path d="M38.7429 14.1113C38.7244 14.2307 38.7032 14.3527 38.6794 14.478C37.8614 18.712 35.0628 20.1747 31.4885 20.1747H29.6687C29.2315 20.1747 28.8632 20.4947 28.7951 20.9293L27.8633 26.8867L27.5995 28.5753C27.5552 28.8607 27.7734 29.118 28.0591 29.118H31.2868C31.6691 29.118 31.9938 28.838 32.0539 28.458L32.0857 28.2927L32.6934 24.4047L32.7324 24.1913C32.7919 23.81 33.1173 23.53 33.4995 23.53H33.9823C37.1095 23.53 39.5576 22.25 40.2731 18.546C40.572 16.9987 40.4173 15.7067 39.6264 14.798C39.387 14.524 39.0901 14.2967 38.7429 14.1113Z" fill="#179BD7"/>
    <path d="M37.885 13.7674C37.7601 13.7308 37.6311 13.6974 37.4989 13.6674C37.3659 13.6381 37.2297 13.6121 37.0895 13.5894C36.5988 13.5094 36.0612 13.4714 35.4852 13.4714H30.6234C30.5037 13.4714 30.39 13.4988 30.2881 13.5481C30.064 13.6568 29.8973 13.8708 29.857 14.1328L28.8227 20.7368L28.793 20.9294C28.8611 20.4948 29.2294 20.1748 29.6665 20.1748H31.4864C35.0607 20.1748 37.8593 18.7114 38.6773 14.4781C38.7017 14.3528 38.7222 14.2308 38.7408 14.1114C38.5338 14.0008 38.3096 13.9061 38.0682 13.8254C38.0087 13.8054 37.9472 13.7861 37.885 13.7674Z" fill="#222D65"/>
    <path d="M29.8576 14.1327C29.898 13.8707 30.0646 13.6567 30.2888 13.5487C30.3913 13.4993 30.5044 13.472 30.6241 13.472H35.4859C36.0619 13.472 36.5995 13.51 37.0902 13.59C37.2304 13.6127 37.3666 13.6387 37.4995 13.668C37.6318 13.698 37.7607 13.7313 37.8857 13.768C37.9479 13.7867 38.0094 13.806 38.0695 13.8253C38.3109 13.906 38.5351 14.0013 38.7421 14.1113C38.9854 12.5467 38.7401 11.4813 37.9009 10.5167C36.9758 9.45467 35.306 9 33.1694 9H26.9665C26.53 9 26.1577 9.32 26.0903 9.75533L23.5066 26.2653C23.4557 26.592 23.7057 26.8867 24.0323 26.8867H27.8619L28.8234 20.7367L29.8576 14.1327Z" fill="#253B80"/>
  </g>
  <defs>
    <clipPath id="clip0_719_5336">
      <rect width="82" height="22" fill="white" transform="translate(23.5 9)"/>
    </clipPath>
  </defs>
</svg>
