<svg width="116" height="33" viewBox="0 0 116 33" fill="none" xmlns="http://www.w3.org/2000/svg">
<g clip-path="url(#clip0_768_98)">
<path d="M43.2296 7.04443H36.8319C36.3941 7.04443 36.0217 7.37413 35.9535 7.82213L33.3659 24.8277C33.3145 25.1632 33.5652 25.4658 33.8935 25.4658H36.9479C37.3857 25.4658 37.758 25.1361 37.8263 24.6871L38.5242 20.1004C38.5915 19.6515 38.9648 19.3218 39.4016 19.3218H41.427C45.6413 19.3218 48.0736 17.2078 48.7088 13.0187C48.995 11.186 48.7209 9.74601 47.893 8.73752C46.9837 7.63013 45.371 7.04443 43.2296 7.04443ZM43.9677 13.2553C43.6179 15.635 41.8638 15.635 40.1678 15.635H39.2024L39.8797 11.1909C39.9199 10.9223 40.1444 10.7244 40.4064 10.7244H40.8488C42.0042 10.7244 43.094 10.7244 43.6572 11.4071C43.993 11.8144 44.0959 12.4195 43.9677 13.2553Z" fill="#253B80"/>
<path d="M62.3537 13.1788H59.29C59.029 13.1788 58.8036 13.3766 58.7634 13.6452L58.6277 14.5335L58.4135 14.2115C57.7502 13.2137 56.2712 12.8801 54.795 12.8801C51.4095 12.8801 48.5179 15.5381 47.9548 19.2666C47.662 21.1264 48.0783 22.9049 49.0961 24.1451C50.0297 25.2855 51.3656 25.7606 52.9549 25.7606C55.6828 25.7606 57.1955 23.9424 57.1955 23.9424L57.0589 24.8249C57.0075 25.1623 57.2582 25.4649 57.5847 25.4649H60.3443C60.7831 25.4649 61.1535 25.1352 61.2227 24.6862L62.8786 13.8169C62.9309 13.4823 62.6812 13.1788 62.3537 13.1788ZM58.0833 19.3596C57.7877 21.1739 56.3985 22.3919 54.6267 22.3919C53.737 22.3919 53.026 22.0961 52.5695 21.5356C52.1167 20.979 51.9446 20.1868 52.0887 19.3044C52.3646 17.5056 53.7772 16.2479 55.5219 16.2479C56.3919 16.2479 57.0991 16.5475 57.565 17.1129C58.0318 17.684 58.217 18.4811 58.0833 19.3596Z" fill="#253B80"/>
<path d="M78.6704 13.1787H75.5918C75.298 13.1787 75.022 13.33 74.8555 13.5831L70.6094 20.0665L68.8095 13.8362C68.6963 13.4463 68.3492 13.1787 67.9563 13.1787H64.931C64.5633 13.1787 64.3079 13.5511 64.4249 13.9099L67.816 24.2255L64.6279 28.8907C64.3772 29.2582 64.6298 29.7634 65.0629 29.7634H68.1378C68.4297 29.7634 68.7029 29.616 68.8684 29.3678L79.1082 14.0466C79.3533 13.68 79.1017 13.1787 78.6704 13.1787Z" fill="#253B80"/>
<path d="M88.8635 7.04443H82.4648C82.0279 7.04443 81.6556 7.37413 81.5873 7.82213L78.9998 24.8277C78.9483 25.1632 79.199 25.4658 79.5255 25.4658H82.809C83.114 25.4658 83.375 25.235 83.4227 24.9208L84.1571 20.1004C84.2244 19.6515 84.5977 19.3218 85.0346 19.3218H87.059C91.2742 19.3218 93.7056 17.2078 94.3417 13.0187C94.6289 11.186 94.3529 9.74601 93.525 8.73752C92.6167 7.63013 91.0048 7.04443 88.8635 7.04443ZM89.6016 13.2553C89.2527 15.635 87.4986 15.635 85.8017 15.635H84.8372L85.5154 11.1909C85.5556 10.9223 85.7783 10.7244 86.0411 10.7244H86.4836C87.638 10.7244 88.7288 10.7244 89.292 11.4071C89.6278 11.8144 89.7298 12.4195 89.6016 13.2553Z" fill="#179BD7"/>
<path d="M107.987 13.1788H104.925C104.662 13.1788 104.438 13.3766 104.399 13.6452L104.263 14.5335L104.048 14.2115C103.385 13.2137 101.907 12.8801 100.431 12.8801C97.0452 12.8801 94.1546 15.5381 93.5914 19.2666C93.2995 21.1264 93.714 22.9049 94.7318 24.1451C95.6673 25.2855 97.0013 25.7606 98.5906 25.7606C101.319 25.7606 102.831 23.9424 102.831 23.9424L102.695 24.8249C102.643 25.1623 102.894 25.4649 103.222 25.4649H105.981C106.418 25.4649 106.79 25.1352 106.858 24.6862L108.515 13.8169C108.566 13.4823 108.315 13.1788 107.987 13.1788ZM103.716 19.3596C103.422 21.1739 102.031 22.3919 100.26 22.3919C99.3718 22.3919 98.6589 22.0961 98.2024 21.5356C97.7496 20.979 97.5794 20.1868 97.7216 19.3044C97.9994 17.5056 99.4101 16.2479 101.155 16.2479C102.025 16.2479 102.732 16.5475 103.198 17.1129C103.667 17.684 103.852 18.4811 103.716 19.3596Z" fill="#179BD7"/>
<path d="M111.599 7.51085L108.973 24.8277C108.921 25.1632 109.172 25.4658 109.498 25.4658H112.138C112.577 25.4658 112.949 25.1361 113.017 24.6871L115.606 7.68249C115.658 7.34697 115.407 7.04346 115.08 7.04346H112.124C111.863 7.04443 111.639 7.24224 111.599 7.51085Z" fill="#179BD7"/>
<path d="M6.79723 28.7705L7.28649 25.5492L6.19665 25.523H0.992554L4.60913 1.7528C4.62036 1.68104 4.65684 1.61413 4.71017 1.56662C4.76349 1.5191 4.83178 1.49292 4.90288 1.49292H13.6777C16.5908 1.49292 18.6012 2.12128 19.6508 3.36153C20.1428 3.94334 20.4562 4.55134 20.6078 5.22043C20.7668 5.9225 20.7696 6.76128 20.6143 7.78431L20.6031 7.85898V8.5145L21.0952 8.80346C21.5096 9.03134 21.8389 9.29219 22.0915 9.59086C22.5124 10.0883 22.7846 10.7206 22.8997 11.4701C23.0185 12.241 22.9792 13.1584 22.7847 14.1969C22.5601 15.3916 22.1972 16.4321 21.707 17.2835C21.2561 18.0679 20.6817 18.7186 19.9997 19.2229C19.3486 19.7019 18.575 20.0655 17.7003 20.2983C16.8527 20.5271 15.8864 20.6425 14.8265 20.6425H14.1436C13.6553 20.6425 13.181 20.8248 12.8087 21.1516C12.4354 21.4852 12.1884 21.9409 12.1127 22.4393L12.0612 22.7293L11.1968 28.4069L11.1575 28.6153C11.1472 28.6813 11.1295 28.7143 11.1033 28.7366C11.0799 28.7569 11.0462 28.7705 11.0135 28.7705H6.79723Z" fill="#253B80"/>
<path d="M21.561 7.93457C21.5348 8.10815 21.5049 8.2856 21.4712 8.4679C20.314 14.6264 16.355 16.754 11.2988 16.754H8.7243C8.10594 16.754 7.58488 17.2194 7.48852 17.8517L6.17043 26.5169L5.79717 28.9731C5.73449 29.3881 6.0432 29.7624 6.44733 29.7624H11.0134C11.5541 29.7624 12.0135 29.3552 12.0986 28.8024L12.1435 28.562L13.0032 22.9067L13.0584 22.5964C13.1426 22.0417 13.6028 21.6344 14.1436 21.6344H14.8265C19.2504 21.6344 22.7135 19.7726 23.7257 14.385C24.1486 12.1343 23.9297 10.2551 22.8108 8.93336C22.4722 8.53481 22.0521 8.20415 21.561 7.93457Z" fill="#179BD7"/>
<path d="M20.3505 7.43421C20.1737 7.38087 19.9913 7.33239 19.8042 7.28875C19.6161 7.24609 19.4234 7.20827 19.2251 7.1753C18.531 7.05893 17.7704 7.00366 16.9556 7.00366H10.0779C9.90862 7.00366 9.74772 7.04342 9.60365 7.11518C9.28653 7.27324 9.05078 7.58451 8.99372 7.9656L7.53062 17.5714L7.48853 17.8517C7.58488 17.2194 8.10594 16.754 8.7243 16.754H11.2988C16.355 16.754 20.314 14.6255 21.4712 8.4679C21.5058 8.2856 21.5348 8.10815 21.561 7.93457C21.2682 7.7736 20.9511 7.6359 20.6096 7.51857C20.5254 7.48948 20.4384 7.46136 20.3505 7.43421Z" fill="#222D65"/>
<path d="M8.99373 7.9657C9.0508 7.58461 9.28654 7.27333 9.60367 7.11624C9.74867 7.04449 9.90863 7.00473 10.078 7.00473H16.9556C17.7704 7.00473 18.531 7.06 19.2251 7.17636C19.4234 7.20933 19.6161 7.24715 19.8042 7.28982C19.9913 7.33345 20.1737 7.38194 20.3505 7.43527C20.4384 7.46242 20.5254 7.49055 20.6106 7.51867C20.952 7.636 21.2691 7.77467 21.562 7.93467C21.9062 5.65879 21.5592 4.10921 20.372 2.70606C19.0633 1.16133 16.7012 0.5 13.6786 0.5H4.9038C4.28638 0.5 3.7597 0.965455 3.66428 1.59867L0.00934438 25.6132C-0.0626879 26.0884 0.290925 26.517 0.753054 26.517H6.17044L7.53063 17.5715L8.99373 7.9657Z" fill="#253B80"/>
</g>
<defs>
<clipPath id="clip0_768_98">
<rect width="116" height="32" fill="white" transform="translate(0 0.5)"/>
</clipPath>
</defs>
</svg>
