<svg width="131" height="40" viewBox="0 0 131 40" fill="none" xmlns="http://www.w3.org/2000/svg">
  <g clip-path="url(#clip0_719_14003)">
    <path d="M109.294 39.7744H14.0153C13.4554 39.7744 13 39.3181 13 38.7569V1.24284C13 0.681633 13.4554 0.225132 14.0153 0.225132H109.294C109.853 0.225132 110.309 0.681633 110.309 1.24284V38.7569C110.309 39.3181 109.853 39.7744 109.294 39.7744Z" fill="none"/>
    <path d="M62.4214 21.5747C61.1092 21.5747 59.9028 21.2576 58.9219 20.7286L59.2539 18.5362C60.2495 19.0651 61.2752 19.368 62.391 19.368C63.628 19.368 64.1713 18.9143 64.1713 18.1281C64.1713 16.3443 58.9672 17.1001 58.9672 13.3052C58.9672 11.3852 60.2042 9.82813 63.0699 9.82813C64.1713 9.82813 65.3629 10.0549 66.2375 10.4176L65.9212 12.5645C64.9856 12.2623 64.0506 12.081 63.1909 12.081C61.788 12.081 61.4108 12.5645 61.4108 13.1694C61.4108 14.9381 66.6147 14.1219 66.6147 17.9618C66.6147 20.1991 65.0608 21.5747 62.4214 21.5747Z" fill="#2B61AC"/>
    <path d="M76.4226 19.1409L76.4229 21.3633H68.7305V10.0248H76.4226L76.4229 12.2771H71.2796V14.53H75.4575V16.5554H71.2796V19.1409H76.4226Z" fill="#2B61AC"/>
    <path d="M82.7292 12.1562H81.2212V15.6334H82.7292C83.981 15.6334 84.5243 15.3162 84.5243 13.895C84.5243 12.5344 84.0414 12.1562 82.7292 12.1562ZM82.7292 17.6744H81.2212V21.3633H78.6719V10.0248H82.7292C85.867 10.0248 87.1488 11.2641 87.1488 13.9101C87.1488 16.2987 85.8818 17.6744 82.7292 17.6744Z" fill="#2B61AC"/>
    <path d="M92.568 13.1388L91.4366 17.0245H94.3178L93.2317 13.1388L92.9299 11.9444H92.8845L92.568 13.1388ZM94.9208 19.156H90.8182L90.1847 21.3633H87.5L91.4064 10.0248H94.4385L98.39 21.3633H95.5542L94.9208 19.156Z" fill="#2B61AC"/>
    <path d="M62.3316 28.7215L62.3032 29.7886H58.9766V24.5239H60.1671V28.7215H62.3316Z" fill="#2B61AC"/>
    <path d="M65.3486 27.9638C65.244 27.9216 65.0338 27.8724 64.7467 27.8724C64.2631 27.8724 64.039 28.0623 64.039 28.434C64.039 28.8486 64.2841 28.9956 64.6416 28.9956C65.0124 28.9956 65.3486 28.771 65.3486 28.4972V27.9638ZM65.5098 29.3817L65.489 29.3748C65.2295 29.6834 64.8236 29.8594 64.34 29.8594C63.5348 29.8594 63.0234 29.4027 63.0234 28.448C63.0234 27.6617 63.57 27.1215 64.5364 27.1215C64.8513 27.1215 65.1245 27.1706 65.3486 27.2407V26.9952C65.3486 26.5668 65.1245 26.3699 64.5433 26.3699C64.0742 26.3699 63.7658 26.4405 63.3736 26.6021L63.2824 25.7314C63.7098 25.5489 64.1933 25.4506 64.7393 25.4506C65.9932 25.4506 66.4276 25.9913 66.4276 27.1562V29.7888H65.594L65.5098 29.3817Z" fill="#2B61AC"/>
    <path d="M68.7766 29.873C68.2653 29.873 67.8032 29.7745 67.4457 29.5784L67.5578 28.6796C67.9083 28.883 68.4056 28.9813 68.7696 28.9813C69.2041 28.9813 69.386 28.8059 69.386 28.5529C69.386 27.872 67.418 28.2652 67.418 26.7772C67.418 26.0117 67.9361 25.4641 69.0289 25.4641C69.4558 25.4641 69.8765 25.5486 70.2334 25.6958L70.1427 26.5874C69.7922 26.4401 69.323 26.3696 69.0077 26.3696C68.6506 26.3696 68.4542 26.5103 68.4542 26.7279C68.4542 27.3736 70.3946 26.9874 70.3946 28.4551C70.3946 29.3043 69.9255 29.873 68.7766 29.873Z" fill="#2B61AC"/>
    <path d="M72.5307 26.3489V28.5252C72.5307 28.8553 72.6988 28.9954 73.035 28.9954C73.1471 28.9954 73.2938 28.9745 73.3712 28.9461L73.4342 29.7394C73.2869 29.803 73.0067 29.8591 72.7057 29.8591C71.8584 29.8591 71.4448 29.3677 71.4448 28.5601V26.3489H70.9688V25.5347H71.4939L71.6758 24.5726L72.5307 24.4956V25.5347H73.4764V26.3489H72.5307Z" fill="#2B61AC"/>
    <path d="M75.5774 29.873C75.0662 29.873 74.604 29.7745 74.2463 29.5784L74.3584 28.6796C74.7091 28.883 75.2066 28.9813 75.5705 28.9813C76.0049 28.9813 76.1869 28.8059 76.1869 28.5529C76.1869 27.872 74.2188 28.2652 74.2188 26.7772C74.2188 26.0117 74.7369 25.4641 75.8298 25.4641C76.2567 25.4641 76.6771 25.5486 77.0342 25.6958L76.9435 26.5874C76.5928 26.4401 76.1238 26.3696 75.8084 26.3696C75.4514 26.3696 75.2551 26.5103 75.2551 26.7279C75.2551 27.3736 77.1954 26.9874 77.1954 28.4551C77.1954 29.3043 76.7264 29.873 75.5774 29.873Z" fill="#2B61AC"/>
    <path d="M80.8802 26.5735C80.6631 26.4965 80.4042 26.4401 80.1588 26.4401C79.3674 26.4401 79.1081 26.7702 79.1081 27.6688C79.1081 28.5813 79.4793 28.9392 80.1378 28.9392C80.418 28.9392 80.6844 28.883 80.9085 28.7775L80.9854 29.6269C80.7335 29.7816 80.3551 29.873 79.8999 29.873C78.6459 29.873 77.9805 29.1567 77.9805 27.6688C77.9805 26.2573 78.5621 25.4641 79.9207 25.4641C80.2776 25.4641 80.6769 25.5417 80.9431 25.647L80.8802 26.5735Z" fill="#2B61AC"/>
    <path d="M84.4634 29.7886V27.0791C84.4634 26.6436 84.2461 26.4189 83.784 26.4189C83.4687 26.4189 83.1955 26.5596 83.0625 26.742V29.7886H81.9766V24.3271L83.0625 24.2709V25.2397L83.0488 25.8011L83.0695 25.8157C83.3849 25.5487 83.7697 25.4503 84.1273 25.4503C85.0237 25.4503 85.5487 26.0541 85.5487 27.0791V29.7886H84.4634Z" fill="#2B61AC"/>
    <path d="M86.6875 29.7886V25.5627L87.5558 25.5205L87.6539 26.2295H87.6746C87.941 25.7172 88.3545 25.4642 88.8375 25.4642C89.027 25.4642 89.1875 25.4927 89.2996 25.5274L89.2296 26.6018C89.0969 26.5596 88.9356 26.5313 88.7675 26.5313C88.2003 26.5313 87.7798 26.9457 87.7798 27.6545V29.7886H86.6875Z" fill="#2B61AC"/>
    <path d="M90.3365 29.7886V25.5627L91.4502 25.5134V29.7886H90.3365ZM90.8967 25.0781C90.4769 25.0781 90.2734 24.9587 90.2734 24.6149C90.2734 24.3132 90.4769 24.1448 90.8967 24.1448C91.3241 24.1448 91.5131 24.3062 91.5131 24.6149C91.5131 24.924 91.3241 25.0781 90.8967 25.0781Z" fill="#2B61AC"/>
    <path d="M93.0164 29.7886V26.3419H92.4844V25.5347H93.0164V25.3518C93.0164 24.7133 93.4576 24.1871 94.4733 24.1871C94.7116 24.1871 94.9775 24.2218 95.1601 24.2778L95.0966 24.9801C94.9706 24.9519 94.8308 24.938 94.6904 24.938C94.2635 24.938 94.1023 25.1063 94.1023 25.3803V25.5347H95.0058V26.3419H94.1023V29.7886H93.0164Z" fill="#2B61AC"/>
    <path d="M97.2338 26.3492V28.5254C97.2338 28.8555 97.4019 28.9956 97.7381 28.9956C97.8502 28.9956 97.9969 28.9748 98.0742 28.9464L98.1373 29.7396C97.99 29.8032 97.7098 29.8594 97.4088 29.8594C96.5614 29.8594 96.1479 29.3679 96.1479 28.5603V26.3492H95.6719V25.535H96.1969L96.3789 24.5729L97.2338 24.4958V25.535H98.1788V26.3492H97.2338Z" fill="#2B61AC"/>
    <path d="M35.0839 18.9761C35.0481 19.0238 34.9935 19.0479 34.9376 19.0597C34.8747 19.0674 34.8093 19.0531 34.7556 19.0127L31.8455 16.8217L27.9521 13.89L25.0422 11.699C24.9884 11.6585 24.9565 11.5996 24.9464 11.5368C24.9422 11.4798 24.9501 11.4206 24.9858 11.3729L25.7797 10.3137C25.7797 10.3137 26.6505 9.18434 27.4154 8.16381L30.6905 10.6298L34.2381 13.301L37.5134 15.767C36.7484 16.7875 35.8777 17.917 35.8777 17.917L35.0839 18.9761ZM29.6102 5.62108L32.5033 7.80015L32.5029 7.80072L34.4583 9.27267L36.4132 10.7451L36.4136 10.7445L39.3075 12.9226C39.418 13.0057 39.4412 13.1625 39.3593 13.2718L38.6656 14.2297L35.3905 11.7638L31.8427 9.09247L28.5677 6.62637L29.2613 5.6685C29.3431 5.55928 29.4998 5.53797 29.6102 5.62108ZM39.638 12.4984L34.7808 8.84242L29.9247 5.18476C29.5864 4.93005 29.1055 4.99793 28.8519 5.33618L24.5765 11.0405C24.5098 11.1297 24.4686 11.2288 24.4456 11.3312C24.3715 11.6224 24.4726 11.9438 24.7275 12.1357L27.621 14.3144L31.5313 17.2586L34.4247 19.4372C34.6797 19.6291 35.0159 19.6369 35.2741 19.4846C35.3659 19.434 35.4495 19.3667 35.5162 19.2776L39.7916 13.5732C40.0452 13.235 39.9762 12.7531 39.638 12.4984Z" fill="#A1A7B3"/>
    <path d="M23.9041 33.0666L27.3158 21.7118L36.5599 21.7117L35.763 22.7807L34.6163 24.3687L34.4859 24.6035L34.3655 24.8763L34.2422 25.1833L34.1134 25.5097L33.99 25.8652L33.8685 26.2144L33.7535 26.5658L33.6402 26.9104L33.5389 27.2377L33.4453 27.5391L33.3627 27.8018L33.2994 28.0213L33.2512 28.1889L33.2109 28.2929C33.2109 28.2929 33.2033 28.3153 33.1837 28.3426C33.1606 28.3743 33.0211 28.503 32.9069 28.4179C32.7972 28.3364 32.8092 28.0481 32.8203 27.911C32.8541 27.4908 32.8879 27.0706 32.9218 26.6503C32.9337 26.503 32.7536 26.4195 32.6373 26.4867C32.1275 26.7809 31.8227 27.1379 31.5441 27.5458C31.57 27.4502 31.5959 27.3546 31.6216 27.2589C31.7389 26.8257 31.9052 26.3776 31.9684 25.9326C32.0045 25.6785 31.9404 25.3765 31.6435 25.3273C31.3104 25.2717 31.0923 25.6229 30.9287 25.8546C30.4352 26.5534 30.1431 27.4403 29.5308 28.0482C29.3 28.2774 29.0439 28.4454 28.7115 28.3509C28.3274 28.2417 28.178 28.6954 28.8568 28.7566C29.5237 28.817 30.0204 28.11 30.3238 27.6157C30.544 27.257 30.7366 26.8821 30.9513 26.5201C31.0544 26.3462 31.162 26.1745 31.2802 26.0107C31.3308 25.9407 31.4269 25.7531 31.5173 25.7283C31.6357 25.6956 31.6055 25.764 31.5983 25.8576C31.5819 26.0688 31.4928 26.2864 31.4378 26.4899C31.3775 26.7127 31.3173 26.9354 31.2569 27.1581C31.1276 27.6353 30.9985 28.1126 30.8694 28.5898C30.8108 28.8063 31.0955 28.9066 31.215 28.736C31.6905 28.0569 31.9269 27.4812 32.5131 27.0271C32.5012 27.1763 32.4891 27.3254 32.4771 27.4747C32.4572 27.7215 32.4106 27.9821 32.4274 28.2294C32.4547 28.6322 32.7594 28.9117 33.1405 28.7354C33.3407 28.6428 33.4839 28.5024 33.4839 28.5024L33.5073 28.4864L33.5876 28.4255L33.7344 28.328L33.9346 28.19L34.1569 28.0235L34.4023 27.85L34.691 27.6463L34.9836 27.4301L35.276 27.2141L35.5684 26.9979L35.8547 26.7799L36.1222 26.5774L36.3687 26.3757L36.5847 26.2075L36.7563 26.0473L36.891 25.9185L36.8958 25.911L36.8993 25.914L37.8102 24.8346L40.1405 21.7117L44.2755 21.7115L47.4927 33.0666H23.9041ZM40.5071 21.2202L47.8334 11.4008L48.5806 10.4137C48.5806 10.4137 48.5952 10.3924 48.603 10.3817C48.6562 10.308 48.6458 10.2115 48.5727 10.1584L46.499 8.65203C46.4268 8.59954 46.3313 8.62 46.278 8.69267C46.2704 8.70326 46.2547 8.72273 46.2547 8.72273L45.974 9.08172L36.9262 21.2202L26.9611 21.2203L23.2266 33.5581H48.1582L44.6365 21.22L40.5071 21.2202Z" fill="#2B61AC"/>
    <path d="M49.5252 10.8773L49.2514 10.671C49.1969 10.6299 49.1188 10.641 49.0778 10.6957L45.595 15.3397C45.5541 15.3944 45.5652 15.4727 45.6198 15.5137L45.8935 15.72C45.9481 15.7611 46.0263 15.7501 46.0672 15.6954L49.5499 11.0513C49.5908 10.9967 49.5797 10.9184 49.5252 10.8773Z" fill="#2B61AC"/>
    <path d="M35.5375 30.6506H42.4659L42.3189 30.1003H28.7564L28.6094 30.6506H35.5375Z" fill="#2B61AC"/>
  </g>
  <defs>
    <clipPath id="clip0_719_14003">
      <rect width="76" height="40" fill="white" transform="translate(24)"/>
    </clipPath>
  </defs>
</svg>
