<svg width="122" height="47" viewBox="0 0 122 47" fill="none" xmlns="http://www.w3.org/2000/svg">
<path d="M63.6052 27.1738C61.4864 27.1738 59.5383 26.663 57.9545 25.8107L58.4905 22.2788C60.0983 23.1309 61.7544 23.6187 63.5561 23.6187C65.5535 23.6187 66.4308 22.8878 66.4308 21.6213C66.4308 18.7476 58.0277 19.9652 58.0277 13.8516C58.0277 10.7582 60.0251 8.24976 64.6523 8.24976C66.4308 8.24976 68.355 8.61532 69.7672 9.19935L69.2564 12.6581C67.7457 12.1713 66.236 11.8792 64.8478 11.8792C62.5824 11.8792 61.9734 12.6581 61.9734 13.6327C61.9734 16.4821 70.3762 15.1672 70.3762 21.3533C70.3762 24.9578 67.8671 27.1738 63.6052 27.1738Z" fill="#0366A6"/>
<path d="M86.211 23.2532L86.2115 26.8335H73.7904V8.56689H86.211L86.2115 12.1954H77.9066V15.8249H84.6526V19.0879H77.9066V23.2532H86.211Z" fill="#0366A6"/>
<path d="M96.3958 12.0008H93.9608V17.6025H96.3958C98.4171 17.6025 99.2944 17.0914 99.2944 14.8021C99.2944 12.6099 98.5146 12.0008 96.3958 12.0008ZM96.3958 20.8907H93.9608V26.8335H89.8444V8.56689H96.3958C101.462 8.56689 103.532 10.5634 103.532 14.8262C103.532 18.6744 101.486 20.8907 96.3958 20.8907Z" fill="#0366A6"/>
<path d="M112.281 13.5836L110.454 19.8436H115.106L113.353 13.5836L112.865 11.6596H112.792L112.281 13.5836ZM116.08 23.2775H109.455L108.432 26.8335H104.097L110.405 8.56689H115.301L121.682 26.8335H117.103L116.08 23.2775Z" fill="#0366A6"/>
<path d="M63.459 38.6877L63.4131 40.4068H58.0415V31.9253H59.9639V38.6877H63.459Z" fill="#0366A6"/>
<path d="M68.3334 37.4666C68.1645 37.3986 67.8251 37.3193 67.3615 37.3193C66.5806 37.3193 66.2187 37.6253 66.2187 38.2241C66.2187 38.892 66.6145 39.1289 67.1917 39.1289C67.7905 39.1289 68.3334 38.767 68.3334 38.326V37.4666ZM68.5937 39.7509L68.56 39.7398C68.1411 40.237 67.4856 40.5205 66.7047 40.5205C65.4046 40.5205 64.5789 39.7848 64.5789 38.2466C64.5789 36.9799 65.4614 36.1096 67.0219 36.1096C67.5304 36.1096 67.9715 36.1887 68.3334 36.3017V35.9062C68.3334 35.216 67.9715 34.8988 67.033 34.8988C66.2755 34.8988 65.7776 35.0125 65.1443 35.2728L64.997 33.8701C65.6872 33.5762 66.4678 33.4177 67.3495 33.4177C69.3741 33.4177 70.0757 34.2889 70.0757 36.1656V40.4068H68.7296L68.5937 39.7509Z" fill="#0366A6"/>
<path d="M73.8654 40.5429C73.0398 40.5429 72.2936 40.3842 71.7164 40.0682L71.8974 38.6203C72.4635 38.9479 73.2664 39.1063 73.8541 39.1063C74.5556 39.1063 74.8494 38.8238 74.8494 38.4162C74.8494 37.3192 71.6716 37.9526 71.6716 35.5553C71.6716 34.3222 72.5082 33.4399 74.2728 33.4399C74.9621 33.4399 75.6414 33.5761 76.2177 33.8132L76.0713 35.2496C75.5052 35.0124 74.7477 34.8988 74.2385 34.8988C73.662 34.8988 73.3448 35.1254 73.3448 35.476C73.3448 36.5163 76.478 35.8941 76.478 38.2586C76.478 39.6267 75.7205 40.5429 73.8654 40.5429Z" fill="#0366A6"/>
<path d="M79.9281 34.8655V38.3715C79.9281 38.9033 80.1995 39.129 80.7424 39.129C80.9234 39.129 81.1602 39.0954 81.2853 39.0497L81.3869 40.3275C81.1491 40.4301 80.6967 40.5205 80.2106 40.5205C78.8425 40.5205 78.1746 39.7287 78.1746 38.4277V34.8655H77.406V33.5538H78.2539L78.5477 32.0038L79.9281 31.8796V33.5538H81.4551V34.8655H79.9281Z" fill="#0366A6"/>
<path d="M84.8484 40.5429C84.0229 40.5429 83.2765 40.3842 82.6991 40.0682L82.8801 38.6203C83.4464 38.9479 84.2495 39.1063 84.8372 39.1063C85.5386 39.1063 85.8325 38.8238 85.8325 38.4162C85.8325 37.3192 82.6545 37.9526 82.6545 35.5553C82.6545 34.3222 83.4911 33.4399 85.256 33.4399C85.9453 33.4399 86.6241 33.5761 87.2006 33.8132L87.0542 35.2496C86.4879 35.0124 85.7307 34.8988 85.2214 34.8988C84.6449 34.8988 84.328 35.1254 84.328 35.476C84.328 36.5163 87.4609 35.8941 87.4609 38.2586C87.4609 39.6267 86.7037 40.5429 84.8484 40.5429Z" fill="#0366A6"/>
<path d="M93.4108 35.2273C93.0603 35.1031 92.6422 35.0124 92.246 35.0124C90.9681 35.0124 90.5493 35.5442 90.5493 36.9919C90.5493 38.4618 91.1488 39.0384 92.2121 39.0384C92.6645 39.0384 93.0946 38.9479 93.4565 38.7781L93.5807 40.1464C93.174 40.3956 92.5629 40.5429 91.8279 40.5429C89.803 40.5429 88.7286 39.3889 88.7286 36.9919C88.7286 34.7178 89.6677 33.4399 91.8615 33.4399C92.4378 33.4399 93.0826 33.565 93.5125 33.7346L93.4108 35.2273Z" fill="#0366A6"/>
<path d="M99.1909 40.4067V36.0416C99.1909 35.34 98.8401 34.9781 98.094 34.9781C97.5848 34.9781 97.1437 35.2048 96.9289 35.4985V40.4067H95.1754V31.6081L96.9289 31.5176V33.0783L96.9069 33.9828L96.9403 34.0062C97.4495 33.5761 98.0708 33.4177 98.6483 33.4177C100.096 33.4177 100.943 34.3905 100.943 36.0416V40.4067H99.1909Z" fill="#0366A6"/>
<path d="M102.789 40.4067V33.5986L104.191 33.5306L104.349 34.673H104.382C104.813 33.8476 105.48 33.4399 106.26 33.4399C106.566 33.4399 106.825 33.4859 107.006 33.5418L106.893 35.2727C106.679 35.2048 106.419 35.1591 106.147 35.1591C105.231 35.1591 104.552 35.8268 104.552 36.9687V40.4067H102.789Z" fill="#0366A6"/>
<path d="M108.682 40.4068V33.5987L110.48 33.5194V40.4068H108.682ZM109.586 32.8181C108.908 32.8181 108.58 32.6257 108.58 32.0719C108.58 31.5859 108.908 31.3145 109.586 31.3145C110.276 31.3145 110.581 31.5745 110.581 32.0719C110.581 32.5698 110.276 32.8181 109.586 32.8181Z" fill="#0366A6"/>
<path d="M113.002 40.4068V34.854H112.143V33.5536H113.002V33.259C113.002 32.2303 113.714 31.3826 115.354 31.3826C115.739 31.3826 116.169 31.4385 116.463 31.5287L116.361 32.6602C116.157 32.6147 115.932 32.5922 115.705 32.5922C115.016 32.5922 114.755 32.8635 114.755 33.3049V33.5536H116.214V34.854H114.755V40.4068H113.002Z" fill="#0366A6"/>
<path d="M119.811 34.8655V38.3715C119.811 38.9033 120.082 39.129 120.625 39.129C120.806 39.129 121.043 39.0954 121.168 39.0497L121.27 40.3275C121.032 40.4301 120.58 40.5205 120.094 40.5205C118.725 40.5205 118.058 39.7287 118.058 38.4277V34.8655H117.289V33.5538H118.137L118.431 32.0038L119.811 31.8796V33.5538H121.337V34.8655H119.811Z" fill="#0366A6"/>
<path d="M19.4577 22.9872C19.4 23.0641 19.3117 23.103 19.2215 23.1221C19.1199 23.1343 19.0144 23.1114 18.9275 23.0464L14.2287 19.5165L7.94188 14.7935L3.24302 11.2639C3.15618 11.1986 3.1048 11.1036 3.0882 11.0026C3.08161 10.9108 3.09434 10.8151 3.15209 10.7383L4.43382 9.03208C4.43382 9.03208 5.83991 7.21247 7.07526 5.56836L12.3636 9.54109L18.0921 13.8446L23.3806 17.8173C22.1455 19.4615 20.7394 21.2811 20.7394 21.2811L19.4577 22.9872ZM10.6192 1.47217L15.2908 4.98273L15.2901 4.98364L18.4476 7.35478L21.6042 9.72705L21.6049 9.72592L26.2776 13.2351C26.4561 13.369 26.4936 13.6216 26.3613 13.7975L25.2412 15.3407L19.9528 11.368L14.2241 7.06447L8.9358 3.09173L10.0559 1.54833C10.188 1.37237 10.441 1.33804 10.6192 1.47217ZM26.8114 12.5517L18.9682 6.66163L11.1271 0.769016C10.5808 0.358898 9.80423 0.468248 9.3948 1.01318L2.49121 10.2029C2.38323 10.3466 2.31684 10.5061 2.27956 10.6714C2.15998 11.1402 2.32344 11.6581 2.73492 11.9672L7.40718 15.4771L13.7213 20.2203L18.3933 23.7302C18.805 24.0394 19.3479 24.0519 19.7648 23.8066C19.9131 23.725 20.0481 23.6165 20.1559 23.4731L27.0594 14.2831C27.4689 13.7382 27.3575 12.9619 26.8114 12.5517Z" fill="#A2AAB5"/>
<path d="M1.41225 45.6875L6.92157 27.3945L21.8481 27.3943L20.5614 29.1166L18.7097 31.6748L18.4992 32.0531L18.3048 32.4926L18.1057 32.9873L17.8977 33.5131L17.6985 34.0858L17.5023 34.6484L17.3166 35.2145L17.1336 35.7697L16.9701 36.2969L16.819 36.7825L16.6855 37.2058L16.5834 37.5593L16.5055 37.8294L16.4405 37.9969C16.4405 37.9969 16.4282 38.033 16.3966 38.0769C16.3593 38.1281 16.134 38.3354 15.9496 38.1983C15.7725 38.0669 15.7919 37.6025 15.8098 37.3817C15.8644 36.7047 15.9189 36.0277 15.9737 35.3507C15.9928 35.1133 15.7021 34.9788 15.5143 35.087C14.6911 35.561 14.1989 36.1361 13.749 36.7934C13.7908 36.6392 13.8327 36.4853 13.8743 36.3312C14.0636 35.6333 14.3321 34.9112 14.4342 34.1944C14.4924 33.785 14.3889 33.2985 13.9095 33.2192C13.3716 33.1296 13.0195 33.6954 12.7553 34.0687C11.9585 35.1945 11.4867 36.6233 10.4981 37.6027C10.1254 37.9719 9.71192 38.2427 9.17517 38.0903C8.55499 37.9144 8.31379 38.6453 9.40978 38.7439C10.4867 38.8412 11.2887 37.7023 11.7787 36.9059C12.1342 36.328 12.4452 35.724 12.7917 35.1409C12.9583 34.8608 13.132 34.5841 13.323 34.3202C13.4046 34.2074 13.5598 33.9053 13.7058 33.8653C13.897 33.8125 13.8481 33.9228 13.8365 34.0735C13.8101 34.4138 13.6662 34.7644 13.5773 35.0922C13.48 35.4512 13.3827 35.8099 13.2852 36.1686C13.0763 36.9375 12.8681 37.7064 12.6594 38.4752C12.5648 38.824 13.0247 38.9856 13.2177 38.7107C13.9854 37.6168 14.3671 36.6893 15.3138 35.9577C15.2944 36.198 15.2749 36.4383 15.2556 36.6788C15.2235 37.0764 15.1483 37.4963 15.1753 37.8946C15.2194 38.5437 15.7114 38.9938 16.3268 38.7098C16.6501 38.5607 16.8813 38.3345 16.8813 38.3345L16.919 38.3086L17.0488 38.2106L17.2857 38.0535L17.609 37.8312L17.9679 37.5629L18.3642 37.2833L18.8305 36.9552L19.3029 36.607L19.775 36.2589L20.2472 35.9106L20.7094 35.5594L21.1413 35.2332L21.5394 34.9083L21.8882 34.6373L22.1653 34.3793L22.3828 34.1717L22.3906 34.1597L22.3963 34.1644L23.8671 32.4255L27.6298 27.3943L34.3067 27.3941L39.5016 45.6875H1.41225ZM28.2218 26.6025L40.0518 10.7831L41.2583 9.19291C41.2583 9.19291 41.2819 9.15881 41.2944 9.1413C41.3804 9.02286 41.3635 8.86736 41.2456 8.78188L37.8971 6.35504C37.7805 6.27025 37.6263 6.30344 37.5402 6.42052C37.5279 6.43757 37.5027 6.46871 37.5027 6.46871L37.0494 7.04729L22.4397 26.6025L6.34867 26.6027L0.318298 46.4793H40.5763L34.8896 26.6022L28.2218 26.6025Z" fill="#0366A6"/>
<path d="M42.7746 9.94017L42.3327 9.6078C42.2445 9.54164 42.1185 9.5596 42.0524 9.64758L36.4287 17.1293C36.3625 17.2173 36.3805 17.3434 36.4687 17.4096L36.9107 17.742C36.9989 17.8081 37.125 17.7904 37.1912 17.7022L42.8146 10.2205C42.8808 10.1325 42.8628 10.0063 42.7746 9.94017Z" fill="#0366A6"/>
<path d="M9.00079 41.7953H31.3752L31.1379 40.9087H9.23813L9.00079 41.7953Z" fill="#0366A6"/>
</svg>
