<svg width="60" height="60" viewBox="0 0 60 60" fill="none" xmlns="http://www.w3.org/2000/svg">
<path fill-rule="evenodd" clip-rule="evenodd" d="M30 23.1908C29.4477 23.1908 29 22.7431 29 22.1908L29 7C29 6.44772 29.4477 6 30 6C30.5523 6 31 6.44772 31 7L31 22.1908C31 22.7431 30.5523 23.1908 30 23.1908Z" fill="currentColor"/>
<path fill-rule="evenodd" clip-rule="evenodd" d="M24 20.0054C23.4477 20.0054 23 19.5577 23 19.0054V11.9989C23 11.4466 23.4477 10.9989 24 10.9989C24.5523 10.9989 25 11.4466 25 11.9989V19.0054C25 19.5577 24.5523 20.0054 24 20.0054Z" fill="currentColor"/>
<path fill-rule="evenodd" clip-rule="evenodd" d="M36 20.0054C35.4477 20.0054 35 19.5577 35 19.0054V11.9989C35 11.4466 35.4477 10.9989 36 10.9989C36.5523 10.9989 37 11.4466 37 11.9989V19.0054C37 19.5577 36.5523 20.0054 36 20.0054Z" fill="currentColor"/>
<path fill-rule="evenodd" clip-rule="evenodd" d="M30 54C29.4477 54 29 53.5523 29 53L29 42.6598C29 42.1076 29.4477 41.6598 30 41.6598C30.5523 41.6598 31 42.1076 31 42.6598L31 53C31 53.5523 30.5523 54 30 54Z" fill="currentColor"/>
<path fill-rule="evenodd" clip-rule="evenodd" d="M29.2474 45.3224C29.168 42.4004 30.1781 39.4991 32.3239 37.3237C34.4698 35.1482 37.3314 34.1245 40.2136 34.205C40.7619 34.2203 41.1941 34.6833 41.179 35.2392C41.1639 35.795 40.7072 36.2332 40.1589 36.2179C37.7763 36.1514 35.4571 36.9951 33.7284 38.7475C31.9998 40.5 31.1673 42.8516 31.2329 45.267C31.248 45.8228 30.8158 46.2858 30.2675 46.3011C29.7192 46.3164 29.2625 45.8782 29.2474 45.3224Z" fill="currentColor"/>
<path fill-rule="evenodd" clip-rule="evenodd" d="M30.2048 46.2943C33.0871 46.3748 35.949 45.3508 38.0948 43.1754C40.2406 40.9999 41.2504 38.0989 41.171 35.1769C41.1559 34.6211 40.6992 34.1829 40.1509 34.1982C39.6027 34.2135 39.1704 34.6765 39.1855 35.2324C39.2511 37.6478 38.4189 39.9991 36.6903 41.7515C34.9616 43.504 32.642 44.348 30.2595 44.2815C29.7112 44.2662 29.2545 44.7044 29.2394 45.2602C29.2243 45.816 29.6565 46.279 30.2048 46.2943Z" fill="currentColor"/>
<path fill-rule="evenodd" clip-rule="evenodd" d="M30.7525 45.3224C30.8318 42.4004 29.8217 39.4991 27.6759 37.3237C25.5301 35.1482 22.6685 34.1245 19.7863 34.205C19.238 34.2203 18.8058 34.6833 18.8208 35.2392C18.8359 35.795 19.2927 36.2332 19.8409 36.2179C22.2235 36.1514 24.5428 36.9951 26.2714 38.7475C28.0001 40.5 28.8326 42.8516 28.767 45.267C28.7519 45.8228 29.1841 46.2858 29.7324 46.3011C30.2807 46.3164 30.7374 45.8782 30.7525 45.3224Z" fill="currentColor"/>
<path fill-rule="evenodd" clip-rule="evenodd" d="M29.7951 46.2943C26.9128 46.3748 24.0509 45.3508 21.9051 43.1754C19.7592 40.9999 18.7495 38.0989 18.8288 35.1769C18.8439 34.6211 19.3007 34.1829 19.8489 34.1982C20.3972 34.2135 20.8295 34.6765 20.8144 35.2324C20.7488 37.6478 21.581 39.9991 23.3096 41.7515C25.0382 43.504 27.3578 44.348 29.7404 44.2815C30.2887 44.2662 30.7454 44.7044 30.7605 45.2602C30.7756 45.816 30.3433 46.279 29.7951 46.2943Z" fill="currentColor"/>
<path fill-rule="evenodd" clip-rule="evenodd" d="M29.2474 33.325C29.168 30.4029 30.1781 27.5016 32.3239 25.3262C34.4698 23.1508 37.3314 22.1271 40.2136 22.2076C40.7619 22.2229 41.1941 22.6859 41.179 23.2417C41.1639 23.7976 40.7072 24.2358 40.1589 24.2204C37.7763 24.1539 35.4571 24.9976 33.7284 26.7501C31.9998 28.5026 31.1673 30.8541 31.2329 33.2695C31.248 33.8254 30.8158 34.2884 30.2675 34.3037C29.7192 34.319 29.2625 33.8808 29.2474 33.325Z" fill="currentColor"/>
<path fill-rule="evenodd" clip-rule="evenodd" d="M30.2048 34.297C33.0871 34.3774 35.949 33.3534 38.0948 31.178C40.2406 29.0026 41.2504 26.1015 41.171 23.1796C41.1559 22.6237 40.6992 22.1855 40.1509 22.2008C39.6027 22.2161 39.1704 22.6792 39.1855 23.235C39.2511 25.6504 38.4189 28.0017 36.6903 29.7541C34.9616 31.5066 32.642 32.3506 30.2595 32.2841C29.7112 32.2688 29.2545 32.707 29.2394 33.2628C29.2243 33.8187 29.6565 34.2817 30.2048 34.297Z" fill="currentColor"/>
<path fill-rule="evenodd" clip-rule="evenodd" d="M30.7525 33.325C30.8318 30.4029 29.8217 27.5016 27.6759 25.3262C25.5301 23.1508 22.6685 22.1271 19.7863 22.2076C19.238 22.2229 18.8058 22.6859 18.8208 23.2417C18.8359 23.7976 19.2927 24.2358 19.8409 24.2204C22.2235 24.1539 24.5428 24.9976 26.2714 26.7501C28.0001 28.5026 28.8326 30.8541 28.767 33.2695C28.7519 33.8254 29.1841 34.2884 29.7324 34.3037C30.2807 34.319 30.7374 33.8808 30.7525 33.325Z" fill="currentColor"/>
<path fill-rule="evenodd" clip-rule="evenodd" d="M29.7951 34.297C26.9128 34.3774 24.0509 33.3534 21.9051 31.178C19.7592 29.0026 18.7495 26.1015 18.8288 23.1796C18.8439 22.6237 19.3007 22.1855 19.8489 22.2008C20.3972 22.2161 20.8295 22.6792 20.8144 23.235C20.7488 25.6504 21.581 28.0017 23.3096 29.7541C25.0382 31.5066 27.3578 32.3506 29.7404 32.2841C30.2887 32.2688 30.7454 32.707 30.7605 33.2628C30.7756 33.8187 30.3433 34.2817 29.7951 34.297Z" fill="currentColor"/>
</svg>
