<svg width="41" height="40" viewBox="0 0 41 40" fill="none"  >
    <path fill-rule="evenodd" clip-rule="evenodd" d="M25.6792 10.5856C26.0541 10.9606 26.2648 11.4692 26.2648 11.9996C26.2648 12.5299 26.0541 13.0385 25.6792 13.4136L19.0932 19.9996L25.6792 26.5856C26.0435 26.9628 26.2451 27.468 26.2405 27.9924C26.236 28.5168 26.0257 29.0184 25.6548 29.3892C25.284 29.76 24.7824 29.9704 24.258 29.9749C23.7336 29.9795 23.2284 29.7779 22.8512 29.4136L14.8512 21.4136C14.4763 21.0385 14.2656 20.5299 14.2656 19.9996C14.2656 19.4692 14.4763 18.9606 14.8512 18.5856L22.8512 10.5856C23.2263 10.2106 23.7349 10 24.2652 10C24.7955 10 25.3041 10.2106 25.6792 10.5856Z" fill="currentColor"/>
</svg>