<svg width="60" height="60" viewBox="0 0 60 60" fill="none" xmlns="http://www.w3.org/2000/svg">
<path fill-rule="evenodd" clip-rule="evenodd" d="M51.2886 11.3843C51.7391 11.7067 51.8459 12.3319 51.5271 12.7808L37.8158 32.0837C37.5065 32.5192 36.9075 32.6307 36.4577 32.3366L24.3381 24.4123L12.6606 44.4697C12.3835 44.9456 11.7719 45.1039 11.2946 44.8231C10.8172 44.5423 10.6549 43.9288 10.932 43.4529L23.1357 22.4916C23.2729 22.2559 23.5009 22.0874 23.7667 22.0254C24.0325 21.9634 24.3128 22.0133 24.5423 22.1634L36.7376 30.1372L49.8955 11.6134C50.2143 11.1645 50.838 11.062 51.2886 11.3843Z" fill="currentColor"/>
<path fill-rule="evenodd" clip-rule="evenodd" d="M7 6C7.55228 6 8 6.44772 8 7V52H53C53.5523 52 54 52.4477 54 53C54 53.5523 53.5523 54 53 54H7C6.44772 54 6 53.5523 6 53V7C6 6.44772 6.44772 6 7 6Z" fill="currentColor"/>
</svg>
