<svg width="60" height="60" viewBox="0 0 60 60" fill="none" xmlns="http://www.w3.org/2000/svg">
<path fill-rule="evenodd" clip-rule="evenodd" d="M13.8916 7C13.8916 6.44772 14.3393 6 14.8916 6H50C50.5522 6 51 6.44772 51 7V48.4493C51 49.7736 50.5548 51.1525 49.6287 52.2146C48.685 53.2968 47.2831 54 45.5 54H14.5C13.0561 54 11.6893 53.2524 10.7097 52.2598C9.72956 51.2666 9 49.8898 9 48.4493V44C9 43.4477 9.44772 43 10 43H41C41.5523 43 42 43.4477 42 44V48.4493C42 49.011 42.2011 49.9362 42.7484 50.6946C43.2613 51.4053 44.0935 52 45.5 52C46.7169 52 47.565 51.5381 48.1213 50.9001C48.6952 50.242 49 49.3456 49 48.4493V8H15.8916V38C15.8916 38.5523 15.4439 39 14.8916 39C14.3393 39 13.8916 38.5523 13.8916 38V7ZM41.2273 52C41.1929 51.9554 41.1594 51.9104 41.1266 51.865C40.2989 50.7181 40 49.368 40 48.4493V45H11V48.4493C11 49.2294 11.4158 50.1279 12.1332 50.8549C12.8513 51.5826 13.7345 52 14.5 52H41.2273Z" fill="black"/>
<path fill-rule="evenodd" clip-rule="evenodd" d="M39 13C36.2386 13 34 15.2386 34 18C34 20.7614 36.2386 23 39 23C41.7614 23 44 20.7614 44 18C44 15.2386 41.7614 13 39 13ZM32 18C32 14.134 35.134 11 39 11C42.866 11 46 14.134 46 18C46 21.866 42.866 25 39 25C35.134 25 32 21.866 32 18Z" fill="black"/>
<path fill-rule="evenodd" clip-rule="evenodd" d="M35 22C35.5523 22 36 22.4477 36 23V29.382L38.5528 28.1056C38.8343 27.9648 39.1657 27.9648 39.4472 28.1056L42 29.382V23C42 22.4477 42.4477 22 43 22C43.5523 22 44 22.4477 44 23V31C44 31.3466 43.8205 31.6684 43.5257 31.8507C43.2309 32.0329 42.8628 32.0494 42.5528 31.8944L39 30.118L35.4472 31.8944C35.1372 32.0494 34.7691 32.0329 34.4743 31.8507C34.1795 31.6684 34 31.3466 34 31V23C34 22.4477 34.4477 22 35 22Z" fill="black"/>
</svg>
