<svg width="60" height="60" viewBox="0 0 60 60" fill="none" xmlns="http://www.w3.org/2000/svg">
<path fill-rule="evenodd" clip-rule="evenodd" d="M13.9134 17.4361C11.8932 14.8052 13.7689 11 17.086 11H42.7711C44.0141 11 45.1866 11.5779 45.9436 12.5639L52.0866 20.5639C54.1068 23.1948 52.2311 27 48.914 27H23.2289C21.9859 27 20.8134 26.4221 20.0564 25.4361L13.9134 17.4361ZM17.086 13C15.4274 13 14.4896 14.9026 15.4997 16.2181L21.6426 24.2181C22.0212 24.711 22.6074 25 23.2289 25H48.914C50.5725 25 51.5104 23.0974 50.5003 21.7819L44.3573 13.7819C43.9788 13.289 43.3926 13 42.7711 13H17.086Z" fill="currentColor"/>
<path fill-rule="evenodd" clip-rule="evenodd" d="M20.1606 17.9948C20.1606 17.4425 20.6084 16.9948 21.1606 16.9948H44.7839C45.3362 16.9948 45.7839 17.4425 45.7839 17.9948C45.7839 18.5471 45.3362 18.9948 44.7839 18.9948H21.1606C20.6084 18.9948 20.1606 18.5471 20.1606 17.9948Z" fill="currentColor"/>
<path fill-rule="evenodd" clip-rule="evenodd" d="M25.8089 14.0842C26.244 13.7439 26.8724 13.8207 27.2127 14.2557L29.5667 17.2652L32.603 21.0428C32.949 21.4732 32.8805 22.1027 32.45 22.4487C32.0196 22.7947 31.3901 22.7262 31.0441 22.2957L27.9954 18.5027L25.6374 15.4879C25.2971 15.0529 25.3739 14.4244 25.8089 14.0842Z" fill="currentColor"/>
<path fill-rule="evenodd" clip-rule="evenodd" d="M11.6302 17.7236C11.2014 17.3755 10.5716 17.441 10.2236 17.8698L6.27155 22.7388C5.92349 23.1676 5.98896 23.7973 6.41776 24.1454C6.84657 24.4934 7.47634 24.428 7.8244 23.9992L11.7764 19.1302C12.1245 18.7014 12.059 18.0716 11.6302 17.7236Z" fill="currentColor"/>
<path fill-rule="evenodd" clip-rule="evenodd" d="M35.3696 14.0842C35.8046 13.7439 36.4331 13.8207 36.7734 14.2557L39.1274 17.2652L42.1636 21.0428C42.5096 21.4732 42.4412 22.1027 42.0107 22.4487C41.5802 22.7947 40.9508 22.7262 40.6048 22.2957L37.5561 18.5027L35.1981 15.4879C34.8578 15.0529 34.9346 14.4244 35.3696 14.0842Z" fill="currentColor"/>
<path fill-rule="evenodd" clip-rule="evenodd" d="M42.0046 31.3076C41.8161 31.1111 41.5555 31 41.2832 31H30.5448C28.6323 31 26.7298 31.9484 24.8706 34.0073C24.7791 34.1087 24.6905 34.207 24.6047 34.3023C23.6314 35.3826 23.003 36.0802 22.2665 36.5574C21.5329 37.0326 20.6364 37.3144 19.0369 37.3144C18.1289 37.3144 16.6869 37.5017 15.4331 38.1913C14.1235 38.9117 13 40.2063 13 42.2862V46C13 46.5523 13.4477 47 14 47H16C16.5523 47 17 46.5523 17 46C17 45.4477 16.5523 45 16 45H15V42.2862C15 41.0787 15.5905 40.3874 16.397 39.9437C17.2594 39.4693 18.3359 39.3144 19.0369 39.3144C20.9005 39.3144 22.2076 38.9786 23.354 38.2359C24.3258 37.6063 25.1386 36.7013 26.0503 35.6864C26.1506 35.5747 26.252 35.4618 26.355 35.3477C27.9657 33.5639 29.3677 33 30.5448 33H40.8568L47 39.4009V46C47 46.5523 47.4477 47 48 47C48.5523 47 49 46.5523 49 46V38.9987C49 38.7406 48.9002 38.4925 48.7215 38.3063L42.0046 31.3076Z" fill="currentColor"/>
<path fill-rule="evenodd" clip-rule="evenodd" d="M30 47L34 47C34.5523 47 35 46.5523 35 46C35 45.4477 34.5523 45 34 45L30 45C29.4477 45 29 45.4477 29 46C29 46.5523 29.4477 47 30 47Z" fill="currentColor"/>
<path fill-rule="evenodd" clip-rule="evenodd" d="M41 44C42.1232 44 43 44.8877 43 45.9416C43 46.9954 42.1232 47.8831 41 47.8831C39.8768 47.8831 39 46.9954 39 45.9416C39 44.8877 39.8768 44 41 44ZM45 45.9416C45 43.7462 43.1905 42 41 42C38.8095 42 37 43.7462 37 45.9416C37 48.1369 38.8095 49.8831 41 49.8831C43.1905 49.8831 45 48.1369 45 45.9416Z" fill="currentColor"/>
<path fill-rule="evenodd" clip-rule="evenodd" d="M23 44C24.1232 44 25 44.8877 25 45.9416C25 46.9954 24.1232 47.8831 23 47.8831C21.8768 47.8831 21 46.9954 21 45.9416C21 44.8877 21.8768 44 23 44ZM27 45.9416C27 43.7462 25.1905 42 23 42C20.8095 42 19 43.7462 19 45.9416C19 48.1369 20.8095 49.8831 23 49.8831C25.1905 49.8831 27 48.1369 27 45.9416Z" fill="currentColor"/>
</svg>
