<svg width="60" height="60" viewBox="0 0 60 60" fill="none" xmlns="http://www.w3.org/2000/svg">
<path fill-rule="evenodd" clip-rule="evenodd" d="M15.1099 22.3666C15.2999 22.1346 15.5839 22 15.8837 22H20.4826C21.0349 22 21.4826 22.4478 21.4826 23V32.1509H52C52.5523 32.1509 53 32.5986 53 33.1509V44C53 44.5523 52.5523 45 52 45H48.5C47.9477 45 47.5 44.5523 47.5 44C47.5 43.4478 47.9477 43 48.5 43H51V34.1509H20.4826C19.9303 34.1509 19.4826 33.7032 19.4826 33.1509V24H16.3575L9 32.9882V43H12C12.5523 43 13 43.4478 13 44C13 44.5523 12.5523 45 12 45H8C7.44772 45 7 44.5523 7 44V32.6311C7 32.4001 7.07992 32.1763 7.22619 31.9977L15.1099 22.3666Z" fill="currentColor"/>
<path fill-rule="evenodd" clip-rule="evenodd" d="M27 44C27 43.4478 27.4477 43 28 43H33C33.5523 43 34 43.4478 34 44C34 44.5523 33.5523 45 33 45H28C27.4477 45 27 44.5523 27 44Z" fill="currentColor"/>
<path fill-rule="evenodd" clip-rule="evenodd" d="M20 41C18.3431 41 17 42.3432 17 44C17 45.6569 18.3431 47 20 47C21.6569 47 23 45.6569 23 44C23 42.3432 21.6569 41 20 41ZM15 44C15 41.2386 17.2386 39 20 39C22.7614 39 25 41.2386 25 44C25 46.7615 22.7614 49 20 49C17.2386 49 15 46.7615 15 44Z" fill="currentColor"/>
<path fill-rule="evenodd" clip-rule="evenodd" d="M40.814 41C39.1571 41 37.814 42.3432 37.814 44C37.814 45.6569 39.1571 47 40.814 47C42.4708 47 43.814 45.6569 43.814 44C43.814 42.3432 42.4708 41 40.814 41ZM35.814 44C35.814 41.2386 38.0525 39 40.814 39C43.5754 39 45.814 41.2386 45.814 44C45.814 46.7615 43.5754 49 40.814 49C38.0525 49 35.814 46.7615 35.814 44Z" fill="currentColor"/>
<path fill-rule="evenodd" clip-rule="evenodd" d="M27.4819 28.6304C27.0418 28.6598 26.6349 28.3969 26.4806 27.9834L23.6331 20.35C23.4788 19.9365 23.6136 19.4702 23.9649 19.2025L33.6131 11.8495C33.7692 11.7305 33.9567 11.6601 34.1523 11.647L46.2413 10.8368C46.6814 10.8074 47.0882 11.0702 47.2425 11.4838L50.0901 19.1172C50.2444 19.5307 50.1095 19.997 49.7583 20.2647L40.1101 27.6177C39.954 27.7367 39.7665 27.8071 39.5709 27.8202L27.4819 28.6304ZM28.0931 26.5837L39.1408 25.8434L47.9579 19.1237L45.63 12.8835L34.5824 13.6238L25.7652 20.3435L28.0931 26.5837Z" fill="currentColor"/>
<path fill-rule="evenodd" clip-rule="evenodd" d="M41.5544 12.3744L45.2156 22.1887L43.3433 22.8919L39.6821 13.0775L41.5544 12.3744Z" fill="currentColor"/>
</svg>
