<svg width="51" height="51" viewBox="0 0 51 51" fill="none" xmlns="http://www.w3.org/2000/svg">
<path d="M25.5 3.1875C21.087 3.1875 16.7731 4.49611 13.1038 6.94783C9.43458 9.39956 6.57473 12.8843 4.88595 16.9614C3.19717 21.0385 2.75531 25.5248 3.61624 29.853C4.47717 34.1812 6.60223 38.1569 9.72269 41.2773C12.8431 44.3978 16.8189 46.5228 21.1471 47.3838C25.4753 48.2447 29.9616 47.8028 34.0386 46.1141C38.1157 44.4253 41.6004 41.5654 44.0522 37.8962C46.5039 34.2269 47.8125 29.913 47.8125 25.5C47.8125 19.5824 45.4617 13.9071 41.2773 9.72268C37.0929 5.53827 31.4177 3.1875 25.5 3.1875ZM22.3125 34.4091L14.3438 26.4403L16.8778 23.9063L22.3125 29.3409L34.1222 17.5313L36.6658 20.0589L22.3125 34.4091Z" fill="black"/>
<path d="M22.3125 34.4107L14.3438 26.4419L16.8794 23.9062L22.3125 29.3393L34.1222 17.5312L36.6642 20.0573L22.3125 34.4107Z" fill="#EBE8E3"/>
</svg>
