<svg width="60" height="60" viewBox="0 0 60 60" fill="none" xmlns="http://www.w3.org/2000/svg">
<path fill-rule="evenodd" clip-rule="evenodd" d="M30.0792 12H36.0792V14H30.0792C29.5269 14 29.0792 13.5523 29.0792 13C29.0792 12.4477 29.5269 12 30.0792 12Z" fill="black"/>
<path fill-rule="evenodd" clip-rule="evenodd" d="M30.0792 17H36.0792V19H30.0792C29.5269 19 29.0792 18.5523 29.0792 18C29.0792 17.4477 29.5269 17 30.0792 17Z" fill="black"/>
<path fill-rule="evenodd" clip-rule="evenodd" d="M30.0792 22H36.0792V24H30.0792C29.5269 24 29.0792 23.5523 29.0792 23C29.0792 22.4477 29.5269 22 30.0792 22Z" fill="black"/>
<path fill-rule="evenodd" clip-rule="evenodd" d="M14.0792 40C14.0792 39.4477 14.5269 39 15.0792 39H31.0792C31.6315 39 32.0792 39.4477 32.0792 40C32.0792 40.5523 31.6315 41 31.0792 41H15.0792C14.5269 41 14.0792 40.5523 14.0792 40Z" fill="black"/>
<path fill-rule="evenodd" clip-rule="evenodd" d="M22 7C22 6.44772 22.4477 6 23 6H37C37.5523 6 38 6.44772 38 7V26.323C38 26.7305 38.1245 27.1283 38.3568 27.4631L52.411 47.7198C54.2514 50.3724 52.353 54 49.1245 54H11.0051C7.78424 54 5.88421 50.3875 7.70918 47.7336L21.648 27.4631C21.8773 27.1296 22 26.7345 22 26.3299V7ZM24 8V26.3299C24 27.1392 23.7545 27.9294 23.296 28.5963L9.35716 48.8668C8.44467 50.1938 9.39469 52 11.0051 52H49.1245C50.7388 52 51.6879 50.1862 50.7678 48.8599L36.7135 28.6031C36.249 27.9335 36 27.138 36 26.323V8H24Z" fill="black"/>
</svg>
