<svg width="60" height="60" viewBox="0 0 60 60" fill="none" xmlns="http://www.w3.org/2000/svg">
<path fill-rule="evenodd" clip-rule="evenodd" d="M48 6C48.5523 6 49 6.44772 49 7V51C49 52.7643 47.431 54 45.75 54H14.25C12.5691 54 11 52.7643 11 51L11 9C11 7.23568 12.5691 6 14.25 6H42C42.5523 6 43 6.44772 43 7C43 7.55229 42.5523 8 42 8H14.25C13.4457 8 13 8.55519 13 9L13 51C13 51.4448 13.4457 52 14.25 52H45.75C46.5543 52 47 51.4448 47 51V7C47 6.44772 47.4477 6 48 6Z" fill="black"/>
<path fill-rule="evenodd" clip-rule="evenodd" d="M47.5 15L12.5 15V13L47.5 13V15Z" fill="black"/>
<path fill-rule="evenodd" clip-rule="evenodd" d="M30 23C24.4772 23 20 27.4772 20 33C20 38.5228 24.4772 43 30 43C35.5228 43 40 38.5228 40 33C40 27.4772 35.5228 23 30 23ZM18 33C18 26.3726 23.3726 21 30 21C36.6274 21 42 26.3726 42 33C42 39.6274 36.6274 45 30 45C23.3726 45 18 39.6274 18 33Z" fill="black"/>
<path fill-rule="evenodd" clip-rule="evenodd" d="M29 29C27.3431 29 26 30.3431 26 32C26 32.5523 25.5523 33 25 33C24.4477 33 24 32.5523 24 32C24 29.2386 26.2386 27 29 27C29.5523 27 30 27.4477 30 28C30 28.5523 29.5523 29 29 29Z" fill="black"/>
<path fill-rule="evenodd" clip-rule="evenodd" d="M21 14V7H23V14H21Z" fill="black"/>
</svg>
