<svg width="60" height="60" viewBox="0 0 60 60" fill="none" xmlns="http://www.w3.org/2000/svg">
<path fill-rule="evenodd" clip-rule="evenodd" d="M25.049 6.69091C25.1829 6.27893 25.5668 6 26 6H34C34.4304 6 34.8126 6.27543 34.9487 6.68377L45.9487 39.6838C46.1233 40.2077 45.8402 40.774 45.3162 40.9487C44.7923 41.1233 44.226 40.8402 44.0513 40.3162L33.2792 8H26.7265L13.951 47.3091C13.7803 47.8343 13.2162 48.1217 12.6909 47.951C12.1657 47.7803 11.8783 47.2162 12.049 46.6909L25.049 6.69091Z" fill="currentColor"/>
<path fill-rule="evenodd" clip-rule="evenodd" d="M6 47C6 46.4477 6.44772 46 7 46H53C53.5523 46 54 46.4477 54 47V53C54 53.5523 53.5523 54 53 54H7C6.44772 54 6 53.5523 6 53V47ZM8 48V52H52V48H8Z" fill="currentColor"/>
<path fill-rule="evenodd" clip-rule="evenodd" d="M18 29C18 28.4477 18.4477 28 19 28L41 28C41.5523 28 42 28.4477 42 29C42 29.5523 41.5523 30 41 30L19 30C18.4477 30 18 29.5523 18 29Z" fill="currentColor"/>
<path fill-rule="evenodd" clip-rule="evenodd" d="M22 19C22 18.4477 22.4477 18 23 18H37C37.5523 18 38 18.4477 38 19C38 19.5523 37.5523 20 37 20H23C22.4477 20 22 19.5523 22 19Z" fill="currentColor"/>
</svg>
