<svg width="25" height="25" viewBox="0 0 25 25" fill="none" xmlns="http://www.w3.org/2000/svg">
<path d="M18.7742 6.23548C17.1269 4.58817 14.4428 4.58817 12.7955 6.23548L11.0125 8.01844L10.7121 8.31883C10.2857 8.7452 9.97566 9.2297 9.77217 9.75296C9.53961 10.344 9.46209 10.9739 9.50085 11.6038C9.53961 12.1561 9.68496 12.689 9.9369 13.1929C10.1307 13.5902 10.3826 13.9681 10.7024 14.2879C11.0319 14.6174 11.4098 14.8596 11.7974 15.0534L12.2528 14.598C12.466 14.3848 12.5726 14.1232 12.6017 13.8422C12.2819 13.7065 11.9815 13.5127 11.7296 13.2511C11.4679 12.9894 11.2741 12.689 11.1385 12.379C10.9447 11.9138 10.8865 11.4196 10.9447 10.9255C11.0125 10.3925 11.2354 9.88862 11.6133 9.46226C11.652 9.41381 11.6811 9.36536 11.7296 9.3266L12.8633 8.19286L13.8226 7.23355C14.3652 6.69091 15.0726 6.41959 15.78 6.41959C16.4874 6.41959 17.2044 6.69091 17.7471 7.23355C18.8323 8.31883 18.8323 10.0727 17.7471 11.158L16.7878 12.1173C16.9234 12.6115 17.0009 13.1348 17.0009 13.658C17.0009 13.7646 17.0009 13.8712 16.9816 13.9681L18.7645 12.1852C20.4118 10.5379 20.4118 7.85371 18.7645 6.20641L18.7742 6.23548Z" fill="white"/>
<path d="M15.0825 11.7879C14.879 11.3906 14.6367 11.0127 14.3073 10.6929C13.9778 10.3732 13.6096 10.1212 13.2123 9.91772L12.7569 10.3732C12.5437 10.5863 12.4468 10.8577 12.408 11.129C12.7278 11.2646 13.0282 11.4584 13.2801 11.7201C13.5321 11.9817 13.7356 12.2724 13.8712 12.5922C14.0166 12.9313 14.0941 13.2995 14.0941 13.6775C14.0941 13.8034 14.0747 13.9197 14.0553 14.0457C13.9875 14.5883 13.7549 15.0922 13.3964 15.5089C13.3576 15.5573 13.3286 15.6058 13.2801 15.6445L12.1464 16.7783L11.1871 17.7376C10.1018 18.8229 8.3479 18.8229 7.26262 17.7376C6.17734 16.6523 6.17734 14.8984 7.26262 13.8131L8.24131 12.8344C8.07658 12.224 7.99906 11.6038 8.03782 10.9836L6.23548 12.786C4.58817 14.4333 4.58817 17.1174 6.23548 18.7647C7.05913 19.5884 8.14441 20.005 9.2297 20.005C10.315 20.005 11.4003 19.5884 12.2239 18.7647L14.0069 16.9818L14.3073 16.6814C14.7239 16.2647 15.034 15.7802 15.2472 15.2472C15.441 14.7627 15.5476 14.2298 15.5476 13.6968C15.5476 13.5902 15.5282 13.4933 15.5185 13.3964C15.4798 12.8344 15.3344 12.3015 15.0825 11.8073V11.7879Z" fill="white"/>
</svg>
