<svg width="60" height="60" viewBox="0 0 60 60" fill="none" xmlns="http://www.w3.org/2000/svg">
<path fill-rule="evenodd" clip-rule="evenodd" d="M19 25C19.5523 25 20 25.4477 20 26C20 31.5228 24.4772 36 30 36C35.5228 36 40 31.5228 40 26C40 25.4477 40.4477 25 41 25C41.5523 25 42 25.4477 42 26C42 32.6274 36.6274 38 30 38C23.3726 38 18 32.6274 18 26C18 25.4477 18.4477 25 19 25Z" fill="currentColor"/>
<path fill-rule="evenodd" clip-rule="evenodd" d="M30 11C24.4772 11 20 15.4772 20 21H18C18 14.3726 23.3726 9 30 9C36.6274 9 42 14.3726 42 21H40C40 15.4772 35.5228 11 30 11Z" fill="currentColor"/>
<path fill-rule="evenodd" clip-rule="evenodd" d="M16 21C16 20.4477 16.4477 20 17 20H43C43.5523 20 44 20.4477 44 21C44 21.5523 43.5523 22 43 22H17C16.4477 22 16 21.5523 16 21Z" fill="currentColor"/>
<path fill-rule="evenodd" clip-rule="evenodd" d="M28 14C27.4477 14 27 13.5523 27 13L27 7C27 6.44772 27.4477 6 28 6C28.5523 6 29 6.44772 29 7L29 13C29 13.5523 28.5523 14 28 14Z" fill="currentColor"/>
<path fill-rule="evenodd" clip-rule="evenodd" d="M32 14C31.4477 14 31 13.5523 31 13L31 7C31 6.44772 31.4477 6 32 6C32.5523 6 33 6.44772 33 7L33 13C33 13.5523 32.5523 14 32 14Z" fill="currentColor"/>
<path fill-rule="evenodd" clip-rule="evenodd" d="M30 38C20.7091 38 12.9336 44.4987 10.9756 53.1993C10.8543 53.7381 10.3193 54.0766 9.78045 53.9554C9.24164 53.8341 8.90315 53.299 9.0244 52.7602C11.1833 43.1668 19.7535 36 30 36C40.254 36 48.8293 43.1774 50.9804 52.7814C51.1011 53.3204 50.762 53.8551 50.2231 53.9758C49.6842 54.0965 49.1494 53.7575 49.0287 53.2186C47.0778 44.5083 39.2978 38 30 38Z" fill="currentColor"/>
<path fill-rule="evenodd" clip-rule="evenodd" d="M22 53L22 38L24 38L24 53C24 53.5523 23.5523 54 23 54C22.4477 54 22 53.5523 22 53Z" fill="currentColor"/>
<path fill-rule="evenodd" clip-rule="evenodd" d="M36 53L36 38L38 38L38 53C38 53.5523 37.5523 54 37 54C36.4477 54 36 53.5523 36 53Z" fill="currentColor"/>
</svg>
