<svg width="60" height="60" viewBox="0 0 60 60" fill="none" xmlns="http://www.w3.org/2000/svg">
<path fill-rule="evenodd" clip-rule="evenodd" d="M39 25.5652V16H41V25.5652C41 31.8399 36.1148 37 30 37C23.8852 37 19 31.8399 19 25.5652V21C19 20.4477 19.4477 20 20 20C20.5523 20 21 20.4477 21 21V25.5652C21 30.8164 25.0691 35 30 35C34.9309 35 39 30.8164 39 25.5652Z" fill="currentColor"/>
<path fill-rule="evenodd" clip-rule="evenodd" d="M24 6C24.5523 6 25 6.44772 25 7L25 16C25 16.5523 24.5523 17 24 17C23.4477 17 23 16.5523 23 16L23 7C23 6.44772 23.4477 6 24 6Z" fill="currentColor"/>
<path fill-rule="evenodd" clip-rule="evenodd" d="M36 6C36.5523 6 37 6.44772 37 7L37 16C37 16.5523 36.5523 17 36 17C35.4477 17 35 16.5523 35 16L35 7C35 6.44772 35.4477 6 36 6Z" fill="currentColor"/>
<path fill-rule="evenodd" clip-rule="evenodd" d="M30 35C30.5523 35 31 35.4477 31 36L31 52C31 52.5523 30.5523 53 30 53C29.4477 53 29 52.5523 29 52L29 36C29 35.4477 29.4477 35 30 35Z" fill="currentColor"/>
<path fill-rule="evenodd" clip-rule="evenodd" d="M29.2971 52.8713C29.2027 49.3975 30.4033 45.9532 32.9496 43.3718C35.496 40.7904 38.8931 39.5736 42.3196 39.6693C42.8678 39.6846 43.3001 40.1476 43.285 40.7034C43.2699 41.2593 42.8132 41.6975 42.2649 41.6822C39.3381 41.6005 36.4832 42.6372 34.3541 44.7957C32.225 46.9542 31.202 49.8487 31.2826 52.8159C31.2977 53.3717 30.8655 53.8347 30.3172 53.85C29.7689 53.8653 29.3122 53.4271 29.2971 52.8713Z" fill="currentColor"/>
<path fill-rule="evenodd" clip-rule="evenodd" d="M30.2528 53.8419C33.6793 53.9375 37.0767 52.7204 39.6231 50.139C42.1694 47.5575 43.3696 44.1136 43.2752 40.6399C43.2601 40.084 42.8034 39.6458 42.2551 39.6611C41.7069 39.6764 41.2746 40.1394 41.2897 40.6953C41.3703 43.6625 40.3477 46.5566 38.2186 48.7151C36.0894 50.8736 33.2342 51.9107 30.3074 51.829C29.7592 51.8137 29.3024 52.2519 29.2873 52.8077C29.2722 53.3635 29.7045 53.8265 30.2528 53.8419Z" fill="currentColor"/>
<path fill-rule="evenodd" clip-rule="evenodd" d="M30.7028 52.8713C30.7971 49.3975 29.5966 45.9532 27.0502 43.3718C24.5039 40.7904 21.1068 39.5736 17.6803 39.6693C17.132 39.6846 16.6998 40.1476 16.7149 40.7034C16.73 41.2593 17.1867 41.6975 17.735 41.6822C20.6618 41.6005 23.5166 42.6372 25.6457 44.7957C27.7749 46.9542 28.7979 49.8487 28.7173 52.8159C28.7022 53.3717 29.1344 53.8347 29.6827 53.85C30.231 53.8653 30.6877 53.4271 30.7028 52.8713Z" fill="currentColor"/>
<path fill-rule="evenodd" clip-rule="evenodd" d="M29.7471 53.8419C26.3206 53.9375 22.9231 52.7204 20.3768 50.139C17.8305 47.5575 16.6303 44.1136 16.7247 40.6399C16.7398 40.084 17.1965 39.6458 17.7447 39.6611C18.293 39.6764 18.7253 40.1394 18.7102 40.6953C18.6296 43.6625 19.6522 46.5566 21.7813 48.7151C23.9105 50.8736 26.7657 51.9107 29.6924 51.829C30.2407 51.8137 30.6974 52.2519 30.7125 52.8077C30.7276 53.3635 30.2954 53.8265 29.7471 53.8419Z" fill="currentColor"/>
<path fill-rule="evenodd" clip-rule="evenodd" d="M17 16C17 15.4477 17.4477 15 18 15L42 15C42.5523 15 43 15.4477 43 16C43 16.5523 42.5523 17 42 17H18C17.4477 17 17 16.5523 17 16Z" fill="currentColor"/>
</svg>
