<svg width="60" height="60" viewBox="0 0 60 60" fill="none" xmlns="http://www.w3.org/2000/svg">
<path fill-rule="evenodd" clip-rule="evenodd" d="M30 8C21.2246 8 13.6756 13.6463 10.5418 21.7099C10.3418 22.2247 9.7623 22.4799 9.24752 22.2798C8.73275 22.0797 8.47761 21.5003 8.67767 20.9855C12.0842 12.22 20.3298 6 30 6H30.5366C31.0889 6 31.5366 6.44772 31.5366 7C31.5366 7.55228 31.0889 8 30.5366 8H30ZM49.7734 19.8551C50.2827 19.6416 50.8687 19.8815 51.0822 20.3908C52.3163 23.3351 53 26.5859 53 30C53 43.2125 42.744 54 30 54C17.256 54 7 43.2125 7 30C7 29.4477 7.44772 29 8 29H12.2927C12.845 29 13.2927 29.4477 13.2927 30C13.2927 30.5523 12.845 31 12.2927 31H9.02126C9.52082 42.7244 18.7611 52 30 52C41.5566 52 51 42.1926 51 30C51 26.8545 50.3704 23.8663 49.2377 21.1639C49.0242 20.6546 49.264 20.0686 49.7734 19.8551Z" fill="currentColor"/>
<path fill-rule="evenodd" clip-rule="evenodd" d="M31 6C31.5523 6 32 6.44772 32 7L32 53C32 53.5523 31.5523 54 31 54C30.4477 54 30 53.5523 30 53L30 7C30 6.44772 30.4477 6 31 6Z" fill="currentColor"/>
<path fill-rule="evenodd" clip-rule="evenodd" d="M32 30C32 30.5523 31.5523 31 31 31L9 31C8.44772 31 8 30.5523 8 30C8 29.4477 8.44772 29 9 29L31 29C31.5523 29 32 29.4477 32 30Z" fill="currentColor"/>
<path fill-rule="evenodd" clip-rule="evenodd" d="M29.5725 7.81994C23.2962 12.2018 19 20.4581 19 30C19 39.5419 23.2962 47.7982 29.5725 52.1801L28.4275 53.8199C21.5522 49.0198 17 40.1142 17 30C17 19.8858 21.5522 10.9802 28.4275 6.18006L29.5725 7.81994Z" fill="currentColor"/>
<path fill-rule="evenodd" clip-rule="evenodd" d="M32 20C32 19.4477 31.5523 19 31 19C24.7657 19 19.0523 17.1856 14.5572 14.1696C14.0985 13.8619 13.4773 13.9842 13.1696 14.4428C12.8619 14.9015 12.9842 15.5227 13.4428 15.8304C18.277 19.0738 24.3804 21 31 21C31.5523 21 32 20.5523 32 20Z" fill="currentColor"/>
<path fill-rule="evenodd" clip-rule="evenodd" d="M31.9999 39.9838C32.0088 40.536 31.5684 40.9909 31.0162 40.9999C24.3482 41.1079 18.2564 42.5587 13.4369 44.8995C12.9401 45.1408 12.3418 44.9337 12.1005 44.4369C11.8592 43.9401 12.0663 43.3418 12.5631 43.1005C17.6735 40.6184 24.0574 39.1124 30.9838 39.0001C31.536 38.9912 31.9909 39.4316 31.9999 39.9838Z" fill="currentColor"/>
<path fill-rule="evenodd" clip-rule="evenodd" d="M50.0661 21.6657C46.4175 21.4135 43.1599 19.8666 41.3225 16.9394C39.4852 14.0122 39.5085 10.4064 40.8675 7.01104C41.0727 6.4983 41.6547 6.24901 42.1675 6.45424C42.6802 6.65946 42.9295 7.24149 42.7243 7.75423C41.5352 10.7249 41.6054 13.628 43.0165 15.8761C44.4276 18.1243 47.0119 19.4498 50.204 19.6704C50.755 19.7085 51.1708 20.186 51.1327 20.737C51.0946 21.288 50.6171 21.7038 50.0661 21.6657Z" fill="currentColor"/>
<path fill-rule="evenodd" clip-rule="evenodd" d="M51.0633 21.0397C52.4224 17.6442 52.4454 14.038 50.608 11.1109C48.7706 8.18369 45.5132 6.63716 41.8647 6.38501C41.3137 6.34693 40.8362 6.76271 40.7981 7.31369C40.76 7.86466 41.1758 8.34218 41.7268 8.38025C44.919 8.60087 47.503 9.92607 48.9141 12.1742C50.3252 14.4223 50.3956 17.3258 49.2066 20.2965C49.0013 20.8092 49.2506 21.3912 49.7634 21.5965C50.2761 21.8017 50.8581 21.5524 51.0633 21.0397Z" fill="currentColor"/>
</svg>
