<svg xmlns="http://www.w3.org/2000/svg" class="w-full h-full" fill="none" viewBox="0 0 29 29"><g clip-path="url(#a)"><path fill="#FEFEFE" fill-rule="evenodd" d="M11.578 20.725c0-1.958-.008-3.915.007-5.871.002-.33-.09-.433-.42-.42-.61.024-1.22-.002-1.83.01-.247.007-.337-.061-.335-.323.012-1.222.01-2.443 0-3.665-.001-.234.07-.311.307-.307.624.015 1.249-.018 1.871.013.362.018.436-.11.429-.445a60.35 60.35 0 0 1-.001-2.79c.024-1.136.329-2.196 1.005-3.119.853-1.167 2.068-1.701 3.47-1.764 1.44-.064 2.884-.029 4.326-.044.2-.002.26.07.26.265-.006 1.235-.007 2.47 0 3.706.002.22-.07.287-.285.283-.693-.012-1.387-.006-2.079-.004-.923.004-1.475.479-1.533 1.393-.046.733-.012 1.47-.03 2.207-.006.261.15.244.323.244 1.053-.001 2.108.01 3.162-.008.309-.005.41.066.375.391a164.522 164.522 0 0 0-.351 3.687c-.024.277-.15.33-.4.326-.832-.013-1.663-.009-2.496-.003-.597.003-.538-.088-.538.523-.004 3.83-.008 7.662.008 11.492.003.405-.101.505-.5.497a113.115 113.115 0 0 0-4.285 0c-.402.008-.469-.128-.465-.487.015-1.93.007-3.858.007-5.788h-.002Z" clip-rule="evenodd"/></g><defs><clipPath id="a"><path fill="#fff" d="M9 2h11.667v25H9z"/></clipPath></defs></svg>