<svg width="60" height="60" viewBox="0 0 60 60" fill="none" xmlns="http://www.w3.org/2000/svg">
<path fill-rule="evenodd" clip-rule="evenodd" d="M27.8788 16.7375C28.5507 13.4473 30.4945 10.4685 33.573 8.59142C36.6515 6.71435 40.2717 6.30066 43.6366 7.12954C44.1812 7.2637 44.5168 7.80015 44.3861 8.32773C44.2555 8.85532 43.708 9.17426 43.1634 9.0401C40.2952 8.33356 37.2476 8.69222 34.6674 10.2654C32.0872 11.8386 30.4411 14.3419 29.8685 17.1464C29.7597 17.6789 29.2262 18.0191 28.6768 17.9062C28.1273 17.7933 27.7701 17.27 27.8788 16.7375Z" fill="currentColor"/>
<path fill-rule="evenodd" clip-rule="evenodd" d="M28.6368 17.8975C32.0017 18.7264 35.6224 18.3124 38.7009 16.4354C41.7794 14.5583 43.7227 11.5797 44.3946 8.28955C44.5033 7.75701 44.1461 7.23377 43.5966 7.12086C43.0472 7.00795 42.5137 7.34812 42.4049 7.88066C41.8323 10.6852 40.1866 13.1882 37.6064 14.7614C35.0263 16.3346 31.9782 16.6935 29.11 15.987C28.5654 15.8528 28.018 16.1717 27.8873 16.6993C27.7566 17.2269 28.0922 17.7633 28.6368 17.8975Z" fill="currentColor"/>
<path fill-rule="evenodd" clip-rule="evenodd" d="M29.4379 22.6729C32.2889 20.7356 35.9056 19.9719 39.5213 20.5824C43.1416 21.1936 46.3162 22.8706 48.3442 25.7415C50.376 28.6177 51.1569 32.5504 50.266 37.472C49.3767 42.3842 47.1248 46.6262 44.1559 49.506C41.189 52.3837 37.4377 53.9539 33.6206 53.3094C32.3597 53.0966 31.1833 52.6561 30.1097 52.0256C29.036 52.6561 27.8596 53.0966 26.5988 53.3094C22.7816 53.9539 19.0303 52.3837 16.0635 49.5059C13.0945 46.6262 10.8427 42.3841 9.95339 37.4719C9.0624 32.5503 9.84333 28.6176 11.8751 25.7414C13.9031 22.8704 17.0777 21.1935 20.6981 20.5822C21.8735 20.3838 22.947 20.4035 23.9908 20.5827C24.5352 20.6761 24.9007 21.1931 24.8073 21.7374C24.7138 22.2818 24.1968 22.6473 23.6525 22.5538C22.822 22.4113 21.9756 22.3948 21.031 22.5543C17.8057 23.0988 15.1608 24.5565 13.5086 26.8953C11.8603 29.2288 11.1005 32.581 11.9214 37.1157C12.7441 41.6598 14.8168 45.5104 17.456 48.0703C20.0972 50.6322 23.2373 51.8487 26.2658 51.3373C27.4548 51.1366 28.5562 50.6835 29.5523 50.0147C29.8894 49.7884 30.33 49.7884 30.6671 50.0147C31.6632 50.6835 32.7646 51.1366 33.9535 51.3374C36.982 51.8487 40.1222 50.6322 42.7634 48.0704C45.4025 45.5105 47.4753 41.6599 48.2979 37.1157C49.1189 32.5811 48.3591 29.2289 46.7107 26.8954C45.0586 24.5566 42.4136 23.099 39.1883 22.5544C36.0543 22.0253 32.9644 22.6946 30.562 24.3271C30.1052 24.6375 29.4833 24.5188 29.1729 24.062C28.8625 23.6053 28.9811 22.9833 29.4379 22.6729Z" fill="currentColor"/>
<path fill-rule="evenodd" clip-rule="evenodd" d="M20.156 7.46365C20.4522 6.99752 21.0702 6.85979 21.5364 7.15601C29.3238 12.105 31.1003 20.2337 30.9995 23.5306C30.9827 24.0826 30.5215 24.5164 29.9694 24.4995C29.4174 24.4827 28.9836 24.0215 29.0005 23.4694C29.0853 20.6958 27.5158 13.3257 20.4636 8.84399C19.9975 8.54777 19.8598 7.92977 20.156 7.46365Z" fill="currentColor"/>
</svg>
