<svg width="60" height="60" viewBox="0 0 60 60" fill="none" xmlns="http://www.w3.org/2000/svg">
<path fill-rule="evenodd" clip-rule="evenodd" d="M28.2175 7.20116C28.9812 5.78271 31.0229 5.80322 31.758 7.23672L50.143 43.0874C50.8255 44.4183 49.859 46 48.3634 46H36C35.4477 46 35 45.5523 35 45C35 44.4477 35.4477 44 36 44H48.3634L29.9784 8.14936L10.6742 44H28.9963C29.5486 44 29.9963 44.4477 29.9963 45C29.9963 45.5523 29.5486 46 28.9963 46H10.6742C9.16087 46 8.1958 44.3843 8.91328 43.0518L28.2175 7.20116Z" fill="currentColor"/>
<path fill-rule="evenodd" clip-rule="evenodd" d="M30 54C29.4477 54 29 53.5523 29 53L29 30C29 29.4477 29.4477 29 30 29C30.5523 29 31 29.4477 31 30L31 53C31 53.5523 30.5523 54 30 54Z" fill="currentColor"/>
<path fill-rule="evenodd" clip-rule="evenodd" d="M30.3423 42.2219C29.9666 42.6267 29.3575 42.6267 28.9818 42.2219L24.3197 37.1988C23.944 36.794 23.944 36.1377 24.3197 35.7329C24.6954 35.3281 25.3046 35.3281 25.6803 35.7329L30.3423 40.756C30.718 41.1608 30.718 41.8171 30.3423 42.2219Z" fill="currentColor"/>
<path fill-rule="evenodd" clip-rule="evenodd" d="M29.6803 38.2219C30.056 38.6267 30.6651 38.6267 31.0408 38.2219L35.7029 33.1988C36.0786 32.794 36.0786 32.1377 35.7029 31.7329C35.3272 31.3281 34.718 31.3281 34.3423 31.7329L29.6803 36.756C29.3046 37.1608 29.3046 37.8171 29.6803 38.2219Z" fill="currentColor"/>
</svg>
