<svg width="60" height="60" viewBox="0 0 60 60" fill="none" xmlns="http://www.w3.org/2000/svg">
<path fill-rule="evenodd" clip-rule="evenodd" d="M25.3682 14.5039C25.6423 14.9834 25.4757 15.5942 24.9961 15.8682L10.7656 24H20C20.5523 24 21 24.4477 21 25C21 25.5523 20.5523 26 20 26H7C6.54657 26 6.14988 25.6949 6.0335 25.2567C5.91712 24.8184 6.11017 24.3567 6.50386 24.1318L24.0039 14.1318C24.4834 13.8578 25.0942 14.0243 25.3682 14.5039ZM35.1381 14.493C35.4181 14.017 36.031 13.858 36.507 14.1381L53.507 24.1381C53.8958 24.3668 54.0834 24.8275 53.9649 25.2627C53.8463 25.698 53.4511 26 53 26H40C39.4477 26 39 25.5523 39 25C39 24.4477 39.4477 24 40 24H49.3277L35.493 15.8619C35.0169 15.5819 34.858 14.969 35.1381 14.493Z" fill="currentColor"/>
<path fill-rule="evenodd" clip-rule="evenodd" d="M35.0074 21.3031C35.3923 21.6992 35.3833 22.3323 34.9872 22.7172L24.697 32.7171C24.3009 33.102 23.6678 33.093 23.2829 32.6969C22.898 32.3008 22.9071 31.6677 23.3031 31.2829L33.5934 21.2829C33.9894 20.898 34.6225 20.907 35.0074 21.3031Z" fill="currentColor"/>
<path fill-rule="evenodd" clip-rule="evenodd" d="M36.7172 32.6969C36.3323 33.093 35.6992 33.102 35.3031 32.7171L25.0127 22.7171C24.6167 22.3322 24.6076 21.6991 24.9925 21.3031C25.3774 20.907 26.0105 20.8979 26.4066 21.2828L36.6969 31.2828C37.093 31.6677 37.102 32.3008 36.7172 32.6969Z" fill="currentColor"/>
<path fill-rule="evenodd" clip-rule="evenodd" d="M7 30C6.44772 30 6 29.5523 6 29L6 25C6 24.4477 6.44771 24 7 24C7.55228 24 8 24.4477 8 25L8 29C8 29.5523 7.55228 30 7 30Z" fill="currentColor"/>
<path fill-rule="evenodd" clip-rule="evenodd" d="M21 12C20.4477 12 20 11.5523 20 11L20 7C20 6.44772 20.4477 6 21 6C21.5523 6 22 6.44772 22 7L22 11C22 11.5523 21.5523 12 21 12Z" fill="currentColor"/>
<path fill-rule="evenodd" clip-rule="evenodd" d="M39 12C38.4477 12 38 11.5523 38 11L38 7C38 6.44772 38.4477 6 39 6C39.5523 6 40 6.44772 40 7L40 11C40 11.5523 39.5523 12 39 12Z" fill="currentColor"/>
<path fill-rule="evenodd" clip-rule="evenodd" d="M53 30C52.4477 30 52 29.5523 52 29L52 25C52 24.4477 52.4477 24 53 24C53.5523 24 54 24.4477 54 25L54 29C54 29.5523 53.5523 30 53 30Z" fill="currentColor"/>
<path fill-rule="evenodd" clip-rule="evenodd" d="M26.5654 6.64443C26.713 6.25645 27.0849 6 27.5 6H32C32.5523 6 33 6.44772 33 7C33 7.55228 32.5523 8 32 8H28.1895L12.2384 49.9287L29.3753 36.2191C29.8066 35.8741 30.4359 35.944 30.7809 36.3753C31.1259 36.8066 31.056 37.4359 30.6247 37.7809L10.6247 53.7809C10.2726 54.0626 9.77546 54.0737 9.41102 53.8082C9.04659 53.5426 8.90501 53.0659 9.06535 52.6444L26.5654 6.64443Z" fill="currentColor"/>
<path fill-rule="evenodd" clip-rule="evenodd" d="M32.1444 6.06535C31.6282 6.26172 31.369 6.83938 31.5653 7.35557L47.7616 49.9287L30.6247 36.2191C30.1934 35.8741 29.5641 35.944 29.2191 36.3753C28.8741 36.8066 28.944 37.4359 29.3753 37.7809L49.3753 53.7809C49.7274 54.0626 50.2245 54.0737 50.589 53.8081C50.9534 53.5425 51.095 53.0659 50.9346 52.6444L33.4346 6.64442C33.2383 6.12823 32.6606 5.86897 32.1444 6.06535Z" fill="currentColor"/>
<path fill-rule="evenodd" clip-rule="evenodd" d="M16 37C16 36.4477 16.4477 36 17 36H43C43.5523 36 44 36.4477 44 37C44 37.5523 43.5523 38 43 38H17C16.4477 38 16 37.5523 16 37Z" fill="currentColor"/>
<path fill-rule="evenodd" clip-rule="evenodd" d="M20 7C20 6.44772 20.4477 6 21 6H39C39.5523 6 40 6.44772 40 7C40 7.55228 39.5523 8 39 8H21C20.4477 8 20 7.55228 20 7Z" fill="currentColor"/>
<path fill-rule="evenodd" clip-rule="evenodd" d="M24 15C24 14.4477 24.4477 14 25 14H35C35.5523 14 36 14.4477 36 15C36 15.5523 35.5523 16 35 16H25C24.4477 16 24 15.5523 24 15Z" fill="currentColor"/>
</svg>
