<svg width="60" height="60" viewBox="0 0 60 60" fill="none" xmlns="http://www.w3.org/2000/svg">
<path fill-rule="evenodd" clip-rule="evenodd" d="M10 13C10 11.3431 11.3431 10 13 10H47C48.6569 10 50 11.3431 50 13V28.1235C50 28.6758 49.5523 29.1235 49 29.1235C48.4477 29.1235 48 28.6758 48 28.1235V13C48 12.4477 47.5523 12 47 12H13C12.4477 12 12 12.4477 12 13V33C12 33.5523 12.4477 34 13 34H49C49.5523 34 50 34.4477 50 35C50 35.5523 49.5523 36 49 36H13C11.3431 36 10 34.6569 10 33V13Z" fill="currentColor"/>
<path fill-rule="evenodd" clip-rule="evenodd" d="M24 32C23.4477 32 23 31.5523 23 31L23 15C23 14.4477 23.4477 14 24 14C24.5523 14 25 14.4477 25 15L25 31C25 31.5523 24.5523 32 24 32Z" fill="currentColor"/>
<path fill-rule="evenodd" clip-rule="evenodd" d="M38 32C37.4477 32 37 31.5523 37 31L37 15C37 14.4477 37.4477 14 38 14C38.5523 14 39 14.4477 39 15L39 31C39 31.5523 38.5523 32 38 32Z" fill="currentColor"/>
<path fill-rule="evenodd" clip-rule="evenodd" d="M31 46C30.4477 46 30 45.5523 30 45L30 39C30 38.4477 30.4477 38 31 38C31.5523 38 32 38.4477 32 39L32 45C32 45.5523 31.5523 46 31 46Z" fill="currentColor"/>
<path fill-rule="evenodd" clip-rule="evenodd" d="M21 49C21 48.4477 21.4477 48 22 48H40C40.5523 48 41 48.4477 41 49C41 49.5523 40.5523 50 40 50H22C21.4477 50 21 49.5523 21 49Z" fill="currentColor"/>
<path fill-rule="evenodd" clip-rule="evenodd" d="M14 23C14 22.4477 14.4477 22 15 22H45C45.5523 22 46 22.4477 46 23C46 23.5523 45.5523 24 45 24H15C14.4477 24 14 23.5523 14 23Z" fill="currentColor"/>
</svg>
