<svg width="209" height="213" viewBox="0 0 209 213" fill="none" xmlns="http://www.w3.org/2000/svg">
    <g id="Group">
    <g id="Ebene_1">
    <path id="Vector" d="M110.365 77.7754C110.365 77.7754 125.923 87.3469 127.027 87.884C128.082 88.4114 133.375 90.9508 133.747 96.4007C134.118 101.851 136.393 116.872 136.178 117.77C135.964 118.728 133.112 121.531 130.514 117.663C130.514 117.663 128.98 122.263 126.754 122.156C124.585 122.048 122.525 119.03 122.525 119.03C122.525 119.03 121.04 125.965 115.278 118.718C115.278 118.718 111.576 122.263 106.868 116.764C102.161 111.266 93.0581 95.8147 93.0581 95.8147" fill="#EBE8E3"/>
    <path id="Vector_2" d="M110.365 77.7754C110.365 77.7754 125.923 87.3469 127.027 87.884C128.082 88.4114 133.375 90.9508 133.747 96.4007C134.118 101.851 136.393 116.872 136.178 117.77C135.964 118.728 133.112 121.531 130.514 117.663C130.514 117.663 128.98 122.263 126.754 122.156C124.585 122.048 122.525 119.03 122.525 119.03C122.525 119.03 121.04 125.965 115.278 118.718C115.278 118.718 111.576 122.263 106.868 116.764C102.161 111.266 93.0581 95.8147 93.0581 95.8147" stroke="black" stroke-width="2.4417" stroke-miterlimit="10"/>
    <path id="Vector_3" d="M93.1153 95.9242L82.9579 86.929C82.9579 86.929 48.6276 82.2214 2.44043 47.8326L40.111 2.49512C40.111 2.49512 77.674 39.4722 97.3541 63.1176C103.224 70.2083 107.932 75.5996 110.363 77.7189C110.363 77.7775 101.368 93.0137 93.1153 95.9242Z" fill="#1C2445" stroke="black" stroke-width="2.4417" stroke-miterlimit="10"/>
    <g id="Vector_4">
    <path d="M97.3557 63.126C103.226 70.2167 107.933 75.6079 110.365 77.7273C110.365 77.7762 101.37 93.0124 93.1169 95.9229L82.9595 86.9277" fill="#1C2445"/>
    <path d="M97.3557 63.126C103.226 70.2167 107.933 75.6079 110.365 77.7273C110.365 77.7762 101.37 93.0124 93.1169 95.9229L82.9595 86.9277" stroke="black" stroke-width="2.4417" stroke-miterlimit="10"/>
    </g>
    <path id="Vector_5" d="M97.3557 63.126C103.226 70.2167 107.933 75.6079 110.365 77.7273C110.365 77.7762 101.37 93.0124 93.1169 95.9229L82.9595 86.9277" stroke="black" stroke-width="2.4417" stroke-miterlimit="10"/>
    <path id="Vector_6" d="M2.44043 47.8325C3.57338 46.4749 4.69656 45.1173 5.82951 43.7598C49.4773 76.6641 67.8291 79.9946 76.5118 77.3575L96.0844 71.0091C91.6894 76.3027 87.3041 81.5866 82.909 86.8802C71.0521 84.0576 58.8241 80.4731 48.1002 75.2674C32.0045 67.454 16.8757 57.9118 2.44043 47.8325Z" fill="black" stroke="black" stroke-width="2.4417" stroke-miterlimit="10"/>
    <path id="Vector_7" d="M173.428 131.203L162.48 149.028C160.253 162.779 152.166 178.758 144.753 191.142C137.721 202.989 131.314 211.457 131.314 211.457L70.7891 201.3C72.4299 199.815 115.863 139.564 117.66 138.401C128.716 131.047 140.885 129.406 140.885 129.406" fill="#1C2445"/>
    <path id="Vector_8" d="M173.428 131.203L162.48 149.028C160.253 162.779 152.166 178.758 144.753 191.142C137.721 202.989 131.314 211.457 131.314 211.457L70.7891 201.3C72.4299 199.815 115.863 139.564 117.66 138.401C128.716 131.047 140.885 129.406 140.885 129.406" stroke="black" stroke-width="2.4417" stroke-miterlimit="10"/>
    <path id="Vector_9" d="M153.795 114.92C153.795 114.92 155.124 110.691 158.874 111.062C162.634 111.433 175.165 110.954 177.597 105.456C177.597 105.456 168.074 104.606 166.649 101.803L170.301 100.269C170.194 100.377 166.072 97.5737 168.719 96.0892L185.381 94.4484C185.381 94.4484 191.993 91.5965 197.658 94.6632C197.658 94.6632 205.325 92.3876 205.755 98.8922C206.233 105.456 211.205 119.627 194.962 124.071C178.72 128.515 178.671 128.144 172.636 131.103" fill="#EBE8E3"/>
    <path id="Vector_10" d="M153.795 114.911L140.835 129.356L162.42 148.987L173.368 131.163L153.795 114.911ZM153.795 114.92C153.795 114.92 155.124 110.691 158.874 111.063C162.634 111.434 175.165 110.955 177.597 105.456C177.597 105.456 169.657 104.753 167.196 102.497C166.873 102.204 166.971 101.677 167.371 101.511L169.794 100.495C169.989 100.417 170.018 100.153 169.842 100.026C168.817 99.3131 166.6 97.2817 168.719 96.0999L183.74 93.6875C183.74 93.6875 191.993 91.6071 197.658 94.6739C197.658 94.6739 205.325 92.3983 205.755 98.9029C206.233 105.466 211.205 119.638 194.963 124.082C178.72 128.526 179.463 128.252 173.427 131.221L153.795 114.92Z" fill="#EBE8E3" stroke="black" stroke-width="2.4417" stroke-miterlimit="10"/>
    <path id="Vector_11" d="M153.795 114.912L140.835 129.357L162.42 148.988L173.368 131.164L153.795 114.912Z" fill="#1C2445" stroke="black" stroke-width="2.4417" stroke-miterlimit="10"/>
    </g>
    <g id="Ebene_2">
    <path id="Vector_12" d="M193.47 110.478C193.646 107.098 193.45 104.295 193.216 102.274C192.767 98.3473 192.884 97.2339 192.161 95.8958C192.161 95.8958 190.432 93.0537 187.922 93.0537" stroke="black" stroke-width="2.4417" stroke-miterlimit="10"/>
    <path id="Vector_13" d="M185.22 109.773C186.08 105.309 186.353 100.289 185.181 99.1271C184.595 98.5411 183.716 98.4141 180.552 98.795C178.686 99.0197 173.266 99.7424 168.9 100.758" stroke="black" stroke-width="2.4417" stroke-miterlimit="10"/>
    <path id="Vector_14" d="M125.056 97.2051C127.791 102.753 130.526 117.666 130.526 117.666" stroke="black" stroke-width="2.4417" stroke-miterlimit="10"/>
    <path id="Vector_15" d="M118.765 99.791C119.839 104.85 122.105 112.732 122.535 119.032" stroke="black" stroke-width="2.4417" stroke-miterlimit="10"/>
    <path id="Vector_16" d="M109.887 102.52C111.46 107.022 113.12 113.986 115.288 119.045" stroke="black" stroke-width="2.4417" stroke-miterlimit="10"/>
    <g id="Vector_17">
    <path d="M199.685 112.294C199.841 109.97 199.851 107.206 199.529 104.119C199.138 100.408 198.357 97.2337 197.556 94.6943" fill="#EBE8E3"/>
    <path d="M199.685 112.294C199.841 109.97 199.851 107.206 199.529 104.119C199.138 100.408 198.357 97.2337 197.556 94.6943" stroke="black" stroke-width="2.4417" stroke-miterlimit="10"/>
    </g>
    </g>
    </g>
</svg>
