<svg width="60" height="60" viewBox="0 0 60 60" fill="none" xmlns="http://www.w3.org/2000/svg">
<path fill-rule="evenodd" clip-rule="evenodd" d="M8.39117 22.4223C11.7945 11.8317 23.3768 5.70562 34.8268 8.77362C45.0034 11.5005 51.648 20.5806 51.3414 30.1983C51.3238 30.7503 51.757 31.212 52.309 31.2296C52.861 31.2472 53.3228 30.814 53.3404 30.262C53.6777 19.679 46.3823 9.79937 35.3444 6.84177C22.5678 3.41829 9.47885 10.5408 6.1768 22.8642C6.03386 23.3977 6.35044 23.946 6.88391 24.089L51.3683 36.0085C51.9018 36.1515 52.4501 35.8349 52.593 35.3014C52.736 34.768 52.4194 34.2196 51.8859 34.0767L8.39117 22.4223Z" fill="currentColor"/>
<path fill-rule="evenodd" clip-rule="evenodd" d="M25.9342 12.53C22.9387 15.6744 20.2856 20.487 18.7462 26.2322L16.8143 25.7145C18.4233 19.7098 21.2182 14.5808 24.4861 11.1505C27.7242 7.75141 31.6206 5.84395 35.3443 6.84172C39.068 7.83948 41.4887 11.4396 42.5935 16.0024C43.7083 20.607 43.5644 26.4463 41.9554 32.4511L40.0236 31.9334C41.563 26.1882 41.6716 20.6939 40.6496 16.473C39.6175 12.2103 37.5121 9.49311 34.8267 8.77357C32.1414 8.05403 28.9593 9.35446 25.9342 12.53Z" fill="currentColor"/>
<path fill-rule="evenodd" clip-rule="evenodd" d="M35.0845 7.8074C35.6179 7.95035 35.9345 8.49868 35.7916 9.03215L24.1305 52.5517C23.9876 53.0852 23.4392 53.4018 22.9058 53.2588C22.3723 53.1159 22.0557 52.5676 22.1987 52.0341L33.8597 8.51451C34.0027 7.98104 34.551 7.66446 35.0845 7.8074Z" fill="currentColor"/>
</svg>
