<svg width="60" height="60" viewBox="0 0 60 60" fill="none" xmlns="http://www.w3.org/2000/svg">
<path fill-rule="evenodd" clip-rule="evenodd" d="M21 7C21 6.44772 21.4477 6 22 6H38C38.5523 6 39 6.44772 39 7V16C39 16.5523 38.5523 17 38 17C37.4477 17 37 16.5523 37 16V8H23V22C23 22.5523 22.5523 23 22 23H8V37H22C22.5523 37 23 37.4477 23 38V52H37V38C37 37.4477 37.4477 37 38 37H52V23H38C37.4477 23 37 22.5523 37 22C37 21.4477 37.4477 21 38 21H53C53.5523 21 54 21.4477 54 22V38C54 38.5523 53.5523 39 53 39H39V53C39 53.5523 38.5523 54 38 54H22C21.4477 54 21 53.5523 21 53V39H7C6.44772 39 6 38.5523 6 38V22C6 21.4477 6.44772 21 7 21H21V7Z" fill="black"/>
</svg>
