<svg width="60" height="60" viewBox="0 0 60 60" fill="none" xmlns="http://www.w3.org/2000/svg">
<path fill-rule="evenodd" clip-rule="evenodd" d="M30.0032 6C30.3288 6.00062 30.6337 6.15968 30.8204 6.42634L44.8499 26.458C44.8499 26.4581 44.8499 26.458 44.8499 26.458C49.7517 33.4565 48.852 42.8608 42.715 48.8517C35.6836 55.7156 24.2997 55.7166 17.2775 48.8517C11.1503 42.8703 10.2515 33.4565 15.142 26.4589L19.3702 20.4261C19.6872 19.9738 20.3108 19.8641 20.7631 20.1811C21.2153 20.4981 21.325 21.1217 21.008 21.5739L16.7813 27.6046C16.7811 27.6048 16.7815 27.6043 16.7813 27.6046C12.455 33.7958 13.2447 42.1199 18.6746 47.4205C24.9189 53.5255 35.0627 53.5268 41.3179 47.4205C46.7586 42.1094 47.5477 33.7959 43.2118 27.6054L29.998 8.73847L24.8169 16.0768C24.4984 16.5279 23.8744 16.6354 23.4232 16.3169C22.9721 15.9984 22.8646 15.3744 23.1831 14.9232L29.1844 6.42323C29.3722 6.15728 29.6777 5.99938 30.0032 6Z" fill="currentColor"/>
<path fill-rule="evenodd" clip-rule="evenodd" d="M32.3903 20.0793C32.7879 20.2479 33.0324 20.6527 32.9965 21.083L32.3715 28.583C32.3257 29.1334 31.8423 29.5424 31.292 29.4965C30.7416 29.4507 30.3326 28.9673 30.3785 28.417L30.751 23.946L23.7038 32H28C28.2797 32 28.5465 32.1171 28.7359 32.3229C28.9252 32.5287 29.0198 32.8044 28.9965 33.083L28.2395 42.168L35.7268 34H31C30.4477 34 30 33.5523 30 33C30 32.4477 30.4477 32 31 32H38C38.3966 32 38.7557 32.2343 38.9153 32.5973C39.075 32.9603 39.0051 33.3834 38.7372 33.6757L27.7372 45.6757C27.4482 45.9909 26.9908 46.0876 26.5991 45.9161C26.2073 45.7447 25.9679 45.3431 26.0035 44.917L26.9132 34H21.5C21.1076 34 20.7515 33.7705 20.5894 33.4132C20.4272 33.0559 20.489 32.6368 20.7474 32.3415L31.2474 20.3415C31.5318 20.0165 31.9927 19.9108 32.3903 20.0793Z" fill="currentColor"/>
</svg>
