<svg width="30" height="39" viewBox="0 0 30 39" fill="none" xmlns="http://www.w3.org/2000/svg">
<path d="M25.747 5.00926C23.4177 4.41511 20.926 4.71398 18.8114 6.04909C16.6968 7.38421 15.3552 9.50556 14.8902 11.864" stroke="black" stroke-width="2" stroke-miterlimit="10" stroke-linecap="round"/>
<path d="M25.744 5.01176C25.2789 7.37018 23.9377 9.49133 21.8231 10.8264C19.7085 12.1616 17.2164 12.4606 14.8872 11.8665" stroke="black" stroke-width="2" stroke-miterlimit="10" stroke-linecap="round"/>
<mask id="path-3-inside-1_17212_116060" fill="white">
<path fill-rule="evenodd" clip-rule="evenodd" d="M15.375 37.5342C14.547 38.1098 13.625 38.5039 12.6265 38.6784C7.51015 39.5729 2.3253 34.3652 1.04583 27.0468C-0.233642 19.7283 3.34889 15.7709 8.46524 14.8765C10.9876 14.4355 13.4119 14.8213 15.375 16.2027C17.3381 14.8213 19.7624 14.4355 22.2848 14.8765C27.4011 15.7709 30.9837 19.7283 29.7042 27.0468C28.4247 34.3652 23.2399 39.5729 18.1235 38.6784C17.125 38.5039 16.203 38.1098 15.375 37.5342Z"/>
</mask>
<path d="M15.375 37.5342L16.5167 35.8921C15.8304 35.4149 14.9197 35.4149 14.2333 35.8921L15.375 37.5342ZM12.6265 38.6784L12.2821 36.7083L12.6265 38.6784ZM8.46524 14.8765L8.12081 12.9063L8.46524 14.8765ZM15.375 16.2027L14.224 17.8383C14.9144 18.3242 15.8356 18.3242 16.526 17.8383L15.375 16.2027ZM22.2848 14.8765L22.6292 12.9063L22.2848 14.8765ZM29.7042 27.0468L27.7341 26.7023V26.7023L29.7042 27.0468ZM18.1235 38.6784L18.4679 36.7083L18.1235 38.6784ZM14.2333 35.8921C13.6292 36.3121 12.9767 36.5869 12.2821 36.7083L12.9709 40.6486C14.2732 40.4209 15.4649 39.9076 16.5167 39.1763L14.2333 35.8921ZM12.2821 36.7083C10.5444 37.0121 8.59304 36.3176 6.81466 34.5313C5.04186 32.7507 3.59377 30.0074 3.01595 26.7023L-0.924291 27.3912C-0.222648 31.4045 1.56143 34.9243 3.98002 37.3535C6.39301 39.7772 9.59228 41.2392 12.9709 40.6486L12.2821 36.7083ZM3.01595 26.7023C2.44101 23.4138 3.00016 21.159 4.00928 19.6797C5.01905 18.1995 6.66587 17.2214 8.80968 16.8466L8.12081 12.9063C5.14826 13.426 2.44564 14.8738 0.704924 17.4255C-1.03644 19.9782 -1.62883 23.3613 -0.924291 27.3912L3.01595 26.7023ZM8.80968 16.8466C10.924 16.4769 12.7822 16.8237 14.224 17.8383L16.526 14.5671C14.0416 12.8188 11.0513 12.394 8.12081 12.9063L8.80968 16.8466ZM22.6292 12.9063C19.6988 12.394 16.7085 12.8188 14.224 14.5671L16.526 17.8383C17.9678 16.8237 19.826 16.4769 21.9403 16.8466L22.6292 12.9063ZM31.6743 27.3912C32.3788 23.3613 31.7865 19.9782 30.0451 17.4255C28.3044 14.8738 25.6017 13.426 22.6292 12.9063L21.9403 16.8466C24.0841 17.2214 25.731 18.1995 26.7407 19.6797C27.7498 21.159 28.309 23.4138 27.7341 26.7023L31.6743 27.3912ZM17.7791 40.6486C21.1577 41.2392 24.357 39.7772 26.77 37.3535C29.1886 34.9243 30.9727 31.4045 31.6743 27.3912L27.7341 26.7023C27.1562 30.0074 25.7082 32.7507 23.9354 34.5313C22.157 36.3176 20.2056 37.0121 18.4679 36.7083L17.7791 40.6486ZM14.2333 39.1763C15.2851 39.9076 16.4768 40.4209 17.7791 40.6486L18.4679 36.7083C17.7733 36.5869 17.1208 36.3121 16.5167 35.8921L14.2333 39.1763Z" fill="black" mask="url(#path-3-inside-1_17212_116060)"/>
<path d="M15.3769 16.9994C15.4437 14.7056 14.2416 9.22736 8.89844 5.66406" stroke="black" stroke-width="2"/>
</svg>
