<svg width="28" height="28" viewBox="0 0 28 28" fill="none" xmlns="http://www.w3.org/2000/svg">
<path d="M3.84832 10.4664H8.2069V24.4633H3.84832V10.4664ZM6.02532 3.5C7.41401 3.5 8.54605 4.63204 8.54605 6.02073C8.54605 7.40943 7.41401 8.54605 6.02532 8.54605C4.63204 8.54147 3.5 7.41401 3.5 6.02073C3.5 4.62746 4.62746 3.5 6.02073 3.5M10.9247 10.4664H15.0954V12.3776H15.155C15.737 11.2776 17.1532 10.1181 19.2798 10.1181C23.6842 10.1181 24.5 13.0192 24.5 16.7866V24.4633H20.1506V17.6528C20.1506 16.0303 20.1231 13.9404 17.8911 13.9404C15.6591 13.9404 15.2787 15.7095 15.2787 17.5336V24.4588H10.9339V10.4618H10.9293L10.9247 10.4664Z" fill="white"/>
</svg>
