<svg width="44" height="31" viewBox="0 0 44 31" fill="none" xmlns="http://www.w3.org/2000/svg">
<path d="M35.9609 27.4539V21.4055L30.4255 15.3594H21.5758C20.8168 15.4388 18.9411 16.0126 17.5114 17.6725C15.7241 19.7473 13.418 20.8144 12.092 20.8144C10.766 20.8144 7.94106 21.4055 7.94106 24.2456C7.94106 25.6684 7.94106 26.6833 7.94106 27.4539H9.98772" stroke="black" stroke-width="2"/>
<line y1="-1" x2="4.09809" y2="-1" transform="matrix(-1 8.74225e-08 8.74225e-08 1 24.2656 27.8477)" stroke="black" stroke-width="2"/>
<circle cx="3.48748" cy="3.48748" r="2.48748" transform="matrix(-1 0 0 1 33.0469 23.9688)" stroke="black" stroke-width="2"/>
<circle cx="3.48748" cy="3.48748" r="2.48748" transform="matrix(-1 0 0 1 18.9648 23.9688)" stroke="black" stroke-width="2"/>
<path d="M7.67794 4.75297C6.62598 3.44418 7.55766 1.5 9.23681 1.5H32.4686C33.0746 1.5 33.6479 1.77473 34.0275 2.24703L38.1268 7.34719L39.2049 8.68844C40.2568 9.99722 39.3251 11.9414 37.646 11.9414H14.4142C13.8082 11.9414 13.235 11.6667 12.8553 11.1944L8.756 6.09422L7.67794 4.75297Z" stroke="black" stroke-width="2" stroke-linejoin="round"/>
<path d="M13.1172 6.48438H33.3281" stroke="black" stroke-width="2" stroke-linecap="round"/>
<path d="M17.6211 3.8125L19.6386 6.39177L22.2398 9.62805" stroke="black" stroke-width="2" stroke-linecap="round"/>
<path d="M5.12891 5.9375L3.34414 8.21926L1.04297 11.0822" stroke="black" stroke-width="2" stroke-linecap="round"/>
<path d="M25.8008 3.8125L27.8183 6.39177L30.4195 9.62805" stroke="black" stroke-width="2" stroke-linecap="round"/>
</svg>
