<svg width="21" height="40" viewBox="0 0 21 40" fill="none" xmlns="http://www.w3.org/2000/svg">
<path d="M1.06596 38.3345L1.06597 10.3594C1.06597 9.2548 1.9614 8.35937 3.06597 8.35937L17.3906 8.35937C18.4952 8.35937 19.3906 9.25481 19.3906 10.3594L19.3906 36.3345C19.3906 37.439 18.4952 38.3345 17.3906 38.3345L6.31639 38.3345" stroke="black" stroke-width="2" stroke-linecap="round"/>
<path d="M14.3359 4.52907L14.3359 2.19141C14.3359 1.63912 13.8882 1.19141 13.3359 1.19141L7.12378 1.19141C6.5715 1.19141 6.12378 1.63912 6.12378 2.19141L6.12378 4.52907" stroke="black" stroke-width="2" stroke-linecap="round"/>
<line x1="15.2617" y1="31.668" x2="5.19731" y2="31.668" stroke="black" stroke-width="2" stroke-linecap="round"/>
<line x1="15.2617" y1="20.5898" x2="5.19731" y2="20.5898" stroke="black" stroke-width="2" stroke-linecap="round"/>
<line x1="15.2617" y1="26.125" x2="5.19731" y2="26.125" stroke="black" stroke-width="2" stroke-linecap="round"/>
</svg>
