<svg xmlns="http://www.w3.org/2000/svg" class="w-full h-full" fill="none" viewBox="0 0 29 29"><g clip-path="url(#a)"><path fill="#fff" d="M14.5 4.252c3.338 0 3.733.013 5.05.073 1.22.056 1.882.259 2.322.43.583.227 1 .499 1.438.936.437.438.708.854.934 1.438.171.44.375 1.102.43 2.321.061 1.319.074 1.714.074 5.051s-.013 3.733-.073 5.05c-.056 1.22-.259 1.882-.43 2.322-.227.583-.499 1-.935 1.438a3.865 3.865 0 0 1-1.438.934c-.44.171-1.102.375-2.321.43-1.319.061-1.713.074-5.051.074s-3.733-.013-5.05-.073c-1.22-.056-1.882-.259-2.322-.43-.583-.227-1-.499-1.438-.935a3.866 3.866 0 0 1-.934-1.438c-.171-.44-.375-1.103-.43-2.321-.061-1.319-.074-1.714-.074-5.051s.013-3.733.073-5.05c.056-1.22.259-1.882.43-2.322.227-.583.499-1 .935-1.438a3.88 3.88 0 0 1 1.438-.935c.44-.171 1.102-.375 2.321-.43 1.319-.061 1.714-.074 5.051-.074ZM14.5 2c-3.395 0-3.82.015-5.153.075-1.33.06-2.24.273-3.034.581-.823.32-1.52.747-2.214 1.442a6.12 6.12 0 0 0-1.442 2.214c-.31.795-.521 1.704-.582 3.035C2.015 10.68 2 11.105 2 14.5c0 3.395.015 3.82.075 5.153.06 1.33.273 2.24.581 3.035.32.822.747 1.519 1.442 2.213a6.121 6.121 0 0 0 2.214 1.442c.794.308 1.704.52 3.034.58 1.333.061 1.758.076 5.153.076 3.395 0 3.82-.015 5.153-.075 1.33-.06 2.24-.273 3.034-.581A6.125 6.125 0 0 0 24.9 24.9a6.12 6.12 0 0 0 1.442-2.213c.308-.795.52-1.705.58-3.035.061-1.333.076-1.758.076-5.153 0-3.395-.015-3.82-.075-5.153-.06-1.33-.273-2.24-.581-3.034A6.125 6.125 0 0 0 24.9 4.098a6.12 6.12 0 0 0-2.213-1.442c-.795-.308-1.705-.52-3.035-.58C18.32 2.015 17.894 2 14.5 2Zm0 6.081a6.42 6.42 0 1 0 0 12.838 6.42 6.42 0 0 0 0-12.838Zm0 10.586a4.167 4.167 0 1 1 0-8.334 4.167 4.167 0 0 1 0 8.334Zm8.173-10.84a1.5 1.5 0 1 1-3 0 1.5 1.5 0 0 1 3 0Z"/></g><defs><clipPath id="a"><path fill="#fff" d="M2 2h25v25H2z"/></clipPath></defs></svg>