<svg width="60" height="60" viewBox="0 0 60 60" fill="none" xmlns="http://www.w3.org/2000/svg">
<path fill-rule="evenodd" clip-rule="evenodd" d="M9.50777 33.3387L19.0166 44.5925H34.8873C35.4396 44.5925 35.8873 45.0402 35.8873 45.5925C35.8873 46.1448 35.4396 46.5925 34.8873 46.5925H19.0166C18.4278 46.5925 17.8689 46.3331 17.4889 45.8833L7.90291 34.5382C7.21731 33.7268 7.21296 32.2753 8.40201 31.6545C10.4336 30.5938 12.8624 30.7762 14.6145 32.5503L19.3935 37H22V36C22 33.7909 23.7909 32 26 32H35.773C37.4492 32 39.0698 32.6015 40.3402 33.6952L51.7211 43.4937C52.5965 44.2473 52.6533 45.5836 51.8451 46.4088L44.9214 53.4778C44.1429 54.2728 42.8652 54.2794 42.0784 53.4926L39.2929 50.7071C38.9024 50.3166 38.9024 49.6834 39.2929 49.2929C39.6834 48.9024 40.3166 48.9024 40.7071 49.2929L43.4926 52.0784L50.4162 45.0094L39.0352 35.2109C38.1279 34.4297 36.9703 34 35.773 34H26C24.8954 34 24 34.8954 24 36V37H31.6421C32.1943 37 32.6421 37.4477 32.6421 38C32.6421 38.5523 32.1943 39 31.6421 39H19.3935C18.8877 39 18.4007 38.8084 18.0306 38.4638L13.2355 33.9991C13.2243 33.9887 13.2133 33.978 13.2026 33.967C12.1818 32.9248 10.8035 32.7395 9.50777 33.3387Z" fill="currentColor"/>
<path fill-rule="evenodd" clip-rule="evenodd" d="M33.306 9.86033C34.3054 10.5269 35 11.5987 35 13.0217C35 13.574 34.5523 14.0217 34 14.0217C33.4477 14.0217 33 13.574 33 13.0217C33 12.332 32.6956 11.8572 32.1963 11.5242C31.6614 11.1675 30.8832 10.9715 30.0414 11.0033C29.202 11.0351 28.4088 11.2897 27.8523 11.7029C27.3206 12.0976 27.0073 12.6264 27.0073 13.323C27.0073 14.2129 27.3379 14.7054 27.8552 15.0924C28.4537 15.5402 29.2825 15.8327 30.325 16.2006L30.3365 16.2047C31.3046 16.5464 32.4739 16.9599 33.3798 17.6923C34.359 18.4839 35 19.615 35 21.2435C35 23.6477 32.9756 25.1906 31.0212 25.7411C29.0667 26.2915 26.5327 26.0412 25.185 24.1461C24.865 23.696 24.9704 23.0717 25.4205 22.7516C25.8706 22.4316 26.4949 22.537 26.815 22.9871C27.4676 23.9049 28.9336 24.2512 30.479 23.8159C32.0246 23.3807 33 22.3555 33 21.2435C33 20.2318 32.642 19.6676 32.1224 19.2476C31.5297 18.7685 30.7009 18.4542 29.6708 18.0906C29.6195 18.0725 29.5676 18.0543 29.5152 18.0358C28.5956 17.7124 27.5066 17.3294 26.6571 16.6938C25.6758 15.9597 25.0073 14.8924 25.0073 13.323C25.0073 11.9078 25.6931 10.815 26.66 10.0971C27.6022 9.3976 28.8072 9.04859 29.9659 9.00477C31.1223 8.96103 32.3422 9.21752 33.306 9.86033Z" fill="currentColor"/>
<path fill-rule="evenodd" clip-rule="evenodd" d="M30 6C30.5523 6 31 6.44772 31 7V9C31 9.55228 30.5523 10 30 10C29.4477 10 29 9.55228 29 9V7C29 6.44772 29.4477 6 30 6Z" fill="currentColor"/>
<path fill-rule="evenodd" clip-rule="evenodd" d="M30 25C30.5523 25 31 25.4477 31 26V28C31 28.5523 30.5523 29 30 29C29.4477 29 29 28.5523 29 28V26C29 25.4477 29.4477 25 30 25Z" fill="currentColor"/>
</svg>
