<svg width="60" height="60" viewBox="0 0 60 60" fill="none" xmlns="http://www.w3.org/2000/svg">
<path fill-rule="evenodd" clip-rule="evenodd" d="M14 10H24C24.5523 10 25 10.4477 25 11V19H23V12H14V10Z" fill="currentColor"/>
<path fill-rule="evenodd" clip-rule="evenodd" d="M50 18V26C50 26.5523 49.5523 27 49 27H40V25H48V18H50Z" fill="currentColor"/>
<path fill-rule="evenodd" clip-rule="evenodd" d="M25 15V19C25 19.5523 24.5523 20 24 20H20V40H40V20H30C29.4477 20 29 19.5523 29 19C29 18.4477 29.4477 18 30 18H41C41.5523 18 42 18.4477 42 19V41C42 41.5523 41.5523 42 41 42H19C18.4477 42 18 41.5523 18 41V19C18 18.4477 18.4477 18 19 18H23V15H25Z" fill="currentColor"/>
<path fill-rule="evenodd" clip-rule="evenodd" d="M30 48V41H28V49C28 49.5523 28.4477 50 29 50H38V48H30Z" fill="currentColor"/>
<path fill-rule="evenodd" clip-rule="evenodd" d="M10 27C10 27.5523 10.4477 28 11 28H18C18.5523 28 19 27.5523 19 27C19 26.4477 18.5523 26 18 26H11C10.4477 26 10 26.4477 10 27Z" fill="currentColor"/>
<path fill-rule="evenodd" clip-rule="evenodd" d="M41 34C41 33.4477 41.4477 33 42 33H49C49.5523 33 50 33.4477 50 34C50 34.5523 49.5523 35 49 35H42C41.4477 35 41 34.5523 41 34Z" fill="currentColor"/>
<path fill-rule="evenodd" clip-rule="evenodd" d="M10 34C10 33.4477 10.4477 33 11 33H18C18.5523 33 19 33.4477 19 34C19 34.5523 18.5523 35 18 35H11C10.4477 35 10 34.5523 10 34Z" fill="currentColor"/>
<path fill-rule="evenodd" clip-rule="evenodd" d="M11 8C9.34315 8 8 9.34315 8 11C8 12.6569 9.34315 14 11 14C12.6569 14 14 12.6569 14 11C14 9.34315 12.6569 8 11 8ZM6 11C6 8.23858 8.23858 6 11 6C13.7614 6 16 8.23858 16 11C16 13.7614 13.7614 16 11 16C8.23858 16 6 13.7614 6 11Z" fill="currentColor"/>
<path fill-rule="evenodd" clip-rule="evenodd" d="M49 12C47.3431 12 46 13.3431 46 15C46 16.6569 47.3431 18 49 18C50.6569 18 52 16.6569 52 15C52 13.3431 50.6569 12 49 12ZM44 15C44 12.2386 46.2386 10 49 10C51.7614 10 54 12.2386 54 15C54 17.7614 51.7614 20 49 20C46.2386 20 44 17.7614 44 15Z" fill="currentColor"/>
<path fill-rule="evenodd" clip-rule="evenodd" d="M41 46C39.3431 46 38 47.3431 38 49C38 50.6569 39.3431 52 41 52C42.6569 52 44 50.6569 44 49C44 47.3431 42.6569 46 41 46ZM36 49C36 46.2386 38.2386 44 41 44C43.7614 44 46 46.2386 46 49C46 51.7614 43.7614 54 41 54C38.2386 54 36 51.7614 36 49Z" fill="currentColor"/>
</svg>
