<svg width="28" height="28" viewBox="0 0 28 28" fill="none" xmlns="http://www.w3.org/2000/svg">
<path d="M5.28845 10.769H8.89784V22.36H5.28845V10.769ZM7.09124 5C8.24124 5 9.17869 5.93746 9.17869 7.08745C9.17869 8.23745 8.24124 9.1787 7.09124 9.1787C5.93745 9.1749 5 8.24124 5 7.08745C5 5.93366 5.93366 5 7.08745 5M11.1485 10.769H14.6023V12.3516H14.6516C15.1336 11.4407 16.3064 10.4805 18.0674 10.4805C21.7148 10.4805 22.3903 12.883 22.3903 16.0028V22.36H18.7886V16.7201C18.7886 15.3765 18.7658 13.6458 16.9174 13.6458C15.0691 13.6458 14.7541 15.1109 14.7541 16.6214V22.3562H11.1561V10.7652H11.1523L11.1485 10.769Z" fill="currentColor"/>
</svg>
