<svg class="h-full w-full" viewBox="0 0 30 30" fill="none" xmlns="http://www.w3.org/2000/svg">
<path d="M6.46497 12.0445H10.1295V23.8125H6.46497V12.0445ZM8.29529 6.1875C9.46284 6.1875 10.4146 7.13927 10.4146 8.30682C10.4146 9.47437 9.46284 10.43 8.29529 10.43C7.12388 10.4261 6.17212 9.47822 6.17212 8.30682C6.17212 7.13541 7.12003 6.1875 8.29144 6.1875M12.4145 12.0445H15.921V13.6513H15.9711C16.4604 12.7266 17.6511 11.7517 19.439 11.7517C23.1421 11.7517 23.8279 14.1908 23.8279 17.3582V23.8125H20.1712V18.0865C20.1712 16.7224 20.148 14.9653 18.2715 14.9653C16.3949 14.9653 16.0751 16.4527 16.0751 17.9863V23.8086H12.4222V12.0407H12.4183L12.4145 12.0445Z" fill="currentColor"/>
</svg>
