<svg width="42" height="42" viewBox="0 0 42 42" fill="none" xmlns="http://www.w3.org/2000/svg">
<path d="M6.69632 15.8649H12.7291V35.2723H6.69632V15.8649ZM9.71373 6.2177C11.6415 6.2177 13.2085 7.78598 13.2085 9.71775C13.2085 11.6495 11.6415 13.2122 9.71373 13.2122C7.78598 13.2122 6.2177 11.6479 6.2177 9.71775C6.2177 7.78759 7.78035 6.2177 9.71373 6.2177Z" stroke="currentColor" stroke-width="2"/>
<path d="M16.5137 15.8628H22.3006V18.5179H22.3835C23.1881 16.9907 25.1561 15.3837 28.0898 15.3837C34.1983 15.3837 35.3262 19.4019 35.3262 24.626V35.2702H29.2966V25.8324C29.2966 23.5818 29.258 20.6851 26.1609 20.6851C23.0638 20.6851 22.5437 23.1398 22.5437 25.671V35.2702H16.5141L16.5137 15.8628Z" stroke="currentColor" stroke-width="2"/>
<path d="M1 3C1 1.89543 1.89543 1 3 1H39C40.1046 1 41 1.89543 41 3V39C41 40.1046 40.1046 41 39 41H3C1.89543 41 1 40.1046 1 39V3Z" stroke="currentColor" stroke-width="2"/>
</svg>
