<svg width="60" height="60" viewBox="0 0 60 60" fill="none" xmlns="http://www.w3.org/2000/svg">
<path fill-rule="evenodd" clip-rule="evenodd" d="M29.5 6.13397C29.8094 5.95534 30.1906 5.95534 30.5 6.13397L50.4186 17.634C50.728 17.8126 50.9186 18.1427 50.9186 18.5V35C50.9186 35.5523 50.4709 36 49.9186 36C49.3663 36 48.9186 35.5523 48.9186 35V19.0774L30 8.1547L11.0814 19.0773V40.9226L30 51.8453L49.4186 40.634C49.8969 40.3578 50.5085 40.5217 50.7846 41C51.0608 41.4783 50.8969 42.0899 50.4186 42.366L30.5 53.866C30.1906 54.0447 29.8094 54.0447 29.5 53.866L9.58141 42.366C9.27201 42.1874 9.08141 41.8573 9.08141 41.5V18.5C9.08141 18.1427 9.27201 17.8126 9.58141 17.634L29.5 6.13397Z" fill="currentColor"/>
<path fill-rule="evenodd" clip-rule="evenodd" d="M30 21C25.0294 21 21 25.0294 21 30C21 34.9706 25.0294 39 30 39C34.9706 39 39 34.9706 39 30C39 25.0294 34.9706 21 30 21ZM19 30C19 23.9249 23.9249 19 30 19C36.0751 19 41 23.9249 41 30C41 36.0751 36.0751 41 30 41C23.9249 41 19 36.0751 19 30Z" fill="currentColor"/>
</svg>
