<svg width="60" height="60" viewBox="0 0 60 60" fill="none" xmlns="http://www.w3.org/2000/svg">
<path fill-rule="evenodd" clip-rule="evenodd" d="M28.7211 10.278C29.0528 9.96014 29.5585 9.90918 29.947 10.1545L50.5339 23.1545C50.9104 23.3922 51.0843 23.8502 50.9606 24.2779C50.8369 24.7056 50.4452 25 50 25H11C10.6145 25 10.2633 24.7784 10.0974 24.4305C9.93144 24.0825 9.98028 23.6702 10.2229 23.3706L17.4621 14.4331C17.7676 14.0559 18.3 13.9526 18.7244 14.1882L22.471 16.2678L28.7211 10.278ZM29.5403 12.2631L23.3223 18.222C23.0058 18.5254 22.5285 18.5872 22.1451 18.3744L18.4878 16.3443L13.0968 23H46.5435L29.5403 12.2631Z" fill="black"/>
<path fill-rule="evenodd" clip-rule="evenodd" d="M17 40C14.7909 40 13 41.7909 13 44C13 46.2091 14.7909 48 17 48C19.2091 48 21 46.2091 21 44C21 41.7909 19.2091 40 17 40ZM11 44C11 40.6863 13.6863 38 17 38C20.3137 38 23 40.6863 23 44C23 47.3137 20.3137 50 17 50C13.6863 50 11 47.3137 11 44Z" fill="black"/>
<path fill-rule="evenodd" clip-rule="evenodd" d="M43 40C40.7909 40 39 41.7909 39 44C39 46.2091 40.7909 48 43 48C45.2091 48 47 46.2091 47 44C47 41.7909 45.2091 40 43 40ZM37 44C37 40.6863 39.6863 38 43 38C46.3137 38 49 40.6863 49 44C49 47.3137 46.3137 50 43 50C39.6863 50 37 47.3137 37 44Z" fill="black"/>
<path fill-rule="evenodd" clip-rule="evenodd" d="M6.15838 23.4599C6.3423 23.1733 6.65945 23 7 23H53C53.3406 23 53.6577 23.1733 53.8416 23.4599C54.0255 23.7466 54.051 24.1071 53.9091 24.4167L48.4091 36.4167C48.179 36.9187 47.5854 37.1392 47.0833 36.9091C46.5813 36.679 46.3608 36.0854 46.5909 35.5833L51.4416 25H8.55837L13.4091 35.5833C13.6392 36.0854 13.4187 36.679 12.9167 36.9091C12.4146 37.1392 11.821 36.9187 11.5909 36.4167L6.09094 24.4167C5.94904 24.1071 5.97446 23.7466 6.15838 23.4599Z" fill="black"/>
<path fill-rule="evenodd" clip-rule="evenodd" d="M25 44C25 43.4477 25.4477 43 26 43H34C34.5523 43 35 43.4477 35 44C35 44.5523 34.5523 45 34 45H26C25.4477 45 25 44.5523 25 44Z" fill="black"/>
</svg>
