<svg width="60" height="60" viewBox="0 0 60 60" fill="none" xmlns="http://www.w3.org/2000/svg">
<path fill-rule="evenodd" clip-rule="evenodd" d="M48.3704 31.818C48.9133 31.9195 49.2711 32.442 49.1695 32.9848C47.1315 43.878 36.6487 51.0565 25.7555 49.0185C18.323 47.628 12.6214 42.3059 10.3953 35.6091C10.2211 35.085 10.5047 34.5189 11.0288 34.3447C11.5529 34.1705 12.119 34.4541 12.2932 34.9782C14.2992 41.0129 19.4341 45.8011 26.1233 47.0526C35.9307 48.8875 45.3687 42.4245 47.2036 32.617C47.3052 32.0742 47.8276 31.7164 48.3704 31.818Z" fill="black"/>
<path fill-rule="evenodd" clip-rule="evenodd" d="M11.6791 26.7464C11.1362 26.6448 10.7784 26.1224 10.88 25.5795C12.918 14.6863 23.4008 7.50782 34.294 9.54583C41.7265 10.9364 47.4281 16.2584 49.6542 22.9553C49.8284 23.4793 49.5448 24.0454 49.0207 24.2196C48.4966 24.3939 47.9305 24.1102 47.7563 23.5861C45.7503 17.5515 40.6154 12.7632 33.9262 11.5117C24.1188 9.67684 14.6808 16.1399 12.8459 25.9473C12.7443 26.4902 12.2219 26.8479 11.6791 26.7464Z" fill="black"/>
<path fill-rule="evenodd" clip-rule="evenodd" d="M41.0109 35.7527C40.7091 35.2902 40.8393 34.6706 41.3018 34.3688L48.0015 29.9967C48.464 29.6948 49.0836 29.8251 49.3854 30.2876L53.7575 36.9872C54.0593 37.4497 53.9291 38.0694 53.4666 38.3712C53.0041 38.673 52.3844 38.5428 52.0826 38.0802L48.257 32.2181L42.3949 36.0437C41.9324 36.3455 41.3127 36.2152 41.0109 35.7527Z" fill="black"/>
<path fill-rule="evenodd" clip-rule="evenodd" d="M19.0392 23.3202C19.3153 23.7985 19.1515 24.4101 18.6732 24.6862L11.745 28.6862C11.2667 28.9624 10.6551 28.7985 10.3789 28.3202L6.37893 21.392C6.10279 20.9137 6.26666 20.3021 6.74496 20.026C7.22325 19.7498 7.83484 19.9137 8.11098 20.392L11.611 26.4542L17.6732 22.9542C18.1515 22.678 18.763 22.8419 19.0392 23.3202Z" fill="black"/>
</svg>
