<svg width="60" height="60" viewBox="0 0 60 60" fill="none" xmlns="http://www.w3.org/2000/svg">
<path fill-rule="evenodd" clip-rule="evenodd" d="M23.7145 32.2215C22.6743 33.6618 22 35.7016 22 38C22 40.2984 22.6743 42.3382 23.7145 43.7785C24.7556 45.22 26.1069 46 27.5 46C28.8931 46 30.2444 45.22 31.2855 43.7785C32.3257 42.3382 33 40.2984 33 38C33 35.7016 32.3257 33.6618 31.2855 32.2215C30.2444 30.78 28.8931 30 27.5 30C26.1069 30 24.7556 30.78 23.7145 32.2215ZM22.0931 31.0505C23.4045 29.2348 25.3032 28 27.5 28C29.6968 28 31.5955 29.2348 32.9069 31.0505C34.2192 32.8677 35 35.3279 35 38C35 40.6721 34.2192 43.1323 32.9069 44.9495C31.5955 46.7652 29.6968 48 27.5 48C25.3032 48 23.4045 46.7652 22.0931 44.9495C20.7808 43.1323 20 40.6721 20 38C20 35.3279 20.7808 32.8677 22.0931 31.0505Z" fill="black"/>
<path fill-rule="evenodd" clip-rule="evenodd" d="M20.5 14C19.1864 14 17.9135 14.6917 16.8981 15.9783C16.556 16.4118 15.9272 16.4859 15.4936 16.1437C15.0601 15.8016 14.986 15.1727 15.3282 14.7392C16.6252 13.0959 18.4322 12 20.5 12C22.6968 12 24.5955 13.2348 25.9069 15.0505C27.2192 16.8677 28 19.3279 28 22C28 24.6721 27.2192 27.1323 25.9069 28.9495C24.5955 30.7652 22.6968 32 20.5 32C18.3032 32 16.4045 30.7652 15.0931 28.9495C13.7808 27.1323 13 24.6721 13 22C13 21.4477 13.4477 21 14 21C14.5523 21 15 21.4477 15 22C15 24.2984 15.6743 26.3382 16.7145 27.7785C17.7556 29.22 19.1069 30 20.5 30C21.8931 30 23.2444 29.22 24.2855 27.7785C25.3257 26.3382 26 24.2984 26 22C26 19.7016 25.3257 17.6618 24.2855 16.2215C23.2444 14.78 21.8931 14 20.5 14Z" fill="black"/>
<path fill-rule="evenodd" clip-rule="evenodd" d="M9.71449 32.2215C8.67431 33.6618 8 35.7016 8 38C8 40.2984 8.67431 42.3382 9.71449 43.7785C10.7556 45.22 12.1069 46 13.5 46C14.8931 46 16.2444 45.22 17.2855 43.7785C18.3257 42.3382 19 40.2984 19 38C19 35.7016 18.3257 33.6618 17.2855 32.2215C16.2444 30.78 14.8931 30 13.5 30C12.1069 30 10.7556 30.78 9.71449 32.2215ZM8.09313 31.0505C9.40453 29.2348 11.3032 28 13.5 28C15.6968 28 17.5955 29.2348 18.9069 31.0505C20.2192 32.8677 21 35.3279 21 38C21 40.6721 20.2192 43.1323 18.9069 44.9495C17.5955 46.7652 15.6968 48 13.5 48C11.3032 48 9.40453 46.7652 8.09313 44.9495C6.78077 43.1323 6 40.6721 6 38C6 35.3279 6.78077 32.8677 8.09313 31.0505Z" fill="black"/>
<path fill-rule="evenodd" clip-rule="evenodd" d="M28 28H46.4783C48.6796 28 50.5836 29.2332 51.8996 31.0493C53.2164 32.8665 54 35.3271 54 38C54 40.6729 53.2164 43.1335 51.8996 44.9507C50.5836 46.7668 48.6796 48 46.4783 48H28.5435V46H46.4783C47.8788 46 49.2356 45.2185 50.2801 43.7772C51.3237 42.337 52 40.2977 52 38C52 35.7023 51.3237 33.663 50.2801 32.2228C49.2356 30.7815 47.8788 30 46.4783 30H28V28Z" fill="black"/>
<path fill-rule="evenodd" clip-rule="evenodd" d="M20 13C20 12.4477 20.4477 12 21 12H38.4545C40.6428 12 42.5514 13.1727 43.8799 14.9255C45.2078 16.6776 46 19.0536 46 21.6363C46 24.9976 44.6539 28.0356 42.5061 29.7768C42.077 30.1246 41.4473 30.0588 41.0995 29.6297C40.7517 29.2007 40.8175 28.571 41.2466 28.2232C42.8467 26.926 44 24.5046 44 21.6363C44 19.4494 43.327 17.5072 42.2859 16.1335C41.2453 14.7606 39.8812 14 38.4545 14H21C20.4477 14 20 13.5523 20 13Z" fill="black"/>
<path fill-rule="evenodd" clip-rule="evenodd" d="M26 18C26 17.4477 26.4477 17 27 17L36 17C36.5523 17 37 17.4477 37 18C37 18.5523 36.5523 19 36 19L27 19C26.4477 19 26 18.5523 26 18Z" fill="black"/>
<path fill-rule="evenodd" clip-rule="evenodd" d="M33 40C33 39.4477 33.4477 39 34 39H43C43.5523 39 44 39.4477 44 40C44 40.5523 43.5523 41 43 41H34C33.4477 41 33 40.5523 33 40Z" fill="black"/>
<path fill-rule="evenodd" clip-rule="evenodd" d="M37 24C37 23.4477 37.4477 23 38 23H44C44.5523 23 45 23.4477 45 24C45 24.5523 44.5523 25 44 25H38C37.4477 25 37 24.5523 37 24Z" fill="black"/>
<path fill-rule="evenodd" clip-rule="evenodd" d="M41 35C41 34.4477 41.4477 34 42 34H52C52.5523 34 53 34.4477 53 35C53 35.5523 52.5523 36 52 36H42C41.4477 36 41 35.5523 41 35Z" fill="black"/>
<path fill-rule="evenodd" clip-rule="evenodd" d="M13 47C13 46.4477 13.4477 46 14 46L32 46C32.5523 46 33 46.4477 33 47C33 47.5523 32.5523 48 32 48L14 48C13.4477 48 13 47.5523 13 47Z" fill="black"/>
</svg>
