<svg width="60" height="60" viewBox="0 0 60 60" fill="none" xmlns="http://www.w3.org/2000/svg">
<path fill-rule="evenodd" clip-rule="evenodd" d="M29.0292 20C29.3526 19.9978 29.6571 20.1521 29.8466 20.4142C30.178 20.8726 30.606 21.4045 31.1027 22.0219C31.2524 22.2079 31.4082 22.4016 31.5696 22.6034C32.2537 23.459 33.0118 24.4306 33.7165 25.4712C35.1039 27.52 36.3906 29.9856 36.3906 32.5072C36.3906 34.7601 35.6852 36.6567 34.3504 37.9922C33.0167 39.3267 31.1552 40 29.0362 40C27.0251 40 25.248 39.2322 23.9784 37.8787C22.7121 36.5288 22.0004 34.6513 22 32.5074C21.9996 30.1713 23.1669 27.7691 24.4553 25.7132C25.3217 24.3307 26.3301 22.9793 27.1671 21.8577C27.5681 21.3203 27.9298 20.8356 28.2176 20.4255C28.4035 20.1608 28.7058 20.0023 29.0292 20ZM29.0583 22.6696C28.9371 22.8325 28.8132 22.9983 28.687 23.1672C27.8782 24.2494 26.9783 25.4536 26.1501 26.7752C24.897 28.7747 23.9997 30.7676 24 32.507C24.0003 34.2055 24.5591 35.5744 25.437 36.5104C26.3116 37.4426 27.5523 38 29.0362 38C30.7298 38 32.0455 37.4692 32.9358 36.5784C33.8251 35.6886 34.3906 34.3389 34.3906 32.5072C34.3906 30.6137 33.4002 28.571 32.0605 26.5926C31.4016 25.6196 30.6836 24.6979 30.0075 23.8523C29.8599 23.6678 29.7131 23.4853 29.5688 23.306C29.3938 23.0886 29.2226 22.8758 29.0583 22.6696Z" fill="currentColor"/>
<path fill-rule="evenodd" clip-rule="evenodd" d="M39 46H14V44H39C39.5523 44 40 44.4477 40 45C40 45.5523 39.5523 46 39 46Z" fill="currentColor"/>
<path fill-rule="evenodd" clip-rule="evenodd" d="M20 14L45 14L45 16L20 16C19.4477 16 19 15.5523 19 15C19 14.4477 19.4477 14 20 14Z" fill="currentColor"/>
<path fill-rule="evenodd" clip-rule="evenodd" d="M10 8.09298C10 6.94116 10.9308 6 12.0882 6H46.9118C48.0692 6 49 6.94116 49 8.09298V13.9855C49 15.1374 48.0692 16.0785 46.9118 16.0785H46V44.0165H46.9118C48.0488 44.0165 49 44.9501 49 46.1095V51.907C49 53.0588 48.0692 54 46.9118 54H12.0882C10.9308 54 10 53.0588 10 51.907V46.1095C10 44.9577 10.9308 44.0165 12.0882 44.0165H13V16.0785H12.0882C10.9308 16.0785 10 15.1374 10 13.9855V8.09298ZM12.0882 8C12.0436 8 12 8.03752 12 8.09298V13.9855C12 14.041 12.0436 14.0785 12.0882 14.0785H14C14.5523 14.0785 15 14.5262 15 15.0785V45.0165C15 45.5688 14.5523 46.0165 14 46.0165H12.0882C12.0436 46.0165 12 46.054 12 46.1095V51.907C12 51.9625 12.0436 52 12.0882 52H46.9118C46.9564 52 47 51.9625 47 51.907V46.1095C47 46.0898 46.9927 46.067 46.9707 46.0451C46.9476 46.022 46.9248 46.0165 46.9118 46.0165H45C44.4477 46.0165 44 45.5688 44 45.0165V15.0785C44 14.5262 44.4477 14.0785 45 14.0785H46.9118C46.9564 14.0785 47 14.041 47 13.9855V8.09298C47 8.03753 46.9564 8 46.9118 8H12.0882Z" fill="currentColor"/>
</svg>
