<svg width="60" height="60" viewBox="0 0 60 60" fill="none" xmlns="http://www.w3.org/2000/svg">
<path fill-rule="evenodd" clip-rule="evenodd" d="M11 10C11 9.44772 11.4477 9 12 9H20.4706C21.0229 9 21.4706 9.44772 21.4706 10C21.4706 10.5523 21.0229 11 20.4706 11H13V52H47V11H39.5294C38.9771 11 38.5294 10.5523 38.5294 10C38.5294 9.44772 38.9771 9 39.5294 9H48C48.5523 9 49 9.44772 49 10V53C49 53.5523 48.5523 54 48 54H12C11.4477 54 11 53.5523 11 53V10Z" fill="currentColor"/>
<path fill-rule="evenodd" clip-rule="evenodd" d="M43 9C43.5523 9 44 9.44772 44 10V48C44 48.5523 43.5523 49 43 49H17C16.4477 49 16 48.5523 16 48V16C16 15.4477 16.4477 15 17 15C17.5523 15 18 15.4477 18 16V47H42V10C42 9.44772 42.4477 9 43 9Z" fill="currentColor"/>
<path fill-rule="evenodd" clip-rule="evenodd" d="M20 7C20 6.44772 20.4477 6 21 6H39C39.5523 6 40 6.44772 40 7V13C40 13.5523 39.5523 14 39 14H21C20.4477 14 20 13.5523 20 13V7ZM22 8V12H38V8H22Z" fill="currentColor"/>
<path fill-rule="evenodd" clip-rule="evenodd" d="M38.6247 17.2191C39.056 17.5641 39.1259 18.1934 38.7809 18.6247L34.7809 23.6247C34.6084 23.8403 34.3543 23.975 34.079 23.9969C33.8037 24.0187 33.5317 23.9257 33.3273 23.7399L31.3273 21.9218C30.9187 21.5503 30.8886 20.9178 31.2601 20.5091C31.6316 20.1005 32.264 20.0704 32.6727 20.4419L33.8845 21.5436L37.2191 17.3753C37.5641 16.944 38.1934 16.8741 38.6247 17.2191Z" fill="currentColor"/>
<path fill-rule="evenodd" clip-rule="evenodd" d="M38.6247 26.2191C39.056 26.5641 39.1259 27.1934 38.7809 27.6247L34.7809 32.6247C34.6084 32.8403 34.3543 32.975 34.079 32.9969C33.8037 33.0187 33.5317 32.9257 33.3273 32.7399L31.3273 30.9218C30.9187 30.5503 30.8886 29.9178 31.2601 29.5091C31.6316 29.1005 32.264 29.0704 32.6727 29.4419L33.8845 30.5436L37.2191 26.3753C37.5641 25.944 38.1934 25.8741 38.6247 26.2191Z" fill="currentColor"/>
<path fill-rule="evenodd" clip-rule="evenodd" d="M38.6247 35.2191C39.056 35.5641 39.1259 36.1934 38.7809 36.6247L34.7809 41.6247C34.6084 41.8403 34.3543 41.975 34.079 41.9969C33.8037 42.0187 33.5317 41.9257 33.3273 41.7399L31.3273 39.9218C30.9187 39.5503 30.8886 38.9178 31.2601 38.5091C31.6316 38.1005 32.264 38.0704 32.6727 38.4419L33.8845 39.5436L37.2191 35.3753C37.5641 34.944 38.1934 34.8741 38.6247 35.2191Z" fill="currentColor"/>
</svg>
