<svg width="60" height="60" viewBox="0 0 60 60" fill="none" xmlns="http://www.w3.org/2000/svg">
<path fill-rule="evenodd" clip-rule="evenodd" d="M43.344 6.18374C43.5841 6.3431 43.7437 6.59827 43.782 6.88385L44.8134 14.5671C44.886 15.1079 44.5116 15.6071 43.9721 15.6888C39.7188 16.3334 35.4314 18.3069 31.3848 20.9064C30.9201 21.2049 30.3015 21.0702 30.003 20.6055C29.7045 20.1409 29.8392 19.5222 30.3039 19.2237C34.1894 16.7277 38.404 14.7133 42.7031 13.879L41.9573 8.32339C41.9494 8.32603 41.9415 8.32868 41.9335 8.33136C41.2019 8.5758 40.1444 8.95487 38.8551 9.48939C36.2747 10.5591 32.7753 12.2476 29.1045 14.7188C22.725 19.0135 15.873 25.6391 12.3744 35.46C12.7739 34.9918 13.2077 34.4917 13.6736 33.966C16.4445 30.839 20.3609 26.7881 24.9279 23.1184C25.1456 22.9435 25.4265 22.8676 25.7026 22.909C25.9787 22.9504 26.225 23.1054 26.3818 23.3364L45.4655 51.4583L49.2026 48.8987L33.2866 25.4448C32.9765 24.9878 33.0955 24.366 33.5525 24.0558C34.0095 23.7457 34.6314 23.8648 34.9415 24.3218L51.4102 48.59L51.4102 48.5901L51.4167 48.5997C51.7258 49.0553 51.6085 49.6751 51.1543 49.9862L45.767 53.6758C45.5476 53.8261 45.2774 53.8828 45.016 53.8334C44.7547 53.7839 44.5239 53.6324 44.3745 53.4123L25.3402 25.3633C21.2474 28.7535 17.7227 32.4122 15.1705 35.2924C13.8092 36.8286 12.7279 38.1396 11.9881 39.065C11.6183 39.5276 11.334 39.8935 11.143 40.1428C11.0475 40.2674 10.9753 40.3628 10.9274 40.4265L10.8739 40.4979L10.8611 40.5152L10.8582 40.5192L10.8576 40.5199C10.8576 40.5199 10.8576 40.52 10.8575 40.52C10.577 40.9 10.0688 41.0318 9.63894 40.8362C9.209 40.6405 8.97459 40.1707 9.07681 39.7096C11.9824 26.6013 20.3797 18.1814 27.9875 13.0597C31.7931 10.4978 35.4162 8.75001 38.0892 7.64187C39.4265 7.08744 40.5284 6.69214 41.2996 6.43445C41.6853 6.30559 41.9884 6.21106 42.1972 6.14821C42.3016 6.11678 42.3824 6.09326 42.4381 6.07732L42.5028 6.05904L42.5207 6.05409L42.5259 6.05264L42.5276 6.05218C42.5282 6.05202 42.5287 6.05188 42.7909 7.01689L42.5287 6.05188C42.8068 5.97633 43.1039 6.02438 43.344 6.18374Z" fill="black"/>
</svg>
