<svg width="60" height="60" viewBox="0 0 60 60" fill="none" xmlns="http://www.w3.org/2000/svg">
<path fill-rule="evenodd" clip-rule="evenodd" d="M29.3631 7.22904C29.7328 6.92365 30.2672 6.92365 30.6369 7.22904L53.6369 26.229C53.9621 26.4977 54.0838 26.9415 53.941 27.3384C53.7983 27.7353 53.4218 28 53 28H48.037V45C48.037 45.5523 47.5893 46 47.037 46C46.4848 46 46.037 45.5523 46.037 45V27C46.037 26.4477 46.4848 26 47.037 26H50.2193L30 9.29708L9.78065 26H13.8148C14.3671 26 14.8148 26.4477 14.8148 27L14.8148 50H47.037C47.5893 50 48.037 50.4477 48.037 51C48.037 51.5523 47.5893 52 47.037 52H13.8148C13.2625 52 12.8148 51.5523 12.8148 51L12.8148 28H6.99997C6.57816 28 6.20171 27.7353 6.05897 27.3384C5.91623 26.9415 6.03789 26.4977 6.36309 26.229L29.3631 7.22904Z" fill="currentColor"/>
<path fill-rule="evenodd" clip-rule="evenodd" d="M33.2796 24.7972C34.2738 25.4161 35 26.4355 35 27.8202C35 28.3725 34.5523 28.8202 34 28.8202C33.4477 28.8202 33 28.3725 33 27.8202C33 27.2331 32.7271 26.8091 32.2227 26.4951C31.683 26.1592 30.8936 25.973 30.0389 26.0032C29.1864 26.0333 28.3844 26.2748 27.8257 26.6619C27.2911 27.0324 27.0073 27.5055 27.0073 28.1015C27.0073 28.8797 27.3102 29.3183 27.8287 29.6804C28.4291 30.0996 29.2624 30.3741 30.3047 30.7175L30.3165 30.7214C31.2835 31.0399 32.4488 31.4244 33.3535 32.1071C34.3349 32.8476 35 33.9258 35 35.494C35 37.824 32.9155 39.258 31.0043 39.7604C29.076 40.2673 26.5597 40.0468 25.2046 38.2682C24.8699 37.8289 24.9547 37.2014 25.394 36.8667C25.8333 36.532 26.4607 36.6168 26.7954 37.0561C27.4406 37.903 28.9243 38.2392 30.4959 37.8261C32.0846 37.4085 33 36.4457 33 35.494C33 34.5979 32.6661 34.0939 32.1488 33.7036C31.5549 33.2554 30.722 32.9606 29.6908 32.6209C29.6394 32.604 29.5875 32.587 29.535 32.5697C28.6158 32.268 27.5312 31.9119 26.6837 31.3202C25.7035 30.6358 25.0073 29.6186 25.0073 28.1015C25.0073 26.7265 25.7226 25.6861 26.6866 25.018C27.6265 24.3667 28.8227 24.0449 29.9684 24.0044C31.1118 23.9641 32.3206 24.2002 33.2796 24.7972Z" fill="currentColor"/>
<path fill-rule="evenodd" clip-rule="evenodd" d="M30 21C30.5523 21 31 21.4477 31 22V23.9248C31 24.4771 30.5523 24.9248 30 24.9248C29.4477 24.9248 29 24.4771 29 23.9248V22C29 21.4477 29.4477 21 30 21Z" fill="currentColor"/>
<path fill-rule="evenodd" clip-rule="evenodd" d="M30 39C30.5523 39 31 39.4477 31 40V42C31 42.5523 30.5523 43 30 43C29.4477 43 29 42.5523 29 42V40C29 39.4477 29.4477 39 30 39Z" fill="currentColor"/>
</svg>
