<svg width="160" height="12" viewBox="20 0 180 12" fill="none" xmlns="http://www.w3.org/2000/svg">
<g id="rope">
<path id="Vector" d="M219.067 10.3929L218.47 10.6299L218.47 10.63L218.353 10.4624L218.289 10.6312C217.823 10.4533 217.39 10.2368 216.994 9.98429L216.994 9.98428C216.081 9.40287 215.365 8.63293 214.873 7.71071C214.873 7.7107 214.873 7.71069 214.873 7.71068L215.094 7.5931C215.004 7.42496 214.911 7.23743 214.812 7.0392L219.067 10.3929ZM219.067 10.3929L218.807 10.2938M219.067 10.3929L218.807 10.2938M203.72 1.40965C203.615 1.42693 203.376 1.49406 203.162 1.55472C203.118 1.56726 203.074 1.57968 203.032 1.5917C202.856 1.64189 202.705 1.68499 202.639 1.70028L201.731 1.91L202.622 2.1829L203.78 2.53763L203.839 2.55564L203.899 2.54432C206.173 2.11854 207.723 2.21114 209.353 2.56807L209.353 2.56807C210.907 2.90856 212.15 3.61743 213.065 4.70372L213.065 4.70373C213.8 5.57616 214.224 6.42301 214.584 7.14338L214.588 7.15062C214.588 7.15069 214.588 7.15076 214.588 7.15084L203.761 1.65632M203.72 1.40965C203.72 1.40964 203.72 1.40964 203.72 1.40963L203.761 1.65632M203.72 1.40965C203.72 1.40966 203.72 1.40966 203.72 1.40967L203.761 1.65632M203.72 1.40965C205.972 1.03726 207.976 1.02562 209.695 1.40208L209.695 1.40209C211.55 1.8085 213.063 2.66221 214.182 3.99037M203.761 1.65632C205.992 1.2874 207.962 1.27851 209.642 1.6463C211.45 2.04266 212.912 2.87123 213.99 4.15143M214.182 3.99037L213.99 4.15143M214.182 3.99037C215.019 4.98491 215.483 5.91545 215.857 6.66637L215.858 6.66872L215.859 6.6704C215.951 6.8588 216.039 7.03437 216.129 7.20261L216.129 7.2027C216.52 7.93733 217.088 8.55053 217.817 9.01451C218.167 9.23758 218.557 9.42699 218.985 9.57921L219.337 9.70425L219.087 9.98182L218.807 10.2938M214.182 3.99037C214.182 3.99037 214.182 3.99037 214.182 3.99038L213.99 4.15143M213.99 4.15143L218.807 10.2938M202.695 1.94387L202.769 1.70483L203.144 1.81983C203.131 1.82352 203.118 1.8272 203.105 1.83085C202.929 1.88121 202.768 1.92698 202.695 1.94387ZM202.695 1.94387L202.752 2.18745C202.826 2.17026 202.978 2.1271 203.141 2.08053L202.695 1.94387Z" fill="#1C2445" stroke="#1C2445" stroke-width="0.5"/>
<path id="Vector_2" d="M195.009 1.84524L194.975 1.70028C195.041 1.68499 195.192 1.64189 195.368 1.5917C195.41 1.57968 195.454 1.56726 195.498 1.55472C195.712 1.49406 195.951 1.42693 196.056 1.40965M195.009 1.84524L207.209 7.71068C207.209 7.71069 207.209 7.7107 207.209 7.71071C207.701 8.63293 208.417 9.40288 209.33 9.98428L209.33 9.9843C210.226 10.5546 211.304 10.941 212.538 11.1148C213.874 11.3034 215.027 11.3466 215.983 11.2793C217.096 11.201 218.015 10.8869 218.604 10.5538L219.041 10.3065L218.58 10.1068L217.769 9.75546L217.675 9.71482L217.579 9.7516C217.081 9.94381 216.766 10.0181 215.872 10.081C215.037 10.1399 213.999 10.1003 212.76 9.92562C211.737 9.78132 210.863 9.46671 210.153 9.01447C209.424 8.5505 208.856 7.93731 208.465 7.2027L208.465 7.20261C208.375 7.03437 208.287 6.8588 208.195 6.6704L208.195 6.66872L208.193 6.66637C207.819 5.91545 207.355 4.98491 206.518 3.99037C205.399 2.66221 203.886 1.8085 202.031 1.40209L202.031 1.40208C200.312 1.02562 198.308 1.03726 196.056 1.40965M195.009 1.84524L194.958 2.1829L196.116 2.53763L196.175 2.55564L196.235 2.54432C198.509 2.11854 200.059 2.21114 201.688 2.56807L201.688 2.56807C203.243 2.90856 204.486 3.61743 205.401 4.70372L205.401 4.70373C206.136 5.57622 206.56 6.42315 206.92 7.14355L206.924 7.15062L195.009 1.84524ZM196.056 1.40965C196.056 1.40964 196.056 1.40964 196.056 1.40963L196.097 1.65632M196.056 1.40965C196.056 1.40966 196.056 1.40966 196.056 1.40967L196.097 1.65632M196.097 1.65632C195.999 1.67247 195.729 1.74891 195.48 1.81984L196.097 1.65632Z" fill="#1C2445" stroke="#1C2445" stroke-width="0.5"/>
<path id="Vector_3" d="M187.352 1.84518L187.319 1.70028C187.385 1.68499 187.536 1.64189 187.712 1.5917C187.754 1.57968 187.798 1.56726 187.842 1.55472C188.055 1.49406 188.295 1.42693 188.4 1.40965M187.352 1.84518L199.553 7.71068C199.553 7.71069 199.553 7.7107 199.553 7.71071C200.044 8.63293 200.76 9.40288 201.673 9.98428L201.673 9.9843C202.569 10.5546 203.648 10.941 204.882 11.1148C206.218 11.3034 207.371 11.3466 208.327 11.2793C209.44 11.201 210.358 10.8869 210.947 10.5538L211.385 10.3065L210.924 10.1068L210.112 9.75546L210.019 9.71482L209.923 9.7516C209.424 9.94381 209.11 10.0181 208.216 10.081C207.381 10.1399 206.343 10.1003 205.104 9.92562C204.08 9.78132 203.207 9.46671 202.497 9.01447C201.768 8.5505 201.2 7.93731 200.809 7.2027L200.809 7.20261C200.719 7.03436 200.631 6.85878 200.539 6.6704L200.538 6.66872L200.537 6.66621C200.163 5.91532 199.699 4.98484 198.861 3.99037C197.743 2.66221 196.229 1.8085 194.375 1.40209L194.375 1.40208C192.656 1.02562 190.652 1.03726 188.4 1.40965M187.352 1.84518L187.302 2.1829L188.46 2.53763L188.519 2.55564L188.579 2.54432C190.853 2.11854 192.403 2.21114 194.032 2.56807L194.032 2.56807C195.587 2.90856 196.829 3.61743 197.744 4.70372L197.744 4.70373C198.479 5.57622 198.903 6.42315 199.264 7.14355L199.268 7.15062L187.352 1.84518ZM188.4 1.40965C188.4 1.40964 188.4 1.40964 188.4 1.40963L188.441 1.65632M188.4 1.40965C188.4 1.40966 188.4 1.40966 188.4 1.40967L188.441 1.65632M188.441 1.65632C188.342 1.67247 188.072 1.74891 187.824 1.81985L188.441 1.65632Z" fill="#1C2445" stroke="#1C2445" stroke-width="0.5"/>
<path id="Vector_4" d="M179.696 1.84524L179.663 1.70028C179.729 1.68499 179.88 1.64189 180.056 1.5917C180.098 1.57968 180.142 1.56726 180.186 1.55472C180.399 1.49406 180.639 1.42693 180.744 1.40965M179.696 1.84524L191.897 7.71068C191.897 7.71069 191.897 7.7107 191.897 7.71071C192.388 8.63293 193.104 9.40287 194.017 9.98428L194.017 9.9843C194.913 10.5546 195.992 10.941 197.225 11.1148C198.562 11.3034 199.715 11.3466 200.671 11.2793C201.783 11.201 202.702 10.8869 203.291 10.5538L203.729 10.3065L203.267 10.1068L202.456 9.75546L202.362 9.71482L202.267 9.7516C201.768 9.94381 201.453 10.0181 200.559 10.081C199.725 10.1399 198.687 10.1003 197.448 9.92562C196.424 9.78132 195.551 9.46671 194.84 9.01447C194.112 8.5505 193.544 7.93732 193.152 7.2027L193.152 7.20261C193.062 7.03436 192.975 6.85878 192.883 6.6704L192.882 6.66872L192.881 6.66621C192.507 5.91532 192.043 4.98484 191.205 3.99037C190.087 2.66221 188.573 1.8085 186.719 1.40209L186.719 1.40208C185 1.02562 182.996 1.03726 180.744 1.40965M179.696 1.84524L179.646 2.1829L180.804 2.53763L180.862 2.55564L180.923 2.54432C183.197 2.11854 184.747 2.21114 186.376 2.56807L186.376 2.56807C187.93 2.90856 189.173 3.61743 190.088 4.70372L190.088 4.70373C190.823 5.57622 191.247 6.42315 191.608 7.14355L191.612 7.15062L179.696 1.84524ZM180.744 1.40965C180.744 1.40964 180.744 1.40964 180.744 1.40963L180.784 1.65632M180.744 1.40965C180.744 1.40966 180.744 1.40966 180.744 1.40967L180.784 1.65632M180.784 1.65632C180.686 1.67247 180.416 1.74891 180.167 1.81984L180.784 1.65632Z" fill="#1C2445" stroke="#1C2445" stroke-width="0.5"/>
<path id="Vector_5" d="M172.04 1.84524L172.006 1.70028C172.073 1.68499 172.224 1.64189 172.4 1.5917C172.442 1.57968 172.485 1.56726 172.529 1.55472C172.743 1.49406 172.982 1.42693 173.087 1.40965M172.04 1.84524L184.24 7.71068C184.24 7.71069 184.24 7.7107 184.24 7.71071C184.732 8.63293 185.448 9.40287 186.361 9.98428L186.361 9.9843C187.257 10.5546 188.335 10.941 189.569 11.1148C190.906 11.3034 192.058 11.3466 193.015 11.2793C194.127 11.201 195.046 10.8869 195.635 10.5538L196.072 10.3065L195.611 10.1068L194.8 9.75546L194.706 9.71482L194.611 9.7516C194.112 9.94381 193.797 10.0181 192.903 10.081C192.069 10.1399 191.03 10.1003 189.791 9.92562C188.768 9.78132 187.895 9.46671 187.184 9.01447C186.456 8.5505 185.888 7.93732 185.496 7.2027L185.496 7.20261C185.406 7.03436 185.319 6.85878 185.227 6.6704L185.226 6.66872L185.225 6.66637C184.85 5.91545 184.387 4.98491 183.549 3.99037C182.43 2.66221 180.917 1.8085 179.062 1.40209L179.062 1.40208C177.343 1.02562 175.339 1.03726 173.087 1.40965M172.04 1.84524L171.989 2.1829L173.147 2.53763L173.206 2.55564L173.267 2.54432C175.541 2.11854 177.09 2.21114 178.72 2.56807L178.72 2.56807C180.274 2.90856 181.517 3.61743 182.432 4.70372L182.432 4.70373C183.167 5.57616 183.591 6.42302 183.952 7.14339L183.955 7.15062L172.04 1.84524ZM173.087 1.40965C173.088 1.40964 173.088 1.40964 173.088 1.40963L173.128 1.65632M173.087 1.40965C173.087 1.40966 173.087 1.40966 173.087 1.40967L173.128 1.65632M173.128 1.65632C173.03 1.67247 172.76 1.74891 172.511 1.81984L173.128 1.65632Z" fill="#1C2445" stroke="#1C2445" stroke-width="0.5"/>
<path id="Vector_6" d="M164.376 1.84524L164.342 1.70028C164.408 1.68499 164.56 1.64189 164.736 1.5917C164.778 1.57968 164.821 1.56726 164.865 1.55472C165.079 1.49406 165.318 1.42693 165.423 1.40965M164.376 1.84524L176.576 7.71068C176.576 7.71069 176.576 7.7107 176.576 7.71071C177.068 8.63293 177.784 9.40288 178.697 9.98428L178.697 9.9843C179.593 10.5546 180.671 10.941 181.905 11.1148C183.242 11.3034 184.394 11.3466 185.351 11.2793C186.463 11.201 187.382 10.8869 187.971 10.5538L188.408 10.3065L187.947 10.1068L187.136 9.75546L187.042 9.71482L186.947 9.7516C186.448 9.94381 186.133 10.0181 185.239 10.081C184.404 10.1399 183.366 10.1003 182.127 9.92562C181.104 9.78132 180.23 9.46671 179.52 9.01447C178.792 8.5505 178.224 7.93731 177.832 7.2027L177.832 7.20261C177.742 7.03437 177.655 6.8588 177.563 6.6704L177.562 6.66872L177.561 6.66637C177.186 5.91545 176.723 4.98491 175.885 3.99037C174.766 2.66221 173.253 1.8085 171.398 1.40209L171.398 1.40208C169.679 1.02562 167.675 1.03726 165.423 1.40965M164.376 1.84524L164.325 2.1829L165.483 2.53763L165.542 2.55564L165.602 2.54432C167.877 2.11854 169.426 2.21114 171.056 2.56807L171.056 2.56807C172.61 2.90856 173.853 3.61743 174.768 4.70372L174.768 4.70373C175.503 5.57616 175.927 6.42302 176.288 7.14339L176.291 7.15062L164.376 1.84524ZM165.423 1.40965C165.423 1.40964 165.423 1.40964 165.424 1.40963L165.464 1.65632M165.423 1.40965C165.423 1.40966 165.423 1.40966 165.423 1.40967L165.464 1.65632M165.464 1.65632C165.366 1.67247 165.096 1.74891 164.847 1.81984L165.464 1.65632Z" fill="#1C2445" stroke="#1C2445" stroke-width="0.5"/>
<path id="Vector_7" d="M156.712 1.84518L156.678 1.70028C156.744 1.68499 156.896 1.64189 157.071 1.5917C157.114 1.57968 157.157 1.56726 157.201 1.55472C157.415 1.49406 157.654 1.42693 157.759 1.40965M156.712 1.84518L168.912 7.71068C168.912 7.71069 168.912 7.7107 168.912 7.71071C169.404 8.63293 170.12 9.40288 171.033 9.98428L171.033 9.9843C171.929 10.5546 173.007 10.941 174.241 11.1148C175.578 11.3034 176.73 11.3466 177.687 11.2793C178.799 11.201 179.718 10.8869 180.307 10.5538L180.744 10.3065L180.283 10.1068L179.472 9.75546L179.378 9.71482L179.283 9.7516C178.784 9.94381 178.469 10.0181 177.575 10.081C176.74 10.1399 175.702 10.1003 174.463 9.92562C173.44 9.78132 172.566 9.46671 171.856 9.01447C171.128 8.5505 170.56 7.93731 170.168 7.2027L170.168 7.20261C170.078 7.03436 169.991 6.85878 169.898 6.6704L169.898 6.66872L169.896 6.66621C169.522 5.91532 169.058 4.98484 168.221 3.99037C167.102 2.66221 165.589 1.8085 163.734 1.40209L163.734 1.40208C162.015 1.02562 160.011 1.03726 157.759 1.40965M156.712 1.84518L156.661 2.1829L157.819 2.53763L157.878 2.55564L157.938 2.54432C160.212 2.11854 161.762 2.21114 163.392 2.56807L163.392 2.56807C164.946 2.90856 166.189 3.61743 167.104 4.70372L167.104 4.70373C167.839 5.57622 168.263 6.42315 168.624 7.14355L168.627 7.15062L156.712 1.84518ZM157.759 1.40965C157.759 1.40964 157.759 1.40964 157.759 1.40963L157.8 1.65632M157.759 1.40965C157.759 1.40966 157.759 1.40966 157.759 1.40967L157.8 1.65632M157.8 1.65632C157.702 1.67247 157.432 1.74891 157.183 1.81985L157.8 1.65632Z" fill="#1C2445" stroke="#1C2445" stroke-width="0.5"/>
<path id="Vector_8" d="M149.165 1.84521L149.131 1.70028C149.198 1.68499 149.349 1.64189 149.525 1.5917C149.567 1.57968 149.61 1.56726 149.654 1.55472C149.868 1.49406 150.107 1.42693 150.212 1.40965M149.165 1.84521L161.365 7.71068C161.365 7.71069 161.365 7.7107 161.365 7.71071C161.857 8.63293 162.573 9.40288 163.486 9.98428L163.486 9.9843C164.382 10.5546 165.46 10.941 166.694 11.1148C168.031 11.3034 169.183 11.3466 170.14 11.2793C171.252 11.201 172.171 10.8869 172.76 10.5538L173.197 10.3065L172.736 10.1068L171.925 9.75546L171.831 9.71482L171.736 9.7516C171.237 9.94381 170.922 10.0181 170.028 10.081C169.194 10.1399 168.155 10.1003 166.916 9.92562C165.893 9.78132 165.02 9.46671 164.309 9.01447C163.581 8.5505 163.013 7.93731 162.621 7.2027L162.621 7.20261C162.531 7.03437 162.444 6.8588 162.352 6.6704L162.351 6.66872L162.35 6.66637C161.975 5.91545 161.512 4.98491 160.674 3.99037C159.555 2.66221 158.042 1.8085 156.187 1.40209L156.187 1.40208C154.468 1.02562 152.464 1.03726 150.212 1.40965M149.165 1.84521L149.114 2.1829L150.272 2.53763L150.331 2.55564L150.392 2.54432C152.666 2.11854 154.215 2.21114 155.845 2.56807L155.845 2.56807C157.399 2.90856 158.642 3.61743 159.557 4.70372L159.557 4.70373C160.292 5.57616 160.716 6.42302 161.077 7.14339L161.08 7.15062L149.165 1.84521ZM150.212 1.40965C150.213 1.40964 150.213 1.40964 150.213 1.40963L150.253 1.65632M150.212 1.40965C150.212 1.40966 150.212 1.40966 150.212 1.40967L150.253 1.65632M150.253 1.65632C150.155 1.67247 149.885 1.74891 149.636 1.81985L150.253 1.65632Z" fill="#1C2445" stroke="#1C2445" stroke-width="0.5"/>
<path id="Vector_9" d="M141.509 1.84524L141.475 1.70028C141.541 1.68499 141.692 1.64189 141.868 1.5917C141.91 1.57968 141.954 1.56726 141.998 1.55472C142.212 1.49406 142.451 1.42693 142.556 1.40965M141.509 1.84524L153.709 7.71068C153.709 7.71069 153.709 7.7107 153.709 7.71071C154.201 8.63293 154.917 9.40288 155.83 9.98428L155.83 9.9843C156.726 10.5546 157.804 10.941 159.038 11.1148C160.374 11.3034 161.527 11.3466 162.483 11.2793C163.596 11.201 164.515 10.8869 165.104 10.5538L165.541 10.3065L165.08 10.1068L164.269 9.75546L164.175 9.71482L164.079 9.7516C163.581 9.94381 163.266 10.0181 162.372 10.081C161.537 10.1399 160.499 10.1003 159.26 9.92562C158.237 9.78132 157.363 9.46671 156.653 9.01447C155.924 8.5505 155.356 7.93731 154.965 7.2027L154.965 7.20261C154.875 7.03436 154.787 6.85878 154.695 6.6704L154.694 6.66872L154.693 6.6662C154.319 5.91531 153.855 4.98484 153.018 3.99037C151.899 2.66221 150.386 1.8085 148.531 1.40209L148.531 1.40208C146.812 1.02562 144.808 1.03726 142.556 1.40965M141.509 1.84524L141.458 2.1829L142.616 2.53763L142.675 2.55564L142.735 2.54432C145.009 2.11854 146.559 2.21114 148.188 2.56807L148.188 2.56807C149.743 2.90856 150.986 3.61743 151.901 4.70372L151.901 4.70373C152.636 5.57622 153.06 6.42315 153.42 7.14355L153.424 7.15062L141.509 1.84524ZM142.556 1.40965C142.556 1.40964 142.556 1.40964 142.556 1.40963L142.597 1.65632M142.556 1.40965C142.556 1.40966 142.556 1.40966 142.556 1.40967L142.597 1.65632M142.597 1.65632C142.499 1.67247 142.229 1.74891 141.98 1.81984L142.597 1.65632Z" fill="#1C2445" stroke="#1C2445" stroke-width="0.5"/>
<path id="Vector_10" d="M133.852 1.84521L133.819 1.70028C133.885 1.68499 134.036 1.64189 134.212 1.5917C134.254 1.57968 134.298 1.56726 134.342 1.55472C134.555 1.49406 134.795 1.42693 134.9 1.40965M133.852 1.84521L146.053 7.71068C146.053 7.71069 146.053 7.7107 146.053 7.71071C146.544 8.63293 147.26 9.40288 148.173 9.98428L148.173 9.9843C149.069 10.5546 150.148 10.941 151.382 11.1148C152.718 11.3034 153.871 11.3466 154.827 11.2793C155.94 11.201 156.858 10.8869 157.447 10.5538L157.885 10.3065L157.424 10.1068L156.612 9.75546L156.519 9.71482L156.423 9.7516C155.924 9.94381 155.61 10.0181 154.716 10.081C153.881 10.1399 152.843 10.1003 151.604 9.92562C150.58 9.78132 149.707 9.46671 148.997 9.01447C148.268 8.5505 147.7 7.93731 147.309 7.2027L147.309 7.20261C147.219 7.03436 147.131 6.85878 147.039 6.6704L147.038 6.66872L147.037 6.6663C146.663 5.91539 146.199 4.98488 145.361 3.99037C144.243 2.66221 142.729 1.8085 140.875 1.40209L140.875 1.40208C139.156 1.02562 137.152 1.03726 134.9 1.40965M133.852 1.84521L133.802 2.1829L134.96 2.53763L135.019 2.55564L135.079 2.54432C137.353 2.11854 138.903 2.21114 140.532 2.56807L140.532 2.56807C142.087 2.90856 143.329 3.61743 144.244 4.70372L144.244 4.70373C144.979 5.57619 145.403 6.42308 145.764 7.14347L145.768 7.15062L133.852 1.84521ZM134.9 1.40965C134.9 1.40964 134.9 1.40964 134.9 1.40963L134.941 1.65632M134.9 1.40965C134.9 1.40966 134.9 1.40966 134.9 1.40967L134.941 1.65632M134.941 1.65632C134.842 1.67247 134.572 1.74891 134.324 1.81985L134.941 1.65632Z" fill="#1C2445" stroke="#1C2445" stroke-width="0.5"/>
<path id="Vector_11" d="M126.188 1.84524L126.155 1.70028C126.221 1.68499 126.372 1.64189 126.548 1.5917C126.59 1.57968 126.634 1.56726 126.678 1.55472C126.891 1.49406 127.131 1.42693 127.236 1.40965M126.188 1.84524L138.389 7.71068C138.389 7.71069 138.389 7.7107 138.389 7.71071C138.88 8.63293 139.596 9.40287 140.509 9.98428L140.509 9.9843C141.405 10.5546 142.484 10.941 143.717 11.1148C145.054 11.3034 146.207 11.3466 147.163 11.2793C148.276 11.201 149.194 10.8869 149.783 10.5538L150.221 10.3065L149.76 10.1068L148.948 9.75546L148.855 9.71482L148.759 9.7516C148.26 9.94381 147.946 10.0181 147.052 10.081C146.217 10.1399 145.179 10.1003 143.94 9.92562C142.916 9.78132 142.043 9.46671 141.333 9.01447C140.604 8.5505 140.036 7.93731 139.644 7.2027L139.644 7.20261C139.555 7.03437 139.467 6.85879 139.375 6.6704L139.374 6.66872L139.373 6.6663C138.999 5.91539 138.535 4.98488 137.697 3.99037C136.579 2.66221 135.065 1.8085 133.211 1.40209L133.211 1.40208C131.492 1.02562 129.488 1.03726 127.236 1.40965M126.188 1.84524L126.138 2.1829L127.296 2.53763L127.355 2.55564L127.415 2.54432C129.689 2.11854 131.239 2.21114 132.868 2.56807L132.868 2.56807C134.423 2.90856 135.665 3.61743 136.58 4.70372L136.58 4.70373C137.315 5.57619 137.739 6.42308 138.1 7.14347L138.104 7.15062L126.188 1.84524ZM127.236 1.40965C127.236 1.40964 127.236 1.40964 127.236 1.40963L127.277 1.65632M127.236 1.40965C127.236 1.40966 127.236 1.40966 127.236 1.40967L127.277 1.65632M127.277 1.65632C127.178 1.67247 126.908 1.74891 126.66 1.81984L127.277 1.65632Z" fill="#1C2445" stroke="#1C2445" stroke-width="0.5"/>
<path id="Vector_12" d="M118.532 1.84524L118.499 1.70028C118.565 1.68499 118.716 1.64189 118.892 1.5917C118.934 1.57968 118.977 1.56726 119.022 1.55472C119.235 1.49406 119.475 1.42693 119.58 1.40965M118.532 1.84524L130.733 7.71068C130.733 7.71069 130.733 7.7107 130.733 7.71071C131.224 8.63293 131.94 9.40287 132.853 9.98428L132.853 9.9843C133.749 10.5546 134.828 10.941 136.061 11.1148C137.398 11.3034 138.55 11.3466 139.507 11.2793C140.619 11.201 141.538 10.8869 142.127 10.5538L142.564 10.3065L142.103 10.1068L141.292 9.75546L141.198 9.71482L141.103 9.7516C140.604 9.94381 140.289 10.0181 139.395 10.081C138.561 10.1399 137.523 10.1003 136.284 9.92562C135.26 9.78132 134.387 9.46671 133.676 9.01447C132.948 8.5505 132.38 7.93731 131.988 7.2027L131.988 7.20261C131.898 7.03437 131.811 6.85879 131.719 6.6704L131.718 6.66872L131.717 6.66637C131.343 5.91545 130.879 4.98491 130.041 3.99037C128.922 2.66221 127.409 1.8085 125.555 1.40209L125.555 1.40208C123.836 1.02562 121.832 1.03726 119.58 1.40965M118.532 1.84524L118.481 2.1829L119.639 2.53763L119.698 2.55564L119.759 2.54432C122.033 2.11854 123.583 2.21114 125.212 2.56807L125.212 2.56807C126.766 2.90856 128.009 3.61743 128.924 4.70372L128.924 4.70373C129.659 5.57619 130.083 6.42308 130.444 7.14347L130.447 7.15062L118.532 1.84524ZM119.58 1.40965C119.58 1.40964 119.58 1.40964 119.58 1.40963L119.62 1.65632M119.58 1.40965C119.58 1.40966 119.58 1.40966 119.58 1.40967L119.62 1.65632M119.62 1.65632C119.522 1.67247 119.252 1.74891 119.003 1.81984L119.62 1.65632Z" fill="#1C2445" stroke="#1C2445" stroke-width="0.5"/>
<path id="Vector_13" d="M110.868 1.84524L110.834 1.70028C110.901 1.68499 111.052 1.64189 111.228 1.5917C111.27 1.57968 111.313 1.56726 111.358 1.55472C111.571 1.49406 111.811 1.42693 111.916 1.40965M110.868 1.84524L123.069 7.71068C123.069 7.71069 123.069 7.7107 123.069 7.71071C123.56 8.63293 124.276 9.40288 125.189 9.98428L125.189 9.9843C126.085 10.5546 127.164 10.941 128.397 11.1148C129.734 11.3034 130.886 11.3466 131.843 11.2793C132.955 11.201 133.874 10.8869 134.463 10.5538L134.9 10.3065L134.439 10.1068L133.628 9.75546L133.534 9.71482L133.439 9.7516C132.94 9.94381 132.625 10.0181 131.731 10.081C130.897 10.1399 129.859 10.1003 128.62 9.92562C127.596 9.78132 126.723 9.46671 126.012 9.01447C125.284 8.5505 124.716 7.93731 124.324 7.2027L124.324 7.20261C124.234 7.03437 124.147 6.85879 124.055 6.6704L124.054 6.66872L124.053 6.6663C123.678 5.91539 123.215 4.98488 122.377 3.99037C121.258 2.66221 119.745 1.8085 117.891 1.40209L117.89 1.40208C116.172 1.02562 114.168 1.03726 111.916 1.40965M110.868 1.84524L110.817 2.1829L111.975 2.53763L112.034 2.55564L112.095 2.54432C114.369 2.11854 115.919 2.21114 117.548 2.56807L117.548 2.56807C119.102 2.90856 120.345 3.61743 121.26 4.70372L121.26 4.70373C121.995 5.57619 122.419 6.42308 122.78 7.14347L122.783 7.15062L110.868 1.84524ZM111.916 1.40965C111.916 1.40964 111.916 1.40964 111.916 1.40963L111.956 1.65632M111.916 1.40965C111.916 1.40966 111.916 1.40966 111.915 1.40967L111.956 1.65632M111.956 1.65632C111.858 1.67247 111.588 1.74891 111.339 1.81984L111.956 1.65632Z" fill="#1C2445" stroke="#1C2445" stroke-width="0.5"/>
<path id="Vector_14" d="M103.212 1.84524L103.178 1.70028C103.244 1.68499 103.396 1.64189 103.571 1.5917C103.614 1.57968 103.657 1.56726 103.701 1.55472C103.915 1.49406 104.154 1.42693 104.259 1.40965M103.212 1.84524L115.412 7.71068C115.412 7.71069 115.412 7.7107 115.412 7.71071C115.904 8.63293 116.62 9.40287 117.533 9.98428L117.533 9.9843C118.429 10.5546 119.507 10.941 120.741 11.1148C122.078 11.3034 123.23 11.3466 124.187 11.2793C125.299 11.201 126.218 10.8869 126.807 10.5538L127.244 10.3065L126.783 10.1068L125.972 9.75546L125.878 9.71482L125.783 9.7516C125.284 9.94381 124.969 10.0181 124.075 10.081C123.24 10.1399 122.202 10.1003 120.963 9.92562C119.94 9.78132 119.066 9.46671 118.356 9.01447C117.628 8.5505 117.06 7.93731 116.668 7.2027L116.668 7.20261C116.578 7.03437 116.491 6.85879 116.398 6.6704L116.398 6.66872L116.396 6.6663C116.022 5.91539 115.558 4.98488 114.721 3.99037C113.602 2.66221 112.089 1.8085 110.234 1.40209L110.234 1.40208C108.515 1.02562 106.511 1.03726 104.259 1.40965M103.212 1.84524L103.161 2.1829L104.319 2.53763L104.378 2.55564L104.438 2.54432C106.712 2.11854 108.262 2.21114 109.892 2.56807L109.892 2.56807C111.446 2.90856 112.689 3.61743 113.604 4.70372L113.604 4.70373C114.339 5.57622 114.763 6.42315 115.124 7.14355L115.127 7.15062L103.212 1.84524ZM104.259 1.40965C104.259 1.40964 104.259 1.40964 104.259 1.40963L104.3 1.65632M104.259 1.40965C104.259 1.40966 104.259 1.40966 104.259 1.40967L104.3 1.65632M104.3 1.65632C104.202 1.67247 103.932 1.74891 103.683 1.81984L104.3 1.65632Z" fill="#1C2445" stroke="#1C2445" stroke-width="0.5"/>
<path id="Vector_15" d="M95.6648 1.84524L95.6313 1.70028C95.6976 1.68499 95.8486 1.64189 96.0246 1.5917C96.0667 1.57968 96.1103 1.56726 96.1544 1.55472C96.3679 1.49406 96.6075 1.42693 96.7125 1.40965M95.6648 1.84524L107.865 7.71068C107.865 7.71069 107.865 7.7107 107.865 7.71071C108.357 8.63293 109.073 9.40287 109.986 9.98428L109.986 9.9843C110.882 10.5546 111.96 10.941 113.194 11.1148C114.531 11.3034 115.683 11.3466 116.64 11.2793C117.752 11.201 118.671 10.8869 119.26 10.5538L119.697 10.3065L119.236 10.1068L118.425 9.75546L118.331 9.71482L118.236 9.7516C117.737 9.94381 117.422 10.0181 116.528 10.081C115.694 10.1399 114.655 10.1003 113.416 9.92562C112.393 9.78132 111.52 9.46671 110.809 9.01447C110.081 8.5505 109.513 7.93731 109.121 7.2027L109.121 7.20261C109.031 7.03437 108.944 6.85879 108.852 6.6704L108.851 6.66872L108.85 6.6663C108.475 5.91539 108.012 4.98488 107.174 3.99037C106.055 2.66221 104.542 1.8085 102.687 1.40209L102.687 1.40208C100.968 1.02562 98.9645 1.03726 96.7125 1.40965M95.6648 1.84524L95.6143 2.1829L96.7723 2.53763L96.8311 2.55564L96.8915 2.54432C99.1656 2.11854 100.715 2.21114 102.345 2.56807L102.345 2.56807C103.899 2.90856 105.142 3.61743 106.057 4.70372L106.057 4.70373C106.792 5.57619 107.216 6.42308 107.577 7.14347L107.58 7.15062L95.6648 1.84524ZM96.7125 1.40965C96.7125 1.40964 96.7126 1.40964 96.7126 1.40963L96.7531 1.65632M96.7125 1.40965C96.7124 1.40966 96.7124 1.40966 96.7123 1.40967L96.7531 1.65632M96.7531 1.65632C96.6548 1.67247 96.3849 1.74891 96.1362 1.81984L96.7531 1.65632Z" fill="#1C2445" stroke="#1C2445" stroke-width="0.5"/>
<path id="Vector_16" d="M87.993 1.84521L87.9595 1.70028C88.0257 1.68499 88.1768 1.64189 88.3527 1.5917C88.3948 1.57968 88.4384 1.56726 88.4825 1.55472C88.696 1.49406 88.9356 1.42693 89.0406 1.40965M87.993 1.84521L100.194 7.71068C100.194 7.71069 100.194 7.7107 100.194 7.71071C100.685 8.63293 101.401 9.40288 102.314 9.98428L102.314 9.9843C103.21 10.5546 104.289 10.941 105.522 11.1148C106.859 11.3034 108.011 11.3466 108.968 11.2793C110.08 11.201 110.999 10.8869 111.588 10.5538L112.025 10.3065L111.564 10.1068L110.753 9.75546L110.659 9.71482L110.564 9.7516C110.065 9.94381 109.75 10.0181 108.856 10.081C108.022 10.1399 106.984 10.1003 105.745 9.92562C104.721 9.78132 103.848 9.46671 103.137 9.01447C102.409 8.5505 101.841 7.93731 101.449 7.2027L101.449 7.20261C101.359 7.03436 101.272 6.85878 101.18 6.6704L101.179 6.66872L101.178 6.6663C100.803 5.91539 100.34 4.98488 99.5021 3.99037C98.3834 2.66221 96.87 1.8085 95.0155 1.40209L95.0155 1.40208C93.2966 1.02562 91.2926 1.03726 89.0406 1.40965M87.993 1.84521L87.9424 2.1829L89.1004 2.53763L89.1592 2.55564L89.2196 2.54432C91.4937 2.11854 93.0436 2.21114 94.6728 2.56807L94.6728 2.56807C96.2272 2.90856 97.4701 3.61743 98.385 4.70372L98.3851 4.70373C99.12 5.57619 99.5441 6.42308 99.9048 7.14347L99.9084 7.15062L87.993 1.84521ZM89.0406 1.40965C89.0406 1.40964 89.0407 1.40964 89.0407 1.40963L89.0813 1.65632M89.0406 1.40965C89.0406 1.40966 89.0405 1.40966 89.0405 1.40967L89.0813 1.65632M89.0813 1.65632C88.983 1.67247 88.713 1.74891 88.4643 1.81985L89.0813 1.65632Z" fill="#1C2445" stroke="#1C2445" stroke-width="0.5"/>
<path id="Vector_17" d="M80.3367 1.84524L80.3032 1.70028C80.3694 1.68499 80.5205 1.64189 80.6965 1.5917C80.7386 1.57968 80.7821 1.56726 80.8263 1.55472C81.0398 1.49406 81.2793 1.42693 81.3843 1.40965M80.3367 1.84524L92.5373 7.71068C92.5373 7.71069 92.5373 7.7107 92.5374 7.71071C93.0288 8.63293 93.7447 9.40288 94.6578 9.98428L94.6579 9.9843C95.5538 10.5546 96.6323 10.941 97.8659 11.1148C99.2026 11.3034 100.355 11.3466 101.312 11.2793C102.424 11.201 103.343 10.8869 103.932 10.5538L104.369 10.3065L103.908 10.1068L103.097 9.75546L103.003 9.71482L102.908 9.7516C102.409 9.94381 102.094 10.0181 101.2 10.081C100.365 10.1399 99.3273 10.1003 98.0883 9.92562C97.0647 9.78132 96.1914 9.46671 95.4809 9.01447C94.7525 8.5505 94.1846 7.93731 93.7929 7.2027L93.7929 7.20261C93.7031 7.03437 93.6156 6.85879 93.5235 6.6704L93.5226 6.66872L93.5214 6.6663C93.1472 5.91539 92.6835 4.98488 91.8458 3.99037C90.7272 2.66221 89.2138 1.8085 87.3593 1.40209L87.3592 1.40208C85.6403 1.02562 83.6363 1.03726 81.3843 1.40965M80.3367 1.84524L80.2862 2.1829L81.4442 2.53763L81.503 2.55564L81.5634 2.54432C83.8375 2.11854 85.3873 2.21114 87.0166 2.56807L87.0166 2.56807C88.571 2.90856 89.8139 3.61743 90.7288 4.70372L90.7288 4.70373C91.4637 5.57619 91.8878 6.42308 92.2486 7.14347L92.2522 7.15062L80.3367 1.84524ZM81.3843 1.40965C81.3844 1.40964 81.3844 1.40964 81.3845 1.40963L81.425 1.65632M81.3843 1.40965C81.3843 1.40966 81.3843 1.40966 81.3842 1.40967L81.425 1.65632M81.425 1.65632C81.3267 1.67247 81.0568 1.74891 80.8081 1.81984L81.425 1.65632Z" fill="#1C2445" stroke="#1C2445" stroke-width="0.5"/>
<path id="Vector_18" d="M72.6805 1.84521L72.647 1.70028C72.7132 1.68499 72.8643 1.64189 73.0402 1.5917C73.0823 1.57968 73.1259 1.56726 73.17 1.55472C73.3835 1.49406 73.6231 1.42693 73.7281 1.40965M72.6805 1.84521L84.8811 7.71068C84.8811 7.71069 84.8811 7.7107 84.8811 7.71071C85.3726 8.63293 86.0885 9.40288 87.0016 9.98428L87.0016 9.9843C87.8975 10.5546 88.976 10.941 90.2096 11.1148C91.5463 11.3034 92.6989 11.3466 93.6553 11.2793C94.7678 11.201 95.6864 10.8869 96.2755 10.5538L96.7129 10.3065L96.2518 10.1068L95.4405 9.75546L95.3467 9.71482L95.2513 9.7516C94.7526 9.94381 94.4378 10.0181 93.5439 10.081C92.7092 10.1399 91.6711 10.1003 90.4321 9.92562C89.4085 9.78132 88.5352 9.46671 87.8247 9.01447C87.0963 8.5505 86.5283 7.93731 86.1367 7.2027L86.1366 7.20261C86.0468 7.03436 85.9593 6.85878 85.8672 6.6704L85.8664 6.66872L85.8652 6.6663C85.491 5.91539 85.0272 4.98488 84.1896 3.99037C83.0709 2.66221 81.5575 1.8085 79.703 1.40209L79.703 1.40208C77.9841 1.02562 75.9801 1.03726 73.7281 1.40965M72.6805 1.84521L72.6299 2.1829L73.7879 2.53763L73.8467 2.55564L73.9071 2.54432C76.1812 2.11854 77.7311 2.21114 79.3603 2.56807L79.3603 2.56807C80.9147 2.90856 82.1576 3.61743 83.0725 4.70372L83.0726 4.70373C83.8075 5.57619 84.2316 6.42308 84.5923 7.14347L84.5959 7.15062L72.6805 1.84521ZM73.7281 1.40965C73.7281 1.40964 73.7282 1.40964 73.7282 1.40963L73.7688 1.65632M73.7281 1.40965C73.7281 1.40966 73.728 1.40966 73.728 1.40967L73.7688 1.65632M73.7688 1.65632C73.6705 1.67247 73.4005 1.74891 73.1518 1.81985L73.7688 1.65632Z" fill="#1C2445" stroke="#1C2445" stroke-width="0.5"/>
<path id="Vector_19" d="M65.0242 1.84524L64.9907 1.70028C65.0569 1.68499 65.208 1.64189 65.384 1.5917C65.4261 1.57968 65.4696 1.56726 65.5138 1.55472C65.7273 1.49406 65.9668 1.42693 66.0719 1.40965M65.0242 1.84524L77.2248 7.71068C77.2249 7.71069 77.2249 7.7107 77.2249 7.71071C77.7164 8.63293 78.4322 9.40288 79.3453 9.98428L79.3454 9.9843C80.2413 10.5546 81.3198 10.941 82.5534 11.1148C83.8901 11.3034 85.0426 11.3466 85.999 11.2793C87.1116 11.201 88.0302 10.8869 88.6192 10.5538L89.0567 10.3065L88.5955 10.1068L87.7843 9.75546L87.6904 9.71482L87.595 9.7516C87.0963 9.94381 86.7816 10.0181 85.8876 10.081C85.0529 10.1399 84.0148 10.1003 82.7758 9.92562C81.7522 9.78132 80.8789 9.46671 80.1684 9.01447C79.44 8.5505 78.8721 7.93731 78.4804 7.2027L78.4804 7.20261C78.3906 7.03437 78.3031 6.85879 78.211 6.6704L78.2101 6.66872L78.2089 6.6663C77.8347 5.91539 77.371 4.98488 76.5333 3.99037C75.4147 2.66221 73.9013 1.8085 72.0468 1.40209L72.0467 1.40208C70.3278 1.02562 68.3238 1.03726 66.0719 1.40965M65.0242 1.84524L64.9737 2.1829L66.1317 2.53763L66.1905 2.55564L66.2509 2.54432C68.525 2.11854 70.0748 2.21114 71.7041 2.56807L71.7041 2.56807C73.2585 2.90856 74.5014 3.61743 75.4163 4.70372L75.4163 4.70373C76.1512 5.57619 76.5753 6.42308 76.9361 7.14347L76.9397 7.15062L65.0242 1.84524ZM66.0719 1.40965C66.0719 1.40964 66.0719 1.40964 66.072 1.40963L66.1125 1.65632M66.0719 1.40965C66.0718 1.40966 66.0718 1.40966 66.0717 1.40967L66.1125 1.65632M66.1125 1.65632C66.0142 1.67247 65.7443 1.74891 65.4956 1.81985L66.1125 1.65632Z" fill="#1C2445" stroke="#1C2445" stroke-width="0.5"/>
<path id="Vector_20" d="M57.368 1.84524L57.3345 1.70028C57.4007 1.68499 57.5518 1.64189 57.7277 1.5917C57.7698 1.57968 57.8134 1.56726 57.8575 1.55472C58.071 1.49406 58.3106 1.42693 58.4156 1.40965M57.368 1.84524L69.5686 7.71068C69.5686 7.71069 69.5686 7.7107 69.5686 7.71071C70.0601 8.63293 70.776 9.40287 71.6891 9.98428L71.6891 9.9843C72.585 10.5546 73.6635 10.941 74.8971 11.1148C76.2338 11.3034 77.3864 11.3466 78.3428 11.2793C79.4553 11.201 80.3739 10.8869 80.963 10.5538L81.4004 10.3065L80.9393 10.1068L80.128 9.75546L80.0342 9.71482L79.9388 9.7516C79.4401 9.94381 79.1253 10.0181 78.2314 10.081C77.3967 10.1399 76.3586 10.1003 75.1195 9.92562C74.096 9.78132 73.2226 9.46671 72.5122 9.01447C71.7838 8.5505 71.2158 7.93731 70.8242 7.2027L70.8241 7.20261C70.7343 7.03437 70.6468 6.85879 70.5547 6.6704L70.5539 6.66872L70.5527 6.66637C70.1785 5.91545 69.7148 4.98491 68.877 3.99037C67.7584 2.66221 66.245 1.8085 64.3905 1.40209L64.3905 1.40208C62.6716 1.02562 60.6676 1.03726 58.4156 1.40965M57.368 1.84524L57.3174 2.1829L58.4754 2.53763L58.5342 2.55564L58.5946 2.54432C60.8687 2.11854 62.4186 2.21114 64.0478 2.56807L64.0478 2.56807C65.6022 2.90856 66.8451 3.61743 67.76 4.70372L67.76 4.70373C68.4949 5.57619 68.9191 6.42308 69.2798 7.14347L69.2834 7.15062L57.368 1.84524ZM58.4156 1.40965C58.4156 1.40964 58.4157 1.40964 58.4157 1.40963L58.4563 1.65632M58.4156 1.40965C58.4156 1.40966 58.4155 1.40966 58.4155 1.40967L58.4563 1.65632M58.4563 1.65632C58.358 1.67247 58.088 1.74891 57.8393 1.81984L58.4563 1.65632Z" fill="#1C2445" stroke="#1C2445" stroke-width="0.5"/>
<path id="Vector_21" d="M49.7039 1.84523L49.6704 1.70028C49.7366 1.68499 49.8877 1.64189 50.0637 1.5917C50.1058 1.57968 50.1493 1.56726 50.1935 1.55472C50.407 1.49406 50.6465 1.42693 50.7515 1.40965M49.7039 1.84523L61.9045 7.71068C61.9045 7.71069 61.9045 7.7107 61.9046 7.71071C62.396 8.63293 63.1119 9.40288 64.025 9.98428L64.025 9.9843C64.921 10.5546 65.9995 10.941 67.2331 11.1148C68.5698 11.3034 69.7223 11.3466 70.6787 11.2793C71.7913 11.201 72.7099 10.8869 73.2989 10.5538L73.7364 10.3065L73.2752 10.1068L72.464 9.75546L72.3701 9.71482L72.2747 9.7516C71.776 9.94381 71.4613 10.0181 70.5673 10.081C69.7326 10.1399 68.6945 10.1003 67.4555 9.92562C66.4319 9.78132 65.5586 9.46671 64.8481 9.01447C64.1197 8.5505 63.5518 7.93731 63.1601 7.2027L63.1601 7.20261C63.0703 7.03436 62.9828 6.85878 62.8907 6.6704L62.8898 6.66872L62.8886 6.6663C62.5144 5.91539 62.0507 4.98488 61.213 3.99037C60.0943 2.66221 58.581 1.8085 56.7265 1.40209L56.7264 1.40208C55.0075 1.02562 53.0035 1.03726 50.7515 1.40965M49.7039 1.84523L49.6533 2.1829L50.8114 2.53763L50.8701 2.55564L50.9306 2.54432C53.2047 2.11854 54.7545 2.21114 56.3838 2.56807L56.3838 2.56807C57.9382 2.90856 59.181 3.61743 60.096 4.70372L60.096 4.70373C60.8309 5.57619 61.255 6.42308 61.6158 7.14347L61.6194 7.15062L49.7039 1.84523ZM50.7515 1.40965C50.7516 1.40964 50.7516 1.40964 50.7517 1.40963L50.7922 1.65632M50.7515 1.40965C50.7515 1.40966 50.7515 1.40966 50.7514 1.40967L50.7922 1.65632M50.7922 1.65632C50.6939 1.67247 50.424 1.74891 50.1753 1.81985L50.7922 1.65632Z" fill="#1C2445" stroke="#1C2445" stroke-width="0.5"/>
<path id="Vector_22" d="M42.1492 1.84524L42.1157 1.70028C42.1819 1.68499 42.333 1.64189 42.509 1.5917C42.5511 1.57968 42.5946 1.56726 42.6388 1.55472C42.8523 1.49406 43.0918 1.42693 43.1968 1.40965M42.1492 1.84524L54.3498 7.71068C54.3498 7.71069 54.3499 7.7107 54.3499 7.71071C54.8414 8.63293 55.5572 9.40288 56.4703 9.98428L56.4703 9.9843C57.3663 10.5546 58.4448 10.941 59.6784 11.1148C61.0151 11.3034 62.1676 11.3466 63.124 11.2793C64.2366 11.201 65.1552 10.8869 65.7442 10.5538L66.1817 10.3065L65.7205 10.1068L64.9093 9.75546L64.8154 9.71482L64.72 9.7516C64.2213 9.94381 63.9066 10.0181 63.0126 10.081C62.1779 10.1399 61.1398 10.1003 59.9008 9.92562C58.8772 9.78132 58.0039 9.46671 57.2934 9.01447C56.565 8.5505 55.9971 7.93731 55.6054 7.2027L55.6054 7.20261C55.5156 7.03436 55.4281 6.85878 55.336 6.6704L55.3351 6.66872L55.3339 6.66625C54.9597 5.91535 54.496 4.98486 53.6583 3.99037C52.5397 2.66221 51.0263 1.8085 49.1718 1.40209L49.1717 1.40208C47.4528 1.02562 45.4488 1.03726 43.1968 1.40965M42.1492 1.84524L42.0987 2.1829L43.2567 2.53763L43.3155 2.55564L43.3759 2.54432C45.65 2.11854 47.1998 2.21114 48.8291 2.56807L48.8291 2.56807C50.3835 2.90856 51.6264 3.61743 52.5413 4.70372L52.5413 4.70373C53.2762 5.57618 53.7003 6.42306 54.0611 7.14344L54.0647 7.15062L42.1492 1.84524ZM43.1968 1.40965C43.1969 1.40964 43.1969 1.40964 43.197 1.40963L43.2375 1.65632M43.1968 1.40965C43.1968 1.40966 43.1968 1.40966 43.1967 1.40967L43.2375 1.65632M43.2375 1.65632C43.1392 1.67247 42.8693 1.74891 42.6206 1.81984L43.2375 1.65632Z" fill="#1C2445" stroke="#1C2445" stroke-width="0.5"/>
<path id="Vector_23" d="M34.493 1.84524L34.4595 1.70028C34.5257 1.68499 34.6768 1.64189 34.8527 1.5917C34.8948 1.57968 34.9384 1.56726 34.9825 1.55472C35.196 1.49406 35.4356 1.42693 35.5406 1.40965M34.493 1.84524L46.6936 7.71068C46.6936 7.71069 46.6936 7.7107 46.6936 7.71071C47.1851 8.63293 47.901 9.40288 48.8141 9.98428L48.8141 9.9843C49.71 10.5546 50.7885 10.941 52.0221 11.1148C53.3588 11.3034 54.5114 11.3466 55.4678 11.2793C56.5803 11.201 57.4989 10.8869 58.088 10.5538L58.5254 10.3065L58.0643 10.1068L57.253 9.75546L57.1592 9.71482L57.0638 9.7516C56.5651 9.94381 56.2503 10.0181 55.3564 10.081C54.5217 10.1399 53.4836 10.1003 52.2446 9.92562C51.221 9.78132 50.3476 9.46671 49.6372 9.01447C48.9088 8.5505 48.3408 7.93731 47.9492 7.2027L47.9491 7.20261C47.8593 7.03437 47.7718 6.85879 47.6797 6.6704L47.6789 6.66872L47.6777 6.6663C47.3035 5.91539 46.8397 4.98488 46.0021 3.99037C44.8834 2.66221 43.37 1.8085 41.5155 1.40209L41.5155 1.40208C39.7966 1.02562 37.7926 1.03726 35.5406 1.40965M34.493 1.84524L34.4424 2.1829L35.6004 2.53763L35.6592 2.55564L35.7196 2.54432C37.9937 2.11854 39.5436 2.21114 41.1728 2.56807L41.1728 2.56807C42.7272 2.90856 43.9701 3.61743 44.885 4.70372L44.8851 4.70373C45.62 5.57619 46.0441 6.42308 46.4048 7.14347L46.4084 7.15062L34.493 1.84524ZM35.5406 1.40965C35.5406 1.40964 35.5407 1.40964 35.5407 1.40963L35.5813 1.65632M35.5406 1.40965C35.5406 1.40966 35.5405 1.40966 35.5405 1.40967L35.5813 1.65632M35.5813 1.65632C35.483 1.67247 35.213 1.74891 34.9643 1.81984L35.5813 1.65632Z" fill="#1C2445" stroke="#1C2445" stroke-width="0.5"/>
<path id="Vector_24" d="M26.8367 1.84523L26.8032 1.70028C26.8694 1.68499 27.0205 1.64189 27.1965 1.5917C27.2386 1.57968 27.2821 1.56726 27.3263 1.55472C27.5398 1.49406 27.7793 1.42693 27.8843 1.40965M26.8367 1.84523L39.0373 7.71068C39.0373 7.71069 39.0374 7.7107 39.0374 7.71071C39.5289 8.63293 40.2447 9.40288 41.1578 9.98428L41.1578 9.9843C42.0538 10.5546 43.1323 10.941 44.3659 11.1148C45.7026 11.3034 46.8551 11.3466 47.8115 11.2793C48.9241 11.201 49.8427 10.8869 50.4317 10.5538L50.8692 10.3065L50.408 10.1068L49.5968 9.75546L49.5029 9.71482L49.4075 9.7516C48.9088 9.94381 48.5941 10.0181 47.7001 10.081C46.8654 10.1399 45.8273 10.1003 44.5883 9.92562C43.5647 9.78132 42.6914 9.46671 41.981 9.01447C41.2525 8.5505 40.6846 7.93731 40.2929 7.2027L40.2929 7.20261C40.2031 7.03436 40.1156 6.85878 40.0235 6.6704L40.0226 6.66872L40.0214 6.6663C39.6472 5.91539 39.1835 4.98488 38.3458 3.99037C37.2272 2.66221 35.7138 1.8085 33.8593 1.40209L33.8592 1.40208C32.1403 1.02562 30.1363 1.03726 27.8843 1.40965M26.8367 1.84523L26.7862 2.1829L27.9442 2.53763L28.003 2.55564L28.0634 2.54432C30.3375 2.11854 31.8873 2.21114 33.5166 2.56807L33.5166 2.56807C35.071 2.90856 36.3139 3.61743 37.2288 4.70372L37.2288 4.70373C37.9637 5.57619 38.3878 6.42308 38.7486 7.14347L38.7522 7.15062L26.8367 1.84523ZM27.8843 1.40965C27.8844 1.40964 27.8844 1.40964 27.8845 1.40963L27.925 1.65632M27.8843 1.40965C27.8843 1.40966 27.8843 1.40966 27.8842 1.40967L27.925 1.65632M27.925 1.65632C27.8267 1.67247 27.5568 1.74891 27.3081 1.81985L27.925 1.65632Z" fill="#1C2445" stroke="#1C2445" stroke-width="0.5"/>
<path id="Vector_25" d="M19.1726 1.84523L19.1392 1.70028C19.2054 1.68499 19.3564 1.64189 19.5324 1.5917C19.5745 1.57968 19.6181 1.56726 19.6622 1.55472C19.8757 1.49406 20.1153 1.42693 20.2203 1.40965M19.1726 1.84523L31.3733 7.71068C31.3733 7.71069 31.3733 7.7107 31.3733 7.71071C31.8648 8.63293 32.5806 9.40288 33.4938 9.98428L33.4938 9.9843C34.3897 10.5546 35.4682 10.941 36.7018 11.1148C38.0385 11.3034 39.1911 11.3466 40.1475 11.2793C41.26 11.201 42.1786 10.8869 42.7677 10.5538L43.2051 10.3065L42.744 10.1068L41.9327 9.75546L41.8389 9.71482L41.7435 9.7516C41.2448 9.94381 40.93 10.0181 40.0361 10.081C39.2014 10.1399 38.1633 10.1003 36.9242 9.92562C35.9007 9.78132 35.0273 9.46671 34.3169 9.01447C33.5885 8.5505 33.0205 7.93731 32.6289 7.2027L32.6288 7.20261C32.539 7.03436 32.4515 6.85878 32.3594 6.6704L32.3586 6.66872L32.3574 6.6663C31.9832 5.91539 31.5194 4.98488 30.6817 3.99037C29.5631 2.66221 28.0497 1.8085 26.1952 1.40209L26.1952 1.40208C24.4763 1.02562 22.4723 1.03726 20.2203 1.40965M19.1726 1.84523L19.1221 2.1829L20.2801 2.53763L20.3389 2.55564L20.3993 2.54432C22.6734 2.11854 24.2233 2.21114 25.8525 2.56807L25.8525 2.56807C27.4069 2.90856 28.6498 3.61743 29.5647 4.70372L29.5647 4.70373C30.2996 5.57619 30.7238 6.42308 31.0845 7.14347L31.0881 7.15062L19.1726 1.84523ZM20.2203 1.40965C20.2203 1.40964 20.2204 1.40964 20.2204 1.40963L20.2609 1.65632M20.2203 1.40965C20.2202 1.40966 20.2202 1.40966 20.2202 1.40967L20.2609 1.65632M20.2609 1.65632C20.1627 1.67247 19.8927 1.74891 19.644 1.81985L20.2609 1.65632Z" fill="#1C2445" stroke="#1C2445" stroke-width="0.5"/>
<path id="Vector_26" d="M11.5164 1.84523L11.4829 1.70028C11.5491 1.68499 11.7002 1.64189 11.8762 1.5917C11.9183 1.57968 11.9618 1.56726 12.006 1.55472C12.2195 1.49406 12.459 1.42693 12.564 1.40965M11.5164 1.84523L23.717 7.71068C23.717 7.71069 23.717 7.7107 23.717 7.71071C24.2085 8.63293 24.9244 9.40288 25.8375 9.98428L25.8375 9.9843C26.7335 10.5546 27.812 10.941 29.0456 11.1148C30.3823 11.3034 31.5348 11.3466 32.4912 11.2793C33.6038 11.201 34.5224 10.8869 35.1114 10.5538L35.5488 10.3065L35.0877 10.1068L34.2765 9.75546L34.1826 9.71482L34.0872 9.7516C33.5885 9.94381 33.2738 10.0181 32.3798 10.081C31.5451 10.1399 30.507 10.1003 29.268 9.92562C28.2444 9.78132 27.3711 9.46671 26.6606 9.01447C25.9322 8.5505 25.3643 7.93731 24.9726 7.2027L24.9726 7.20261C24.8828 7.03436 24.7953 6.85878 24.7032 6.6704L24.7023 6.66872L24.7011 6.6663C24.3269 5.91539 23.8632 4.98488 23.0255 3.99037C21.9068 2.66221 20.3935 1.8085 18.539 1.40209L18.5389 1.40208C16.82 1.02562 14.816 1.03726 12.564 1.40965M11.5164 1.84523L11.4658 2.1829L12.6239 2.53763L12.6826 2.55564L12.7431 2.54432C15.0172 2.11854 16.567 2.21114 18.1963 2.56807L18.1963 2.56807C19.7507 2.90856 20.9935 3.61743 21.9085 4.70372L21.9085 4.70373C22.6434 5.57619 23.0675 6.42308 23.4283 7.14347L23.4319 7.15062L11.5164 1.84523ZM12.564 1.40965C12.5641 1.40964 12.5641 1.40964 12.5642 1.40963L12.6047 1.65632M12.564 1.40965C12.564 1.40966 12.564 1.40966 12.5639 1.40967L12.6047 1.65632M12.6047 1.65632C12.5064 1.67247 12.2365 1.74891 11.9878 1.81985L12.6047 1.65632Z" fill="#1C2445" stroke="#1C2445" stroke-width="0.5"/>
<path id="Vector_27" d="M3.86015 1.84524L3.82666 1.70028C3.89287 1.68499 4.04394 1.64189 4.21991 1.5917C4.26203 1.57968 4.30557 1.56726 4.34973 1.55472C4.5632 1.49406 4.80277 1.42693 4.90779 1.40965M3.86015 1.84524L16.0608 7.71068C16.0608 7.71069 16.0608 7.7107 16.0608 7.71071C16.5523 8.63293 17.2681 9.40288 18.1813 9.98428L18.1813 9.9843C19.0772 10.5546 20.1557 10.941 21.3893 11.1148C22.726 11.3034 23.8786 11.3466 24.835 11.2793C25.9475 11.201 26.8661 10.8869 27.4552 10.5538L27.8926 10.3065L27.4315 10.1068L26.6202 9.75546L26.5264 9.71482L26.431 9.7516C25.9323 9.94381 25.6175 10.0181 24.7236 10.081C23.8889 10.1399 22.8508 10.1003 21.6117 9.92562C20.5882 9.78132 19.7148 9.46671 19.0044 9.01447C18.276 8.5505 17.708 7.93731 17.3164 7.2027L17.3163 7.20261C17.2265 7.03436 17.139 6.85878 17.0469 6.6704L17.0461 6.66872L17.0449 6.6663C16.6706 5.91539 16.2069 4.98488 15.3692 3.99037C14.2506 2.66221 12.7372 1.8085 10.8827 1.40209L10.8827 1.40208C9.16376 1.02562 7.15977 1.03726 4.90779 1.40965M3.86015 1.84524L3.80959 2.1829L4.9676 2.53763L5.02639 2.55564L5.08683 2.54432C7.3609 2.11854 8.91075 2.21114 10.54 2.56807L10.54 2.56807C12.0944 2.90856 13.3373 3.61743 14.2522 4.70372L14.2522 4.70373C14.9871 5.57619 15.4113 6.42308 15.772 7.14347L15.7756 7.15062L3.86015 1.84524ZM4.90779 1.40965C4.90783 1.40964 4.90787 1.40964 4.90791 1.40963L4.94845 1.65632M4.90779 1.40965C4.90774 1.40966 4.9077 1.40966 4.90766 1.40967L4.94845 1.65632M4.94845 1.65632C4.85016 1.67247 4.58022 1.74891 4.3315 1.81985L4.94845 1.65632Z" fill="#1C2445" stroke="#1C2445" stroke-width="0.5"/>
<path id="Vector_28" d="M3.8341 1.5477L4.16059 1.65261C5.60664 2.11729 6.77899 2.89035 7.70661 3.99173C8.54429 4.98623 9.008 5.91672 9.38221 6.66763L9.38343 6.67007L9.38426 6.67175L9.38426 6.67175C9.47638 6.86013 9.56388 7.03571 9.65366 7.20396L9.65371 7.20405C10.0454 7.93866 10.6133 8.55185 11.3417 9.01582C12.0522 9.46806 12.9255 9.78267 13.9491 9.92697L13.9142 10.1745L13.9491 9.92697C15.1881 10.1017 16.2262 10.1413 17.0609 10.0824L17.0609 10.0824C17.9549 10.0194 18.2696 9.94516 18.7683 9.75295L18.8637 9.71617L18.9576 9.75681L19.7688 10.1081L20.23 10.3078L19.7925 10.5552C19.2035 10.8882 18.2849 11.2023 17.1723 11.2807C16.2159 11.348 15.0634 11.3047 13.7267 11.1162C12.4931 10.9423 11.4146 10.556 10.5186 9.98565L10.5186 9.98563C9.6055 9.40423 8.88965 8.63428 8.39815 7.71206L3.8341 1.5477ZM3.8341 1.5477V1.70571M3.8341 1.5477V1.70571M3.8341 1.70571L2.75505 2.03551L1.84213 2.31453L2.77463 2.5188C4.3299 2.85949 5.67515 3.61937 6.58959 4.70507L6.5896 4.70508C7.3245 5.57754 7.74862 6.42443 8.10938 7.14481L8.11296 7.15197C8.11298 7.15201 8.113 7.15206 8.11303 7.1521C8.21145 7.3498 8.30662 7.54037 8.39814 7.71203L3.8341 1.70571Z" fill="#1C2445" stroke="#1C2445" stroke-width="0.5"/>
</g>
</svg>
