<svg width="60" height="60" viewBox="0 0 60 60" fill="none" xmlns="http://www.w3.org/2000/svg">
<path fill-rule="evenodd" clip-rule="evenodd" d="M6.18642 33.4185C6.37415 33.1559 6.67714 33 7 33H53C53.3229 33 53.6259 33.1559 53.8136 33.4185C54.0013 33.6812 54.0507 34.0184 53.9461 34.3238L48.4699 50.3238C48.3315 50.7283 47.9513 51 47.5238 51H18C17.4477 51 17 50.5523 17 50C17 49.4477 17.4477 49 18 49H46.8091L51.6008 35H8.39921L13.4223 49.6762C13.6011 50.1987 13.3225 50.7673 12.8 50.9461C12.2775 51.125 11.7089 50.8463 11.5301 50.3238L6.05388 34.3238C5.94933 34.0184 5.99869 33.6812 6.18642 33.4185Z" fill="currentColor"/>
<path fill-rule="evenodd" clip-rule="evenodd" d="M14 39C14 38.4477 14.4477 38 15 38H21C21.5523 38 22 38.4477 22 39C22 39.5523 21.5523 40 21 40H15C14.4477 40 14 39.5523 14 39Z" fill="currentColor"/>
<path fill-rule="evenodd" clip-rule="evenodd" d="M26 39C26 38.4477 26.4477 38 27 38H33C33.5523 38 34 38.4477 34 39C34 39.5523 33.5523 40 33 40H27C26.4477 40 26 39.5523 26 39Z" fill="currentColor"/>
<path fill-rule="evenodd" clip-rule="evenodd" d="M38 39C38 38.4477 38.4477 38 39 38H45C45.5523 38 46 38.4477 46 39C46 39.5523 45.5523 40 45 40H39C38.4477 40 38 39.5523 38 39Z" fill="currentColor"/>
<path fill-rule="evenodd" clip-rule="evenodd" d="M10 26C10 25.4477 10.4477 25 11 25H21C21.5523 25 22 25.4477 22 26V34C22 34.5523 21.5523 35 21 35H11C10.4477 35 10 34.5523 10 34V26ZM12 27V33H20V27H12Z" fill="currentColor"/>
<path fill-rule="evenodd" clip-rule="evenodd" d="M20 26C20 25.4477 20.4477 25 21 25H31C31.5523 25 32 25.4477 32 26V34C32 34.5523 31.5523 35 31 35H21C20.4477 35 20 34.5523 20 34V26ZM22 27V33H30V27H22Z" fill="currentColor"/>
<path fill-rule="evenodd" clip-rule="evenodd" d="M30 26C30 25.4477 30.4477 25 31 25H41C41.5523 25 42 25.4477 42 26V34C42 34.5523 41.5523 35 41 35H31C30.4477 35 30 34.5523 30 34V26ZM32 27V33H40V27H32Z" fill="currentColor"/>
<path fill-rule="evenodd" clip-rule="evenodd" d="M10 18C10 17.4477 10.4477 17 11 17H21C21.5523 17 22 17.4477 22 18V26C22 26.5523 21.5523 27 21 27H11C10.4477 27 10 26.5523 10 26V18ZM12 19V25H20V19H12Z" fill="currentColor"/>
<path fill-rule="evenodd" clip-rule="evenodd" d="M20 18C20 17.4477 20.4477 17 21 17H31C31.5523 17 32 17.4477 32 18V26C32 26.5523 31.5523 27 31 27H21C20.4477 27 20 26.5523 20 26V18ZM22 19V25H30V19H22Z" fill="currentColor"/>
<path fill-rule="evenodd" clip-rule="evenodd" d="M10 10C10 9.44772 10.4477 9 11 9H21C21.5523 9 22 9.44772 22 10V18C22 18.5523 21.5523 19 21 19H11C10.4477 19 10 18.5523 10 18V10ZM12 11V17H20V11H12Z" fill="currentColor"/>
<path fill-rule="evenodd" clip-rule="evenodd" d="M20 10C20 9.44772 20.4477 9 21 9H31C31.5523 9 32 9.44772 32 10V18C32 18.5523 31.5523 19 31 19H21C20.4477 19 20 18.5523 20 18V10ZM22 11V17H30V11H22Z" fill="currentColor"/>
<path fill-rule="evenodd" clip-rule="evenodd" d="M30 18C30 17.4477 30.4477 17 31 17H41C41.5523 17 42 17.4477 42 18V26C42 26.5523 41.5523 27 41 27H31C30.4477 27 30 26.5523 30 26V18ZM32 19V25H40V19H32Z" fill="currentColor"/>
</svg>
