<svg width="60" height="60" viewBox="0 0 60 60" fill="none" xmlns="http://www.w3.org/2000/svg">
<g clip-path="url(#clip0_18433_119815)">
<path fill-rule="evenodd" clip-rule="evenodd" d="M30 19C27.7909 19 26 20.7909 26 23C26 25.2091 27.7909 27 30 27C32.2091 27 34 25.2091 34 23C34 20.7909 32.2091 19 30 19ZM24 23C24 19.6863 26.6863 17 30 17C33.3137 17 36 19.6863 36 23C36 26.3137 33.3137 29 30 29C26.6863 29 24 26.3137 24 23Z" fill="currentColor"/>
<path fill-rule="evenodd" clip-rule="evenodd" d="M37.0711 14.5147C37.4616 14.1242 38.0948 14.1242 38.4853 14.5147C43.1716 19.201 43.1716 26.799 38.4853 31.4853C38.0948 31.8758 37.4616 31.8758 37.0711 31.4853C36.6805 31.0948 36.6805 30.4616 37.0711 30.0711C40.9763 26.1658 40.9763 19.8342 37.0711 15.9289C36.6805 15.5384 36.6805 14.9053 37.0711 14.5147ZM22.9289 14.5147C23.3195 14.9053 23.3195 15.5384 22.9289 15.9289C19.0237 19.8342 19.0237 26.1658 22.9289 30.0711C23.3195 30.4616 23.3195 31.0948 22.9289 31.4853C22.5384 31.8758 21.9052 31.8758 21.5147 31.4853C16.8284 26.799 16.8284 19.201 21.5147 14.5147C21.9052 14.1242 22.5384 14.1242 22.9289 14.5147Z" fill="currentColor"/>
<path fill-rule="evenodd" clip-rule="evenodd" d="M19.2072 12.3934C13.3493 18.2513 13.3493 27.7487 19.2072 33.6066C19.5977 33.9971 19.5977 34.6303 19.2072 35.0208C18.8166 35.4113 18.1835 35.4113 17.7929 35.0208C11.154 28.3819 11.154 17.6181 17.7929 10.9792C18.1835 10.5887 18.8166 10.5887 19.2072 10.9792C19.5977 11.3697 19.5977 12.0029 19.2072 12.3934ZM41.2928 10.9792C41.6834 10.5887 42.3165 10.5887 42.707 10.9792C49.346 17.6181 49.346 28.3819 42.707 35.0208C42.3165 35.4113 41.6834 35.4113 41.2928 35.0208C40.9023 34.6303 40.9023 33.9971 41.2928 33.6066C47.1507 27.7487 47.1507 18.2513 41.2928 12.3934C40.9023 12.0029 40.9023 11.3697 41.2928 10.9792Z" fill="currentColor"/>
<path fill-rule="evenodd" clip-rule="evenodd" d="M15.2071 8.20709C7.03718 16.377 7.03718 29.623 15.2071 37.7929C15.5976 38.1834 15.5976 38.8166 15.2071 39.2071C14.8165 39.5976 14.1834 39.5976 13.7929 39.2071C4.84191 30.2562 4.84191 15.7438 13.7929 6.79288C14.1834 6.40236 14.8165 6.40236 15.2071 6.79288C15.5976 7.18341 15.5976 7.81657 15.2071 8.20709ZM44.7929 6.79288C45.1834 6.40236 45.8166 6.40236 46.2071 6.79288C55.158 15.7438 55.158 30.2562 46.2071 39.2071C45.8166 39.5976 45.1834 39.5976 44.7929 39.2071C44.4024 38.8166 44.4024 38.1834 44.7929 37.7929C52.9628 29.623 52.9628 16.377 44.7929 8.20709C44.4024 7.81657 44.4024 7.1834 44.7929 6.79288Z" fill="currentColor"/>
<path fill-rule="evenodd" clip-rule="evenodd" d="M30 27C30.5523 27 31 27.4477 31 28V53C31 53.5523 30.5523 54 30 54C29.4477 54 29 53.5523 29 53V28C29 27.4477 29.4477 27 30 27Z" fill="currentColor"/>
</g>
<defs>
<clipPath id="clip0_18433_119815">
<rect width="60" height="60" fill="currentColor"/>
</clipPath>
</defs>
</svg>
