<svg width="23" height="18" viewBox="0 0 23 18" fill="none" xmlns="http://www.w3.org/2000/svg">
<path d="M19.9647 4.52578C20.7934 3.90423 21.5393 3.15837 22.1194 2.28821C21.3736 2.6197 20.5034 2.86832 19.6332 2.95119C20.5448 2.41252 21.2078 1.58378 21.5393 0.547869C20.7106 1.04511 19.7575 1.41804 18.8045 1.62522C17.9758 0.755052 16.857 0.257812 15.6139 0.257812C13.2105 0.257812 11.263 2.20533 11.263 4.60866C11.263 4.94015 11.3045 5.27164 11.3873 5.60313C7.78235 5.39595 4.5503 3.65561 2.39559 1.04511C2.02266 1.66666 1.81548 2.41252 1.81548 3.24125C1.81548 4.73297 2.56134 6.05894 3.763 6.84623C3.05858 6.8048 2.35416 6.63905 1.77404 6.30756V6.34899C1.77404 8.46226 3.26576 10.2026 5.25472 10.617C4.92323 10.6998 4.50886 10.7827 4.13593 10.7827C3.84587 10.7827 3.59726 10.7413 3.3072 10.6998C3.84587 12.4402 5.4619 13.6833 7.36799 13.7247C5.87627 14.8849 4.01162 15.5894 1.98123 15.5894C1.6083 15.5894 1.27681 15.5479 0.945312 15.5065C2.8514 16.7496 5.13041 17.454 7.61661 17.454C15.6139 17.454 19.9647 10.8656 19.9647 5.10589C19.9647 4.89871 19.9647 4.73297 19.9647 4.52578Z" fill="currentColor"/>
</svg>
