<svg width="28" height="28" viewBox="0 0 28 28" fill="none" xmlns="http://www.w3.org/2000/svg">
<g clip-path="url(#clip0_18977_120320)">
<path d="M22.0696 9.28117C22.9005 8.6577 23.6484 7.90953 24.23 7.03667C23.4822 7.36919 22.6097 7.61858 21.7372 7.70171C22.6513 7.16137 23.316 6.33007 23.6484 5.29095C22.8174 5.78973 21.8619 6.16381 20.9063 6.37164C20.0754 5.49878 18.9537 5 17.7073 5C15.2976 5 13.345 6.95354 13.345 9.3643C13.345 9.69682 13.3865 10.0293 13.4696 10.3619C9.85509 10.154 6.6145 8.40831 4.45411 5.78973C4.0802 6.4132 3.87247 7.16137 3.87247 7.99266C3.87247 9.48899 4.62029 10.8191 5.82513 11.6088C5.11885 11.5672 4.41256 11.401 3.83092 11.0685V11.11C3.83092 13.2298 5.32658 14.9755 7.32078 15.3912C6.98841 15.4743 6.57296 15.5574 6.19904 15.5574C5.90822 15.5574 5.65894 15.5159 5.36812 15.4743C5.90822 17.22 7.52851 18.467 9.43963 18.5085C7.94397 19.6724 6.0744 20.379 4.03865 20.379C3.66474 20.379 3.33237 20.3374 3 20.2958C4.91112 21.5428 7.19614 22.2494 9.6889 22.2494C17.7073 22.2494 22.0696 15.6406 22.0696 9.86308C22.0696 9.65525 22.0696 9.48899 22.0696 9.28117Z" fill="currentColor"/>
</g>
<defs>
<clipPath id="clip0_18977_120320">
<rect width="28" height="28" fill="currentColor"/>
</clipPath>
</defs>
</svg>
